<?xml version="1.0" encoding="utf-8" standalone="no"?>
<!DOCTYPE svg PUBLIC "-//W3C//DTD SVG 1.1//EN"
  "http://www.w3.org/Graphics/SVG/1.1/DTD/svg11.dtd">
<!-- Created with matplotlib (http://matplotlib.org/) -->
<svg height="188pt" version="1.1" viewBox="0 0 356 188" width="356pt" xmlns="http://www.w3.org/2000/svg" xmlns:xlink="http://www.w3.org/1999/xlink">
 <defs>
  <style type="text/css">
*{stroke-linecap:butt;stroke-linejoin:round;}
  </style>
 </defs>
 <g id="figure_1">
  <g id="patch_1">
   <path d="M 0 188.8 
L 356.2 188.8 
L 356.2 0 
L 0 0 
z
" style="fill:none;"/>
  </g>
  <g id="axes_1">
   <g id="patch_2">
    <path d="M 178.1 170.490909 
L 178.1 170.490909 
L 160.955449 170.006498 
L 150.940484 169.26933 
L 142.599964 168.391644 
L 135.218108 167.407618 
L 128.498782 166.335779 
L 122.283541 165.188115 
L 116.475361 163.97318 
L 111.009579 162.697477 
L 105.840516 161.366172 
L 100.934496 159.983517 
L 96.265875 158.553102 
L 91.814621 157.078025 
L 87.564762 155.56101 
L 83.503348 154.004486 
L 79.61973 152.410651 
L 75.905053 150.78151 
L 72.351875 149.118918 
L 68.95389 147.424599 
L 65.705717 145.700173 
L 62.602733 143.947167 
L 59.640948 142.167036 
L 56.816897 140.361165 
L 54.127562 138.530886 
L 51.570305 136.677482 
L 49.142812 134.802195 
L 46.843051 132.90623 
L 44.669227 130.99076 
L 42.619762 129.056929 
L 40.693259 127.105861 
L 38.888483 125.138654 
L 37.204344 123.15639 
L 35.639876 121.160133 
L 34.194229 119.150934 
L 32.866653 117.12983 
L 31.656488 115.097848 
L 30.563158 113.056004 
L 29.586159 111.005307 
L 28.725058 108.946756 
L 27.979483 106.881348 
L 27.349121 104.81007 
L 26.833713 102.733908 
L 26.43305 100.653842 
L 26.146975 98.570852 
L 25.975375 96.485913 
L 25.918182 94.4 
L 25.975375 92.314087 
L 26.146975 90.229148 
L 26.43305 88.146158 
L 26.833713 86.066092 
L 27.349121 83.98993 
L 27.979483 81.918652 
L 28.725058 79.853244 
L 29.586159 77.794693 
L 30.563158 75.743996 
L 31.656488 73.702152 
L 32.866653 71.67017 
L 34.194229 69.649066 
L 35.639876 67.639867 
L 37.204344 65.64361 
L 38.888483 63.661346 
L 40.693259 61.694139 
L 42.619762 59.743071 
L 44.669227 57.80924 
L 46.843051 55.89377 
L 49.142812 53.997805 
L 51.570305 52.122518 
L 54.127562 50.269114 
L 56.816897 48.438835 
L 59.640948 46.632964 
L 62.602733 44.852833 
L 65.705717 43.099827 
L 68.95389 41.375401 
L 72.351875 39.681082 
L 75.905053 38.01849 
L 79.61973 36.389349 
L 83.503348 34.795514 
L 87.564762 33.23899 
L 91.814621 31.721975 
L 96.265875 30.246898 
L 100.934496 28.816483 
L 105.840516 27.433828 
L 111.009579 26.102523 
L 116.475361 24.82682 
L 122.283541 23.611885 
L 128.498782 22.464221 
L 135.218108 21.392382 
L 142.599964 20.408356 
L 150.940484 19.53067 
L 160.955449 18.793502 
L 178.1 18.309091 
L 178.1 18.309091 
L 195.244551 18.793502 
L 205.259516 19.53067 
L 213.600036 20.408356 
L 220.981892 21.392382 
L 227.701218 22.464221 
L 233.916459 23.611885 
L 239.724639 24.82682 
L 245.190421 26.102523 
L 250.359484 27.433828 
L 255.265504 28.816483 
L 259.934125 30.246898 
L 264.385379 31.721975 
L 268.635238 33.23899 
L 272.696652 34.795514 
L 276.58027 36.389349 
L 280.294947 38.01849 
L 283.848125 39.681082 
L 287.24611 41.375401 
L 290.494283 43.099827 
L 293.597267 44.852833 
L 296.559052 46.632964 
L 299.383103 48.438835 
L 302.072438 50.269114 
L 304.629695 52.122518 
L 307.057188 53.997805 
L 309.356949 55.89377 
L 311.530773 57.80924 
L 313.580238 59.743071 
L 315.506741 61.694139 
L 317.311517 63.661346 
L 318.995656 65.64361 
L 320.560124 67.639867 
L 322.005771 69.649066 
L 323.333347 71.67017 
L 324.543512 73.702152 
L 325.636842 75.743996 
L 326.613841 77.794693 
L 327.474942 79.853244 
L 328.220517 81.918652 
L 328.850879 83.98993 
L 329.366287 86.066092 
L 329.76695 88.146158 
L 330.053025 90.229148 
L 330.224625 92.314087 
L 330.281818 94.4 
L 330.224625 96.485913 
L 330.053025 98.570852 
L 329.76695 100.653842 
L 329.366287 102.733908 
L 328.850879 104.81007 
L 328.220517 106.881348 
L 327.474942 108.946756 
L 326.613841 111.005307 
L 325.636842 113.056004 
L 324.543512 115.097848 
L 323.333347 117.12983 
L 322.005771 119.150934 
L 320.560124 121.160133 
L 318.995656 123.15639 
L 317.311517 125.138654 
L 315.506741 127.105861 
L 313.580238 129.056929 
L 311.530773 130.99076 
L 309.356949 132.90623 
L 307.057188 134.802195 
L 304.629695 136.677482 
L 302.072438 138.530886 
L 299.383103 140.361165 
L 296.559052 142.167036 
L 293.597267 143.947167 
L 290.494283 145.700173 
L 287.24611 147.424599 
L 283.848125 149.118918 
L 280.294947 150.78151 
L 276.58027 152.410651 
L 272.696652 154.004486 
L 268.635238 155.56101 
L 264.385379 157.078025 
L 259.934125 158.553102 
L 255.265504 159.983517 
L 250.359484 161.366172 
L 245.190421 162.697477 
L 239.724639 163.97318 
L 233.916459 165.188115 
L 227.701218 166.335779 
L 220.981892 167.407618 
L 213.600036 168.391644 
L 205.259516 169.26933 
L 195.244551 170.006498 
L 178.1 170.490909 
" style="fill:#ffffff;"/>
   </g>
   <g id="PathCollection_1">
    <path clip-path="url(#p59d44970d6)" d="M 267.581219 155.937249 
L 268.103949 155.648266 
L 268.663326 155.33659 
L 269.223053 155.021888 
L 269.782728 154.704278 
L 270.341972 154.383876 
L 270.900435 154.060796 
L 271.45779 153.735147 
L 272.01373 153.407038 
L 272.567972 153.076573 
L 273.120251 152.743855 
L 273.670321 152.408983 
L 274.217953 152.072057 
L 274.762934 151.733171 
L 275.305066 151.392419 
L 275.844166 151.049891 
L 276.380065 150.705678 
L 276.912604 150.359867 
L 277.441638 150.012541 
L 277.967033 149.663786 
L 278.488664 149.313681 
L 279.006419 148.962307 
L 279.520191 148.609742 
L 280.029886 148.25606 
L 280.535414 147.901336 
L 281.036697 147.545643 
L 281.533662 147.189052 
L 282.026242 146.831631 
L 282.51438 146.473449 
L 282.99802 146.11457 
L 283.477118 145.75506 
L 283.95163 145.394982 
L 284.42152 145.034396 
L 284.886757 144.673362 
L 285.347314 144.31194 
L 285.803167 143.950185 
L 286.2543 143.588154 
L 286.700696 143.2259 
L 287.142345 142.863476 
L 287.57924 142.500933 
L 288.011377 142.138323 
L 288.438755 141.775692 
L 288.861376 141.413089 
L 289.279244 141.05056 
L 289.692367 140.688149 
L 290.100755 140.325901 
L 290.504419 139.963857 
L 290.903376 139.602058 
L 291.29764 139.240545 
L 291.68723 138.879356 
L 292.072167 138.518529 
L 292.452472 138.158101 
L 292.828169 137.798106 
L 293.199284 137.438579 
L 293.565842 137.079553 
L 293.927871 136.721059 
L 294.285401 136.36313 
L 294.638462 136.005795 
L 294.987085 135.649083 
L 295.331302 135.293022 
L 295.671147 134.937638 
L 296.006654 134.582959 
L 296.337857 134.229008 
L 296.664794 133.87581 
L 296.987498 133.523389 
L 297.306009 133.171766 
L 297.620363 132.820963 
L 297.930598 132.471 
L 298.236753 132.121898 
L 298.538867 131.773674 
L 298.836979 131.426348 
L 299.131128 131.079936 
L 299.421355 130.734455 
L 299.7077 130.389921 
L 299.990203 130.046349 
L 300.268904 129.703752 
L 300.543844 129.362145 
L 300.815065 129.02154 
L 301.082607 128.68195 
L 301.34651 128.343386 
L 301.606816 128.005859 
L 301.863566 127.669378 
L 302.1168 127.333955 
L 302.366559 126.999598 
L 302.612885 126.666314 
L 302.855818 126.334113 
L 303.095397 126.003001 
L 303.331665 125.672986 
L 303.564661 125.344072 
L 303.794424 125.016267 
L 304.020996 124.689575 
L 304.244415 124.364001 
L 304.464721 124.03955 
L 304.681954 123.716224 
L 304.896151 123.394028 
L 305.107353 123.072964 
L 305.315598 122.753035 
L 305.520923 122.434242 
L 305.723366 122.116588 
L 305.922966 121.800074 
L 306.119759 121.484701 
L 306.313783 121.170469 
L 306.505074 120.857378 
L 306.693669 120.545429 
L 306.879603 120.23462 
L 307.062912 119.924951 
L 307.243632 119.616421 
L 307.421797 119.309029 
L 307.597442 119.002772 
L 307.770602 118.697649 
L 307.941311 118.393657 
L 308.109601 118.090795 
L 308.275507 117.789058 
L 308.439061 117.488445 
L 308.600296 117.188951 
L 308.759243 116.890574 
L 308.915935 116.59331 
L 309.070402 116.297155 
L 309.222677 116.002104 
L 309.372789 115.708154 
L 309.520769 115.415299 
L 309.666647 115.123536 
L 309.810452 114.832859 
L 309.952214 114.543263 
L 310.091961 114.254744 
L 310.229722 113.967295 
L 310.365525 113.680912 
L 310.499398 113.395588 
L 310.631368 113.111318 
L 310.761461 112.828097 
L 310.889706 112.545917 
L 311.016128 112.264774 
L 311.140752 111.98466 
L 311.263605 111.705569 
L 311.384712 111.427495 
L 311.504098 111.150432 
L 311.621788 110.874372 
L 311.737805 110.599309 
L 311.852173 110.325236 
L 311.964916 110.052147 
L 312.076058 109.780033 
L 312.185621 109.508889 
L 312.293628 109.238707 
L 312.400101 108.96948 
L 312.505061 108.701201 
L 312.608532 108.433862 
L 312.710533 108.167457 
L 312.811086 107.901977 
L 312.910212 107.637415 
L 313.007931 107.373764 
L 313.104263 107.111017 
L 313.199228 106.849165 
L 313.292845 106.588201 
L 313.385134 106.328118 
L 313.476113 106.068908 
L 313.565802 105.810563 
L 313.654219 105.553076 
L 313.741381 105.296439 
L 313.827306 105.040644 
L 313.912013 104.785683 
L 313.995518 104.531549 
L 314.077838 104.278233 
L 314.158991 104.025729 
L 314.238992 103.774028 
L 314.317859 103.523123 
L 314.395606 103.273006 
L 314.47225 103.023668 
L 314.547806 102.775103 
L 314.62229 102.527302 
L 314.695716 102.280258 
L 314.7681 102.033963 
L 314.839456 101.788408 
L 314.909799 101.543587 
L 314.979142 101.299492 
L 315.047499 101.056114 
L 315.114885 100.813446 
L 315.181312 100.571481 
L 315.246794 100.330211 
L 315.311345 100.089627 
L 315.374976 99.849722 
L 315.437701 99.61049 
L 315.499532 99.371921 
L 315.560482 99.134008 
L 315.620562 98.896744 
L 315.679784 98.660122 
L 315.738161 98.424133 
L 315.795703 98.18877 
L 315.852423 97.954026 
L 315.90833 97.719892 
L 315.963437 97.486363 
L 316.017753 97.253429 
L 316.071291 97.021085 
L 316.12406 96.789321 
L 316.17607 96.558132 
L 316.227332 96.32751 
L 316.277855 96.097447 
L 316.32765 95.867936 
L 316.376727 95.63897 
L 316.425094 95.410541 
L 316.472762 95.182643 
L 316.519739 94.955269 
L 316.566034 94.728411 
L 316.611658 94.502062 
L 316.656617 94.276215 
L 316.700922 94.050863 
L 316.74458 93.826 
L 316.787601 93.601617 
L 316.829992 93.377709 
L 316.871762 93.154268 
L 316.912918 92.931288 
L 316.953468 92.708762 
L 316.993422 92.486682 
L 317.032785 92.265043 
L 317.071566 92.043838 
L 317.109772 91.823059 
L 317.14741 91.602701 
L 317.184488 91.382756 
L 317.221013 91.163218 
L 317.256992 90.944082 
L 317.292431 90.725339 
L 317.327338 90.506984 
L 317.36172 90.28901 
L 317.395582 90.071412 
L 317.428932 89.854182 
L 317.461776 89.637314 
L 317.49412 89.420803 
L 317.525971 89.204641 
L 317.557334 88.988824 
L 317.588216 88.773344 
L 317.618623 88.558196 
L 317.64856 88.343373 
L 317.678034 88.128871 
L 317.707051 87.914682 
L 317.707051 87.914682 
L 317.735615 87.700801 
L 317.763733 87.487221 
L 317.79141 87.273938 
L 317.818652 87.060946 
L 317.845464 86.848238 
L 317.871851 86.635809 
L 317.897819 86.423654 
L 317.923373 86.211767 
L 317.948518 86.000142 
L 317.97326 85.788773 
L 317.997602 85.577657 
L 318.021551 85.366786 
L 318.045111 85.156156 
L 318.068287 84.945762 
L 318.091084 84.735597 
L 318.113507 84.525658 
L 318.13556 84.315939 
L 318.157249 84.106434 
L 318.178577 83.89714 
L 318.19955 83.68805 
L 318.220172 83.47916 
L 318.240448 83.270465 
L 318.260383 83.061961 
L 318.27998 82.853642 
L 318.299244 82.645504 
L 318.318181 82.437542 
L 318.336793 82.229752 
L 318.355086 82.022129 
L 318.373065 81.814669 
L 318.390733 81.607367 
L 318.408095 81.40022 
L 318.425155 81.193222 
L 318.441918 80.986369 
L 318.458388 80.779658 
L 318.47457 80.573085 
L 318.490467 80.366645 
L 318.506085 80.160335 
L 318.521427 79.95415 
L 318.536498 79.748088 
L 318.551303 79.542143 
L 318.565846 79.336314 
L 318.580131 79.130595 
L 318.594163 78.924985 
L 318.607946 78.719478 
L 318.621485 78.514073 
L 318.634784 78.308766 
L 318.647849 78.103553 
L 318.660683 77.898432 
L 318.673292 77.6934 
L 318.68568 77.488454 
L 318.697851 77.283591 
L 318.709812 77.078808 
L 318.721566 76.874104 
L 318.733118 76.669475 
L 318.744475 76.464919 
L 318.75564 76.260434 
L 318.766619 76.056018 
L 318.777417 75.851669 
L 318.78804 75.647385 
L 318.798493 75.443164 
L 318.808781 75.239004 
L 318.81891 75.034904 
L 318.828887 74.830863 
L 318.838716 74.626878 
L 318.848404 74.422949 
L 318.857957 74.219076 
L 318.867381 74.015256 
L 318.876682 73.811489 
L 318.885867 73.607775 
L 318.894943 73.404113 
L 318.903917 73.200502 
L 318.912795 72.996943 
L 318.921584 72.793436 
L 318.930293 72.589979 
L 318.938927 72.386575 
L 318.947496 72.183223 
L 318.956007 71.979924 
L 318.964468 71.776679 
L 318.972887 71.573489 
L 318.981273 71.370354 
L 318.989635 71.167276 
L 318.997982 70.964258 
L 319.006323 70.7613 
L 319.014668 70.558404 
L 319.023026 70.355573 
L 319.031408 70.152809 
L 319.039823 69.950114 
L 319.048283 69.747492 
L 319.056799 69.544945 
L 319.065382 69.342478 
L 319.074044 69.140092 
L 319.082796 68.937792 
L 319.091652 68.735582 
L 319.100623 68.533467 
L 319.109724 68.33145 
L 319.118968 68.129537 
L 319.128368 67.927732 
L 319.137939 67.726041 
L 319.147697 67.524471 
L 319.157656 67.323025 
L 319.167833 67.121712 
L 319.178243 66.920537 
L 319.188903 66.719507 
L 319.199832 66.51863 
L 319.211046 66.317913 
L 319.222565 66.117364 
L 36.999195 65.916991 
L 37.335949 65.716803 
L 37.675399 65.516809 
L 38.017554 65.317017 
L 38.362419 65.117439 
L 38.710001 64.918083 
L 39.060305 64.71896 
L 39.413338 64.520082 
L 39.769104 64.321459 
L 40.127606 64.123103 
L 40.48885 63.925027 
L 40.852839 63.727242 
L 41.219574 63.529763 
L 41.589059 63.332602 
L 41.961295 63.135774 
L 42.336282 62.939293 
L 42.714021 62.743174 
L 43.094511 62.547432 
L 43.47775 62.352083 
L 43.863738 62.157145 
L 44.25247 61.962633 
L 44.643943 61.768566 
L 45.038153 61.574961 
L 45.435094 61.381837 
L 45.834759 61.189213 
L 46.237141 60.99711 
L 46.642232 60.805547 
L 47.050022 60.614546 
L 47.460501 60.424127 
L 47.873657 60.234314 
L 48.289477 60.045128 
L 48.707948 59.856594 
L 49.129054 59.668735 
L 49.55278 59.481577 
L 49.979107 59.295144 
L 50.408016 59.109463 
L 50.839488 58.92456 
L 51.273501 58.740462 
L 51.710031 58.557199 
L 52.149053 58.374798 
L 52.590543 58.193289 
L 53.034472 58.012702 
L 53.480812 57.833069 
L 53.929531 57.65442 
L 54.380597 57.476789 
L 54.833976 57.300208 
L 55.289632 57.124712 
L 55.747528 56.950334 
L 56.207625 56.77711 
L 56.669882 56.605077 
L 57.134255 56.43427 
L 57.6007 56.264729 
L 58.069171 56.09649 
L 58.539619 55.929593 
L 59.011994 55.764078 
L 59.486242 55.599985 
L 59.962311 55.437356 
L 60.440144 55.276233 
L 60.919682 55.116658 
L 61.400865 54.958675 
L 61.883631 54.802329 
L 62.367916 54.647663 
L 62.853653 54.494724 
L 63.340774 54.343558 
L 63.829209 54.194212 
L 64.318884 54.046733 
L 64.809727 53.90117 
L 65.301661 53.757572 
L 65.794606 53.615987 
L 66.288484 53.476466 
L 66.783212 53.33906 
L 67.278705 53.203819 
L 67.774879 53.070795 
L 68.271645 52.940041 
L 68.768914 52.811608 
L 69.266596 52.685549 
L 69.764596 52.561919 
L 70.262821 52.44077 
L 70.761176 52.322156 
L 71.259562 52.206132 
L 71.757882 52.092752 
L 72.256036 51.98207 
L 72.753921 51.874141 
L 73.251438 51.76902 
L 73.748481 51.666762 
L 74.244948 51.567422 
L 74.740733 51.471053 
L 75.235731 51.377712 
L 75.729837 51.287452 
L 76.222943 51.200327 
L 76.714944 51.116391 
L 77.205732 51.035698 
L 77.695201 50.958301 
L 78.183244 50.884253 
L 78.669754 50.813605 
L 79.154627 50.746409 
L 79.637756 50.682715 
L 80.119037 50.622574 
L 80.598366 50.566035 
L 81.075641 50.513146 
L 81.550759 50.463954 
L 82.023621 50.418506 
L 82.494128 50.376847 
L 82.962184 50.339021 
L 83.427692 50.30507 
L 83.890559 50.275037 
L 84.350695 50.248961 
L 84.808009 50.226881 
L 85.262417 50.208834 
L 85.713832 50.194856 
L 86.162175 50.184981 
L 86.607366 50.17924 
L 87.04933 50.177666 
L 87.487993 50.180286 
L 87.923286 50.187128 
L 88.355142 50.198216 
L 88.783498 50.213574 
L 89.208294 50.233222 
L 89.629474 50.25718 
L 90.046984 50.285464 
L 90.460775 50.31809 
L 90.870801 50.35507 
L 91.27702 50.396415 
L 91.679393 50.442132 
L 92.077886 50.492229 
L 92.472466 50.546709 
L 92.863107 50.605573 
L 93.249785 50.668821 
L 93.632479 50.73645 
L 94.011173 50.808455 
L 94.385854 50.884828 
L 94.756512 50.96556 
L 95.123142 51.050638 
L 95.48574 51.140049 
L 95.844308 51.233775 
L 96.198849 51.331799 
L 96.549371 51.434099 
L 96.895885 51.540652 
L 97.238403 51.651434 
L 97.576942 51.766417 
L 97.911521 51.885572 
L 98.242162 52.008868 
L 98.568889 52.136271 
L 98.89173 52.267747 
L 99.210713 52.403258 
L 99.525869 52.542767 
L 99.837234 52.686232 
L 100.144841 52.833611 
L 100.448729 52.984861 
L 100.748937 53.139936 
L 101.045505 53.298789 
L 101.338477 53.461373 
L 101.627895 53.627636 
L 101.913805 53.797529 
L 102.196253 53.970999 
L 102.475286 54.147992 
L 102.750952 54.328454 
L 103.023301 54.51233 
L 103.292381 54.699562 
L 103.558243 54.890094 
L 103.820938 55.083866 
L 104.080517 55.280821 
L 104.337031 55.480897 
L 104.590531 55.684035 
L 104.84107 55.890174 
L 105.0887 56.099251 
L 105.333471 56.311206 
L 105.575436 56.525975 
L 105.814646 56.743496 
L 106.051152 56.963706 
L 106.285006 57.186543 
L 106.516256 57.411941 
L 106.744955 57.63984 
L 106.971151 57.870174 
L 107.194893 58.10288 
L 107.41623 58.337897 
L 107.63521 58.575159 
L 107.85188 58.814605 
L 108.066286 59.056172 
L 108.278474 59.299797 
L 108.488491 59.545418 
L 108.696378 59.792973 
L 108.902182 60.042402 
L 109.105943 60.293643 
L 109.307705 60.546636 
L 109.507508 60.801322 
L 109.705393 61.057639 
L 109.901398 61.315532 
L 110.095564 61.57494 
L 110.287927 61.835806 
L 110.478524 62.098075 
L 110.667391 62.361689 
L 110.854564 62.626593 
L 111.040077 62.892733 
L 111.223964 63.160056 
L 111.406257 63.428506 
L 111.586987 63.698034 
L 111.766187 63.968586 
L 111.943885 64.240113 
L 112.120113 64.512565 
L 112.294897 64.785893 
L 112.468266 65.060048 
L 112.640247 65.334984 
L 112.810867 65.610654 
L 112.980151 65.887014 
L 113.148123 66.164017 
L 113.314808 66.441622 
L 113.480229 66.719784 
L 113.64441 66.998463 
L 113.807372 67.277617 
L 113.969136 67.557207 
L 114.129723 67.837193 
L 114.289155 68.117537 
L 114.447449 68.398203 
L 114.604626 68.679153 
L 114.760703 68.960352 
L 114.915699 69.241765 
L 115.069631 69.523359 
L 115.222516 69.805102 
L 115.37437 70.08696 
L 115.525209 70.368904 
L 115.675048 70.650902 
L 115.823902 70.932926 
L 115.971787 71.214946 
L 116.118715 71.496936 
L 116.2647 71.778868 
L 116.409756 72.060716 
L 116.553896 72.342455 
L 116.697131 72.62406 
L 116.839475 72.905509 
L 116.980938 73.186777 
L 117.121533 73.467843 
L 117.26127 73.748685 
L 117.40016 74.029283 
L 117.538214 74.309616 
L 117.675441 74.589666 
L 117.811853 74.869414 
L 117.947457 75.148841 
L 118.082265 75.427932 
L 118.216284 75.706669 
L 118.349524 75.985036 
L 118.481994 76.263018 
L 118.613702 76.540601 
L 118.744655 76.81777 
L 118.874863 77.094513 
L 119.004333 77.370816 
L 119.133073 77.646667 
L 119.26109 77.922054 
L 119.388392 78.196967 
L 119.514985 78.471395 
L 119.640877 78.745327 
L 119.766074 79.018755 
L 119.890583 79.291668 
L 120.014412 79.564059 
L 120.137565 79.83592 
L 120.26005 80.107243 
L 120.381872 80.37802 
L 120.503038 80.648245 
L 120.623553 80.917913 
L 120.743424 81.187016 
L 120.862656 81.45555 
L 120.981254 81.72351 
L 121.099225 81.99089 
L 121.216574 82.257688 
L 121.333305 82.523898 
L 121.449425 82.789517 
L 121.564939 83.054543 
L 121.67985 83.318972 
L 121.794166 83.582802 
L 121.90789 83.846031 
L 122.021028 84.108656 
L 122.133583 84.370678 
L 122.245562 84.632093 
L 122.356969 84.892901 
L 122.467808 85.153102 
L 122.578084 85.412695 
L 122.687802 85.67168 
L 122.796966 85.930057 
L 122.90558 86.187827 
L 123.013649 86.44499 
L 123.121178 86.701547 
L 123.22817 86.957498 
L 123.33463 87.212847 
L 123.440562 87.467592 
L 123.54597 87.721738 
L 123.650859 87.975285 
L 123.755232 88.228235 
L 123.859094 88.480592 
L 123.962449 88.732356 
L 124.0653 88.983532 
L 124.167652 89.234121 
L 124.269508 89.484127 
L 124.370873 89.733553 
L 124.47175 89.982402 
L 124.572144 90.230678 
L 124.672058 90.478384 
L 124.771496 90.725523 
L 124.870462 90.972101 
L 124.968959 91.218119 
L 125.066991 91.463584 
L 125.164563 91.708499 
L 125.261677 91.952868 
L 125.358337 92.196696 
L 125.454548 92.439987 
L 125.550312 92.682745 
L 125.645634 92.924977 
L 125.740516 93.166686 
L 125.834963 93.407877 
L 125.928978 93.648556 
L 126.022564 93.888728 
L 126.115726 94.128397 
L 126.208466 94.367569 
L 126.300788 94.606249 
L 126.392696 94.844443 
L 126.484193 95.082156 
L 126.575282 95.319394 
L 126.665967 95.556162 
L 126.756251 95.792466 
L 126.846138 96.028311 
L 126.935631 96.263705 
L 127.024733 96.498651 
L 127.113448 96.733157 
L 127.201779 96.967227 
L 127.28973 97.200869 
L 127.377303 97.434088 
L 127.464502 97.666889 
L 127.55133 97.89928 
L 127.637791 98.131267 
L 127.723888 98.362855 
L 127.809623 98.594051 
L 127.895001 98.82486 
L 127.980024 99.05529 
L 128.064695 99.285347 
L 128.149019 99.515036 
L 128.232997 99.744365 
L 128.316633 99.973339 
L 128.399931 100.201965 
L 128.482893 100.43025 
L 128.565522 100.6582 
L 128.647822 100.885821 
L 128.729796 101.113121 
L 128.811447 101.340104 
L 128.892777 101.566779 
L 128.973791 101.793151 
L 129.05449 102.019227 
L 129.134878 102.245014 
L 129.214959 102.470518 
L 129.294734 102.695746 
L 129.374208 102.920704 
L 129.453382 103.1454 
L 129.532261 103.369839 
L 129.610847 103.594028 
L 129.689143 103.817975 
L 129.767152 104.041685 
L 129.844876 104.265166 
L 129.92232 104.488423 
L 129.999486 104.711465 
L 130.076376 104.934297 
L 130.152994 105.156925 
L 130.229342 105.379358 
L 130.305424 105.601601 
L 130.381242 105.823662 
L 130.4568 106.045546 
L 130.5321 106.267261 
L 130.607144 106.488813 
L 130.681937 106.710209 
L 130.75648 106.931456 
L 130.830777 107.15256 
L 130.90483 107.373529 
L 130.978642 107.594368 
L 131.052217 107.815085 
L 131.125556 108.035687 
L 131.198663 108.256179 
L 131.27154 108.476569 
L 131.344191 108.696864 
L 131.416617 108.91707 
L 131.488823 109.137193 
L 131.56081 109.357242 
L 131.632581 109.577221 
L 131.70414 109.797139 
L 131.775488 110.017001 
L 131.846629 110.236814 
L 131.917565 110.456586 
L 131.9883 110.676323 
L 132.058835 110.89603 
L 132.129175 111.115716 
L 132.19932 111.335387 
L 132.269274 111.555049 
L 132.339041 111.77471 
L 132.408622 111.994375 
L 132.47802 112.214052 
L 132.547238 112.433747 
L 132.616278 112.653466 
L 132.685144 112.873217 
L 132.753839 113.093006 
L 132.822363 113.31284 
L 132.890722 113.532725 
L 132.958916 113.752667 
L 133.02695 113.972675 
L 133.094825 114.192753 
L 133.162544 114.412909 
L 133.23011 114.63315 
L 133.297525 114.853481 
L 133.364793 115.07391 
L 133.431916 115.294442 
L 133.498897 115.515086 
L 133.565738 115.735846 
L 133.632441 115.95673 
L 133.699011 116.177744 
L 133.765449 116.398895 
L 133.831758 116.620188 
L 133.897941 116.841632 
L 133.964 117.063232 
L 134.029938 117.284994 
L 134.095758 117.506925 
L 134.161462 117.729032 
L 134.227053 117.951321 
L 134.292534 118.173798 
L 134.357908 118.39647 
L 134.423177 118.619343 
L 134.488343 118.842423 
L 134.55341 119.065718 
L 134.61838 119.289232 
L 134.683256 119.512974 
L 134.748041 119.736948 
L 134.812736 119.961161 
L 134.877346 120.185619 
L 134.941872 120.410329 
L 135.006317 120.635297 
L 135.070684 120.860529 
L 135.134976 121.086031 
L 135.199195 121.31181 
L 135.263345 121.537871 
L 135.327426 121.764221 
L 135.391444 121.990866 
L 135.455399 122.217811 
L 135.519295 122.445063 
L 135.583134 122.672628 
L 135.64692 122.900512 
L 135.710654 123.12872 
L 135.77434 123.357259 
L 135.83798 123.586134 
L 135.901577 123.815352 
L 135.965133 124.044917 
L 136.028652 124.274837 
L 136.092135 124.505116 
L 136.155587 124.73576 
L 136.219008 124.966775 
L 136.282403 125.198166 
L 136.345773 125.429939 
L 136.409121 125.6621 
L 136.472451 125.894653 
L 136.535764 126.127605 
L 136.599063 126.36096 
L 136.662352 126.594724 
L 136.725632 126.828901 
L 136.788906 127.063498 
L 136.852177 127.298519 
L 136.915448 127.533969 
L 136.97872 127.769853 
L 137.041998 128.006176 
L 137.105283 128.242943 
L 137.168577 128.480159 
L 137.231884 128.717827 
L 137.295206 128.955953 
L 137.358546 129.194541 
L 137.421906 129.433595 
L 137.485288 129.67312 
L 137.548695 129.91312 
L 137.61213 130.153599 
L 137.675594 130.39456 
L 137.739091 130.636009 
L 137.802623 130.877948 
L 137.866191 131.120381 
L 137.929799 131.363311 
L 137.993449 131.606743 
L 138.057142 131.850679 
L 138.120882 132.095122 
L 138.184669 132.340076 
L 138.248507 132.585542 
L 138.312398 132.831525 
L 138.376343 133.078026 
L 138.440344 133.325047 
L 138.504404 133.572592 
L 138.568524 133.820661 
L 138.632705 134.069257 
L 138.696951 134.318382 
L 138.761262 134.568036 
L 138.825639 134.818222 
L 138.890086 135.06894 
L 138.954601 135.320191 
L 139.019188 135.571976 
L 139.083848 135.824295 
L 139.14858 136.077148 
L 139.213387 136.330535 
L 139.278269 136.584457 
L 139.343228 136.838912 
L 139.408262 137.093899 
L 139.473374 137.349418 
L 139.538564 137.605467 
L 139.60383 137.862044 
L 139.669175 138.119147 
L 139.734597 138.376774 
L 139.800096 138.634923 
L 139.865671 138.89359 
L 139.931322 139.152771 
L 139.997048 139.412464 
L 140.062847 139.672665 
L 140.128719 139.933368 
L 140.194661 140.194569 
L 140.260671 140.456262 
L 140.326747 140.718443 
L 140.392887 140.981104 
L 140.459088 141.244239 
L 140.525346 141.507842 
L 140.591657 141.771904 
L 140.658019 142.036417 
L 140.724426 142.301374 
L 140.790873 142.566765 
L 140.857355 142.83258 
L 140.923867 143.098809 
L 140.990403 143.365441 
L 141.056954 143.632465 
L 141.123515 143.899869 
L 141.190077 144.167641 
L 141.256631 144.435766 
L 141.323169 144.704231 
L 141.38968 144.973021 
L 141.456153 145.24212 
L 141.522578 145.511513 
L 141.588941 145.781183 
L 141.65523 146.051111 
L 141.72143 146.321278 
L 141.787526 146.591666 
L 141.853502 146.862254 
L 141.919341 147.13302 
L 141.985024 147.403942 
L 142.050531 147.674996 
L 142.115841 147.946159 
L 142.180931 148.217406 
L 142.245779 148.488708 
L 142.310357 148.760039 
L 142.374639 149.03137 
L 142.438596 149.302671 
L 142.502196 149.573911 
L 142.565406 149.845057 
L 142.628192 150.116074 
L 142.690516 150.386929 
L 142.752339 150.657583 
L 142.813616 150.927998 
L 142.874304 151.198136 
L 142.934355 151.467953 
L 142.993716 151.737408 
L 143.052334 152.006454 
L 143.11015 152.275046 
L 143.167103 152.543135 
L 143.223126 152.810671 
L 143.278149 153.0776 
L 143.332098 153.343868 
L 143.384892 153.609419 
L 143.436448 153.874193 
L 143.486673 154.138129 
L 143.535473 154.401163 
L 143.582743 154.663229 
L 143.628375 154.924257 
L 143.672251 155.184176 
L 143.714246 155.44291 
L 143.754228 155.700383 
L 143.792053 155.956513 
L 143.827571 156.211216 
L 143.860619 156.464405 
L 143.891023 156.715988 
L 143.918601 156.965871 
L 143.943152 157.213955 
L 143.964467 157.460137 
L 143.98232 157.704311 
L 143.99647 157.946365 
L 144.006658 158.186184 
L 144.012609 158.423647 
L 144.014029 158.658629 
L 144.010602 158.890999 
L 144.001991 159.120621 
L 143.987836 159.347355 
L 143.967752 159.571052 
L 143.941328 159.79156 
L 143.908124 160.00872 
L 143.867672 160.222367 
L 143.81947 160.432328 
L 143.762985 160.638425 
L 143.697648 160.840474 
L 143.622854 161.038281 
L 143.537959 161.231649 
L 143.44228 161.420372 
L 143.335093 161.604236 
L 143.215633 161.783024 
L 143.083089 161.956507 
L 142.936612 162.124455 
L 142.775305 162.28663 
L 142.598234 162.442786 
L 142.404422 162.592677 
L 142.192856 162.736049 
L 141.962487 162.872646 
L 141.712239 163.00221 
L 141.44101 163.124483 
L 141.147683 163.239206 
L 140.831135 163.346121 
L 140.490242 163.444978 
L 140.123897 163.535528 
L 139.731017 163.617531 
L 139.310562 163.690759 
L 138.861548 163.754994 
L 138.38306 163.81003 
L 137.874273 163.855682 
L 137.334464 163.891779 
L 136.763028 163.918172 
L 136.159491 163.934734 
L 135.523525 163.941361 
L 134.854954 163.937973 
L 134.153764 163.924515 
L 133.420106 163.900959 
L 132.654297 163.867302 
L 131.856821 163.823566 
L 131.028317 163.769797 
L 130.169578 163.706066 
L 129.281537 163.632466 
L 128.365253 163.54911 
L 127.421898 163.45613 
L 126.45274 163.353676 
L 125.459129 163.241913 
L 124.442475 163.121017 
L 123.404238 162.991178 
L 122.345906 162.852594 
L 121.268987 162.705469 
L 120.174987 162.550015 
L 119.065407 162.386446 
L 117.941724 162.21498 
L 116.805388 162.035835 
L 115.657811 161.849229 
L 114.50036 161.655382 
L 113.334357 161.454509 
L 112.161068 161.246823 
L 110.981706 161.032536 
L 109.797428 160.811856 
L 108.609332 160.584984 
L 107.418461 160.352122 
L 106.225798 160.113463 
L 105.032271 159.869199 
L 103.838755 159.619514 
L 102.646069 159.364591 
L 101.454983 159.104607 
L 100.266216 158.839732 
L 99.080441 158.570136 
L 97.898287 158.29598 
L 96.720339 158.017424 
L 95.54714 157.734622 
L 94.379198 157.447724 
L 93.216983 157.156878 
L 92.060931 156.862225 
L 90.911446 156.563903 
L 89.768903 156.26205 
L 267.526359 155.956827 
L 267.55379 155.94704 
L 267.581219 155.937249 
M 280.334372 76.036663 
L 280.374014 76.256397 
L 280.412081 76.476103 
L 280.448578 76.695788 
L 280.483506 76.915458 
L 280.516871 77.13512 
L 280.548676 77.354781 
L 280.578923 77.574447 
L 280.607616 77.794124 
L 280.634757 78.01382 
L 280.660349 78.233542 
L 280.684395 78.453295 
L 280.706895 78.673087 
L 280.727853 78.892924 
L 280.74727 79.112813 
L 280.765147 79.332761 
L 280.781486 79.552774 
L 280.796287 79.772859 
L 280.809551 79.993023 
L 280.82128 80.213272 
L 280.831473 80.433614 
L 280.840132 80.654054 
L 280.847254 80.8746 
L 280.852842 81.095258 
L 280.856893 81.316036 
L 280.859408 81.536939 
L 280.860386 81.757975 
L 280.859826 81.979149 
L 280.857726 82.20047 
L 280.854086 82.421943 
L 280.848902 82.643576 
L 280.842175 82.865375 
L 280.833901 83.087346 
L 280.824079 83.309497 
L 280.812706 83.531834 
L 280.799779 83.754364 
L 280.785296 83.977094 
L 280.769253 84.200029 
L 280.751648 84.423178 
L 280.732476 84.646546 
L 280.711735 84.870141 
L 280.689419 85.093968 
L 280.665526 85.318036 
L 280.640051 85.542349 
L 280.61299 85.766916 
L 280.584337 85.991742 
L 280.554088 86.216834 
L 280.522238 86.442199 
L 280.488781 86.667844 
L 280.453712 86.893775 
L 280.417026 87.119998 
L 280.378715 87.34652 
L 280.338775 87.573349 
L 280.297199 87.800489 
L 280.253981 88.027949 
L 280.209112 88.255733 
L 280.162587 88.48385 
L 280.114399 88.712305 
L 280.06454 88.941104 
L 280.013002 89.170255 
L 279.959777 89.399763 
L 279.904859 89.629635 
L 279.848237 89.859878 
L 279.789904 90.090497 
L 279.729852 90.321499 
L 279.668071 90.55289 
L 279.604552 90.784676 
L 279.539286 91.016864 
L 279.472263 91.24946 
L 279.403474 91.482469 
L 279.332909 91.715899 
L 279.260558 91.949754 
L 279.186409 92.184041 
L 279.110453 92.418767 
L 279.032679 92.653936 
L 278.953076 92.889554 
L 278.871632 93.125629 
L 278.788337 93.362164 
L 278.703178 93.599166 
L 278.616143 93.836641 
L 278.52722 94.074594 
L 278.436398 94.31303 
L 278.343663 94.551956 
L 278.249003 94.791375 
L 278.152405 95.031295 
L 278.053856 95.271719 
L 277.953341 95.512654 
L 277.850849 95.754104 
L 277.746364 95.996073 
L 277.639872 96.238568 
L 277.531361 96.481592 
L 277.420814 96.725151 
L 277.308218 96.969249 
L 277.193558 97.21389 
L 277.076817 97.459079 
L 276.957982 97.70482 
L 276.837037 97.951118 
L 276.713965 98.197976 
L 276.588752 98.445398 
L 276.46138 98.693389 
L 276.331835 98.94195 
L 276.200098 99.191087 
L 276.066154 99.440803 
L 275.929985 99.6911 
L 275.791575 99.941982 
L 275.650906 100.193452 
L 275.507962 100.445512 
L 275.362723 100.698165 
L 275.215173 100.951414 
L 275.065293 101.20526 
L 274.913066 101.459705 
L 274.758472 101.714752 
L 274.601495 101.970402 
L 274.442114 102.226656 
L 274.280312 102.483516 
L 274.116069 102.740982 
L 273.949367 102.999055 
L 273.780185 103.257736 
L 273.608506 103.517025 
L 273.434309 103.776922 
L 273.257575 104.037427 
L 273.078284 104.298539 
L 272.896417 104.560257 
L 272.711953 104.822581 
L 272.524873 105.085508 
L 272.335157 105.349038 
L 272.142784 105.613168 
L 271.947735 105.877895 
L 271.74999 106.143218 
L 271.549527 106.409134 
L 271.346328 106.675638 
L 271.14037 106.942727 
L 270.931636 107.210398 
L 270.720103 107.478645 
L 270.505752 107.747465 
L 270.288562 108.016851 
L 270.068514 108.286798 
L 269.845587 108.5573 
L 269.619761 108.828351 
L 269.391016 109.099944 
L 269.159332 109.37207 
L 268.92469 109.644724 
L 268.687069 109.917896 
L 268.446451 110.191577 
L 268.202815 110.465758 
L 267.956143 110.740429 
L 267.706416 111.015581 
L 267.453615 111.291201 
L 267.197721 111.56728 
L 266.938717 111.843804 
L 266.676584 112.120762 
L 266.411304 112.39814 
L 266.142861 112.675924 
L 265.871236 112.954101 
L 265.596415 113.232655 
L 265.318379 113.51157 
L 265.037115 113.790831 
L 264.752605 114.070421 
L 264.464836 114.350322 
L 264.173792 114.630516 
L 263.87946 114.910984 
L 263.581827 115.191707 
L 263.280879 115.472664 
L 262.976606 115.753833 
L 262.668994 116.035194 
L 262.358033 116.316724 
L 262.043713 116.5984 
L 261.726025 116.880196 
L 261.40496 117.16209 
L 261.08051 117.444054 
L 260.752668 117.726062 
L 260.421428 118.008088 
L 260.086784 118.290102 
L 259.748732 118.572077 
L 259.407269 118.853981 
L 259.062392 119.135786 
L 258.7141 119.417458 
L 258.362393 119.698966 
L 258.00727 119.980277 
L 257.648735 120.261356 
L 257.28679 120.542168 
L 256.92144 120.822677 
L 256.55269 121.102847 
L 256.180546 121.38264 
L 255.805018 121.662017 
L 255.426114 121.940938 
L 255.043846 122.219364 
L 254.658225 122.497253 
L 254.269266 122.774562 
L 253.876983 123.051249 
L 253.481394 123.32727 
L 253.082516 123.602579 
L 252.68037 123.87713 
L 252.274978 124.150877 
L 251.866361 124.423773 
L 251.454546 124.695769 
L 251.039559 124.966815 
L 250.621427 125.236861 
L 250.200182 125.505857 
L 249.775855 125.77375 
L 249.34848 126.040488 
L 248.918092 126.306017 
L 248.484728 126.570283 
L 248.048428 126.833231 
L 247.609232 127.094806 
L 247.167185 127.35495 
L 246.72233 127.613608 
L 246.274714 127.87072 
L 245.824386 128.126229 
L 245.371398 128.380075 
L 244.9158 128.6322 
L 244.457648 128.882543 
L 243.996998 129.131042 
L 243.533909 129.377638 
L 243.068439 129.622269 
L 242.600653 129.864873 
L 242.130613 130.105387 
L 241.658385 130.343749 
L 241.184036 130.579896 
L 240.707637 130.813766 
L 240.229257 131.045294 
L 239.748971 131.274418 
L 239.266851 131.501074 
L 238.782975 131.7252 
L 238.29742 131.946731 
L 237.810265 132.165605 
L 237.321591 132.381758 
L 236.831479 132.595127 
L 236.340014 132.805651 
L 235.847279 133.013267 
L 235.353361 133.217913 
L 234.858347 133.419528 
L 234.362325 133.61805 
L 233.865383 133.813421 
L 233.367612 134.005581 
L 232.869103 134.19447 
L 232.369947 134.380031 
L 231.870236 134.562207 
L 231.370063 134.740942 
L 230.86952 134.91618 
L 230.368702 135.087868 
L 229.867701 135.255953 
L 229.366611 135.420382 
L 228.865527 135.581107 
L 228.364542 135.738077 
L 227.863749 135.891245 
L 227.363241 136.040565 
L 226.863111 136.185992 
L 226.363452 136.327484 
L 225.864355 136.464999 
L 225.365911 136.598498 
L 224.868209 136.727942 
L 224.37134 136.853296 
L 223.875391 136.974525 
L 223.38045 137.091598 
L 222.886601 137.204484 
L 222.39393 137.313155 
L 221.902519 137.417585 
L 221.41245 137.517749 
L 220.923803 137.613627 
L 220.436657 137.705197 
L 219.951087 137.792444 
L 219.467169 137.87535 
L 218.984975 137.953904 
L 218.504577 138.028094 
L 218.026044 138.097912 
L 217.549442 138.163351 
L 217.074837 138.224407 
L 216.602291 138.281079 
L 216.131864 138.333367 
L 215.663617 138.381274 
L 215.197603 138.424804 
L 214.733879 138.463965 
L 214.272495 138.498767 
L 213.813501 138.52922 
L 213.356944 138.555339 
L 212.90287 138.57714 
L 212.451321 138.59464 
L 212.002338 138.60786 
L 211.555959 138.616822 
L 211.112221 138.62155 
L 210.671157 138.622069 
L 210.232799 138.618408 
L 209.797177 138.610597 
L 209.364318 138.598666 
L 208.934249 138.582649 
L 208.506993 138.562581 
L 208.082571 138.538498 
L 207.661004 138.510439 
L 207.242308 138.478442 
L 206.826501 138.442548 
L 206.413596 138.4028 
L 206.003606 138.359241 
L 205.596542 138.311915 
L 205.192413 138.260869 
L 204.791227 138.206149 
L 204.39299 138.147803 
L 203.997706 138.085879 
L 203.60538 138.020428 
L 203.216013 137.9515 
L 202.829605 137.879145 
L 202.446157 137.803416 
L 202.065667 137.724364 
L 201.688131 137.642043 
L 201.313546 137.556506 
L 200.941907 137.467807 
L 200.573208 137.375999 
L 200.207442 137.281138 
L 199.844601 137.183276 
L 199.484678 137.08247 
L 199.127662 136.978774 
L 198.773543 136.872242 
L 198.422311 136.76293 
L 198.073954 136.650892 
L 197.72846 136.536183 
L 197.385817 136.418857 
L 197.04601 136.298969 
L 196.709027 136.176573 
L 196.374853 136.051722 
L 196.043474 135.924469 
L 195.714873 135.794869 
L 195.389037 135.662973 
L 195.065948 135.528835 
L 194.745591 135.392505 
L 194.427949 135.254035 
L 194.113005 135.113476 
L 193.800742 134.970878 
L 193.491144 134.826291 
L 193.184191 134.679764 
L 192.879867 134.531345 
L 192.578154 134.381083 
L 192.279034 134.229025 
L 191.982488 134.075217 
L 191.688497 133.919705 
L 191.397045 133.762535 
L 191.108111 133.603751 
L 190.821677 133.443396 
L 190.537726 133.281515 
L 190.256236 133.118149 
L 189.977191 132.95334 
L 189.700571 132.787129 
L 189.426357 132.619556 
L 189.15453 132.450661 
L 188.885071 132.280482 
L 188.617961 132.109058 
L 188.353183 131.936424 
L 188.090715 131.762619 
L 187.83054 131.587678 
L 187.572639 131.411635 
L 187.316993 131.234524 
L 187.063583 131.05638 
L 186.812391 130.877235 
L 186.563398 130.697122 
L 186.316585 130.51607 
L 186.071933 130.334111 
L 185.829425 130.151276 
L 185.589042 129.967592 
L 185.350766 129.783088 
L 185.114578 129.597792 
L 184.880461 129.411732 
L 184.648395 129.224933 
L 184.418365 129.037421 
L 184.19035 128.849222 
L 183.964335 128.660359 
L 183.740301 128.470857 
L 183.51823 128.280738 
L 183.298106 128.090025 
L 183.079911 127.89874 
L 182.863628 127.706904 
L 182.649239 127.514539 
L 182.436728 127.321662 
L 182.226078 127.128296 
L 182.017273 126.934457 
L 181.810295 126.740166 
L 181.605128 126.545438 
L 181.401756 126.350293 
L 181.200163 126.154746 
L 181.000332 125.958813 
L 180.802248 125.762511 
L 180.605895 125.565854 
L 180.411257 125.368858 
L 180.218319 125.171536 
L 180.027064 124.973903 
L 179.837478 124.775971 
L 179.649546 124.577753 
L 179.463253 124.379263 
L 179.278583 124.18051 
L 179.095522 123.981509 
L 178.914056 123.782268 
L 178.734169 123.582799 
L 178.555848 123.383113 
L 178.379078 123.183219 
L 178.203845 122.983126 
L 178.030136 122.782845 
L 177.857935 122.582383 
L 177.687231 122.381749 
L 177.518008 122.180951 
L 177.350255 121.979996 
L 177.183956 121.778893 
L 177.0191 121.577648 
L 176.855674 121.376268 
L 176.693663 121.174759 
L 176.533057 120.973128 
L 176.373841 120.77138 
L 176.216004 120.56952 
L 176.059534 120.367554 
L 175.904417 120.165488 
L 175.750643 119.963324 
L 175.598199 119.761069 
L 175.447072 119.558726 
L 175.297253 119.356299 
L 175.148728 119.153791 
L 175.001488 118.951206 
L 174.855519 118.748547 
L 174.710812 118.545818 
L 174.567355 118.34302 
L 174.425137 118.140156 
L 174.284147 117.937229 
L 174.144376 117.73424 
L 174.005811 117.531192 
L 173.868444 117.328086 
L 173.732264 117.124923 
L 173.597259 116.921705 
L 173.463422 116.718433 
L 173.330741 116.515107 
L 173.199207 116.311729 
L 173.06881 116.108299 
L 172.93954 115.904817 
L 172.811389 115.701284 
L 172.684347 115.497699 
L 172.558405 115.294063 
L 172.433553 115.090374 
L 172.309783 114.886634 
L 172.187086 114.682841 
L 172.065453 114.478994 
L 171.944876 114.275093 
L 171.825346 114.071137 
L 171.706855 113.867124 
L 171.589394 113.663053 
L 171.472956 113.458924 
L 171.357532 113.254733 
L 171.243114 113.050481 
L 171.129696 112.846164 
L 171.017268 112.641782 
L 170.905824 112.437332 
L 170.795355 112.232812 
L 170.685855 112.02822 
L 170.577316 111.823554 
L 170.469732 111.618811 
L 170.363094 111.413988 
L 170.257397 111.209084 
L 170.152633 111.004095 
L 170.048795 110.799019 
L 169.945877 110.593852 
L 169.843873 110.388593 
L 169.742775 110.183237 
L 169.642578 109.977781 
L 169.543276 109.772223 
L 169.444862 109.566559 
L 169.347329 109.360786 
L 169.250673 109.154899 
L 169.154888 108.948896 
L 169.059967 108.742773 
L 168.965905 108.536526 
L 168.872697 108.330151 
L 168.780336 108.123645 
L 168.688818 107.917004 
L 168.598138 107.710222 
L 168.50829 107.503298 
L 168.419269 107.296226 
L 168.33107 107.089001 
L 168.243689 106.881621 
L 168.157119 106.67408 
L 168.071358 106.466374 
L 167.9864 106.258499 
L 167.90224 106.050449 
L 167.818875 105.842221 
L 167.7363 105.63381 
L 167.65451 105.425211 
L 167.573501 105.21642 
L 167.49327 105.00743 
L 167.413812 104.798239 
L 167.335124 104.58884 
L 167.257201 104.379229 
L 167.18004 104.1694 
L 167.103638 103.959349 
L 167.02799 103.74907 
L 166.953093 103.538559 
L 166.878945 103.327809 
L 166.80554 103.116816 
L 166.732878 102.905574 
L 166.660953 102.694078 
L 166.589764 102.482323 
L 166.519306 102.270302 
L 166.449578 102.058011 
L 166.380577 101.845443 
L 166.312299 101.632594 
L 166.244743 101.419457 
L 166.177906 101.206026 
L 166.111784 100.992297 
L 166.046377 100.778263 
L 165.981681 100.563918 
L 165.917694 100.349256 
L 165.854415 100.134271 
L 165.79184 99.918958 
L 165.729969 99.70331 
L 165.6688 99.487321 
L 165.60833 99.270986 
L 165.548558 99.054297 
L 165.489482 98.837249 
L 165.4311 98.619836 
L 165.373412 98.40205 
L 165.316416 98.183887 
L 165.260111 97.965339 
L 165.204495 97.7464 
L 165.149566 97.527063 
L 165.095326 97.307323 
L 165.041771 97.087172 
L 164.988902 96.866605 
L 164.936717 96.645613 
L 164.885216 96.424192 
L 164.834398 96.202333 
L 164.784263 95.980031 
L 164.73481 95.757279 
L 164.686039 95.534069 
L 164.637949 95.310396 
L 164.590541 95.086251 
L 164.543814 94.861629 
L 164.497768 94.636522 
L 164.452403 94.410924 
L 164.40772 94.184827 
L 164.363718 93.958224 
L 164.320398 93.731109 
L 164.27776 93.503474 
L 164.235805 93.275311 
L 164.194533 93.046615 
L 164.153946 92.817377 
L 164.114043 92.587591 
L 164.074825 92.357249 
L 164.036294 92.126344 
L 163.998451 91.894869 
L 163.961296 91.662816 
L 163.924831 91.430178 
L 163.889057 91.196947 
L 163.853976 90.963117 
L 163.819588 90.728679 
L 163.785896 90.493626 
L 163.752901 90.257951 
L 163.720606 90.021647 
L 163.68901 89.784704 
L 163.658118 89.547117 
L 163.627931 89.308877 
L 163.59845 89.069978 
L 163.569679 88.83041 
L 163.541619 88.590167 
L 163.514273 88.349241 
L 163.487643 88.107624 
L 163.461733 87.865308 
L 163.436544 87.622286 
L 163.41208 87.378551 
L 163.388344 87.134093 
L 163.365338 86.888907 
L 163.343067 86.642983 
L 163.321532 86.396314 
L 163.300738 86.148892 
L 163.280688 85.90071 
L 163.261385 85.65176 
L 163.242834 85.402033 
L 163.225038 85.151523 
L 163.208 84.900221 
L 163.191726 84.64812 
L 163.176219 84.395211 
L 163.161483 84.141487 
L 163.147523 83.886941 
L 163.134343 83.631564 
L 163.121948 83.375348 
L 163.110342 83.118287 
L 163.099531 82.860372 
L 163.08952 82.601595 
L 163.080313 82.34195 
L 163.071915 82.081427 
L 163.064333 81.820021 
L 163.057571 81.557722 
L 163.051635 81.294524 
L 163.046531 81.030418 
L 163.042265 80.765398 
L 163.038843 80.499457 
L 163.03627 80.232585 
L 163.034553 79.964777 
L 163.033699 79.696025 
L 163.033713 79.426321 
L 163.034603 79.155659 
L 163.036376 78.884032 
L 163.039038 78.611431 
L 163.042596 78.337851 
L 163.047058 78.063284 
L 163.052431 77.787723 
L 163.058722 77.511163 
L 163.065939 77.233595 
L 163.074091 76.955013 
L 163.083184 76.675412 
L 163.093228 76.394784 
L 163.104229 76.113123 
L 163.116198 75.830423 
L 163.129142 75.546678 
L 163.14307 75.261882 
L 163.15799 74.976029 
L 163.173913 74.689114 
L 163.190847 74.401131 
L 163.208801 74.112074 
L 163.227786 73.821938 
L 163.24781 73.530719 
L 163.268884 73.23841 
L 163.291018 72.945008 
L 163.314222 72.650508 
L 163.338506 72.354906 
L 163.363881 72.058197 
L 163.390358 71.760376 
L 163.417947 71.461442 
L 163.44666 71.161389 
L 163.476508 70.860214 
L 163.507502 70.557915 
L 163.539655 70.254488 
L 163.572977 69.949931 
L 163.607481 69.644242 
L 163.643179 69.337417 
L 163.680084 69.029456 
L 163.718208 68.720357 
L 163.757563 68.410118 
L 163.798164 68.098739 
L 163.840022 67.786219 
L 163.883152 67.472558 
L 163.927566 67.157755 
L 163.973279 66.841811 
L 164.020305 66.524727 
L 164.068657 66.206504 
L 164.11835 65.887143 
L 164.169399 65.566646 
L 164.221818 65.245015 
L 164.275623 64.922254 
L 164.330828 64.598365 
L 164.387449 64.273352 
L 164.445502 63.947218 
L 164.505002 63.619969 
L 164.565965 63.291609 
L 164.628407 62.962144 
L 164.692346 62.631579 
L 164.757798 62.299922 
L 164.824778 61.967179 
L 164.893306 61.633357 
L 164.963398 61.298466 
L 165.035071 60.962513 
L 165.108343 60.625508 
L 165.183233 60.287461 
L 165.259758 59.948382 
L 165.337937 59.608284 
L 165.417788 59.267176 
L 165.499332 58.925072 
L 165.582585 58.581986 
L 165.667569 58.237931 
L 165.754302 57.892921 
L 165.842804 57.546973 
L 165.933096 57.200102 
L 166.025198 56.852325 
L 166.11913 56.50366 
L 166.214912 56.154125 
L 166.312567 55.803739 
L 166.412115 55.452524 
L 166.513578 55.100499 
L 166.616977 54.747686 
L 166.722335 54.394109 
L 166.829674 54.039791 
L 166.939016 53.684756 
L 167.050384 53.329031 
L 167.163801 52.97264 
L 167.27929 52.615613 
L 167.396875 52.257978 
L 167.51658 51.899763 
L 167.638429 51.540999 
L 167.762446 51.181718 
L 167.888656 50.821953 
L 168.017084 50.461737 
L 168.147756 50.101105 
L 168.280696 49.740092 
L 168.41593 49.378737 
L 168.553486 49.017076 
L 168.693389 48.65515 
L 168.835667 48.292998 
L 168.980346 47.930663 
L 169.127454 47.568187 
L 169.277019 47.205616 
L 169.429069 46.842993 
L 169.583634 46.480366 
L 169.740742 46.117784 
L 169.900423 45.755294 
L 170.062707 45.392949 
L 170.227623 45.0308 
L 170.395204 44.6689 
L 170.565481 44.307304 
L 170.738485 43.946069 
L 170.914249 43.585252 
L 171.092806 43.224912 
L 171.27419 42.86511 
L 171.458434 42.505907 
L 171.645575 42.147369 
L 171.835646 41.789559 
L 172.028686 41.432544 
L 172.22473 41.076393 
L 172.423817 40.721176 
L 172.625985 40.366964 
L 172.831274 40.013831 
L 173.039725 39.661852 
L 173.251379 39.311103 
L 173.466279 38.961663 
L 173.684469 38.613612 
L 173.905993 38.267033 
L 174.130899 37.92201 
L 174.359232 37.578629 
L 174.591044 37.236978 
L 174.826384 36.897147 
L 175.065304 36.559229 
L 175.307859 36.223318 
L 175.554104 35.889511 
L 175.804097 35.557907 
L 176.057898 35.228606 
L 176.31557 34.901714 
L 176.577177 34.577336 
L 176.842786 34.255581 
L 177.112467 33.936561 
L 177.386293 33.62039 
L 177.664341 33.307186 
L 177.946688 32.997068 
L 178.23342 32.690161 
L 178.524622 32.38659 
L 178.820386 32.086486 
L 179.120807 31.789982 
L 179.425986 31.497214 
L 179.736028 31.208324 
L 180.051044 30.923456 
L 180.371151 30.642758 
L 180.696471 30.366382 
L 181.027135 30.094486 
L 181.36328 29.82723 
L 181.705049 29.564779 
L 182.052596 29.307303 
L 182.406082 29.054978 
L 182.765677 28.80798 
L 183.131561 28.566495 
L 183.503926 28.33071 
L 183.882972 28.100819 
L 184.268911 27.877018 
L 184.661967 27.659508 
L 185.062377 27.448496 
L 185.470387 27.24419 
L 185.88626 27.046803 
L 186.310267 26.856549 
L 186.742693 26.673647 
L 187.183834 26.498313 
L 187.633997 26.330768 
L 188.093498 26.17123 
L 188.562661 26.019914 
L 189.041815 25.877033 
L 189.531292 25.742796 
L 190.031424 25.617405 
L 190.542539 25.501053 
L 191.064956 25.393922 
L 191.59898 25.296186 
L 192.144897 25.208 
L 192.702968 25.129507 
L 193.273422 25.060828 
L 193.856449 25.002068 
L 194.452197 24.953308 
L 195.06076 24.914607 
L 195.682179 24.886 
L 196.31643 24.867495 
L 196.963427 24.859078 
L 197.623014 24.860705 
L 198.294963 24.872311 
L 198.978981 24.893803 
L 199.674702 24.925066 
L 200.381695 24.96596 
L 201.099469 25.016326 
L 201.827474 25.075986 
L 202.565109 25.144744 
L 203.311732 25.222388 
L 204.066663 25.308694 
L 204.829194 25.403427 
L 205.598596 25.506345 
L 206.374127 25.617196 
L 207.15504 25.735726 
L 207.940588 25.861677 
L 208.73003 25.99479 
L 209.52264 26.134807 
L 210.317708 26.28147 
L 211.114544 26.434524 
L 211.912484 26.593721 
L 212.710891 26.758812 
L 213.509156 26.929557 
L 214.306701 27.105721 
L 215.102981 27.287075 
L 215.89748 27.473396 
L 216.689715 27.664467 
L 217.479234 27.86008 
L 218.265618 28.060033 
L 219.048474 28.264129 
L 219.827443 28.472181 
L 220.602189 28.684007 
L 221.372408 28.899431 
L 222.137818 29.118286 
L 222.898163 29.340408 
L 223.653208 29.565642 
L 224.402743 29.793838 
L 225.146576 30.024851 
L 225.884535 30.258544 
L 226.616466 30.494782 
L 227.342231 30.733438 
L 228.06171 30.97439 
L 228.774794 31.217518 
L 229.481392 31.46271 
L 230.181422 31.709856 
L 230.874815 31.958852 
L 231.561514 32.209597 
L 232.241471 32.461995 
L 232.914647 32.715952 
L 233.581012 32.971379 
L 234.240545 33.228191 
L 234.893231 33.486304 
L 235.539061 33.74564 
L 236.178036 34.006123 
L 236.810158 34.267679 
L 237.435438 34.530237 
L 238.053889 34.79373 
L 238.665531 35.058093 
L 239.270387 35.323263 
L 239.868483 35.58918 
L 240.459849 35.855786 
L 241.044518 36.123024 
L 241.622527 36.390843 
L 242.193914 36.65919 
L 242.75872 36.928015 
L 243.316988 37.197271 
L 243.868764 37.466913 
L 244.414093 37.736896 
L 244.953024 38.007177 
L 245.485607 38.277717 
L 246.011893 38.548476 
L 246.531934 38.819416 
L 247.045782 39.090502 
L 247.553493 39.361699 
L 248.055119 39.632973 
L 248.550717 39.904293 
L 249.040343 40.175628 
L 249.524052 40.446949 
L 250.001901 40.718226 
L 250.473947 40.989434 
L 250.940248 41.260546 
L 251.40086 41.531537 
L 251.855841 41.802384 
L 252.305248 42.073064 
L 252.749139 42.343554 
L 253.187571 42.613834 
L 253.620601 42.883884 
L 254.048286 43.153685 
L 254.470684 43.423219 
L 254.887851 43.692467 
L 255.299844 43.961414 
L 255.706718 44.230043 
L 256.10853 44.49834 
L 256.505334 44.76629 
L 256.897187 45.033879 
L 257.284143 45.301095 
L 257.666256 45.567925 
L 258.043581 45.834357 
L 258.416171 46.10038 
L 258.784078 46.365984 
L 259.147357 46.631159 
L 259.506058 46.895895 
L 259.860235 47.160184 
L 260.209937 47.424018 
L 260.555215 47.687387 
L 260.896121 47.950287 
L 261.232703 48.212708 
L 261.56501 48.474646 
L 261.893092 48.736094 
L 262.216997 48.997046 
L 262.536771 49.257499 
L 262.852463 49.517446 
L 263.164118 49.776884 
L 263.471783 50.035808 
L 263.775503 50.294217 
L 264.075322 50.552105 
L 264.371286 50.80947 
L 264.663439 51.066311 
L 264.951822 51.322624 
L 265.236479 51.578408 
L 265.517453 51.833661 
L 265.794785 52.088382 
L 266.068515 52.342571 
L 266.338685 52.596225 
L 266.605335 52.849346 
L 266.868503 53.101932 
L 267.128229 53.353983 
L 267.384552 53.605501 
L 267.637509 53.856486 
L 267.887138 54.106937 
L 268.133475 54.356857 
L 268.376557 54.606247 
L 268.616419 54.855107 
L 268.853098 55.10344 
L 269.086627 55.351246 
L 269.317042 55.598529 
L 269.544375 55.84529 
L 269.768661 56.091531 
L 269.989932 56.337255 
L 270.20822 56.582465 
L 270.423557 56.827163 
L 270.635976 57.071352 
L 270.845506 57.315036 
L 271.052178 57.558216 
L 271.256022 57.800898 
L 271.457068 58.043083 
L 271.655344 58.284776 
L 271.85088 58.525981 
L 272.043704 58.766701 
L 272.233843 59.00694 
L 272.421324 59.246702 
L 272.606175 59.485991 
L 272.788422 59.724811 
L 272.96809 59.963168 
L 273.145207 60.201064 
L 273.319796 60.438505 
L 273.491882 60.675496 
L 273.661491 60.91204 
L 273.828645 61.148143 
L 273.993369 61.38381 
L 274.155685 61.619045 
L 274.315617 61.853853 
L 274.473187 62.088239 
L 274.628416 62.32221 
L 274.781327 62.555768 
L 274.931941 62.788921 
L 275.080278 63.021673 
L 275.226359 63.254029 
L 275.370205 63.485995 
L 275.511835 63.717577 
L 275.651269 63.948779 
L 275.788526 64.179608 
L 275.923624 64.410069 
L 276.056582 64.640167 
L 276.187418 64.869909 
L 276.31615 65.0993 
L 276.442795 65.328346 
L 276.56737 65.557052 
L 276.689893 65.785425 
L 276.810379 66.013471 
L 276.928845 66.241194 
L 277.045306 66.468602 
L 277.159778 66.6957 
L 277.272277 66.922494 
L 277.382816 67.14899 
L 277.491412 67.375195 
L 277.598077 67.601114 
L 277.702826 67.826754 
L 277.805673 68.05212 
L 277.906631 68.277219 
L 278.005713 68.502058 
L 278.102932 68.726641 
L 278.198301 68.950976 
L 278.291832 69.175069 
L 278.383536 69.398926 
L 278.473426 69.622553 
L 278.561514 69.845956 
L 278.647809 70.069143 
L 278.732324 70.292119 
L 278.815068 70.514891 
L 278.896053 70.737464 
L 278.975288 70.959847 
L 279.052783 71.182044 
L 279.128548 71.404062 
L 279.202592 71.625908 
L 279.274925 71.847588 
L 279.345554 72.069109 
L 279.41449 72.290477 
L 279.48174 72.511698 
L 279.547312 72.73278 
L 279.611214 72.953728 
L 279.673454 73.174549 
L 279.734039 73.39525 
L 279.792977 73.615837 
L 279.850274 73.836317 
L 279.905937 74.056696 
L 279.959973 74.276981 
L 280.012387 74.497179 
L 280.063187 74.717295 
L 280.112377 74.937337 
L 280.159963 75.157312 
L 280.20595 75.377225 
L 280.250344 75.597083 
L 280.29315 75.816894 
L 280.334372 76.036663 
L 280.334372 76.036663 
" style="fill:#1f77b4;"/>
   </g>
   <g id="PathCollection_2">
    <path clip-path="url(#p59d44970d6)" d="M 237.991565 74.100203 
L 237.949175 73.970268 
L 237.906318 73.840408 
L 237.862993 73.71062 
L 237.819199 73.5809 
L 237.774933 73.451247 
L 237.730196 73.321658 
L 237.684984 73.192128 
L 237.639297 73.062656 
L 237.593133 72.933238 
L 237.546491 72.803872 
L 237.499367 72.674555 
L 237.451761 72.545283 
L 237.403671 72.416055 
L 237.355094 72.286867 
L 237.306029 72.157717 
L 237.256473 72.028602 
L 237.206425 71.899519 
L 237.155882 71.770465 
L 237.104842 71.641438 
L 237.053302 71.512436 
L 237.00126 71.383454 
L 236.948714 71.254492 
L 236.895661 71.125546 
L 236.842098 70.996613 
L 236.788023 70.867692 
L 236.733434 70.73878 
L 236.678326 70.609873 
L 236.622699 70.48097 
L 236.566547 70.352069 
L 236.50987 70.223166 
L 236.452663 70.09426 
L 236.394923 69.965348 
L 236.336648 69.836428 
L 236.277834 69.707497 
L 236.218478 69.578554 
L 236.158577 69.449596 
L 236.098127 69.320621 
L 236.037124 69.191626 
L 235.975566 69.06261 
L 235.913448 68.933571 
L 235.850767 68.804507 
L 235.78752 68.675415 
L 235.723702 68.546293 
L 235.65931 68.417141 
L 235.59434 68.287955 
L 235.528787 68.158735 
L 235.462649 68.029477 
L 235.39592 67.900182 
L 235.328598 67.770846 
L 235.260676 67.641469 
L 235.192152 67.512048 
L 235.123021 67.382582 
L 235.053279 67.25307 
L 234.982921 67.123511 
L 234.911942 66.993902 
L 234.840339 66.864243 
L 234.768107 66.734532 
L 234.69524 66.604769 
L 234.621735 66.474951 
L 234.547586 66.345079 
L 234.472789 66.21515 
L 234.397339 66.085165 
L 234.321231 65.955122 
L 234.24446 65.82502 
L 234.16702 65.694859 
L 234.088908 65.564638 
L 234.010117 65.434357 
L 233.930642 65.304015 
L 233.850479 65.173611 
L 233.769621 65.043146 
L 233.688064 64.912618 
L 233.605803 64.782029 
L 233.522831 64.651377 
L 233.439143 64.520664 
L 233.354734 64.389888 
L 233.269599 64.259051 
L 233.18373 64.128152 
L 233.097124 63.997192 
L 233.009774 63.866172 
L 232.921674 63.735092 
L 232.832819 63.603953 
L 232.743202 63.472755 
L 232.652819 63.341501 
L 232.561662 63.21019 
L 232.469727 63.078824 
L 232.377007 62.947404 
L 232.283497 62.815932 
L 232.189189 62.68441 
L 232.094079 62.552838 
L 231.99816 62.42122 
L 231.901426 62.289556 
L 231.803871 62.15785 
L 231.705489 62.026103 
L 231.606275 61.894318 
L 231.50622 61.762497 
L 231.405321 61.630643 
L 231.30357 61.49876 
L 231.200961 61.366849 
L 231.097488 61.234915 
L 230.993146 61.102961 
L 230.887928 60.97099 
L 230.781828 60.839006 
L 230.674839 60.707014 
L 230.566957 60.575017 
L 230.458174 60.443019 
L 230.348485 60.311026 
L 230.237885 60.179041 
L 230.126366 60.047071 
L 230.013923 59.915119 
L 229.90055 59.783192 
L 229.786242 59.651295 
L 229.670993 59.519434 
L 229.554797 59.387615 
L 229.437648 59.255844 
L 229.319541 59.124128 
L 229.200471 58.992473 
L 229.080432 58.860887 
L 228.95942 58.729377 
L 228.837428 58.59795 
L 228.714451 58.466615 
L 228.590486 58.335379 
L 228.465527 58.20425 
L 228.339569 58.073238 
L 228.212608 57.942351 
L 228.084639 57.811599 
L 227.955658 57.68099 
L 227.825662 57.550536 
L 227.694645 57.420245 
L 227.562605 57.290129 
L 227.429538 57.160198 
L 227.29544 57.030463 
L 227.160309 56.900936 
L 227.02414 56.771628 
L 226.886933 56.642551 
L 226.748683 56.513719 
L 226.609389 56.385143 
L 226.469049 56.256837 
L 226.327661 56.128815 
L 226.185223 56.001089 
L 226.041735 55.873675 
L 225.897195 55.746587 
L 225.751603 55.61984 
L 225.604958 55.493449 
L 225.457261 55.367431 
L 225.308513 55.2418 
L 225.158713 55.116574 
L 225.007863 54.99177 
L 224.855965 54.867405 
L 224.70302 54.743496 
L 224.549031 54.620063 
L 224.394 54.497123 
L 224.23793 54.374695 
L 224.080826 54.252798 
L 223.922692 54.131454 
L 223.763531 54.010681 
L 223.603349 53.8905 
L 223.442151 53.770933 
L 223.279943 53.652 
L 223.116733 53.533724 
L 222.952526 53.416128 
L 222.787331 53.299233 
L 222.621156 53.183063 
L 222.45401 53.067641 
L 222.285901 52.952992 
L 222.116841 52.83914 
L 221.946838 52.726109 
L 221.775906 52.613925 
L 221.604055 52.502614 
L 221.431299 52.392201 
L 221.257649 52.282713 
L 221.08312 52.174176 
L 220.907727 52.066618 
L 220.731485 51.960067 
L 220.554409 51.854549 
L 220.376517 51.750094 
L 220.197825 51.64673 
L 220.018351 51.544485 
L 219.838115 51.44339 
L 219.657136 51.343473 
L 219.475433 51.244764 
L 219.293029 51.147294 
L 219.109945 51.051092 
L 218.926203 50.95619 
L 218.741826 50.862618 
L 218.556839 50.770407 
L 218.371267 50.679589 
L 218.185134 50.590195 
L 217.998468 50.502256 
L 217.811295 50.415804 
L 217.623642 50.330872 
L 217.43554 50.247491 
L 217.247016 50.165692 
L 217.058101 50.085509 
L 216.868826 50.006973 
L 216.679221 49.930116 
L 216.48932 49.854971 
L 216.299154 49.781568 
L 216.108757 49.709941 
L 215.918164 49.64012 
L 215.727409 49.572138 
L 215.536527 49.506026 
L 215.345555 49.441816 
L 215.154529 49.379537 
L 214.963485 49.319221 
L 214.772462 49.260899 
L 214.581498 49.2046 
L 214.390631 49.150354 
L 214.199899 49.098191 
L 214.009344 49.048139 
L 213.819003 49.000226 
L 213.628918 48.954482 
L 213.439129 48.910932 
L 213.249677 48.869604 
L 213.060602 48.830524 
L 212.871945 48.793717 
L 212.683749 48.759209 
L 212.496054 48.727023 
L 212.308902 48.697182 
L 212.122335 48.66971 
L 211.936394 48.644629 
L 211.751121 48.621958 
L 211.566557 48.601719 
L 211.382744 48.58393 
L 211.199723 48.56861 
L 211.017535 48.555776 
L 210.836221 48.545444 
L 210.655821 48.53763 
L 210.476375 48.532348 
L 210.297924 48.529611 
L 210.120507 48.52943 
L 209.944162 48.531818 
L 209.768928 48.536784 
L 209.594843 48.544337 
L 209.421944 48.554485 
L 209.250268 48.567232 
L 209.079851 48.582586 
L 208.910729 48.60055 
L 208.742936 48.621127 
L 208.576506 48.644318 
L 208.411471 48.670124 
L 208.247865 48.698545 
L 208.085719 48.729576 
L 207.925063 48.763217 
L 207.765927 48.799462 
L 207.60834 48.838305 
L 207.452329 48.879739 
L 207.297921 48.923756 
L 207.145142 48.970348 
L 206.994016 49.019502 
L 206.844568 49.071208 
L 206.696819 49.125453 
L 206.550792 49.182222 
L 206.406506 49.241501 
L 206.263982 49.303272 
L 206.123237 49.367519 
L 205.984289 49.434223 
L 205.847154 49.503365 
L 205.711847 49.574923 
L 205.578381 49.648878 
L 205.446769 49.725205 
L 205.317023 49.803881 
L 205.189154 49.884883 
L 205.06317 49.968184 
L 204.939081 50.05376 
L 204.816893 50.141582 
L 204.696613 50.231623 
L 204.578245 50.323855 
L 204.461794 50.418248 
L 204.347263 50.514773 
L 204.234654 50.613399 
L 204.123968 50.714095 
L 204.015205 50.816829 
L 203.908364 50.921569 
L 203.803443 51.028282 
L 203.700439 51.136936 
L 203.599349 51.247495 
L 203.500168 51.359927 
L 203.402892 51.474196 
L 203.307512 51.590268 
L 203.214024 51.708108 
L 203.122417 51.827681 
L 203.032686 51.948951 
L 202.944819 52.071882 
L 202.858806 52.196439 
L 202.774638 52.322585 
L 202.692303 52.450284 
L 202.611789 52.5795 
L 202.533083 52.710197 
L 202.456173 52.842338 
L 202.381044 52.975888 
L 202.307683 53.110811 
L 202.236074 53.247069 
L 202.166203 53.384627 
L 202.098054 53.52345 
L 202.031612 53.663502 
L 201.966859 53.804747 
L 201.903779 53.94715 
L 201.842355 54.090676 
L 201.78257 54.23529 
L 201.724406 54.380957 
L 201.667844 54.527644 
L 201.612868 54.675317 
L 201.559457 54.823941 
L 201.507595 54.973483 
L 201.457262 55.123912 
L 201.408438 55.275193 
L 201.361106 55.427296 
L 201.315245 55.580187 
L 201.270836 55.733837 
L 201.227861 55.888213 
L 201.186299 56.043286 
L 201.146131 56.199025 
L 201.107338 56.355401 
L 201.0699 56.512385 
L 201.033797 56.669947 
L 200.99901 56.828061 
L 200.965519 56.986697 
L 200.933306 57.14583 
L 200.902349 57.305431 
L 200.872631 57.465476 
L 200.844132 57.625938 
L 200.816832 57.786791 
L 200.790713 57.948012 
L 200.765755 58.109576 
L 200.741941 58.271458 
L 200.71925 58.433637 
L 200.697665 58.596089 
L 200.677167 58.758792 
L 200.657737 58.921724 
L 200.639359 59.084864 
L 200.622013 59.248191 
L 200.605682 59.411686 
L 200.590348 59.575327 
L 200.575994 59.739097 
L 200.562603 59.902975 
L 200.550158 60.066945 
L 200.538641 60.230988 
L 200.528037 60.395086 
L 200.518328 60.559224 
L 200.509499 60.723383 
L 200.501534 60.88755 
L 200.494416 61.051707 
L 200.488131 61.215841 
L 200.482662 61.379936 
L 200.477995 61.543978 
L 200.474115 61.707953 
L 200.471007 61.871849 
L 200.468657 62.035652 
L 200.46705 62.19935 
L 200.466172 62.362931 
L 200.46601 62.526383 
L 200.46655 62.689694 
L 200.467779 62.852855 
L 200.469683 63.015854 
L 200.472249 63.178681 
L 200.475466 63.341327 
L 200.479319 63.503781 
L 200.483798 63.666036 
L 200.48889 63.828082 
L 200.494583 63.989911 
L 200.500866 64.151515 
L 200.507728 64.312886 
L 200.515156 64.474017 
L 200.52314 64.634901 
L 200.53167 64.795531 
L 200.540735 64.9559 
L 200.550324 65.116002 
L 200.560427 65.275832 
L 200.571034 65.435383 
L 200.582137 65.594651 
L 200.593724 65.75363 
L 200.605787 65.912316 
L 200.618316 66.070704 
L 200.631303 66.228789 
L 200.644738 66.386568 
L 200.658614 66.544037 
L 200.672921 66.701192 
L 200.687652 66.85803 
L 200.702798 67.014547 
L 200.718352 67.170741 
L 200.734305 67.326609 
L 200.75065 67.482149 
L 200.76738 67.637357 
L 200.784487 67.792233 
L 200.801965 67.946774 
L 200.819807 68.100978 
L 200.838005 68.254843 
L 200.856553 68.408369 
L 200.875445 68.561554 
L 200.894674 68.714397 
L 200.914235 68.866896 
L 200.934121 69.019052 
L 200.954326 69.170864 
L 200.974845 69.322331 
L 200.995672 69.473452 
L 201.016802 69.624228 
L 201.038229 69.774659 
L 201.059948 69.924744 
L 201.081954 70.074484 
L 201.104242 70.223879 
L 201.126807 70.372929 
L 201.149645 70.521636 
L 201.172751 70.669999 
L 201.196121 70.818019 
L 201.21975 70.965698 
L 201.243634 71.113036 
L 201.267768 71.260035 
L 201.29215 71.406695 
L 201.316775 71.553017 
L 201.341638 71.699004 
L 201.366738 71.844656 
L 201.392069 71.989975 
L 201.417629 72.134962 
L 201.443414 72.279619 
L 201.46942 72.423949 
L 201.495645 72.567952 
L 201.522086 72.71163 
L 201.548739 72.854986 
L 201.575601 72.998022 
L 201.60267 73.140739 
L 201.629943 73.283139 
L 201.657418 73.425226 
L 201.685091 73.567 
L 201.71296 73.708464 
L 201.741023 73.849622 
L 201.769277 73.990474 
L 201.79772 74.131023 
L 201.826351 74.271273 
L 201.855166 74.411225 
L 201.884164 74.550882 
L 201.913342 74.690246 
L 201.9427 74.829321 
L 201.972235 74.968108 
L 202.001945 75.106611 
L 202.031828 75.244832 
L 202.061883 75.382774 
L 202.092109 75.520441 
L 202.122504 75.657833 
L 202.153066 75.794956 
L 202.183794 75.931811 
L 202.214687 76.068401 
L 202.245744 76.204729 
L 202.276963 76.340799 
L 202.308342 76.476613 
L 202.339882 76.612174 
L 202.371581 76.747485 
L 202.403438 76.88255 
L 202.435452 77.017371 
L 202.467622 77.151951 
L 202.499947 77.286294 
L 202.532427 77.420402 
L 202.565061 77.554279 
L 202.597848 77.687928 
L 202.630788 77.821351 
L 202.663879 77.954553 
L 202.697123 78.087536 
L 202.730517 78.220304 
L 202.764061 78.352859 
L 202.797756 78.485205 
L 202.831601 78.617344 
L 202.865595 78.749281 
L 202.899738 78.881019 
L 202.93403 79.012559 
L 202.968472 79.143907 
L 203.003062 79.275065 
L 203.0378 79.406035 
L 203.072687 79.536823 
L 203.107723 79.667429 
L 203.142907 79.797859 
L 203.17824 79.928115 
L 203.213722 80.0582 
L 203.249352 80.188118 
L 203.285132 80.317871 
L 203.321061 80.447463 
L 203.357139 80.576898 
L 203.393368 80.706177 
L 203.429746 80.835306 
L 203.466275 80.964286 
L 203.502955 81.093121 
L 203.539787 81.221815 
L 203.57677 81.35037 
L 203.613906 81.478789 
L 203.651194 81.607076 
L 203.688636 81.735235 
L 203.726232 81.863267 
L 203.763983 81.991176 
L 203.80189 82.118966 
L 203.839952 82.24664 
L 203.878171 82.3742 
L 203.916548 82.50165 
L 203.955084 82.628993 
L 203.993778 82.756232 
L 204.032633 82.883371 
L 204.071649 83.010411 
L 204.110827 83.137357 
L 204.150168 83.264211 
L 204.189673 83.390977 
L 204.229343 83.517657 
L 204.269179 83.644255 
L 204.309182 83.770773 
L 204.349354 83.897215 
L 204.389695 84.023583 
L 204.430207 84.149881 
L 204.47089 84.276112 
L 204.511747 84.402278 
L 204.552778 84.528382 
L 204.593985 84.654427 
L 204.635369 84.780417 
L 204.676932 84.906354 
L 204.718674 85.03224 
L 204.760598 85.15808 
L 204.802705 85.283875 
L 204.844996 85.409629 
L 204.887472 85.535343 
L 204.930136 85.661022 
L 204.972989 85.786668 
L 205.016033 85.912282 
L 205.059269 86.03787 
L 205.102699 86.163432 
L 205.146325 86.288971 
L 205.190148 86.414491 
L 205.23417 86.539994 
L 205.278394 86.665482 
L 205.32282 86.790958 
L 205.367451 86.916424 
L 205.412289 87.041884 
L 205.457336 87.167339 
L 205.502593 87.292792 
L 205.548063 87.418246 
L 205.593747 87.543703 
L 205.639648 87.669164 
L 205.685768 87.794634 
L 205.73211 87.920113 
L 205.778674 88.045605 
L 205.825464 88.171111 
L 205.872481 88.296634 
L 205.919728 88.422175 
L 205.967208 88.547738 
L 206.014922 88.673324 
L 206.062873 88.798935 
L 206.111063 88.924574 
L 206.159495 89.050242 
L 206.208172 89.175941 
L 206.257095 89.301673 
L 206.306268 89.427441 
L 206.355693 89.553245 
L 206.405372 89.679089 
L 206.455308 89.804972 
L 206.505505 89.930898 
L 206.555964 90.056868 
L 206.606689 90.182883 
L 206.657681 90.308946 
L 206.708945 90.435057 
L 206.760483 90.561218 
L 206.812298 90.68743 
L 206.864393 90.813695 
L 206.91677 90.940014 
L 206.969434 91.066389 
L 207.022386 91.19282 
L 207.075631 91.319309 
L 207.129171 91.445856 
L 207.183009 91.572463 
L 207.237149 91.699131 
L 207.291593 91.82586 
L 207.346347 91.952651 
L 207.401411 92.079505 
L 207.456791 92.206423 
L 207.512489 92.333405 
L 207.568509 92.460452 
L 207.624854 92.587563 
L 207.681528 92.71474 
L 207.738535 92.841983 
L 207.795878 92.969292 
L 207.853561 93.096666 
L 207.911587 93.224106 
L 207.969961 93.351613 
L 208.028686 93.479184 
L 208.087766 93.606821 
L 208.147205 93.734523 
L 208.207007 93.862289 
L 208.267176 93.990119 
L 208.327715 94.118013 
L 208.38863 94.245968 
L 208.449923 94.373985 
L 208.5116 94.502062 
L 208.573664 94.630198 
L 208.63612 94.758393 
L 208.698971 94.886643 
L 208.762223 95.014949 
L 208.82588 95.143308 
L 208.889945 95.271719 
L 208.954424 95.400179 
L 209.019322 95.528687 
L 209.084641 95.65724 
L 209.150388 95.785836 
L 209.216567 95.914473 
L 209.283182 96.043148 
L 209.350239 96.171857 
L 209.417741 96.300599 
L 209.485695 96.42937 
L 209.554104 96.558167 
L 209.622973 96.686985 
L 209.692308 96.815823 
L 209.762114 96.944675 
L 209.832395 97.073538 
L 209.903156 97.202407 
L 209.974404 97.331279 
L 210.046142 97.460149 
L 210.118376 97.589011 
L 210.191111 97.717861 
L 210.264353 97.846694 
L 210.338107 97.975504 
L 210.412378 98.104286 
L 210.487171 98.233034 
L 210.562492 98.361742 
L 210.638347 98.490404 
L 210.714741 98.619012 
L 210.791678 98.747561 
L 210.869166 98.876043 
L 210.947209 99.004451 
L 211.025813 99.132778 
L 211.104984 99.261015 
L 211.184727 99.389155 
L 211.265048 99.51719 
L 211.345953 99.645111 
L 211.427448 99.772908 
L 211.509537 99.900574 
L 211.592227 100.028098 
L 211.675525 100.155471 
L 211.759434 100.282683 
L 211.843962 100.409723 
L 211.929114 100.536581 
L 212.014895 100.663247 
L 212.101313 100.789708 
L 212.188372 100.915953 
L 212.276078 101.041971 
L 212.364438 101.167749 
L 212.453456 101.293274 
L 212.54314 101.418535 
L 212.633493 101.543516 
L 212.724524 101.668206 
L 212.816236 101.79259 
L 212.908636 101.916653 
L 213.00173 102.040382 
L 213.095523 102.163761 
L 213.190021 102.286775 
L 213.285229 102.409408 
L 213.381153 102.531644 
L 213.477799 102.653466 
L 213.575172 102.774858 
L 213.673277 102.895803 
L 213.77212 103.016282 
L 213.871707 103.136279 
L 213.972041 103.255773 
L 214.073129 103.374748 
L 214.174975 103.493183 
L 214.277585 103.611059 
L 214.380963 103.728356 
L 214.485113 103.845054 
L 214.590042 103.961133 
L 214.695753 104.07657 
L 214.80225 104.191344 
L 214.909539 104.305434 
L 215.017623 104.418818 
L 215.126505 104.531472 
L 215.236191 104.643374 
L 215.346684 104.754499 
L 215.457986 104.864826 
L 215.570103 104.974329 
L 215.683036 105.082983 
L 215.79679 105.190764 
L 215.911365 105.297647 
L 216.026767 105.403606 
L 216.142996 105.508616 
L 216.260055 105.612649 
L 216.377945 105.715679 
L 216.49667 105.81768 
L 216.616229 105.918624 
L 216.736624 106.018483 
L 216.857857 106.117231 
L 216.979927 106.214838 
L 217.102835 106.311277 
L 217.226581 106.406518 
L 217.351165 106.500534 
L 217.476587 106.593295 
L 217.602845 106.684771 
L 217.729937 106.774934 
L 217.857864 106.863754 
L 217.986622 106.9512 
L 218.116209 107.037244 
L 218.246623 107.121855 
L 218.37786 107.205002 
L 218.509917 107.286657 
L 218.64279 107.366787 
L 218.776475 107.445364 
L 218.910966 107.522357 
L 219.04626 107.597735 
L 219.18235 107.671468 
L 219.319229 107.743526 
L 219.456892 107.813879 
L 219.595332 107.882497 
L 219.73454 107.94935 
L 219.87451 108.014408 
L 220.015231 108.077641 
L 220.156697 108.13902 
L 220.298896 108.198517 
L 220.441819 108.256102 
L 220.585455 108.311746 
L 220.729794 108.365422 
L 220.874823 108.417102 
L 221.020531 108.466757 
L 221.166905 108.514362 
L 221.313931 108.55989 
L 221.461597 108.603313 
L 221.609887 108.644608 
L 221.758786 108.683748 
L 221.90828 108.72071 
L 222.058352 108.755468 
L 222.208986 108.788001 
L 222.360165 108.818285 
L 222.511871 108.846298 
L 222.664086 108.87202 
L 222.816792 108.89543 
L 222.969968 108.916507 
L 223.123597 108.935234 
L 223.277656 108.951591 
L 223.432127 108.965562 
L 223.586986 108.977131 
L 223.742213 108.986282 
L 223.897786 108.993 
L 224.053681 108.997271 
L 224.209876 108.999084 
L 224.366348 108.998427 
L 224.523071 108.995288 
L 224.680022 108.989658 
L 224.837176 108.981529 
L 224.994507 108.970893 
L 225.151991 108.957744 
L 225.309602 108.942076 
L 225.467312 108.923885 
L 225.625096 108.903167 
L 225.782927 108.879921 
L 225.940777 108.854145 
L 226.09862 108.82584 
L 226.256428 108.795007 
L 226.414173 108.761649 
L 226.571827 108.725768 
L 226.729363 108.68737 
L 226.886751 108.646459 
L 227.043964 108.603044 
L 227.200973 108.557132 
L 227.357751 108.508732 
L 227.514267 108.457854 
L 227.670495 108.404509 
L 227.826405 108.348711 
L 227.981969 108.290471 
L 228.137159 108.229805 
L 228.291947 108.166728 
L 228.446304 108.101256 
L 228.600203 108.033408 
L 228.753615 107.9632 
L 228.906513 107.890653 
L 229.05887 107.815788 
L 229.210658 107.738624 
L 229.361852 107.659184 
L 229.512423 107.577492 
L 229.662346 107.49357 
L 229.811595 107.407443 
L 229.960144 107.319138 
L 230.107968 107.228679 
L 230.255043 107.136093 
L 230.401344 107.041409 
L 230.546846 106.944653 
L 230.691527 106.845855 
L 230.835363 106.745044 
L 230.978332 106.64225 
L 231.120412 106.537503 
L 231.26158 106.430834 
L 231.401817 106.322275 
L 231.541101 106.211857 
L 231.679413 106.099612 
L 231.816733 105.985574 
L 231.953043 105.869773 
L 232.088323 105.752245 
L 232.222557 105.633022 
L 232.355728 105.512138 
L 232.487818 105.389627 
L 232.618812 105.265523 
L 232.748695 105.13986 
L 232.877452 105.012672 
L 233.005069 104.883993 
L 233.131532 104.753859 
L 233.256829 104.622303 
L 233.380948 104.48936 
L 233.503876 104.355065 
L 233.625603 104.219451 
L 233.746119 104.082554 
L 233.865413 103.944407 
L 233.983477 103.805044 
L 234.100302 103.664499 
L 234.215879 103.522807 
L 234.330202 103.379999 
L 234.443264 103.236111 
L 234.555058 103.091175 
L 234.665579 102.945223 
L 234.774821 102.798289 
L 234.882781 102.650405 
L 234.989453 102.501602 
L 235.094834 102.351913 
L 235.198922 102.201368 
L 235.301714 102.049999 
L 235.403208 101.897836 
L 235.503401 101.74491 
L 235.602295 101.59125 
L 235.699887 101.436886 
L 235.796177 101.281846 
L 235.891167 101.12616 
L 235.984856 100.969856 
L 236.077246 100.812961 
L 236.168339 100.655503 
L 236.258136 100.497508 
L 236.34664 100.339004 
L 236.433854 100.180015 
L 236.51978 100.020568 
L 236.604423 99.860687 
L 236.687786 99.700398 
L 236.769872 99.539724 
L 236.850687 99.378689 
L 236.930236 99.217315 
L 237.008522 99.055627 
L 237.085552 98.893645 
L 237.161331 98.731392 
L 237.235865 98.568889 
L 237.30916 98.406156 
L 237.381222 98.243214 
L 237.452058 98.080083 
L 237.521674 97.916782 
L 237.590077 97.75333 
L 237.657275 97.589745 
L 237.723275 97.426046 
L 237.788083 97.26225 
L 237.851708 97.098373 
L 237.914158 96.934433 
L 237.97544 96.770446 
L 238.035562 96.606427 
L 238.094532 96.442392 
L 238.152359 96.278355 
L 238.209051 96.114331 
L 238.264617 95.950334 
L 238.319064 95.786377 
L 238.372402 95.622474 
L 238.424639 95.458637 
L 238.475783 95.294879 
L 238.525845 95.131212 
L 238.574831 94.967647 
L 238.622752 94.804196 
L 238.669616 94.640869 
L 238.715433 94.477676 
L 238.76021 94.314629 
L 238.803957 94.151736 
L 238.846684 93.989007 
L 238.888398 93.826451 
L 238.929109 93.664076 
L 238.968826 93.501892 
L 239.007558 93.339906 
L 239.045314 93.178126 
L 239.082102 93.016559 
L 239.117932 92.855212 
L 239.152812 92.694093 
L 239.186752 92.533207 
L 239.219759 92.372561 
L 239.251843 92.212161 
L 239.283013 92.052013 
L 239.313277 91.892122 
L 239.342644 91.732493 
L 239.371121 91.573131 
L 239.398719 91.41404 
L 239.425445 91.255226 
L 239.451307 91.096692 
L 239.476315 90.938442 
L 239.500475 90.78048 
L 239.523797 90.622809 
L 239.546288 90.465433 
L 239.567957 90.308354 
L 239.58881 90.151576 
L 239.608858 89.995101 
L 239.628106 89.838931 
L 239.646562 89.683069 
L 239.664236 89.527517 
L 239.681133 89.372277 
L 239.697261 89.217351 
L 239.712628 89.062739 
L 239.727242 88.908444 
L 239.741108 88.754466 
L 239.754235 88.600807 
L 239.766629 88.447467 
L 239.778298 88.294448 
L 239.789247 88.14175 
L 239.799485 87.989373 
L 239.809017 87.837318 
L 239.817851 87.685584 
L 239.825991 87.534173 
L 239.833447 87.383084 
L 239.840222 87.232316 
L 239.846324 87.08187 
L 239.851758 86.931745 
L 239.856531 86.781941 
L 239.860649 86.632456 
L 239.864117 86.483291 
L 239.866941 86.334444 
L 239.869127 86.185915 
L 239.870681 86.037702 
L 239.871607 85.889804 
L 239.871911 85.742221 
L 239.871599 85.59495 
L 239.870675 85.447991 
L 239.869145 85.301342 
L 239.867014 85.155002 
L 239.864286 85.008968 
L 239.860966 84.86324 
L 239.85706 84.717816 
L 239.852571 84.572693 
L 239.847505 84.42787 
L 239.841865 84.283345 
L 239.835656 84.139116 
L 239.828883 83.995181 
L 239.821549 83.851538 
L 239.813658 83.708184 
L 239.805215 83.565118 
L 239.796224 83.422337 
L 239.786688 83.279839 
L 239.776611 83.137621 
L 239.765997 82.995682 
L 239.754849 82.854018 
L 239.74317 82.712628 
L 239.730965 82.571508 
L 239.718236 82.430656 
L 239.704987 82.29007 
L 239.69122 82.149747 
L 239.67694 82.009684 
L 239.662148 81.869879 
L 239.646848 81.730328 
L 239.631043 81.59103 
L 239.614735 81.45198 
L 239.597927 81.313178 
L 239.580621 81.174619 
L 239.56282 81.0363 
L 239.544527 80.89822 
L 239.525743 80.760375 
L 239.506472 80.622762 
L 239.486715 80.485377 
L 239.466474 80.34822 
L 239.445751 80.211285 
L 239.424549 80.07457 
L 239.402868 79.938073 
L 239.380712 79.80179 
L 239.358081 79.665718 
L 239.334978 79.529855 
L 239.311404 79.394196 
L 239.28736 79.258739 
L 239.262847 79.123481 
L 239.237868 78.988419 
L 239.212424 78.85355 
L 239.186515 78.71887 
L 239.160143 78.584377 
L 239.133309 78.450067 
L 239.106014 78.315938 
L 239.078259 78.181985 
L 239.050045 78.048207 
L 239.021372 77.914599 
L 238.992241 77.781159 
L 238.962653 77.647883 
L 238.932609 77.514769 
L 238.902109 77.381814 
L 238.871153 77.249013 
L 238.839742 77.116364 
L 238.807876 76.983865 
L 238.775556 76.85151 
L 238.742781 76.719299 
L 238.709552 76.587227 
L 238.675869 76.455291 
L 238.641731 76.323488 
L 238.60714 76.191815 
L 238.572093 76.060269 
L 238.536592 75.928847 
L 238.500636 75.797546 
L 238.464225 75.666362 
L 238.427358 75.535293 
L 238.390035 75.404335 
L 238.352255 75.273485 
L 238.314018 75.14274 
L 238.275323 75.012098 
L 238.236169 74.881554 
L 238.196556 74.751107 
L 238.156482 74.620752 
L 238.115947 74.490487 
L 238.07495 74.36031 
L 238.03349 74.230216 
L 237.991565 74.100203 
" style="fill:#1f77b4;"/>
   </g>
   <g id="patch_3">
    <path d="M 178.1 170.490909 
L 160.955449 170.006498 
L 150.940484 169.26933 
L 142.599964 168.391644 
L 135.218108 167.407618 
L 128.498782 166.335779 
L 122.283541 165.188115 
L 116.475361 163.97318 
L 111.009579 162.697477 
L 105.840516 161.366172 
L 96.265875 158.553102 
L 87.564762 155.56101 
L 79.61973 152.410651 
L 72.351875 149.118918 
L 65.705717 145.700173 
L 59.640948 142.167036 
L 54.127562 138.530886 
L 49.142812 134.802195 
L 44.669227 130.99076 
L 40.693259 127.105861 
L 37.204344 123.15639 
L 34.194229 119.150934 
L 31.656488 115.097848 
L 29.586159 111.005307 
L 27.979483 106.881348 
L 27.349121 104.81007 
L 26.833713 102.733908 
L 26.43305 100.653842 
L 26.146975 98.570852 
L 25.975375 96.485913 
L 25.918182 94.4 
L 25.975375 92.314087 
L 26.146975 90.229148 
L 26.43305 88.146158 
L 26.833713 86.066092 
L 27.349121 83.98993 
L 27.979483 81.918652 
L 29.586159 77.794693 
L 31.656488 73.702152 
L 34.194229 69.649066 
L 37.204344 65.64361 
L 40.693259 61.694139 
L 44.669227 57.80924 
L 49.142812 53.997805 
L 54.127562 50.269114 
L 59.640948 46.632964 
L 65.705717 43.099827 
L 72.351875 39.681082 
L 79.61973 36.389349 
L 87.564762 33.23899 
L 96.265875 30.246898 
L 100.934496 28.816483 
L 105.840516 27.433828 
L 111.009579 26.102523 
L 116.475361 24.82682 
L 122.283541 23.611885 
L 128.498782 22.464221 
L 135.218108 21.392382 
L 142.599964 20.408356 
L 150.940484 19.53067 
L 160.955449 18.793502 
L 178.1 18.309091 
L 178.1 18.309091 
L 195.244551 18.793502 
L 205.259516 19.53067 
L 213.600036 20.408356 
L 220.981892 21.392382 
L 227.701218 22.464221 
L 233.916459 23.611885 
L 239.724639 24.82682 
L 245.190421 26.102523 
L 250.359484 27.433828 
L 259.934125 30.246898 
L 268.635238 33.23899 
L 276.58027 36.389349 
L 283.848125 39.681082 
L 290.494283 43.099827 
L 296.559052 46.632964 
L 302.072438 50.269114 
L 307.057188 53.997805 
L 311.530773 57.80924 
L 315.506741 61.694139 
L 318.995656 65.64361 
L 322.005771 69.649066 
L 324.543512 73.702152 
L 326.613841 77.794693 
L 328.220517 81.918652 
L 328.850879 83.98993 
L 329.366287 86.066092 
L 329.76695 88.146158 
L 330.053025 90.229148 
L 330.224625 92.314087 
L 330.281818 94.4 
L 330.224625 96.485913 
L 330.053025 98.570852 
L 329.76695 100.653842 
L 329.366287 102.733908 
L 328.850879 104.81007 
L 328.220517 106.881348 
L 326.613841 111.005307 
L 324.543512 115.097848 
L 322.005771 119.150934 
L 318.995656 123.15639 
L 315.506741 127.105861 
L 311.530773 130.99076 
L 307.057188 134.802195 
L 302.072438 138.530886 
L 296.559052 142.167036 
L 290.494283 145.700173 
L 283.848125 149.118918 
L 276.58027 152.410651 
L 268.635238 155.56101 
L 259.934125 158.553102 
L 255.265504 159.983517 
L 250.359484 161.366172 
L 245.190421 162.697477 
L 239.724639 163.97318 
L 233.916459 165.188115 
L 227.701218 166.335779 
L 220.981892 167.407618 
L 213.600036 168.391644 
L 205.259516 169.26933 
L 195.244551 170.006498 
L 178.1 170.490909 
L 178.1 170.490909 
" style="fill:none;stroke:#000000;stroke-linejoin:miter;"/>
   </g>
  </g>
 </g>
 <defs>
  <clipPath id="p59d44970d6">
   <rect height="167.4" width="334.8" x="10.7" y="10.7"/>
  </clipPath>
 </defs>
</svg>
