<?xml version="1.0" encoding="utf-8" standalone="no"?>
<!DOCTYPE svg PUBLIC "-//W3C//DTD SVG 1.1//EN"
  "http://www.w3.org/Graphics/SVG/1.1/DTD/svg11.dtd">
<!-- Created with matplotlib (http://matplotlib.org/) -->
<svg height="263pt" version="1.1" viewBox="0 0 274 263" width="274pt" xmlns="http://www.w3.org/2000/svg" xmlns:xlink="http://www.w3.org/1999/xlink">
 <defs>
  <style type="text/css">
*{stroke-linecap:butt;stroke-linejoin:round;}
  </style>
 </defs>
 <g id="figure_1">
  <g id="patch_1">
   <path d="M 0 263.262125 
L 274.49025 263.262125 
L 274.49025 0 
L 0 0 
z
" style="fill:none;"/>
  </g>
  <g id="axes_1">
   <g id="matplotlib.axis_1">
    <g id="xtick_1">
     <g id="text_1">
      <!-- 0° -->
      <defs>
       <path d="M 31.78125 66.40625 
Q 24.171875 66.40625 20.328125 58.90625 
Q 16.5 51.421875 16.5 36.375 
Q 16.5 21.390625 20.328125 13.890625 
Q 24.171875 6.390625 31.78125 6.390625 
Q 39.453125 6.390625 43.28125 13.890625 
Q 47.125 21.390625 47.125 36.375 
Q 47.125 51.421875 43.28125 58.90625 
Q 39.453125 66.40625 31.78125 66.40625 
z
M 31.78125 74.21875 
Q 44.046875 74.21875 50.515625 64.515625 
Q 56.984375 54.828125 56.984375 36.375 
Q 56.984375 17.96875 50.515625 8.265625 
Q 44.046875 -1.421875 31.78125 -1.421875 
Q 19.53125 -1.421875 13.0625 8.265625 
Q 6.59375 17.96875 6.59375 36.375 
Q 6.59375 54.828125 13.0625 64.515625 
Q 19.53125 74.21875 31.78125 74.21875 
z
" id="DejaVuSans-30"/>
       <path d="M 25 67.921875 
Q 21.09375 67.921875 18.40625 65.203125 
Q 15.71875 62.5 15.71875 58.59375 
Q 15.71875 54.734375 18.40625 52.078125 
Q 21.09375 49.421875 25 49.421875 
Q 28.90625 49.421875 31.59375 52.078125 
Q 34.28125 54.734375 34.28125 58.59375 
Q 34.28125 62.453125 31.5625 65.1875 
Q 28.859375 67.921875 25 67.921875 
z
M 25 74.21875 
Q 28.125 74.21875 31 73.015625 
Q 33.890625 71.828125 35.984375 69.578125 
Q 38.234375 67.390625 39.359375 64.59375 
Q 40.484375 61.8125 40.484375 58.59375 
Q 40.484375 52.15625 35.96875 47.6875 
Q 31.453125 43.21875 24.90625 43.21875 
Q 18.3125 43.21875 13.90625 47.609375 
Q 9.515625 52 9.515625 58.59375 
Q 9.515625 65.140625 14 69.671875 
Q 18.5 74.21875 25 74.21875 
z
" id="DejaVuSans-b0"/>
      </defs>
      <g transform="translate(133.1545 14.798438)scale(0.1 -0.1)">
       <use xlink:href="#DejaVuSans-30"/>
       <use x="63.623047" xlink:href="#DejaVuSans-b0"/>
      </g>
     </g>
    </g>
    <g id="xtick_2">
     <g id="text_2">
      <!-- 45° -->
      <defs>
       <path d="M 37.796875 64.3125 
L 12.890625 25.390625 
L 37.796875 25.390625 
z
M 35.203125 72.90625 
L 47.609375 72.90625 
L 47.609375 25.390625 
L 58.015625 25.390625 
L 58.015625 17.1875 
L 47.609375 17.1875 
L 47.609375 0 
L 37.796875 0 
L 37.796875 17.1875 
L 4.890625 17.1875 
L 4.890625 26.703125 
z
" id="DejaVuSans-34"/>
       <path d="M 10.796875 72.90625 
L 49.515625 72.90625 
L 49.515625 64.59375 
L 19.828125 64.59375 
L 19.828125 46.734375 
Q 21.96875 47.46875 24.109375 47.828125 
Q 26.265625 48.1875 28.421875 48.1875 
Q 40.625 48.1875 47.75 41.5 
Q 54.890625 34.8125 54.890625 23.390625 
Q 54.890625 11.625 47.5625 5.09375 
Q 40.234375 -1.421875 26.90625 -1.421875 
Q 22.3125 -1.421875 17.546875 -0.640625 
Q 12.796875 0.140625 7.71875 1.703125 
L 7.71875 11.625 
Q 12.109375 9.234375 16.796875 8.0625 
Q 21.484375 6.890625 26.703125 6.890625 
Q 35.15625 6.890625 40.078125 11.328125 
Q 45.015625 15.765625 45.015625 23.390625 
Q 45.015625 31 40.078125 35.4375 
Q 35.15625 39.890625 26.703125 39.890625 
Q 22.75 39.890625 18.8125 39.015625 
Q 14.890625 38.140625 10.796875 36.28125 
z
" id="DejaVuSans-35"/>
      </defs>
      <g transform="translate(214.537564 49.826123)scale(0.1 -0.1)">
       <use xlink:href="#DejaVuSans-34"/>
       <use x="63.623047" xlink:href="#DejaVuSans-35"/>
       <use x="127.246094" xlink:href="#DejaVuSans-b0"/>
      </g>
     </g>
    </g>
    <g id="xtick_3">
     <g id="text_3">
      <!-- 90° -->
      <defs>
       <path d="M 10.984375 1.515625 
L 10.984375 10.5 
Q 14.703125 8.734375 18.5 7.8125 
Q 22.3125 6.890625 25.984375 6.890625 
Q 35.75 6.890625 40.890625 13.453125 
Q 46.046875 20.015625 46.78125 33.40625 
Q 43.953125 29.203125 39.59375 26.953125 
Q 35.25 24.703125 29.984375 24.703125 
Q 19.046875 24.703125 12.671875 31.3125 
Q 6.296875 37.9375 6.296875 49.421875 
Q 6.296875 60.640625 12.9375 67.421875 
Q 19.578125 74.21875 30.609375 74.21875 
Q 43.265625 74.21875 49.921875 64.515625 
Q 56.59375 54.828125 56.59375 36.375 
Q 56.59375 19.140625 48.40625 8.859375 
Q 40.234375 -1.421875 26.421875 -1.421875 
Q 22.703125 -1.421875 18.890625 -0.6875 
Q 15.09375 0.046875 10.984375 1.515625 
z
M 30.609375 32.421875 
Q 37.25 32.421875 41.125 36.953125 
Q 45.015625 41.5 45.015625 49.421875 
Q 45.015625 57.28125 41.125 61.84375 
Q 37.25 66.40625 30.609375 66.40625 
Q 23.96875 66.40625 20.09375 61.84375 
Q 16.21875 57.28125 16.21875 49.421875 
Q 16.21875 41.5 20.09375 36.953125 
Q 23.96875 32.421875 30.609375 32.421875 
z
" id="DejaVuSans-39"/>
      </defs>
      <g transform="translate(249.56525 134.390438)scale(0.1 -0.1)">
       <use xlink:href="#DejaVuSans-39"/>
       <use x="63.623047" xlink:href="#DejaVuSans-30"/>
       <use x="127.246094" xlink:href="#DejaVuSans-b0"/>
      </g>
     </g>
    </g>
    <g id="xtick_4">
     <g id="text_4">
      <!-- 135° -->
      <defs>
       <path d="M 12.40625 8.296875 
L 28.515625 8.296875 
L 28.515625 63.921875 
L 10.984375 60.40625 
L 10.984375 69.390625 
L 28.421875 72.90625 
L 38.28125 72.90625 
L 38.28125 8.296875 
L 54.390625 8.296875 
L 54.390625 0 
L 12.40625 0 
z
" id="DejaVuSans-31"/>
       <path d="M 40.578125 39.3125 
Q 47.65625 37.796875 51.625 33 
Q 55.609375 28.21875 55.609375 21.1875 
Q 55.609375 10.40625 48.1875 4.484375 
Q 40.765625 -1.421875 27.09375 -1.421875 
Q 22.515625 -1.421875 17.65625 -0.515625 
Q 12.796875 0.390625 7.625 2.203125 
L 7.625 11.71875 
Q 11.71875 9.328125 16.59375 8.109375 
Q 21.484375 6.890625 26.8125 6.890625 
Q 36.078125 6.890625 40.9375 10.546875 
Q 45.796875 14.203125 45.796875 21.1875 
Q 45.796875 27.640625 41.28125 31.265625 
Q 36.765625 34.90625 28.71875 34.90625 
L 20.21875 34.90625 
L 20.21875 43.015625 
L 29.109375 43.015625 
Q 36.375 43.015625 40.234375 45.921875 
Q 44.09375 48.828125 44.09375 54.296875 
Q 44.09375 59.90625 40.109375 62.90625 
Q 36.140625 65.921875 28.71875 65.921875 
Q 24.65625 65.921875 20.015625 65.03125 
Q 15.375 64.15625 9.8125 62.3125 
L 9.8125 71.09375 
Q 15.4375 72.65625 20.34375 73.4375 
Q 25.25 74.21875 29.59375 74.21875 
Q 40.828125 74.21875 47.359375 69.109375 
Q 53.90625 64.015625 53.90625 55.328125 
Q 53.90625 49.265625 50.4375 45.09375 
Q 46.96875 40.921875 40.578125 39.3125 
z
" id="DejaVuSans-33"/>
      </defs>
      <g transform="translate(211.356314 218.954752)scale(0.1 -0.1)">
       <use xlink:href="#DejaVuSans-31"/>
       <use x="63.623047" xlink:href="#DejaVuSans-33"/>
       <use x="127.246094" xlink:href="#DejaVuSans-35"/>
       <use x="190.869141" xlink:href="#DejaVuSans-b0"/>
      </g>
     </g>
    </g>
    <g id="xtick_5">
     <g id="text_5">
      <!-- 180° -->
      <defs>
       <path d="M 31.78125 34.625 
Q 24.75 34.625 20.71875 30.859375 
Q 16.703125 27.09375 16.703125 20.515625 
Q 16.703125 13.921875 20.71875 10.15625 
Q 24.75 6.390625 31.78125 6.390625 
Q 38.8125 6.390625 42.859375 10.171875 
Q 46.921875 13.96875 46.921875 20.515625 
Q 46.921875 27.09375 42.890625 30.859375 
Q 38.875 34.625 31.78125 34.625 
z
M 21.921875 38.8125 
Q 15.578125 40.375 12.03125 44.71875 
Q 8.5 49.078125 8.5 55.328125 
Q 8.5 64.0625 14.71875 69.140625 
Q 20.953125 74.21875 31.78125 74.21875 
Q 42.671875 74.21875 48.875 69.140625 
Q 55.078125 64.0625 55.078125 55.328125 
Q 55.078125 49.078125 51.53125 44.71875 
Q 48 40.375 41.703125 38.8125 
Q 48.828125 37.15625 52.796875 32.3125 
Q 56.78125 27.484375 56.78125 20.515625 
Q 56.78125 9.90625 50.3125 4.234375 
Q 43.84375 -1.421875 31.78125 -1.421875 
Q 19.734375 -1.421875 13.25 4.234375 
Q 6.78125 9.90625 6.78125 20.515625 
Q 6.78125 27.484375 10.78125 32.3125 
Q 14.796875 37.15625 21.921875 38.8125 
z
M 18.3125 54.390625 
Q 18.3125 48.734375 21.84375 45.5625 
Q 25.390625 42.390625 31.78125 42.390625 
Q 38.140625 42.390625 41.71875 45.5625 
Q 45.3125 48.734375 45.3125 54.390625 
Q 45.3125 60.0625 41.71875 63.234375 
Q 38.140625 66.40625 31.78125 66.40625 
Q 25.390625 66.40625 21.84375 63.234375 
Q 18.3125 60.0625 18.3125 54.390625 
z
" id="DejaVuSans-38"/>
      </defs>
      <g transform="translate(126.792 253.982438)scale(0.1 -0.1)">
       <use xlink:href="#DejaVuSans-31"/>
       <use x="63.623047" xlink:href="#DejaVuSans-38"/>
       <use x="127.246094" xlink:href="#DejaVuSans-30"/>
       <use x="190.869141" xlink:href="#DejaVuSans-b0"/>
      </g>
     </g>
    </g>
    <g id="xtick_6">
     <g id="text_6">
      <!-- 225° -->
      <defs>
       <path d="M 19.1875 8.296875 
L 53.609375 8.296875 
L 53.609375 0 
L 7.328125 0 
L 7.328125 8.296875 
Q 12.9375 14.109375 22.625 23.890625 
Q 32.328125 33.6875 34.8125 36.53125 
Q 39.546875 41.84375 41.421875 45.53125 
Q 43.3125 49.21875 43.3125 52.78125 
Q 43.3125 58.59375 39.234375 62.25 
Q 35.15625 65.921875 28.609375 65.921875 
Q 23.96875 65.921875 18.8125 64.3125 
Q 13.671875 62.703125 7.8125 59.421875 
L 7.8125 69.390625 
Q 13.765625 71.78125 18.9375 73 
Q 24.125 74.21875 28.421875 74.21875 
Q 39.75 74.21875 46.484375 68.546875 
Q 53.21875 62.890625 53.21875 53.421875 
Q 53.21875 48.921875 51.53125 44.890625 
Q 49.859375 40.875 45.40625 35.40625 
Q 44.1875 33.984375 37.640625 27.21875 
Q 31.109375 20.453125 19.1875 8.296875 
z
" id="DejaVuSans-32"/>
      </defs>
      <g transform="translate(42.227686 218.954752)scale(0.1 -0.1)">
       <use xlink:href="#DejaVuSans-32"/>
       <use x="63.623047" xlink:href="#DejaVuSans-32"/>
       <use x="127.246094" xlink:href="#DejaVuSans-35"/>
       <use x="190.869141" xlink:href="#DejaVuSans-b0"/>
      </g>
     </g>
    </g>
    <g id="xtick_7">
     <g id="text_7">
      <!-- 270° -->
      <defs>
       <path d="M 8.203125 72.90625 
L 55.078125 72.90625 
L 55.078125 68.703125 
L 28.609375 0 
L 18.3125 0 
L 43.21875 64.59375 
L 8.203125 64.59375 
z
" id="DejaVuSans-37"/>
      </defs>
      <g transform="translate(7.2 134.390438)scale(0.1 -0.1)">
       <use xlink:href="#DejaVuSans-32"/>
       <use x="63.623047" xlink:href="#DejaVuSans-37"/>
       <use x="127.246094" xlink:href="#DejaVuSans-30"/>
       <use x="190.869141" xlink:href="#DejaVuSans-b0"/>
      </g>
     </g>
    </g>
    <g id="xtick_8">
     <g id="text_8">
      <!-- 315° -->
      <g transform="translate(42.227686 49.826123)scale(0.1 -0.1)">
       <use xlink:href="#DejaVuSans-33"/>
       <use x="63.623047" xlink:href="#DejaVuSans-31"/>
       <use x="127.246094" xlink:href="#DejaVuSans-35"/>
       <use x="190.869141" xlink:href="#DejaVuSans-b0"/>
      </g>
     </g>
    </g>
   </g>
   <g id="matplotlib.axis_2"/>
  </g>
  <g id="axes_2">
   <g id="patch_2">
    <path d="M 138.83575 240.351063 
C 167.668631 240.351063 195.324474 228.895637 215.712399 208.507712 
C 236.100325 188.119786 247.55575 160.463944 247.55575 131.631063 
C 247.55575 102.798181 236.100325 75.142339 215.712399 54.754413 
C 195.324474 34.366488 167.668631 22.911063 138.83575 22.911063 
C 110.002869 22.911063 82.347026 34.366488 61.959101 54.754413 
C 41.571175 75.142339 30.11575 102.798181 30.11575 131.631063 
C 30.11575 160.463944 41.571175 188.119786 61.959101 208.507712 
C 82.347026 228.895637 110.002869 240.351063 138.83575 240.351063 
z
" style="fill:#ffffff;"/>
   </g>
   <g id="matplotlib.axis_3">
    <g id="xtick_9">
     <g id="line2d_1">
      <path clip-path="url(#pb60118f750)" d="M 119.95672 238.699361 
L 110.086468 236.481037 
L 100.465139 233.354878 
L 91.176039 229.347951 
L 82.299597 224.494951 
L 73.912668 218.837896 
L 66.08787 212.425768 
L 58.892955 205.314085 
L 52.390217 197.564425 
L 46.635961 189.243885 
L 41.680009 180.424509 
L 37.565273 171.18266 
L 34.327378 161.598356 
L 31.994361 151.754583 
L 30.586422 141.736571 
L 30.11575 131.631063 
L 30.586422 121.525554 
L 31.994361 111.507542 
L 34.327378 101.663769 
L 37.565273 92.079465 
L 41.680009 82.837616 
L 46.635961 74.01824 
L 52.390217 65.6977 
L 58.892955 57.94804 
L 66.08787 50.836357 
L 73.912668 44.424229 
L 82.299597 38.767174 
L 91.176039 33.914174 
L 100.465139 29.907247 
L 110.086468 26.781088 
L 119.95672 24.562764 
" style="fill:none;stroke:#b0b0b0;stroke-linecap:square;stroke-width:0.8;"/>
     </g>
    </g>
    <g id="xtick_10">
     <g id="line2d_2">
      <path clip-path="url(#pb60118f750)" d="M 120.517663 237.120722 
L 111.151705 234.153614 
L 102.155355 230.374098 
L 93.590599 225.828438 
L 85.513958 220.566304 
L 77.97659 214.640196 
L 71.024447 208.104955 
L 64.698431 201.017329 
L 59.034575 193.435618 
L 54.064209 185.419366 
L 49.814122 177.029103 
L 46.306718 168.326133 
L 43.560138 159.372357 
L 41.588376 150.230116 
L 40.401363 140.962066 
L 40.005035 131.631063 
L 40.401363 122.300059 
L 41.588376 113.032009 
L 43.560138 103.889768 
L 46.306718 94.935992 
L 49.814122 86.233022 
L 54.064209 77.842759 
L 59.034575 69.826507 
L 64.698431 62.244796 
L 71.024447 55.15717 
L 77.97659 48.621929 
L 85.513958 42.695821 
L 93.590599 37.433687 
L 102.155355 32.888027 
L 111.151705 29.108511 
L 120.517663 26.141403 
" style="fill:none;stroke:#b0b0b0;stroke-linecap:square;stroke-width:0.8;"/>
     </g>
    </g>
    <g id="xtick_11">
     <g id="line2d_3">
      <path clip-path="url(#pb60118f750)" d="M 121.599717 235.654866 
L 112.964848 232.038777 
L 104.776269 227.720608 
L 97.071837 222.755235 
L 89.884253 217.196971 
L 83.241692 211.099367 
L 77.168351 204.515093 
L 71.684922 197.495905 
L 66.809002 190.092657 
L 62.555422 182.35535 
L 58.936537 174.33321 
L 55.96245 166.074778 
L 53.641193 157.628017 
L 51.978877 149.040422 
L 50.979791 140.359136 
L 50.646481 131.631063 
L 50.979791 122.902989 
L 51.978877 114.221703 
L 53.641193 105.634108 
L 55.96245 97.187347 
L 58.936537 88.928915 
L 62.555422 80.906775 
L 66.809002 73.169468 
L 71.684922 65.76622 
L 77.168351 58.747032 
L 83.241692 52.162758 
L 89.884253 46.065154 
L 97.071837 40.50689 
L 104.776269 35.541517 
L 112.964848 31.223348 
L 121.599717 27.607259 
" style="fill:none;stroke:#b0b0b0;stroke-linecap:square;stroke-width:0.8;"/>
     </g>
    </g>
    <g id="xtick_12">
     <g id="line2d_4">
      <path clip-path="url(#pb60118f750)" d="M 123.152695 234.333624 
L 115.436993 230.169002 
L 108.199205 225.415998 
L 101.455076 220.129321 
L 95.2173 214.360525 
L 89.496161 208.158343 
L 84.300029 201.569027 
L 79.635742 194.636675 
L 75.508899 187.403539 
L 71.924076 179.91031 
L 68.884996 172.196372 
L 66.39465 164.300043 
L 64.455383 156.258778 
L 63.068964 148.109372 
L 62.236627 139.888136 
L 61.959101 131.631063 
L 62.236627 123.373989 
L 63.068964 115.152753 
L 64.455383 107.003347 
L 66.39465 98.962082 
L 68.884996 91.065753 
L 71.924076 83.351815 
L 75.508899 75.858586 
L 79.635742 68.62545 
L 84.300029 61.693098 
L 89.496161 55.103782 
L 95.2173 48.9016 
L 101.455076 43.132804 
L 108.199205 37.846127 
L 115.436993 33.093123 
L 123.152695 28.928501 
" style="fill:none;stroke:#b0b0b0;stroke-linecap:square;stroke-width:0.8;"/>
     </g>
    </g>
    <g id="xtick_13">
     <g id="line2d_5">
      <path clip-path="url(#pb60118f750)" d="M 125.118859 233.181767 
L 118.475051 228.565934 
L 112.298539 223.46966 
L 106.588053 217.941429 
L 101.341903 212.025619 
L 96.55826 205.763216 
L 92.235338 199.192418 
L 88.371492 192.349142 
L 84.965274 185.267449 
L 82.015451 177.979892 
L 79.521002 170.517822 
L 77.48111 162.911629 
L 75.895141 155.190961 
L 74.762625 147.3849 
L 74.083239 139.522128 
L 73.856798 131.631063 
L 74.083239 123.739997 
L 74.762625 115.877225 
L 75.895141 108.071164 
L 77.48111 100.350496 
L 79.521002 92.744303 
L 82.015451 85.282233 
L 84.965274 77.994676 
L 88.371492 70.912983 
L 92.235338 64.069707 
L 96.55826 57.498909 
L 101.341903 51.236506 
L 106.588053 45.320696 
L 112.298539 39.792465 
L 118.475051 34.696191 
L 125.118859 30.080358 
" style="fill:none;stroke:#b0b0b0;stroke-linecap:square;stroke-width:0.8;"/>
     </g>
    </g>
    <g id="xtick_14">
     <g id="line2d_6">
      <path clip-path="url(#pb60118f750)" d="M 127.435143 232.218024 
L 121.984209 227.243293 
L 116.952959 221.883544 
L 112.329623 216.177828 
L 108.104165 210.16151 
L 104.268105 203.867061 
L 100.814349 197.324681 
L 97.737008 190.562785 
L 95.03124 183.608395 
L 92.693103 176.487443 
L 90.719428 169.225012 
L 89.10771 161.845535 
L 87.856019 154.372949 
L 86.962927 146.830825 
L 86.427453 139.24248 
L 86.249025 131.631063 
L 86.427453 124.019645 
L 86.962927 116.4313 
L 87.856019 108.889176 
L 89.10771 101.41659 
L 90.719428 94.037113 
L 92.693103 86.774682 
L 95.03124 79.65373 
L 97.737008 72.69934 
L 100.814349 65.937444 
L 104.268105 59.395064 
L 108.104165 53.100615 
L 112.329623 47.084297 
L 116.952959 41.378581 
L 121.984209 36.018832 
L 127.435143 31.044101 
" style="fill:none;stroke:#b0b0b0;stroke-linecap:square;stroke-width:0.8;"/>
     </g>
    </g>
    <g id="xtick_15">
     <g id="line2d_7">
      <path clip-path="url(#pb60118f750)" d="M 130.034825 231.456113 
L 125.869336 226.209297 
L 122.04555 220.655611 
L 118.547787 214.824038 
L 115.3632 208.741093 
L 112.481284 202.431446 
L 109.893472 195.918375 
L 107.592801 189.224118 
L 105.573637 182.370132 
L 103.83145 175.377291 
L 102.362635 168.266036 
L 101.164362 161.056491 
L 100.23446 153.768546 
L 99.571333 146.421928 
L 99.173882 139.036251 
L 99.041468 131.631063 
L 99.173882 124.225874 
L 99.571333 116.840197 
L 100.23446 109.493579 
L 101.164362 102.205634 
L 102.362635 94.996089 
L 103.83145 87.884834 
L 105.573637 80.891993 
L 107.592801 74.038007 
L 109.893472 67.34375 
L 112.481284 60.830679 
L 115.3632 54.521032 
L 118.547787 48.438087 
L 122.04555 42.606514 
L 125.869336 37.052828 
L 130.034825 31.806012 
" style="fill:none;stroke:#b0b0b0;stroke-linecap:square;stroke-width:0.8;"/>
     </g>
    </g>
    <g id="xtick_16">
     <g id="line2d_8">
      <path clip-path="url(#pb60118f750)" d="M 132.848758 230.905676 
L 130.035668 225.468545 
L 127.463249 219.782258 
L 125.11759 213.867145 
L 122.987516 207.742476 
L 121.064044 201.426788 
L 119.339944 194.938112 
L 117.809405 188.294145 
L 116.46777 181.51236 
L 115.31132 174.610096 
L 114.337113 167.60461 
L 113.54285 160.513119 
L 112.926776 153.352821 
L 112.487598 146.140912 
L 112.224435 138.894591 
L 112.13677 131.631063 
L 112.224435 124.367534 
L 112.487598 117.121213 
L 112.926776 109.909304 
L 113.54285 102.749006 
L 114.337113 95.657515 
L 115.31132 88.652029 
L 116.46777 81.749765 
L 117.809405 74.96798 
L 119.339944 68.324013 
L 121.064044 61.835337 
L 122.987516 55.519649 
L 125.11759 49.39498 
L 127.463249 43.479867 
L 130.035668 37.79358 
L 132.848758 32.356449 
" style="fill:none;stroke:#b0b0b0;stroke-linecap:square;stroke-width:0.8;"/>
     </g>
    </g>
    <g id="xtick_17">
     <g id="line2d_9">
      <path clip-path="url(#pb60118f750)" d="M 135.80626 230.57304 
L 134.389026 225.023398 
L 133.095993 219.259925 
L 131.91913 213.297179 
L 130.852055 207.149731 
L 129.88968 200.832235 
L 129.027942 194.359474 
L 128.263594 187.74638 
L 127.594047 181.008044 
L 127.017241 174.15972 
L 126.531553 167.216808 
L 126.135718 160.194848 
L 125.82877 153.1095 
L 125.610001 145.976522 
L 125.478927 138.811748 
L 125.435267 131.631063 
L 125.478927 124.450377 
L 125.610001 117.285603 
L 125.82877 110.152625 
L 126.135718 103.067277 
L 126.531553 96.045317 
L 127.017241 89.102405 
L 127.594047 82.254081 
L 128.263594 75.515745 
L 129.027942 68.902651 
L 129.88968 62.42989 
L 130.852055 56.112394 
L 131.91913 49.964946 
L 133.095993 44.0022 
L 134.389026 38.238727 
L 135.80626 32.689085 
" style="fill:none;stroke:#b0b0b0;stroke-linecap:square;stroke-width:0.8;"/>
     </g>
    </g>
    <g id="xtick_18">
     <g id="line2d_10">
      <path clip-path="url(#pb60118f750)" d="M 138.83575 230.461778 
L 138.83575 224.874917 
L 138.83575 219.086111 
L 138.83575 213.107897 
L 138.83575 206.953223 
L 138.83575 200.635417 
L 138.83575 194.168163 
L 138.83575 187.565468 
L 138.83575 180.841631 
L 138.83575 174.011215 
L 138.83575 167.089013 
L 138.83575 160.090017 
L 138.83575 153.029386 
L 138.83575 145.92241 
L 138.83575 138.784483 
L 138.83575 131.631063 
L 138.83575 124.477642 
L 138.83575 117.339715 
L 138.83575 110.232739 
L 138.83575 103.172108 
L 138.83575 96.173112 
L 138.83575 89.25091 
L 138.83575 82.420494 
L 138.83575 75.696657 
L 138.83575 69.093962 
L 138.83575 62.626708 
L 138.83575 56.308902 
L 138.83575 50.154228 
L 138.83575 44.176014 
L 138.83575 38.387208 
L 138.83575 32.800347 
" style="fill:none;stroke:#b0b0b0;stroke-linecap:square;stroke-width:0.8;"/>
     </g>
    </g>
    <g id="xtick_19">
     <g id="line2d_11">
      <path clip-path="url(#pb60118f750)" d="M 141.86524 230.57304 
L 143.282474 225.023398 
L 144.575507 219.259925 
L 145.75237 213.297179 
L 146.819445 207.149731 
L 147.78182 200.832235 
L 148.643558 194.359474 
L 149.407906 187.74638 
L 150.077453 181.008044 
L 150.654259 174.15972 
L 151.139947 167.216808 
L 151.535782 160.194848 
L 151.84273 153.1095 
L 152.061499 145.976522 
L 152.192573 138.811748 
L 152.236233 131.631063 
L 152.192573 124.450377 
L 152.061499 117.285603 
L 151.84273 110.152625 
L 151.535782 103.067277 
L 151.139947 96.045317 
L 150.654259 89.102405 
L 150.077453 82.254081 
L 149.407906 75.515745 
L 148.643558 68.902651 
L 147.78182 62.42989 
L 146.819445 56.112394 
L 145.75237 49.964946 
L 144.575507 44.0022 
L 143.282474 38.238727 
L 141.86524 32.689085 
" style="fill:none;stroke:#b0b0b0;stroke-linecap:square;stroke-width:0.8;"/>
     </g>
    </g>
    <g id="xtick_20">
     <g id="line2d_12">
      <path clip-path="url(#pb60118f750)" d="M 144.822742 230.905676 
L 147.635832 225.468545 
L 150.208251 219.782258 
L 152.55391 213.867145 
L 154.683984 207.742476 
L 156.607456 201.426788 
L 158.331556 194.938112 
L 159.862095 188.294145 
L 161.20373 181.51236 
L 162.36018 174.610096 
L 163.334387 167.60461 
L 164.12865 160.513119 
L 164.744724 153.352821 
L 165.183902 146.140912 
L 165.447065 138.894591 
L 165.53473 131.631063 
L 165.447065 124.367534 
L 165.183902 117.121213 
L 164.744724 109.909304 
L 164.12865 102.749006 
L 163.334387 95.657515 
L 162.36018 88.652029 
L 161.20373 81.749765 
L 159.862095 74.96798 
L 158.331556 68.324013 
L 156.607456 61.835337 
L 154.683984 55.519649 
L 152.55391 49.39498 
L 150.208251 43.479867 
L 147.635832 37.79358 
L 144.822742 32.356449 
" style="fill:none;stroke:#b0b0b0;stroke-linecap:square;stroke-width:0.8;"/>
     </g>
    </g>
    <g id="xtick_21">
     <g id="line2d_13">
      <path clip-path="url(#pb60118f750)" d="M 147.636675 231.456113 
L 151.802164 226.209297 
L 155.62595 220.655611 
L 159.123713 214.824038 
L 162.3083 208.741093 
L 165.190216 202.431446 
L 167.778028 195.918375 
L 170.078699 189.224118 
L 172.097863 182.370132 
L 173.84005 175.377291 
L 175.308865 168.266036 
L 176.507138 161.056491 
L 177.43704 153.768546 
L 178.100167 146.421928 
L 178.497618 139.036251 
L 178.630032 131.631063 
L 178.497618 124.225874 
L 178.100167 116.840197 
L 177.43704 109.493579 
L 176.507138 102.205634 
L 175.308865 94.996089 
L 173.84005 87.884834 
L 172.097863 80.891993 
L 170.078699 74.038007 
L 167.778028 67.34375 
L 165.190216 60.830679 
L 162.3083 54.521032 
L 159.123713 48.438087 
L 155.62595 42.606514 
L 151.802164 37.052828 
L 147.636675 31.806012 
" style="fill:none;stroke:#b0b0b0;stroke-linecap:square;stroke-width:0.8;"/>
     </g>
    </g>
    <g id="xtick_22">
     <g id="line2d_14">
      <path clip-path="url(#pb60118f750)" d="M 150.236357 232.218024 
L 155.687291 227.243293 
L 160.718541 221.883544 
L 165.341877 216.177828 
L 169.567335 210.16151 
L 173.403395 203.867061 
L 176.857151 197.324681 
L 179.934492 190.562785 
L 182.64026 183.608395 
L 184.978397 176.487443 
L 186.952072 169.225012 
L 188.56379 161.845535 
L 189.815481 154.372949 
L 190.708573 146.830825 
L 191.244047 139.24248 
L 191.422475 131.631063 
L 191.244047 124.019645 
L 190.708573 116.4313 
L 189.815481 108.889176 
L 188.56379 101.41659 
L 186.952072 94.037113 
L 184.978397 86.774682 
L 182.64026 79.65373 
L 179.934492 72.69934 
L 176.857151 65.937444 
L 173.403395 59.395064 
L 169.567335 53.100615 
L 165.341877 47.084297 
L 160.718541 41.378581 
L 155.687291 36.018832 
L 150.236357 31.044101 
" style="fill:none;stroke:#b0b0b0;stroke-linecap:square;stroke-width:0.8;"/>
     </g>
    </g>
    <g id="xtick_23">
     <g id="line2d_15">
      <path clip-path="url(#pb60118f750)" d="M 152.552641 233.181767 
L 159.196449 228.565934 
L 165.372961 223.46966 
L 171.083447 217.941429 
L 176.329597 212.025619 
L 181.11324 205.763216 
L 185.436162 199.192418 
L 189.300008 192.349142 
L 192.706226 185.267449 
L 195.656049 177.979892 
L 198.150498 170.517822 
L 200.19039 162.911629 
L 201.776359 155.190961 
L 202.908875 147.3849 
L 203.588261 139.522128 
L 203.814702 131.631063 
L 203.588261 123.739997 
L 202.908875 115.877225 
L 201.776359 108.071164 
L 200.19039 100.350496 
L 198.150498 92.744303 
L 195.656049 85.282233 
L 192.706226 77.994676 
L 189.300008 70.912983 
L 185.436162 64.069707 
L 181.11324 57.498909 
L 176.329597 51.236506 
L 171.083447 45.320696 
L 165.372961 39.792465 
L 159.196449 34.696191 
L 152.552641 30.080358 
" style="fill:none;stroke:#b0b0b0;stroke-linecap:square;stroke-width:0.8;"/>
     </g>
    </g>
    <g id="xtick_24">
     <g id="line2d_16">
      <path clip-path="url(#pb60118f750)" d="M 154.518805 234.333624 
L 162.234507 230.169002 
L 169.472295 225.415998 
L 176.216424 220.129321 
L 182.4542 214.360525 
L 188.175339 208.158343 
L 193.371471 201.569027 
L 198.035758 194.636675 
L 202.162601 187.403539 
L 205.747424 179.91031 
L 208.786504 172.196372 
L 211.27685 164.300043 
L 213.216117 156.258778 
L 214.602536 148.109372 
L 215.434873 139.888136 
L 215.712399 131.631063 
L 215.434873 123.373989 
L 214.602536 115.152753 
L 213.216117 107.003347 
L 211.27685 98.962082 
L 208.786504 91.065753 
L 205.747424 83.351815 
L 202.162601 75.858586 
L 198.035758 68.62545 
L 193.371471 61.693098 
L 188.175339 55.103782 
L 182.4542 48.9016 
L 176.216424 43.132804 
L 169.472295 37.846127 
L 162.234507 33.093123 
L 154.518805 28.928501 
" style="fill:none;stroke:#b0b0b0;stroke-linecap:square;stroke-width:0.8;"/>
     </g>
    </g>
    <g id="xtick_25">
     <g id="line2d_17">
      <path clip-path="url(#pb60118f750)" d="M 156.071783 235.654866 
L 164.706652 232.038777 
L 172.895231 227.720608 
L 180.599663 222.755235 
L 187.787247 217.196971 
L 194.429808 211.099367 
L 200.503149 204.515093 
L 205.986578 197.495905 
L 210.862498 190.092657 
L 215.116078 182.35535 
L 218.734963 174.33321 
L 221.70905 166.074778 
L 224.030307 157.628017 
L 225.692623 149.040422 
L 226.691709 140.359136 
L 227.025019 131.631063 
L 226.691709 122.902989 
L 225.692623 114.221703 
L 224.030307 105.634108 
L 221.70905 97.187347 
L 218.734963 88.928915 
L 215.116078 80.906775 
L 210.862498 73.169468 
L 205.986578 65.76622 
L 200.503149 58.747032 
L 194.429808 52.162758 
L 187.787247 46.065154 
L 180.599663 40.50689 
L 172.895231 35.541517 
L 164.706652 31.223348 
L 156.071783 27.607259 
" style="fill:none;stroke:#b0b0b0;stroke-linecap:square;stroke-width:0.8;"/>
     </g>
    </g>
    <g id="xtick_26">
     <g id="line2d_18">
      <path clip-path="url(#pb60118f750)" d="M 157.153837 237.120722 
L 166.519795 234.153614 
L 175.516145 230.374098 
L 184.080901 225.828438 
L 192.157542 220.566304 
L 199.69491 214.640196 
L 206.647053 208.104955 
L 212.973069 201.017329 
L 218.636925 193.435618 
L 223.607291 185.419366 
L 227.857378 177.029103 
L 231.364782 168.326133 
L 234.111362 159.372357 
L 236.083124 150.230116 
L 237.270137 140.962066 
L 237.666465 131.631063 
L 237.270137 122.300059 
L 236.083124 113.032009 
L 234.111362 103.889768 
L 231.364782 94.935992 
L 227.857378 86.233022 
L 223.607291 77.842759 
L 218.636925 69.826507 
L 212.973069 62.244796 
L 206.647053 55.15717 
L 199.69491 48.621929 
L 192.157542 42.695821 
L 184.080901 37.433687 
L 175.516145 32.888027 
L 166.519795 29.108511 
L 157.153837 26.141403 
" style="fill:none;stroke:#b0b0b0;stroke-linecap:square;stroke-width:0.8;"/>
     </g>
    </g>
    <g id="xtick_27">
     <g id="line2d_19">
      <path clip-path="url(#pb60118f750)" d="M 157.71478 238.699361 
L 167.585032 236.481037 
L 177.206361 233.354878 
L 186.495461 229.347951 
L 195.371903 224.494951 
L 203.758832 218.837896 
L 211.58363 212.425768 
L 218.778545 205.314085 
L 225.281283 197.564425 
L 231.035539 189.243885 
L 235.991491 180.424509 
L 240.106227 171.18266 
L 243.344122 161.598356 
L 245.677139 151.754583 
L 247.085078 141.736571 
L 247.55575 131.631063 
L 247.085078 121.525554 
L 245.677139 111.507542 
L 243.344122 101.663769 
L 240.106227 92.079465 
L 235.991491 82.837616 
L 231.035539 74.01824 
L 225.281283 65.6977 
L 218.778545 57.94804 
L 211.58363 50.836357 
L 203.758832 44.424229 
L 195.371903 38.767174 
L 186.495461 33.914174 
L 177.206361 29.907247 
L 167.585032 26.781088 
L 157.71478 24.562764 
" style="fill:none;stroke:#b0b0b0;stroke-linecap:square;stroke-width:0.8;"/>
     </g>
    </g>
   </g>
   <g id="matplotlib.axis_4">
    <g id="ytick_1">
     <g id="line2d_20">
      <path clip-path="url(#pb60118f750)" d="M 119.95672 238.699361 
L 120.228256 237.740685 
L 120.693861 236.8174 
L 121.343902 235.937379 
L 122.167488 235.10748 
L 123.152695 234.333624 
L 124.28675 233.620862 
L 125.556198 232.973465 
L 126.947038 232.395001 
L 128.444837 231.888417 
L 130.034825 231.456113 
L 131.701973 231.100002 
L 133.431054 230.821573 
L 135.206701 230.621936 
L 137.013444 230.501854 
L 138.83575 230.461778 
L 140.658056 230.501854 
L 142.464799 230.621936 
L 144.240446 230.821573 
L 145.969527 231.100002 
L 147.636675 231.456113 
L 149.226663 231.888417 
L 150.724462 232.395001 
L 152.115302 232.973465 
L 153.38475 233.620862 
L 154.518805 234.333624 
L 155.504012 235.10748 
L 156.327598 235.937379 
L 156.977639 236.8174 
L 157.443244 237.740685 
L 157.71478 238.699361 
" style="fill:none;stroke:#b0b0b0;stroke-linecap:square;stroke-width:0.8;"/>
     </g>
    </g>
    <g id="ytick_2">
     <g id="line2d_21">
      <path clip-path="url(#pb60118f750)" d="M 101.65132 233.794444 
L 102.498854 232.015783 
L 103.691969 230.344943 
L 105.2039 228.789062 
L 107.007845 227.35312 
L 109.077222 226.040399 
L 111.385832 224.852874 
L 113.907944 223.791544 
L 116.618324 222.856713 
L 119.492236 222.048212 
L 122.505402 221.365587 
L 125.633958 220.808239 
L 128.854393 220.375544 
L 132.143483 220.066933 
L 135.478223 219.881957 
L 138.83575 219.820332 
L 142.193277 219.881957 
L 145.528017 220.066933 
L 148.817107 220.375544 
L 152.037542 220.808239 
L 155.166098 221.365587 
L 158.179264 222.048212 
L 161.053176 222.856713 
L 163.763556 223.791544 
L 166.285668 224.852874 
L 168.594278 226.040399 
L 170.663655 227.35312 
L 172.4676 228.789062 
L 173.979531 230.344943 
L 175.172646 232.015783 
L 176.02018 233.794444 
" style="fill:none;stroke:#b0b0b0;stroke-linecap:square;stroke-width:0.8;"/>
     </g>
    </g>
    <g id="ytick_3">
     <g id="line2d_22">
      <path clip-path="url(#pb60118f750)" d="M 84.47575 225.785344 
L 86.133229 223.417322 
L 88.229053 221.242661 
L 90.720006 219.258782 
L 93.565768 217.461394 
L 96.728675 215.845212 
L 100.173424 214.404493 
L 103.866768 213.133418 
L 107.777215 212.026371 
L 111.874753 211.078133 
L 116.130597 210.28402 
L 120.516957 209.639966 
L 125.006837 209.142593 
L 129.573847 208.789241 
L 134.192038 208.577998 
L 138.83575 208.507712 
L 143.479462 208.577998 
L 148.097653 208.789241 
L 152.664663 209.142593 
L 157.154543 209.639966 
L 161.540903 210.28402 
L 165.796747 211.078133 
L 169.894285 212.026371 
L 173.804732 213.133418 
L 177.498076 214.404493 
L 180.942825 215.845212 
L 184.105732 217.461394 
L 186.951494 219.258782 
L 189.442447 221.242661 
L 191.538271 223.417322 
L 193.19575 225.785344 
" style="fill:none;stroke:#b0b0b0;stroke-linecap:square;stroke-width:0.8;"/>
     </g>
    </g>
    <g id="ytick_4">
     <g id="line2d_23">
      <path clip-path="url(#pb60118f750)" d="M 68.951881 214.915414 
L 71.558149 212.25103 
L 74.634547 209.852401 
L 78.128539 207.70229 
L 81.993286 205.784144 
L 86.186591 204.082545 
L 90.670017 202.583447 
L 95.408148 201.274285 
L 100.36798 200.143999 
L 105.518427 199.183012 
L 110.829909 198.383185 
L 116.274027 197.737756 
L 121.823278 197.241287 
L 127.450834 196.889606 
L 133.130342 196.679766 
L 138.83575 196.610014 
L 144.541158 196.679766 
L 150.220666 196.889606 
L 155.848222 197.241287 
L 161.397473 197.737756 
L 166.841591 198.383185 
L 172.153073 199.183012 
L 177.30352 200.143999 
L 182.263352 201.274285 
L 187.001483 202.583447 
L 191.484909 204.082545 
L 195.678214 205.784144 
L 199.542961 207.70229 
L 203.036953 209.852401 
L 206.113351 212.25103 
L 208.719619 214.915414 
" style="fill:none;stroke:#b0b0b0;stroke-linecap:square;stroke-width:0.8;"/>
     </g>
    </g>
    <g id="ytick_5">
     <g id="line2d_24">
      <path clip-path="url(#pb60118f750)" d="M 55.551398 201.514931 
L 59.137073 198.87456 
L 63.174139 196.537043 
L 67.610512 194.471777 
L 72.400824 192.652133 
L 77.504832 191.055128 
L 82.88619 189.661062 
L 88.511519 188.453155 
L 94.349703 187.41722 
L 100.371343 186.541372 
L 106.548337 185.815775 
L 112.853563 185.232437 
L 119.260622 184.78504 
L 125.743641 184.468802 
L 132.27711 184.280377 
L 138.83575 184.217788 
L 145.39439 184.280377 
L 151.927859 184.468802 
L 158.410878 184.78504 
L 164.817937 185.232437 
L 171.123163 185.815775 
L 177.300157 186.541372 
L 183.321797 187.41722 
L 189.159981 188.453155 
L 194.78531 189.661062 
L 200.166668 191.055128 
L 205.270676 192.652133 
L 210.060988 194.471777 
L 214.497361 196.537043 
L 218.534427 198.87456 
L 222.120102 201.514931 
" style="fill:none;stroke:#b0b0b0;stroke-linecap:square;stroke-width:0.8;"/>
     </g>
    </g>
    <g id="ytick_6">
     <g id="line2d_25">
      <path clip-path="url(#pb60118f750)" d="M 44.681468 185.991063 
L 49.167901 183.685981 
L 54.055828 181.672294 
L 59.301819 179.91309 
L 64.867956 178.377861 
L 70.720291 177.041368 
L 76.827742 175.882717 
L 83.161304 174.884619 
L 89.693477 174.032807 
L 96.397845 173.315565 
L 103.248776 172.72336 
L 110.221197 172.248548 
L 117.290428 171.885151 
L 124.432062 171.628684 
L 131.621875 171.476027 
L 138.83575 171.425344 
L 146.049625 171.476027 
L 153.239438 171.628684 
L 160.381072 171.885151 
L 167.450303 172.248548 
L 174.422724 172.72336 
L 181.273655 173.315565 
L 187.978023 174.032807 
L 194.510196 174.884619 
L 200.843758 175.882717 
L 206.951209 177.041368 
L 212.803544 178.377861 
L 218.369681 179.91309 
L 223.615672 181.672294 
L 228.503599 183.685981 
L 232.990032 185.991063 
" style="fill:none;stroke:#b0b0b0;stroke-linecap:square;stroke-width:0.8;"/>
     </g>
    </g>
    <g id="ytick_7">
     <g id="line2d_26">
      <path clip-path="url(#pb60118f750)" d="M 36.672368 168.815492 
L 41.882132 167.113671 
L 47.435387 165.641279 
L 53.300997 164.365294 
L 59.450684 163.259266 
L 65.858091 162.301867 
L 72.498138 161.47582 
L 79.346582 160.767088 
L 86.379721 160.164256 
L 93.574185 159.658071 
L 100.906798 159.241082 
L 108.354491 158.907363 
L 115.894243 158.652313 
L 123.503044 158.472499 
L 131.157886 158.365541 
L 138.83575 158.330043 
L 146.513614 158.365541 
L 154.168456 158.472499 
L 161.777257 158.652313 
L 169.317009 158.907363 
L 176.764702 159.241082 
L 184.097315 159.658071 
L 191.291779 160.164256 
L 198.324918 160.767088 
L 205.173362 161.47582 
L 211.813409 162.301867 
L 218.220816 163.259266 
L 224.370503 164.365294 
L 230.236113 165.641279 
L 235.789368 167.113671 
L 240.999132 168.815492 
" style="fill:none;stroke:#b0b0b0;stroke-linecap:square;stroke-width:0.8;"/>
     </g>
    </g>
    <g id="ytick_8">
     <g id="line2d_27">
      <path clip-path="url(#pb60118f750)" d="M 31.767451 150.510092 
L 37.444793 149.607501 
L 43.420832 148.83115 
L 49.674784 148.161609 
L 56.186178 147.58358 
L 62.934601 147.084905 
L 69.899547 146.655855 
L 77.060324 146.288602 
L 84.396008 145.976835 
L 91.885421 145.715475 
L 99.507139 145.500453 
L 107.239503 145.328552 
L 115.060646 145.197282 
L 122.948531 145.104789 
L 130.880986 145.049794 
L 138.83575 145.031545 
L 146.790514 145.049794 
L 154.722969 145.104789 
L 162.610854 145.197282 
L 170.431997 145.328552 
L 178.164361 145.500453 
L 185.786079 145.715475 
L 193.275492 145.976835 
L 200.611176 146.288602 
L 207.771953 146.655855 
L 214.736899 147.084905 
L 221.485322 147.58358 
L 227.996716 148.161609 
L 234.250668 148.83115 
L 240.226707 149.607501 
L 245.904049 150.510092 
" style="fill:none;stroke:#b0b0b0;stroke-linecap:square;stroke-width:0.8;"/>
     </g>
    </g>
    <g id="ytick_9">
     <g id="line2d_28">
      <path clip-path="url(#pb60118f750)" d="M 30.11575 131.631063 
L 35.954712 131.631063 
L 42.075664 131.631063 
L 48.461829 131.631063 
L 55.095702 131.631063 
L 61.959101 131.631063 
L 69.033213 131.631063 
L 76.29865 131.631063 
L 83.735496 131.631063 
L 91.323368 131.631063 
L 99.041468 131.631063 
L 106.868642 131.631063 
L 114.783435 131.631063 
L 122.764154 131.631063 
L 130.788924 131.631063 
L 138.83575 131.631063 
L 146.882576 131.631063 
L 154.907346 131.631063 
L 162.888065 131.631063 
L 170.802858 131.631063 
L 178.630032 131.631063 
L 186.348132 131.631063 
L 193.936004 131.631063 
L 201.37285 131.631063 
L 208.638287 131.631063 
L 215.712399 131.631063 
L 222.575798 131.631063 
L 229.209671 131.631063 
L 235.595836 131.631063 
L 241.716788 131.631063 
L 247.55575 131.631063 
" style="fill:none;stroke:#b0b0b0;stroke-linecap:square;stroke-width:0.8;"/>
     </g>
    </g>
    <g id="ytick_10">
     <g id="line2d_29">
      <path clip-path="url(#pb60118f750)" d="M 31.767451 112.752033 
L 37.444793 113.654624 
L 43.420832 114.430975 
L 49.674784 115.100516 
L 56.186178 115.678545 
L 62.934601 116.17722 
L 69.899547 116.60627 
L 77.060324 116.973523 
L 84.396008 117.28529 
L 91.885421 117.54665 
L 99.507139 117.761672 
L 107.239503 117.933573 
L 115.060646 118.064843 
L 122.948531 118.157336 
L 130.880986 118.212331 
L 138.83575 118.23058 
L 146.790514 118.212331 
L 154.722969 118.157336 
L 162.610854 118.064843 
L 170.431997 117.933573 
L 178.164361 117.761672 
L 185.786079 117.54665 
L 193.275492 117.28529 
L 200.611176 116.973523 
L 207.771953 116.60627 
L 214.736899 116.17722 
L 221.485322 115.678545 
L 227.996716 115.100516 
L 234.250668 114.430975 
L 240.226707 113.654624 
L 245.904049 112.752033 
" style="fill:none;stroke:#b0b0b0;stroke-linecap:square;stroke-width:0.8;"/>
     </g>
    </g>
    <g id="ytick_11">
     <g id="line2d_30">
      <path clip-path="url(#pb60118f750)" d="M 36.672368 94.446633 
L 41.882132 96.148454 
L 47.435387 97.620846 
L 53.300997 98.896831 
L 59.450684 100.002859 
L 65.858091 100.960258 
L 72.498138 101.786305 
L 79.346582 102.495037 
L 86.379721 103.097869 
L 93.574185 103.604054 
L 100.906798 104.021043 
L 108.354491 104.354762 
L 115.894243 104.609812 
L 123.503044 104.789626 
L 131.157886 104.896584 
L 138.83575 104.932082 
L 146.513614 104.896584 
L 154.168456 104.789626 
L 161.777257 104.609812 
L 169.317009 104.354762 
L 176.764702 104.021043 
L 184.097315 103.604054 
L 191.291779 103.097869 
L 198.324918 102.495037 
L 205.173362 101.786305 
L 211.813409 100.960258 
L 218.220816 100.002859 
L 224.370503 98.896831 
L 230.236113 97.620846 
L 235.789368 96.148454 
L 240.999132 94.446633 
" style="fill:none;stroke:#b0b0b0;stroke-linecap:square;stroke-width:0.8;"/>
     </g>
    </g>
    <g id="ytick_12">
     <g id="line2d_31">
      <path clip-path="url(#pb60118f750)" d="M 44.681468 77.271063 
L 49.167901 79.576144 
L 54.055828 81.589831 
L 59.301819 83.349035 
L 64.867956 84.884264 
L 70.720291 86.220757 
L 76.827742 87.379408 
L 83.161304 88.377506 
L 89.693477 89.229318 
L 96.397845 89.94656 
L 103.248776 90.538765 
L 110.221197 91.013577 
L 117.290428 91.376974 
L 124.432062 91.633441 
L 131.621875 91.786098 
L 138.83575 91.836781 
L 146.049625 91.786098 
L 153.239438 91.633441 
L 160.381072 91.376974 
L 167.450303 91.013577 
L 174.422724 90.538765 
L 181.273655 89.94656 
L 187.978023 89.229318 
L 194.510196 88.377506 
L 200.843758 87.379408 
L 206.951209 86.220757 
L 212.803544 84.884264 
L 218.369681 83.349035 
L 223.615672 81.589831 
L 228.503599 79.576144 
L 232.990032 77.271063 
" style="fill:none;stroke:#b0b0b0;stroke-linecap:square;stroke-width:0.8;"/>
     </g>
    </g>
    <g id="ytick_13">
     <g id="line2d_32">
      <path clip-path="url(#pb60118f750)" d="M 55.551398 61.747194 
L 59.137073 64.387565 
L 63.174139 66.725082 
L 67.610512 68.790348 
L 72.400824 70.609992 
L 77.504832 72.206997 
L 82.88619 73.601063 
L 88.511519 74.80897 
L 94.349703 75.844905 
L 100.371343 76.720753 
L 106.548337 77.44635 
L 112.853563 78.029688 
L 119.260622 78.477085 
L 125.743641 78.793323 
L 132.27711 78.981748 
L 138.83575 79.044337 
L 145.39439 78.981748 
L 151.927859 78.793323 
L 158.410878 78.477085 
L 164.817937 78.029688 
L 171.123163 77.44635 
L 177.300157 76.720753 
L 183.321797 75.844905 
L 189.159981 74.80897 
L 194.78531 73.601063 
L 200.166668 72.206997 
L 205.270676 70.609992 
L 210.060988 68.790348 
L 214.497361 66.725082 
L 218.534427 64.387565 
L 222.120102 61.747194 
" style="fill:none;stroke:#b0b0b0;stroke-linecap:square;stroke-width:0.8;"/>
     </g>
    </g>
    <g id="ytick_14">
     <g id="line2d_33">
      <path clip-path="url(#pb60118f750)" d="M 68.951881 48.346711 
L 71.558149 51.011095 
L 74.634547 53.409724 
L 78.128539 55.559835 
L 81.993286 57.477981 
L 86.186591 59.17958 
L 90.670017 60.678678 
L 95.408148 61.98784 
L 100.36798 63.118126 
L 105.518427 64.079113 
L 110.829909 64.87894 
L 116.274027 65.524369 
L 121.823278 66.020838 
L 127.450834 66.372519 
L 133.130342 66.582359 
L 138.83575 66.652111 
L 144.541158 66.582359 
L 150.220666 66.372519 
L 155.848222 66.020838 
L 161.397473 65.524369 
L 166.841591 64.87894 
L 172.153073 64.079113 
L 177.30352 63.118126 
L 182.263352 61.98784 
L 187.001483 60.678678 
L 191.484909 59.17958 
L 195.678214 57.477981 
L 199.542961 55.559835 
L 203.036953 53.409724 
L 206.113351 51.011095 
L 208.719619 48.346711 
" style="fill:none;stroke:#b0b0b0;stroke-linecap:square;stroke-width:0.8;"/>
     </g>
    </g>
    <g id="ytick_15">
     <g id="line2d_34">
      <path clip-path="url(#pb60118f750)" d="M 84.47575 37.476781 
L 86.133229 39.844803 
L 88.229053 42.019464 
L 90.720006 44.003343 
L 93.565768 45.800731 
L 96.728675 47.416913 
L 100.173424 48.857632 
L 103.866768 50.128707 
L 107.777215 51.235754 
L 111.874753 52.183992 
L 116.130597 52.978105 
L 120.516957 53.622159 
L 125.006837 54.119532 
L 129.573847 54.472884 
L 134.192038 54.684127 
L 138.83575 54.754413 
L 143.479462 54.684127 
L 148.097653 54.472884 
L 152.664663 54.119532 
L 157.154543 53.622159 
L 161.540903 52.978105 
L 165.796747 52.183992 
L 169.894285 51.235754 
L 173.804732 50.128707 
L 177.498076 48.857632 
L 180.942825 47.416913 
L 184.105732 45.800731 
L 186.951494 44.003343 
L 189.442447 42.019464 
L 191.538271 39.844803 
L 193.19575 37.476781 
" style="fill:none;stroke:#b0b0b0;stroke-linecap:square;stroke-width:0.8;"/>
     </g>
    </g>
    <g id="ytick_16">
     <g id="line2d_35">
      <path clip-path="url(#pb60118f750)" d="M 101.65132 29.467681 
L 102.498854 31.246342 
L 103.691969 32.917182 
L 105.2039 34.473063 
L 107.007845 35.909005 
L 109.077222 37.221726 
L 111.385832 38.409251 
L 113.907944 39.470581 
L 116.618324 40.405412 
L 119.492236 41.213913 
L 122.505402 41.896538 
L 125.633958 42.453886 
L 128.854393 42.886581 
L 132.143483 43.195192 
L 135.478223 43.380168 
L 138.83575 43.441793 
L 142.193277 43.380168 
L 145.528017 43.195192 
L 148.817107 42.886581 
L 152.037542 42.453886 
L 155.166098 41.896538 
L 158.179264 41.213913 
L 161.053176 40.405412 
L 163.763556 39.470581 
L 166.285668 38.409251 
L 168.594278 37.221726 
L 170.663655 35.909005 
L 172.4676 34.473063 
L 173.979531 32.917182 
L 175.172646 31.246342 
L 176.02018 29.467681 
" style="fill:none;stroke:#b0b0b0;stroke-linecap:square;stroke-width:0.8;"/>
     </g>
    </g>
    <g id="ytick_17">
     <g id="line2d_36">
      <path clip-path="url(#pb60118f750)" d="M 119.95672 24.562764 
L 120.228256 25.52144 
L 120.693861 26.444725 
L 121.343902 27.324746 
L 122.167488 28.154645 
L 123.152695 28.928501 
L 124.28675 29.641263 
L 125.556198 30.28866 
L 126.947038 30.867124 
L 128.444837 31.373708 
L 130.034825 31.806012 
L 131.701973 32.162123 
L 133.431054 32.440552 
L 135.206701 32.640189 
L 137.013444 32.760271 
L 138.83575 32.800347 
L 140.658056 32.760271 
L 142.464799 32.640189 
L 144.240446 32.440552 
L 145.969527 32.162123 
L 147.636675 31.806012 
L 149.226663 31.373708 
L 150.724462 30.867124 
L 152.115302 30.28866 
L 153.38475 29.641263 
L 154.518805 28.928501 
L 155.504012 28.154645 
L 156.327598 27.324746 
L 156.977639 26.444725 
L 157.443244 25.52144 
L 157.71478 24.562764 
" style="fill:none;stroke:#b0b0b0;stroke-linecap:square;stroke-width:0.8;"/>
     </g>
    </g>
   </g>
   <g id="patch_3">
    <path d="M 138.83575 240.351063 
C 167.668631 240.351063 195.324474 228.895637 215.712399 208.507712 
C 236.100325 188.119786 247.55575 160.463944 247.55575 131.631063 
C 247.55575 102.798181 236.100325 75.142339 215.712399 54.754413 
C 195.324474 34.366488 167.668631 22.911063 138.83575 22.911063 
C 110.002869 22.911063 82.347026 34.366488 61.959101 54.754413 
C 41.571175 75.142339 30.11575 102.798181 30.11575 131.631063 
C 30.11575 160.463944 41.571175 188.119786 61.959101 208.507712 
C 82.347026 228.895637 110.002869 240.351063 138.83575 240.351063 
z
" style="fill:none;stroke:#000000;stroke-linecap:square;stroke-linejoin:miter;stroke-width:0.8;"/>
   </g>
  </g>
 </g>
 <defs>
  <clipPath id="pb60118f750">
   <path d="M 138.83575 240.351063 
C 167.668631 240.351063 195.324474 228.895637 215.712399 208.507712 
C 236.100325 188.119786 247.55575 160.463944 247.55575 131.631063 
C 247.55575 102.798181 236.100325 75.142339 215.712399 54.754413 
C 195.324474 34.366488 167.668631 22.911063 138.83575 22.911063 
C 110.002869 22.911063 82.347026 34.366488 61.959101 54.754413 
C 41.571175 75.142339 30.11575 102.798181 30.11575 131.631063 
C 30.11575 160.463944 41.571175 188.119786 61.959101 208.507712 
C 82.347026 228.895637 110.002869 240.351063 138.83575 240.351063 
z
"/>
  </clipPath>
 </defs>
</svg>
