<?xml version="1.0" encoding="utf-8" standalone="no"?>
<!DOCTYPE svg PUBLIC "-//W3C//DTD SVG 1.1//EN"
  "http://www.w3.org/Graphics/SVG/1.1/DTD/svg11.dtd">
<!-- Created with matplotlib (http://matplotlib.org/) -->
<svg height="238pt" version="1.1" viewBox="0 0 21 238" width="21pt" xmlns="http://www.w3.org/2000/svg" xmlns:xlink="http://www.w3.org/1999/xlink">
 <defs>
  <style type="text/css">
*{stroke-linecap:butt;stroke-linejoin:round;}
  </style>
 </defs>
 <g id="figure_1">
  <g id="patch_1">
   <path d="M 0 238.84 
L 21.4 238.84 
L 21.4 0 
L 0 0 
z
" style="fill:none;"/>
  </g>
  <g id="axes_1">
   <g id="patch_2">
    <path d="M 10.7 10.7 
L 10.7 228.14 
L 10.7 228.14 
L 10.7 10.7 
L 10.7 10.7 
" style="fill:#ffffff;"/>
   </g>
   <g id="PathCollection_1"/>
   <g id="LineCollection_1">
    <path clip-path="url(#pd2bcb41fb4)" d="M 10.7 -6.911527 
L 10.7 1.292991 
L 10.7 9.486953 
L 10.7 17.670756 
L 10.7 25.844793 
L 10.7 34.009455 
L 10.7 42.165133 
L 10.7 50.312213 
L 10.7 58.451082 
L 10.7 66.582124 
L 10.7 74.705722 
L 10.7 82.822258 
L 10.7 90.932111 
L 10.7 99.035661 
L 10.7 107.133283 
L 10.7 115.225355 
L 10.7 123.312251 
L 10.7 131.394346 
L 10.7 139.472012 
L 10.7 147.545621 
L 10.7 155.615546 
L 10.7 163.682155 
L 10.7 171.745821 
L 10.7 179.806911 
L 10.7 187.865795 
L 10.7 195.92284 
L 10.7 203.978416 
L 10.7 212.03289 
L 10.7 220.086628 
L 10.7 228.14 
" style="fill:none;stroke:#b0b0b0;stroke-dasharray:0.8,1.32;stroke-dashoffset:0;stroke-width:0.8;"/>
    <path clip-path="url(#pd2bcb41fb4)" d="M -206.566923 110.614236 
L -198.98318 114.716495 
L -191.409194 118.813477 
L -183.844598 122.905378 
L -176.28903 126.992397 
L -168.742127 131.074728 
L -161.203529 135.152566 
L -153.672878 139.226106 
L -146.149817 143.295541 
L -138.633991 147.361062 
L -131.125045 151.422861 
L -123.622627 155.481129 
L -116.126386 159.536056 
L -108.635972 163.58783 
L -101.151037 167.636641 
L -93.671232 171.682677 
L -86.196211 175.726125 
L -78.725629 179.767173 
L -71.25914 183.806006 
L -63.7964 187.842811 
L -56.337067 191.877773 
L -48.880798 195.911078 
L -41.42725 199.94291 
L -33.976083 203.973455 
L -26.526955 208.002897 
L -19.079526 212.03142 
L -11.633456 216.059208 
L -4.188405 220.086445 
L 3.255967 224.113314 
L 10.7 228.14 
" style="fill:none;stroke:#b0b0b0;stroke-dasharray:0.8,1.32;stroke-dashoffset:0;stroke-width:0.8;"/>
    <path clip-path="url(#pd2bcb41fb4)" d="M -206.566923 345.665764 
L -198.98318 341.563505 
L -191.409194 337.466523 
L -183.844598 333.374622 
L -176.28903 329.287603 
L -168.742127 325.205272 
L -161.203529 321.127434 
L -153.672878 317.053894 
L -146.149817 312.984459 
L -138.633991 308.918938 
L -131.125045 304.857139 
L -123.622627 300.798871 
L -116.126386 296.743944 
L -108.635972 292.69217 
L -101.151037 288.643359 
L -93.671232 284.597323 
L -86.196211 280.553875 
L -78.725629 276.512827 
L -71.25914 272.473994 
L -63.7964 268.437189 
L -56.337067 264.402227 
L -48.880798 260.368922 
L -41.42725 256.33709 
L -33.976083 252.306545 
L -26.526955 248.277103 
L -19.079526 244.24858 
L -11.633456 240.220792 
L -4.188405 236.193555 
L 3.255967 232.166686 
L 10.7 228.14 
" style="fill:none;stroke:#b0b0b0;stroke-dasharray:0.8,1.32;stroke-dashoffset:0;stroke-width:0.8;"/>
    <path clip-path="url(#pd2bcb41fb4)" d="M 10.7 463.191527 
L 10.7 454.987009 
L 10.7 446.793047 
L 10.7 438.609244 
L 10.7 430.435207 
L 10.7 422.270545 
L 10.7 414.114867 
L 10.7 405.967787 
L 10.7 397.828918 
L 10.7 389.697876 
L 10.7 381.574278 
L 10.7 373.457742 
L 10.7 365.347889 
L 10.7 357.244339 
L 10.7 349.146717 
L 10.7 341.054645 
L 10.7 332.967749 
L 10.7 324.885654 
L 10.7 316.807988 
L 10.7 308.734379 
L 10.7 300.664454 
L 10.7 292.597845 
L 10.7 284.534179 
L 10.7 276.473089 
L 10.7 268.414205 
L 10.7 260.35716 
L 10.7 252.301584 
L 10.7 244.24711 
L 10.7 236.193372 
L 10.7 228.14 
" style="fill:none;stroke:#b0b0b0;stroke-dasharray:0.8,1.32;stroke-dashoffset:0;stroke-width:0.8;"/>
    <path clip-path="url(#pd2bcb41fb4)" d="M 227.966923 345.665764 
L 220.38318 341.563505 
L 212.809194 337.466523 
L 205.244598 333.374622 
L 197.68903 329.287603 
L 190.142127 325.205272 
L 182.603529 321.127434 
L 175.072878 317.053894 
L 167.549817 312.984459 
L 160.033991 308.918938 
L 152.525045 304.857139 
L 145.022627 300.798871 
L 137.526386 296.743944 
L 130.035972 292.69217 
L 122.551037 288.643359 
L 115.071232 284.597323 
L 107.596211 280.553875 
L 100.125629 276.512827 
L 92.65914 272.473994 
L 85.1964 268.437189 
L 77.737067 264.402227 
L 70.280798 260.368922 
L 62.82725 256.33709 
L 55.376083 252.306545 
L 47.926955 248.277103 
L 40.479526 244.24858 
L 33.033456 240.220792 
L 25.588405 236.193555 
L 18.144033 232.166686 
L 10.7 228.14 
" style="fill:none;stroke:#b0b0b0;stroke-dasharray:0.8,1.32;stroke-dashoffset:0;stroke-width:0.8;"/>
    <path clip-path="url(#pd2bcb41fb4)" d="M 227.966923 110.614236 
L 220.38318 114.716495 
L 212.809194 118.813477 
L 205.244598 122.905378 
L 197.68903 126.992397 
L 190.142127 131.074728 
L 182.603529 135.152566 
L 175.072878 139.226106 
L 167.549817 143.295541 
L 160.033991 147.361062 
L 152.525045 151.422861 
L 145.022627 155.481129 
L 137.526386 159.536056 
L 130.035972 163.58783 
L 122.551037 167.636641 
L 115.071232 171.682677 
L 107.596211 175.726125 
L 100.125629 179.767173 
L 92.65914 183.806006 
L 85.1964 187.842811 
L 77.737067 191.877773 
L 70.280798 195.911078 
L 62.82725 199.94291 
L 55.376083 203.973455 
L 47.926955 208.002897 
L 40.479526 212.03142 
L 33.033456 216.059208 
L 25.588405 220.086445 
L 18.144033 224.113314 
L 10.7 228.14 
" style="fill:none;stroke:#b0b0b0;stroke-dasharray:0.8,1.32;stroke-dashoffset:0;stroke-width:0.8;"/>
   </g>
   <g id="LineCollection_2">
    <path clip-path="url(#pd2bcb41fb4)" d="M 10.7 -6.911527 
L -43.231404 -1.416153 
L -94.641036 14.813011 
L -141.125038 41.017109 
L -180.509869 75.970865 
L -210.95394 118.039881 
L -231.033719 165.257055 
L -239.810298 215.414567 
L -236.873294 266.167105 
L -222.360038 315.141539 
L -196.949153 360.047877 
L -161.828825 398.786349 
L -118.641241 429.545588 
L -69.405804 450.887325 
L -16.424708 461.813645 
L 37.824708 461.813645 
L 90.805804 450.887325 
L 140.041241 429.545588 
L 183.228825 398.786349 
L 218.349153 360.047877 
L 243.760038 315.141539 
L 258.273294 266.167105 
L 261.210298 215.414567 
L 252.433719 165.257055 
L 232.35394 118.039881 
L 201.909869 75.970865 
L 162.525038 41.017109 
L 116.041036 14.813011 
L 64.631404 -1.416153 
L 10.7 -6.911527 
" style="fill:none;stroke:#b0b0b0;stroke-dasharray:0.8,1.32;stroke-dashoffset:0;stroke-width:0.8;"/>
    <path clip-path="url(#pd2bcb41fb4)" d="M 10.7 19.488039 
L -37.174155 24.366206 
L -82.809767 38.772609 
L -124.072967 62.033621 
L -159.034333 93.061582 
L -186.05911 130.40566 
L -203.883649 172.319688 
L -211.674496 216.843811 
L -209.067358 261.896131 
L -196.184143 305.370052 
L -173.627256 345.232782 
L -142.45143 379.620383 
L -104.114414 406.92493 
L -60.408804 425.869692 
L -13.378225 435.568834 
L 34.778225 435.568834 
L 81.808804 425.869692 
L 125.514414 406.92493 
L 163.85143 379.620383 
L 195.027256 345.232782 
L 217.584143 305.370052 
L 230.467358 261.896131 
L 233.074496 216.843811 
L 225.283649 172.319688 
L 207.45911 130.40566 
L 180.434333 93.061582 
L 145.472967 62.033621 
L 104.209767 38.772609 
L 58.574155 24.366206 
L 10.7 19.488039 
" style="fill:none;stroke:#b0b0b0;stroke-dasharray:0.8,1.32;stroke-dashoffset:0;stroke-width:0.8;"/>
    <path clip-path="url(#pd2bcb41fb4)" d="M 10.7 45.787096 
L -31.139967 50.050405 
L -71.023544 62.640986 
L -107.085819 82.970117 
L -137.640559 110.087231 
L -161.25906 142.72436 
L -176.836947 179.35543 
L -183.645814 218.267613 
L -181.367287 257.641417 
L -170.107907 295.635768 
L -150.394151 330.474091 
L -123.147811 360.527387 
L -89.642896 384.390395 
L -51.446058 400.947308 
L -10.343341 409.423944 
L 31.743341 409.423944 
L 72.846058 400.947308 
L 111.042896 384.390395 
L 144.547811 360.527387 
L 171.794151 330.474091 
L 191.507907 295.635768 
L 202.767287 257.641417 
L 205.045814 218.267613 
L 198.236947 179.35543 
L 182.65906 142.72436 
L 159.040559 110.087231 
L 128.485819 82.970117 
L 92.423544 62.640986 
L 52.539967 50.050405 
L 10.7 45.787096 
" style="fill:none;stroke:#b0b0b0;stroke-dasharray:0.8,1.32;stroke-dashoffset:0;stroke-width:0.8;"/>
    <path clip-path="url(#pd2bcb41fb4)" d="M 10.7 71.99866 
L -25.125854 75.649158 
L -59.276531 86.429958 
L -90.155183 103.836962 
L -116.317959 127.056238 
L -136.541516 155.002078 
L -149.880224 186.367767 
L -155.710379 219.686678 
L -153.759369 253.400858 
L -144.118422 285.933868 
L -127.238338 315.7645 
L -103.90841 341.497909 
L -75.219521 361.930828 
L -42.51313 376.107836 
L -7.318553 383.366033 
L 28.718553 383.366033 
L 63.91313 376.107836 
L 96.619521 361.930828 
L 125.30841 341.497909 
L 148.638338 315.7645 
L 165.518422 285.933868 
L 175.159369 253.400858 
L 177.110379 219.686678 
L 171.280224 186.367767 
L 157.941516 155.002078 
L 137.717959 127.056238 
L 111.555183 103.836962 
L 80.676531 86.429958 
L 46.525854 75.649158 
L 10.7 71.99866 
" style="fill:none;stroke:#b0b0b0;stroke-dasharray:0.8,1.32;stroke-dashoffset:0;stroke-width:0.8;"/>
    <path clip-path="url(#pd2bcb41fb4)" d="M 10.7 98.135566 
L -19.128871 101.174997 
L -47.562977 110.151171 
L -73.272771 124.644371 
L -95.056092 143.976912 
L -111.894375 167.244826 
L -123.000282 193.36013 
L -127.854512 221.101702 
L -126.230087 249.172377 
L -118.202963 276.259601 
L -104.14848 301.096807 
L -84.72381 322.522633 
L -60.837228 339.535232 
L -33.605646 351.339114 
L -4.30238 357.382343 
L 25.70238 357.382343 
L 55.005646 351.339114 
L 82.237228 339.535232 
L 106.12381 322.522633 
L 125.54848 301.096807 
L 139.602963 276.259601 
L 147.630087 249.172377 
L 149.254512 221.101702 
L 144.400282 193.36013 
L 133.294375 167.244826 
L 116.456092 143.976912 
L 94.672771 124.644371 
L 68.962977 110.151171 
L 40.528871 101.174997 
L 10.7 98.135566 
" style="fill:none;stroke:#b0b0b0;stroke-dasharray:0.8,1.32;stroke-dashoffset:0;stroke-width:0.8;"/>
    <path clip-path="url(#pd2bcb41fb4)" d="M 10.7 124.210492 
L -13.146109 126.640306 
L -35.8772 133.816133 
L -56.430393 145.402439 
L -73.844644 160.857462 
L -87.305681 179.458541 
L -96.184081 200.335911 
L -100.064701 222.51337 
L -98.766086 244.953923 
L -92.348959 266.608276 
L -81.113376 286.463896 
L -65.584703 303.592354 
L -46.489041 317.192745 
L -24.719284 326.629128 
L -1.29336 331.460269 
L 22.69336 331.460269 
L 46.119284 326.629128 
L 67.889041 317.192745 
L 86.984703 303.592354 
L 102.513376 286.463896 
L 113.748959 266.608276 
L 120.166086 244.953923 
L 121.464701 222.51337 
L 117.584081 200.335911 
L 108.705681 179.458541 
L 95.244644 160.857462 
L 77.830393 145.402439 
L 57.2772 133.816133 
L 34.546109 126.640306 
L 10.7 124.210492 
" style="fill:none;stroke:#b0b0b0;stroke-dasharray:0.8,1.32;stroke-dashoffset:0;stroke-width:0.8;"/>
    <path clip-path="url(#pd2bcb41fb4)" d="M 10.7 150.235987 
L -7.174688 152.05734 
L -24.213576 157.436233 
L -39.619944 166.121155 
L -52.673407 177.70601 
L -62.7636 191.649103 
L -69.418717 207.298469 
L -72.327572 223.922362 
L -71.354149 240.743467 
L -66.543966 256.975248 
L -58.121941 271.858724 
L -46.481878 284.697962 
L -32.168054 294.892613 
L -15.849768 301.965985 
L 1.709956 305.587336 
L 19.690044 305.587336 
L 37.249768 301.965985 
L 53.568054 294.892613 
L 67.881878 284.697962 
L 79.521941 271.858724 
L 87.943966 256.975248 
L 92.754149 240.743467 
L 93.727572 223.922362 
L 90.818717 207.298469 
L 84.1636 191.649103 
L 74.073407 177.70601 
L 61.019944 166.121155 
L 45.613576 157.436233 
L 28.574688 152.05734 
L 10.7 150.235987 
" style="fill:none;stroke:#b0b0b0;stroke-dasharray:0.8,1.32;stroke-dashoffset:0;stroke-width:0.8;"/>
    <path clip-path="url(#pd2bcb41fb4)" d="M 10.7 176.224498 
L -1.211754 177.438254 
L -12.566527 181.022767 
L -22.833383 186.810429 
L -31.532256 194.530616 
L -38.256395 203.822341 
L -42.691388 214.251132 
L -44.629859 225.329351 
L -43.981167 236.538993 
L -40.775644 247.355908 
L -35.163178 257.274308 
L -27.4062 265.83042 
L -17.867419 272.62417 
L -6.992857 277.33789 
L 4.709004 279.751171 
L 16.690996 279.751171 
L 28.392857 277.33789 
L 39.267419 272.62417 
L 48.8062 265.83042 
L 56.563178 257.274308 
L 62.175644 247.355908 
L 65.381167 236.538993 
L 66.029859 225.329351 
L 64.091388 214.251132 
L 59.656395 203.822341 
L 52.932256 194.530616 
L 44.233383 186.810429 
L 33.966527 181.022767 
L 22.611754 177.438254 
L 10.7 176.224498 
" style="fill:none;stroke:#b0b0b0;stroke-dasharray:0.8,1.32;stroke-dashoffset:0;stroke-width:0.8;"/>
    <path clip-path="url(#pd2bcb41fb4)" d="M 10.7 202.188396 
L 4.745534 202.79513 
L -0.930509 204.586962 
L -6.062721 207.480108 
L -10.411127 211.339288 
L -13.772401 215.98405 
L -15.989372 221.197211 
L -16.958378 226.735008 
L -16.634109 232.338502 
L -15.031727 237.745679 
L -12.226158 242.703704 
L -8.348588 246.980747 
L -3.580327 250.376818 
L 1.855667 252.73312 
L 7.705211 253.939474 
L 13.694789 253.939474 
L 19.544333 252.73312 
L 24.980327 250.376818 
L 29.748588 246.980747 
L 33.626158 242.703704 
L 36.431727 237.745679 
L 38.034109 232.338502 
L 38.358378 226.735008 
L 37.389372 221.197211 
L 35.172401 215.98405 
L 31.811127 211.339288 
L 27.462721 207.480108 
L 22.330509 204.586962 
L 16.654466 202.79513 
L 10.7 202.188396 
" style="fill:none;stroke:#b0b0b0;stroke-dasharray:0.8,1.32;stroke-dashoffset:0;stroke-width:0.8;"/>
    <path clip-path="url(#pd2bcb41fb4)" d="M 10.7 228.14 
L 10.7 228.14 
L 10.7 228.14 
L 10.7 228.14 
L 10.7 228.14 
L 10.7 228.14 
L 10.7 228.14 
L 10.7 228.14 
L 10.7 228.14 
L 10.7 228.14 
L 10.7 228.14 
L 10.7 228.14 
L 10.7 228.14 
L 10.7 228.14 
L 10.7 228.14 
L 10.7 228.14 
L 10.7 228.14 
L 10.7 228.14 
L 10.7 228.14 
L 10.7 228.14 
L 10.7 228.14 
L 10.7 228.14 
L 10.7 228.14 
L 10.7 228.14 
L 10.7 228.14 
L 10.7 228.14 
L 10.7 228.14 
L 10.7 228.14 
L 10.7 228.14 
L 10.7 228.14 
" style="fill:none;stroke:#b0b0b0;stroke-dasharray:0.8,1.32;stroke-dashoffset:0;stroke-width:0.8;"/>
   </g>
   <g id="patch_3">
    <path d="M 10.7 10.7 
L 10.7 228.14 
L 10.7 228.14 
L 10.7 10.7 
L 10.7 10.7 
" style="fill:none;stroke:#000000;stroke-linejoin:miter;"/>
   </g>
  </g>
 </g>
 <defs>
  <clipPath id="pd2bcb41fb4">
   <rect height="217.44" width="0" x="10.7" y="10.7"/>
  </clipPath>
 </defs>
</svg>
