<?xml version="1.0" encoding="utf-8" standalone="no"?>
<!DOCTYPE svg PUBLIC "-//W3C//DTD SVG 1.1//EN"
  "http://www.w3.org/Graphics/SVG/1.1/DTD/svg11.dtd">
<!-- Created with matplotlib (http://matplotlib.org/) -->
<svg height="238pt" version="1.1" viewBox="0 0 238 238" width="238pt" xmlns="http://www.w3.org/2000/svg" xmlns:xlink="http://www.w3.org/1999/xlink">
 <defs>
  <style type="text/css">
*{stroke-linecap:butt;stroke-linejoin:round;}
  </style>
 </defs>
 <g id="figure_1">
  <g id="patch_1">
   <path d="M 0 238.84 
L 238.84 238.84 
L 238.84 0 
L 0 0 
z
" style="fill:none;"/>
  </g>
  <g id="axes_1">
   <g id="patch_2">
    <path d="M 228.14 119.42 
L 227.54442 130.784335 
L 225.764207 142.024159 
L 222.818864 153.016328 
L 218.740662 163.640408 
L 213.574282 173.78 
L 207.376328 183.324013 
L 200.214705 192.16788 
L 192.16788 200.214705 
L 183.324013 207.376328 
L 173.78 213.574282 
L 163.640408 218.740662 
L 153.016328 222.818864 
L 142.024159 225.764207 
L 130.784335 227.54442 
L 119.42 228.14 
L 108.055665 227.54442 
L 96.815841 225.764207 
L 85.823672 222.818864 
L 75.199592 218.740662 
L 65.06 213.574282 
L 55.515987 207.376328 
L 46.67212 200.214705 
L 38.625295 192.16788 
L 31.463672 183.324013 
L 25.265718 173.78 
L 20.099338 163.640408 
L 16.021136 153.016328 
L 13.075793 142.024159 
L 11.29558 130.784335 
L 10.7 119.42 
L 11.29558 108.055665 
L 13.075793 96.815841 
L 16.021136 85.823672 
L 20.099338 75.199592 
L 25.265718 65.06 
L 31.463672 55.515987 
L 38.625295 46.67212 
L 46.67212 38.625295 
L 55.515987 31.463672 
L 65.06 25.265718 
L 75.199592 20.099338 
L 85.823672 16.021136 
L 96.815841 13.075793 
L 108.055665 11.29558 
L 119.42 10.7 
L 130.784335 11.29558 
L 142.024159 13.075793 
L 153.016328 16.021136 
L 163.640408 20.099338 
L 173.78 25.265718 
L 183.324013 31.463672 
L 192.16788 38.625295 
L 200.214705 46.67212 
L 207.376328 55.515987 
L 213.574282 65.06 
L 218.740662 75.199592 
L 222.818864 85.823672 
L 225.764207 96.815841 
L 227.54442 108.055665 
L 228.14 119.42 
L 228.14 119.42 
" style="fill:#ffffff;"/>
   </g>
   <g id="PathCollection_1">
    <path clip-path="url(#p84b26fc3c8)" d="M 26.279764 63.498507 
L 26.129458 63.783487 
L 25.901331 64.226548 
L 25.678578 64.672254 
L 25.461165 65.120519 
L 25.249055 65.57126 
L 25.042212 66.024392 
L 24.840596 66.479832 
L 24.644168 66.937498 
L 24.452887 67.397308 
L 24.266711 67.859181 
L 24.085597 68.323038 
L 23.909501 68.7888 
L 23.738378 69.256388 
L 23.572182 69.725726 
L 23.410867 70.196738 
L 23.254386 70.669348 
L 23.10269 71.143484 
L 22.95573 71.619071 
L 22.813457 72.096039 
L 22.675822 72.574316 
L 22.542773 73.053834 
L 22.414261 73.534524 
L 22.290233 74.016319 
L 22.170637 74.499153 
L 22.055423 74.982961 
L 21.944537 75.46768 
L 21.837928 75.953247 
L 21.735541 76.439602 
L 21.637325 76.926683 
L 21.543225 77.414434 
L 21.45319 77.902795 
L 21.367165 78.391711 
L 21.285098 78.881127 
L 21.206934 79.370989 
L 21.132622 79.861245 
L 21.062107 80.351842 
L 20.995337 80.842732 
L 20.932259 81.333864 
L 20.87282 81.825192 
L 20.816967 82.316668 
L 20.764648 82.808248 
L 20.715811 83.299887 
L 20.670404 83.791543 
L 20.628375 84.283172 
L 20.589674 84.774735 
L 20.554249 85.266193 
L 20.522049 85.757506 
L 20.493024 86.248637 
L 20.467125 86.739551 
L 20.444302 87.230212 
L 20.424505 87.720585 
L 20.407686 88.210639 
L 20.393797 88.700341 
L 20.38279 89.18966 
L 20.374618 89.678566 
L 20.369234 90.167031 
L 20.366591 90.655027 
L 20.366643 91.142526 
L 20.369346 91.629503 
L 20.374654 92.115932 
L 20.382523 92.60179 
L 20.39291 93.087054 
L 20.40577 93.571701 
L 20.421061 94.055709 
L 20.43874 94.539059 
L 20.458767 95.02173 
L 20.4811 95.503704 
L 20.505699 95.984962 
L 20.532522 96.465487 
L 20.561532 96.945264 
L 20.592688 97.424275 
L 20.625953 97.902506 
L 20.661289 98.379943 
L 20.698658 98.856573 
L 20.738024 99.332381 
L 20.77935 99.807357 
L 20.822602 100.281489 
L 20.867744 100.754766 
L 20.914741 101.227177 
L 20.96356 101.698714 
L 21.014167 102.169367 
L 21.06653 102.639127 
L 21.120616 103.107988 
L 21.176393 103.575942 
L 21.233831 104.042982 
L 21.292898 104.509102 
L 21.353565 104.974296 
L 21.415802 105.43856 
L 21.479579 105.901888 
L 21.54487 106.364277 
L 21.611644 106.825723 
L 21.679875 107.286223 
L 21.749537 107.745774 
L 21.820601 108.204373 
L 21.893043 108.662019 
L 21.966837 109.118711 
L 22.041957 109.574447 
L 22.11838 110.029227 
L 22.196082 110.483049 
L 22.275038 110.935916 
L 22.355226 111.387825 
L 22.436622 111.83878 
L 22.519206 112.28878 
L 22.602955 112.737826 
L 22.687848 113.185922 
L 22.773863 113.633068 
L 22.860982 114.079267 
L 22.949183 114.524522 
L 23.038448 114.968835 
L 23.128756 115.41221 
L 23.22009 115.85465 
L 23.312431 116.296159 
L 23.405762 116.73674 
L 23.500064 117.176398 
L 23.595321 117.615137 
L 23.691516 118.052962 
L 23.788633 118.489877 
L 23.886656 118.925888 
L 23.985569 119.360999 
L 24.085358 119.795217 
L 24.186006 120.228546 
L 24.287501 120.660992 
L 24.389828 121.092561 
L 24.492972 121.52326 
L 24.596922 121.953095 
L 24.701663 122.382071 
L 24.807182 122.810196 
L 24.913469 123.237476 
L 25.02051 123.663918 
L 25.128293 124.089528 
L 25.236808 124.514315 
L 25.346043 124.938285 
L 25.455987 125.361445 
L 25.56663 125.783803 
L 25.677962 126.205366 
L 25.789973 126.626142 
L 25.902652 127.046139 
L 26.015991 127.465364 
L 26.129981 127.883826 
L 26.244612 128.301532 
L 26.359877 128.718489 
L 26.475767 129.134708 
L 26.592274 129.550195 
L 26.70939 129.964958 
L 26.827108 130.379007 
L 26.945421 130.792349 
L 27.064322 131.204993 
L 27.183803 131.616948 
L 27.303859 132.028221 
L 27.424483 132.438822 
L 27.545669 132.848759 
L 27.667412 133.25804 
L 27.789706 133.666675 
L 27.912546 134.074672 
L 28.035926 134.482041 
L 28.159841 134.888788 
L 28.284288 135.294925 
L 28.409261 135.700459 
L 28.534757 136.105399 
L 28.660771 136.509754 
L 28.787299 136.913533 
L 28.914339 137.316745 
L 29.041885 137.719398 
L 29.169937 138.121503 
L 29.298489 138.523067 
L 29.42754 138.9241 
L 29.557087 139.32461 
L 29.687127 139.724607 
L 29.817658 140.124099 
L 29.948679 140.523096 
L 30.080186 140.921606 
L 30.212179 141.319638 
L 30.344656 141.717201 
L 30.477616 142.114305 
L 30.611057 142.510957 
L 30.744978 142.907167 
L 30.879379 143.302944 
L 31.014259 143.698296 
L 31.149617 144.093233 
L 31.285453 144.487763 
L 31.421767 144.881894 
L 31.558559 145.275637 
L 31.695829 145.668998 
L 31.833578 146.061988 
L 31.971805 146.454615 
L 32.110511 146.846887 
L 32.249698 147.238813 
L 32.389366 147.630402 
L 32.529516 148.021662 
L 32.67015 148.412601 
L 32.811269 148.803229 
L 32.952873 149.193553 
L 33.094966 149.583582 
L 33.237549 149.973324 
L 33.380624 150.362787 
L 33.524193 150.751981 
L 33.668258 151.140912 
L 33.812822 151.529589 
L 33.957887 151.918021 
L 34.103456 152.306215 
L 34.249532 152.694178 
L 34.396118 153.08192 
L 34.543216 153.469448 
L 34.690831 153.85677 
L 34.838966 154.243894 
L 34.987623 154.630826 
L 35.136808 155.017576 
L 35.286523 155.404149 
L 35.436773 155.790555 
L 35.587561 156.1768 
L 35.738892 156.562892 
L 35.890771 156.948838 
L 36.043201 157.334645 
L 36.196188 157.72032 
L 36.349736 158.10587 
L 36.503851 158.491303 
L 36.658536 158.876625 
L 36.813798 159.261842 
L 36.969642 159.646963 
L 37.126072 160.031992 
L 37.283096 160.416938 
L 37.440718 160.801806 
L 37.598944 161.186602 
L 37.757781 161.571333 
L 37.917234 161.956005 
L 38.07731 162.340624 
L 38.238015 162.725196 
L 38.399356 163.109727 
L 38.561339 163.494222 
L 38.723971 163.878687 
L 38.88726 164.263128 
L 39.051212 164.64755 
L 39.215834 165.031958 
L 39.381134 165.416357 
L 39.54712 165.800753 
L 39.713798 166.18515 
L 39.881178 166.569552 
L 40.049266 166.953966 
L 40.21807 167.338394 
L 40.3876 167.722842 
L 40.557863 168.107313 
L 40.728868 168.491812 
L 40.900623 168.876342 
L 41.073138 169.260907 
L 41.24642 169.645512 
L 41.42048 170.030158 
L 41.595325 170.41485 
L 41.770967 170.79959 
L 41.947414 171.184381 
L 42.124675 171.569227 
L 42.302761 171.954129 
L 42.481681 172.33909 
L 42.661446 172.724113 
L 42.842065 173.109198 
L 43.02355 173.494348 
L 43.20591 173.879565 
L 43.389156 174.264849 
L 43.573299 174.650202 
L 43.75835 175.035625 
L 43.94432 175.421118 
L 44.131221 175.806683 
L 44.319063 176.192318 
L 44.507858 176.578025 
L 44.697618 176.963803 
L 44.888355 177.349651 
L 45.08008 177.735568 
L 45.272806 178.121554 
L 45.466546 178.507607 
L 45.661311 178.893727 
L 45.857114 179.279909 
L 46.053968 179.666154 
L 46.251886 180.052458 
L 46.450881 180.438818 
L 46.650966 180.825232 
L 46.852154 181.211695 
L 47.05446 181.598205 
L 47.257896 181.984758 
L 47.462476 182.371348 
L 47.668215 182.757972 
L 47.875127 183.144624 
L 48.083226 183.531299 
L 48.292525 183.91799 
L 48.503041 184.304693 
L 48.714787 184.6914 
L 48.927779 185.078104 
L 49.142031 185.464798 
L 49.357559 185.851475 
L 49.574378 186.238126 
L 49.792503 186.624742 
L 50.011951 187.011315 
L 50.232736 187.397834 
L 50.454875 187.784291 
L 50.678384 188.170674 
L 50.903279 188.556973 
L 51.129576 188.943177 
L 51.357292 189.329272 
L 51.586444 189.715249 
L 51.817047 190.101092 
L 52.04912 190.486789 
L 52.282678 190.872326 
L 52.517739 191.257689 
L 52.754321 191.642861 
L 52.992441 192.027829 
L 53.232115 192.412575 
L 53.473362 192.797082 
L 53.7162 193.181334 
L 53.960646 193.565313 
L 54.206718 193.948998 
L 54.454435 194.332373 
L 54.703813 194.715415 
L 54.954873 195.098106 
L 55.207631 195.480423 
L 55.462106 195.862344 
L 55.718317 196.243847 
L 55.976282 196.624909 
L 56.236019 197.005506 
L 56.497548 197.385612 
L 56.760888 197.765202 
L 57.026056 198.14425 
L 57.293072 198.522728 
L 57.561954 198.90061 
L 57.832722 199.277865 
L 58.105394 199.654465 
L 58.379989 200.03038 
L 58.656526 200.405577 
L 58.935024 200.780026 
L 59.215503 201.153693 
L 59.497979 201.526544 
L 59.782474 201.898546 
L 60.069005 202.269663 
L 60.357591 202.639857 
L 60.648251 203.009093 
L 60.941003 203.377331 
L 61.235866 203.744533 
L 61.532859 204.110658 
L 61.832 204.475666 
L 62.133306 204.839514 
L 62.436797 205.20216 
L 62.74249 205.563559 
L 63.050402 205.923667 
L 63.360552 206.282437 
L 63.672957 206.639823 
L 63.987634 206.995777 
L 64.304599 207.350249 
L 64.623871 207.70319 
L 64.945465 208.054548 
L 65.269398 208.404272 
L 65.595685 208.752308 
L 65.924343 209.098601 
L 66.255386 209.443098 
L 66.588829 209.785741 
L 66.924688 210.126474 
L 67.262977 210.465237 
L 67.603709 210.801971 
L 67.946898 211.136615 
L 68.292557 211.469109 
L 68.640698 211.79939 
L 68.991334 212.127393 
L 69.344477 212.453054 
L 69.700136 212.776307 
L 70.058324 213.097085 
L 70.419049 213.415322 
L 70.782322 213.730947 
L 71.148151 214.043891 
L 71.516543 214.354083 
L 71.887508 214.661451 
L 72.26105 214.965923 
L 72.637177 215.267425 
L 73.015894 215.565882 
L 73.397205 215.861219 
L 73.781115 216.153359 
L 74.167625 216.442226 
L 74.556739 216.72774 
L 74.948457 217.009822 
L 75.34278 217.288395 
L 75.739707 217.563375 
L 76.139238 217.834684 
L 76.541368 218.102238 
L 76.946096 218.365955 
L 77.353416 218.625752 
L 77.763324 218.881544 
L 78.175811 219.133249 
L 78.590872 219.38078 
L 79.008497 219.624053 
L 79.428675 219.862982 
L 79.851397 220.097481 
L 80.27665 220.327463 
L 80.70442 220.552842 
L 81.134692 220.77353 
L 81.567451 220.989441 
L 82.002679 221.200488 
L 82.440358 221.406583 
L 82.880468 221.60764 
L 83.322988 221.80357 
L 83.767895 221.994287 
L 84.215164 222.179705 
L 84.664772 222.359736 
L 85.116691 222.534295 
L 85.570892 222.703295 
L 86.027347 222.866652 
L 86.109921 222.895564 
L 96.815841 225.764207 
L 108.055665 227.54442 
L 119.42 228.14 
L 130.784335 227.54442 
L 142.024159 225.764207 
L 153.016328 222.818864 
L 163.640408 218.740662 
L 173.78 213.574282 
L 183.324013 207.376328 
L 192.16788 200.214705 
L 200.214705 192.16788 
L 207.376328 183.324013 
L 208.892933 180.988645 
L 208.781628 181.129709 
L 208.466983 181.520563 
L 208.146638 181.907319 
L 207.820592 182.28989 
L 207.488844 182.668187 
L 207.151397 183.042126 
L 206.808255 183.411619 
L 206.459427 183.776582 
L 206.104922 184.136931 
L 205.744752 184.49258 
L 205.378932 184.843449 
L 205.007478 185.189455 
L 204.630411 185.530518 
L 204.247754 185.866557 
L 203.859529 186.197496 
L 203.465766 186.523256 
L 203.066494 186.843762 
L 202.661745 187.158941 
L 202.251555 187.468719 
L 201.83596 187.773025 
L 201.415002 188.07179 
L 200.988724 188.364947 
L 200.557169 188.652428 
L 200.120388 188.93417 
L 199.678428 189.210111 
L 199.231345 189.48019 
L 198.779192 189.74435 
L 198.322029 190.002533 
L 197.859914 190.254686 
L 197.392911 190.500758 
L 196.921085 190.740698 
L 196.444502 190.974459 
L 195.963232 191.201996 
L 195.477348 191.423266 
L 194.986922 191.63823 
L 194.492032 191.846848 
L 193.992754 192.049086 
L 193.489168 192.244912 
L 192.981358 192.434293 
L 192.469406 192.617204 
L 191.953399 192.793617 
L 191.433422 192.963512 
L 190.909567 193.126867 
L 190.381922 193.283664 
L 189.850581 193.43389 
L 189.315636 193.577532 
L 188.777183 193.71458 
L 188.235318 193.845026 
L 187.690138 193.968867 
L 187.141742 194.086101 
L 186.59023 194.196727 
L 186.035701 194.30075 
L 185.478258 194.398175 
L 184.918002 194.48901 
L 184.355036 194.573266 
L 183.789465 194.650955 
L 183.221391 194.722095 
L 182.65092 194.786702 
L 182.078156 194.844797 
L 181.503205 194.896403 
L 180.926173 194.941545 
L 180.347163 194.980249 
L 179.766283 195.012545 
L 179.183637 195.038464 
L 178.599332 195.058041 
L 178.013471 195.07131 
L 177.426161 195.078309 
L 176.837506 195.079078 
L 176.247609 195.073658 
L 175.656576 195.062092 
L 175.064507 195.044426 
L 174.471507 195.020705 
L 173.877677 194.990978 
L 173.283118 194.955295 
L 172.68793 194.913707 
L 172.092213 194.866266 
L 171.496065 194.813028 
L 170.899582 194.754048 
L 170.302862 194.689382 
L 169.706 194.619088 
L 169.10909 194.543225 
L 168.512224 194.461853 
L 167.915495 194.375033 
L 167.318992 194.282829 
L 166.722804 194.185301 
L 166.12702 194.082514 
L 165.531725 193.974533 
L 164.937005 193.861422 
L 164.342941 193.743248 
L 163.749618 193.620076 
L 163.157114 193.491974 
L 162.565508 193.359008 
L 161.974879 193.221247 
L 161.385301 193.078758 
L 160.796848 192.93161 
L 160.209593 192.779871 
L 159.623608 192.62361 
L 159.03896 192.462895 
L 158.455718 192.297796 
L 157.873948 192.128382 
L 157.293714 191.95472 
L 156.715079 191.776881 
L 156.138103 191.594933 
L 155.562846 191.408944 
L 154.989366 191.218982 
L 154.417718 191.025117 
L 153.847958 190.827415 
L 153.280138 190.625945 
L 152.714309 190.420772 
L 152.150521 190.211965 
L 151.588821 189.99959 
L 151.029257 189.783711 
L 150.471873 189.564396 
L 149.916711 189.341709 
L 149.363815 189.115714 
L 148.813224 188.886475 
L 148.264977 188.654056 
L 147.71911 188.418519 
L 147.175661 188.179926 
L 146.634662 187.938339 
L 146.096147 187.693819 
L 145.560147 187.446424 
L 145.026693 187.196216 
L 144.495813 186.943252 
L 143.967533 186.687591 
L 143.441882 186.42929 
L 142.918882 186.168404 
L 142.398558 185.904991 
L 141.880931 185.639104 
L 141.366023 185.370797 
L 140.853854 185.100125 
L 140.344442 184.82714 
L 139.837804 184.551893 
L 139.333957 184.274435 
L 138.832917 183.994817 
L 138.334696 183.713087 
L 137.83931 183.429294 
L 137.346769 183.143487 
L 136.857084 182.85571 
L 136.370266 182.566012 
L 135.886325 182.274436 
L 135.405267 181.981027 
L 134.927102 181.685829 
L 134.451834 181.388884 
L 133.979471 181.090234 
L 133.510016 180.789921 
L 133.043474 180.487984 
L 132.579847 180.184463 
L 132.119139 179.879397 
L 131.661352 179.572823 
L 131.206485 179.264779 
L 130.75454 178.9553 
L 130.305517 178.644423 
L 129.859414 178.332183 
L 129.416229 178.018612 
L 128.975962 177.703744 
L 128.538608 177.387612 
L 128.104165 177.070247 
L 127.672628 176.751681 
L 127.243994 176.431943 
L 126.818258 176.111064 
L 126.395413 175.789071 
L 125.975455 175.465993 
L 125.558378 175.141857 
L 125.144173 174.81669 
L 124.732835 174.490518 
L 124.324356 174.163367 
L 123.918728 173.835261 
L 123.515943 173.506223 
L 123.115992 173.176278 
L 122.718866 172.845448 
L 122.324556 172.513756 
L 121.933053 172.181222 
L 121.544347 171.847867 
L 121.158428 171.513713 
L 120.775285 171.178778 
L 120.394908 170.843083 
L 120.017287 170.506644 
L 119.642409 170.16948 
L 119.270264 169.83161 
L 118.900841 169.493049 
L 118.534128 169.153813 
L 118.170113 168.81392 
L 117.808785 168.473383 
L 117.45013 168.132218 
L 117.094138 167.79044 
L 116.740795 167.448061 
L 116.39009 167.105095 
L 116.04201 166.761556 
L 115.696542 166.417455 
L 115.353673 166.072804 
L 115.013391 165.727615 
L 114.675682 165.381899 
L 114.340535 165.035666 
L 114.007935 164.688926 
L 113.67787 164.34169 
L 113.350327 163.993966 
L 113.025293 163.645764 
L 112.702754 163.297092 
L 112.382698 162.947958 
L 112.065111 162.59837 
L 111.749979 162.248336 
L 111.437291 161.897862 
L 111.127033 161.546954 
L 110.819191 161.19562 
L 110.513753 160.843866 
L 110.210705 160.491696 
L 109.910034 160.139116 
L 109.611728 159.786132 
L 109.315773 159.432747 
L 109.022156 159.078966 
L 108.730865 158.724794 
L 108.441887 158.370233 
L 108.155208 158.015288 
L 107.870817 157.659961 
L 107.5887 157.304255 
L 107.308845 156.948174 
L 107.03124 156.591718 
L 106.755871 156.23489 
L 106.482727 155.877693 
L 106.211795 155.520127 
L 105.943064 155.162194 
L 105.67652 154.803894 
L 105.412153 154.445229 
L 105.149949 154.086199 
L 104.889898 153.726805 
L 104.631988 153.367046 
L 104.376207 153.006922 
L 104.122543 152.646433 
L 103.870985 152.285579 
L 103.621522 151.924358 
L 103.374143 151.562769 
L 103.128836 151.200812 
L 102.885591 150.838485 
L 102.644397 150.475787 
L 102.405243 150.112715 
L 102.168118 149.749267 
L 101.933013 149.385442 
L 101.699916 149.021237 
L 101.468818 148.65665 
L 101.239709 148.291678 
L 101.012578 147.926318 
L 100.787415 147.560567 
L 100.564212 147.194422 
L 100.342959 146.82788 
L 100.123645 146.460937 
L 99.906262 146.093589 
L 99.690801 145.725833 
L 99.477253 145.357664 
L 99.265609 144.989079 
L 99.055859 144.620074 
L 98.847997 144.250644 
L 98.642012 143.880784 
L 98.437897 143.51049 
L 98.235644 143.139757 
L 98.035245 142.76858 
L 97.836691 142.396955 
L 97.639975 142.024876 
L 97.445091 141.652337 
L 97.252029 141.279334 
L 97.060783 140.90586 
L 96.871346 140.531911 
L 96.68371 140.157481 
L 96.49787 139.782563 
L 96.313818 139.407152 
L 96.131548 139.031241 
L 95.951053 138.654825 
L 95.772328 138.277897 
L 95.595366 137.900452 
L 95.420161 137.522481 
L 95.246708 137.143979 
L 95.075002 136.76494 
L 94.905035 136.385356 
L 94.736804 136.005221 
L 94.570304 135.624527 
L 94.405529 135.243268 
L 94.242474 134.861436 
L 94.081136 134.479025 
L 93.921509 134.096027 
L 93.763589 133.712435 
L 93.607372 133.328241 
L 93.452855 132.943438 
L 93.300032 132.558018 
L 93.148902 132.171974 
L 92.999459 131.785298 
L 92.851701 131.397982 
L 92.705626 131.010018 
L 92.561228 130.621398 
L 92.418507 130.232115 
L 92.277459 129.84216 
L 92.138082 129.451525 
L 92.000373 129.060202 
L 91.86433 128.668183 
L 91.729952 128.275459 
L 91.597237 127.882023 
L 91.466182 127.487865 
L 91.336787 127.092977 
L 91.209049 126.697351 
L 91.082969 126.300978 
L 90.958545 125.903849 
L 90.835777 125.505957 
L 90.714663 125.107292 
L 90.595203 124.707845 
L 90.477397 124.307608 
L 90.361246 123.906571 
L 90.246748 123.504727 
L 90.133905 123.102066 
L 90.022717 122.698579 
L 89.913185 122.294257 
L 89.805308 121.889092 
L 89.69909 121.483073 
L 89.594529 121.076193 
L 89.491629 120.668442 
L 89.390391 120.259811 
L 89.290816 119.850292 
L 89.192906 119.439874 
L 89.096663 119.028548 
L 89.002091 118.616306 
L 88.90919 118.203139 
L 88.817965 117.789037 
L 88.728417 117.373991 
L 88.64055 116.957991 
L 88.554368 116.54103 
L 88.469873 116.123097 
L 88.38707 115.704183 
L 88.305962 115.28428 
L 88.226553 114.863377 
L 88.148847 114.441467 
L 88.07285 114.018539 
L 87.998566 113.594585 
L 87.925999 113.169595 
L 87.855155 112.743561 
L 87.786038 112.316473 
L 87.718655 111.888323 
L 87.653012 111.459101 
L 87.589113 111.028799 
L 87.526965 110.597407 
L 87.466574 110.164917 
L 87.407948 109.73132 
L 87.351092 109.296607 
L 87.296014 108.86077 
L 87.24272 108.4238 
L 87.191219 107.985688 
L 87.141517 107.546425 
L 87.093623 107.106005 
L 87.047545 106.664417 
L 87.00329 106.221653 
L 86.960867 105.777707 
L 86.920286 105.332569 
L 86.881554 104.886231 
L 86.844682 104.438686 
L 86.809678 103.989925 
L 86.776551 103.539942 
L 86.745313 103.088728 
L 86.715972 102.636276 
L 86.68854 102.182579 
L 86.663026 101.72763 
L 86.639441 101.271421 
L 86.617797 100.813946 
L 86.598104 100.355197 
L 86.580374 99.89517 
L 86.564618 99.433856 
L 86.550849 98.971249 
L 86.539079 98.507345 
L 86.52932 98.042136 
L 86.521584 97.575618 
L 86.515885 97.107784 
L 86.512235 96.638629 
L 86.510648 96.168149 
L 86.511137 95.696339 
L 86.513717 95.223194 
L 86.518401 94.748709 
L 86.525203 94.272882 
L 86.534138 93.795707 
L 86.545221 93.317181 
L 86.558467 92.837302 
L 86.57389 92.356066 
L 86.591508 91.873471 
L 86.611334 91.389514 
L 86.633385 90.904193 
L 86.657678 90.417506 
L 86.684228 89.929453 
L 86.713053 89.440033 
L 86.744169 88.949244 
L 86.777593 88.457086 
L 86.813343 87.96356 
L 86.851436 87.468667 
L 86.891891 86.972406 
L 86.934724 86.474781 
L 86.979955 85.975792 
L 87.027602 85.475442 
L 87.077684 84.973733 
L 87.130219 84.47067 
L 87.185227 83.966255 
L 87.242727 83.460494 
L 87.302739 82.95339 
L 87.365282 82.44495 
L 87.430377 81.935179 
L 87.498043 81.424083 
L 87.568302 80.91167 
L 87.641173 80.397948 
L 87.716677 79.882924 
L 87.794836 79.366608 
L 87.875671 78.849009 
L 87.959202 78.330138 
L 88.045451 77.810005 
L 88.134441 77.288623 
L 88.226192 76.766002 
L 88.320727 76.242158 
L 88.418068 75.717102 
L 88.518237 75.190851 
L 88.621257 74.663419 
L 88.727149 74.134823 
L 88.835937 73.60508 
L 88.947644 73.074207 
L 89.062291 72.542224 
L 89.179902 72.009151 
L 89.300501 71.475006 
L 89.424109 70.939814 
L 89.550751 70.403594 
L 89.680448 69.866372 
L 89.813226 69.328172 
L 89.949106 68.789018 
L 90.088112 68.248937 
L 90.230267 67.707958 
L 90.375595 67.166107 
L 90.524118 66.623416 
L 90.67586 66.079914 
L 90.830844 65.535633 
L 90.989093 64.990606 
L 91.15063 64.444868 
L 91.315478 63.898454 
L 91.483659 63.3514 
L 91.655196 62.803744 
L 91.830112 62.255524 
L 92.008429 61.706782 
L 92.190169 61.157557 
L 92.375353 60.607894 
L 92.564005 60.057836 
L 92.756144 59.507428 
L 92.951793 58.956717 
L 93.150971 58.405751 
L 93.353701 57.85458 
L 93.560001 57.303254 
L 93.769892 56.751824 
L 93.983394 56.200346 
L 94.200525 55.648873 
L 94.421304 55.097461 
L 94.64575 54.54617 
L 94.87388 53.995057 
L 95.105711 53.444184 
L 95.341261 52.893612 
L 95.580546 52.343405 
L 95.823581 51.793628 
L 96.070381 51.244348 
L 96.320961 50.695632 
L 96.575334 50.147549 
L 96.833514 49.600172 
L 97.095513 49.053571 
L 97.361343 48.507821 
L 97.631014 47.962997 
L 97.904537 47.419175 
L 98.18192 46.876434 
L 98.463173 46.334854 
L 98.748302 45.794514 
L 99.037315 45.255498 
L 99.330216 44.717889 
L 99.627012 44.181772 
L 99.927704 43.647234 
L 100.232296 43.114363 
L 100.540789 42.583247 
L 100.853184 42.053977 
L 101.169481 41.526645 
L 101.489677 41.001343 
L 101.813769 40.478165 
L 102.141754 39.957207 
L 102.473625 39.438564 
L 102.809376 38.922334 
L 103.149 38.408616 
L 103.492487 37.897509 
L 103.839825 37.389113 
L 104.191005 36.883529 
L 104.546011 36.380859 
L 104.904829 35.881206 
L 105.267443 35.384675 
L 105.633836 34.891368 
L 106.003988 34.401391 
L 106.377879 33.914849 
L 106.755486 33.431848 
L 107.136786 32.952495 
L 107.521755 32.476897 
L 107.910364 32.005159 
L 108.302586 31.53739 
L 108.698392 31.073696 
L 109.097749 30.614186 
L 109.500625 30.158967 
L 109.906985 29.708145 
L 110.316793 29.261828 
L 110.730012 28.820123 
L 111.146602 28.383136 
L 111.566522 27.950974 
L 111.989729 27.523741 
L 112.41618 27.101544 
L 112.845828 26.684486 
L 113.278628 26.27267 
L 113.714529 25.8662 
L 114.153481 25.465177 
L 114.595434 25.069701 
L 115.040332 24.679873 
L 115.488122 24.295789 
L 115.938747 23.917548 
L 116.39215 23.545244 
L 116.84827 23.178971 
L 117.307049 22.818823 
L 117.768423 22.464889 
L 118.232331 22.117258 
L 118.698706 21.776017 
L 119.167484 21.441252 
L 119.638597 21.113045 
L 120.111978 20.791478 
L 120.587556 20.476628 
L 121.065263 20.168573 
L 121.545026 19.867386 
L 122.026773 19.57314 
L 122.510431 19.285902 
L 122.995926 19.005741 
L 123.483182 18.732719 
L 123.972123 18.466898 
L 124.462674 18.208336 
L 124.954757 17.95709 
L 125.448294 17.713211 
L 125.943207 17.476751 
L 126.439416 17.247754 
L 126.936843 17.026267 
L 127.435407 16.812328 
L 127.935029 16.605977 
L 128.435628 16.407248 
L 128.937124 16.216171 
L 129.439436 16.032777 
L 129.942483 15.857088 
L 130.446184 15.689129 
L 130.950459 15.528917 
L 131.455228 15.376467 
L 131.960409 15.231793 
L 132.465922 15.094903 
L 132.971688 14.965802 
L 133.477627 14.844495 
L 133.98366 14.730979 
L 134.489707 14.625251 
L 134.995692 14.527305 
L 135.501536 14.437129 
L 136.007162 14.354712 
L 136.512494 14.280037 
L 137.017456 14.213084 
L 137.521974 14.153831 
L 138.025974 14.102253 
L 138.529382 14.058322 
L 139.032127 14.022006 
L 139.534137 13.993273 
L 140.035343 13.972085 
L 140.535675 13.958403 
L 141.035065 13.952186 
L 141.533447 13.953388 
L 142.030754 13.961962 
L 142.526924 13.977861 
L 143.021891 14.00103 
L 143.515595 14.031417 
L 144.007975 14.068965 
L 144.498971 14.113615 
L 144.988526 14.165307 
L 145.476583 14.223979 
L 145.963087 14.289566 
L 146.447983 14.362001 
L 146.931221 14.441216 
L 147.412749 14.527142 
L 147.507833 14.545139 
L 142.024159 13.075793 
L 130.784335 11.29558 
L 119.42 10.7 
L 108.055665 11.29558 
L 96.815841 13.075793 
L 85.823672 16.021136 
L 75.199592 20.099338 
L 65.06 25.265718 
L 55.515987 31.463672 
L 46.67212 38.625295 
L 38.625295 46.67212 
L 31.463672 55.515987 
L 26.279764 63.498507 
" style="fill:#1f77b4;"/>
   </g>
   <g id="PathCollection_2">
    <path clip-path="url(#p84b26fc3c8)" d="M 217.619823 82.932577 
L 217.533699 82.704816 
L 217.446934 82.4773 
L 217.359525 82.250022 
L 217.27147 82.02298 
L 217.182766 81.796167 
L 217.093413 81.569579 
L 217.003407 81.343213 
L 216.912747 81.117064 
L 216.821429 80.891126 
L 216.729453 80.665397 
L 216.636814 80.439871 
L 216.543512 80.214544 
L 216.449542 79.989412 
L 216.354903 79.764471 
L 216.259591 79.539717 
L 216.163603 79.315145 
L 216.066938 79.090752 
L 215.969591 78.866533 
L 215.87156 78.642484 
L 215.772841 78.418603 
L 215.673432 78.194884 
L 215.573328 77.971324 
L 215.472527 77.747919 
L 215.371025 77.524665 
L 215.268819 77.301559 
L 215.165905 77.078598 
L 215.062279 76.855777 
L 214.957938 76.633093 
L 214.852878 76.410543 
L 214.747095 76.188124 
L 214.640585 75.965831 
L 214.533344 75.743662 
L 214.425368 75.521614 
L 214.316653 75.299684 
L 214.207195 75.077868 
L 214.096989 74.856164 
L 213.986032 74.634568 
L 213.874318 74.413078 
L 213.761843 74.191692 
L 213.648603 73.970406 
L 213.534593 73.749217 
L 213.419809 73.528124 
L 213.304245 73.307124 
L 213.187898 73.086215 
L 213.070762 72.865394 
L 212.952831 72.644659 
L 212.834103 72.424008 
L 212.71457 72.203439 
L 212.594229 71.98295 
L 212.473074 71.76254 
L 212.351099 71.542206 
L 212.228301 71.321948 
L 212.104672 71.101763 
L 211.980209 70.88165 
L 211.854905 70.661607 
L 211.728756 70.441635 
L 211.601755 70.221731 
L 211.473897 70.001894 
L 211.345176 69.782125 
L 211.215588 69.562421 
L 211.085125 69.342782 
L 210.953783 69.123209 
L 210.821555 68.9037 
L 210.688436 68.684255 
L 210.55442 68.464874 
L 210.419501 68.245557 
L 210.283672 68.026305 
L 210.146929 67.807117 
L 210.009265 67.587995 
L 209.870673 67.368937 
L 209.731148 67.149947 
L 209.590684 66.931023 
L 209.449275 66.712168 
L 209.306914 66.493382 
L 209.163595 66.274667 
L 209.019312 66.056024 
L 208.874059 65.837455 
L 208.727829 65.618962 
L 208.580617 65.400547 
L 208.432416 65.182213 
L 208.283219 64.963961 
L 208.13302 64.745794 
L 207.981814 64.527714 
L 207.829594 64.309726 
L 207.676353 64.091832 
L 207.522085 63.874035 
L 207.366784 63.65634 
L 207.210445 63.438749 
L 207.053059 63.221267 
L 206.894622 63.003898 
L 206.735127 62.786647 
L 206.574567 62.569517 
L 206.412938 62.352515 
L 206.250232 62.135646 
L 206.086444 61.918914 
L 205.921567 61.702325 
L 205.755596 61.485886 
L 205.588524 61.269601 
L 205.420346 61.053479 
L 205.251057 60.837526 
L 205.080649 60.621747 
L 204.909118 60.406152 
L 204.736459 60.190747 
L 204.562664 59.97554 
L 204.38773 59.760539 
L 204.211651 59.545752 
L 204.034421 59.331189 
L 203.856036 59.116858 
L 203.67649 58.902768 
L 203.495779 58.68893 
L 203.313898 58.475353 
L 203.130843 58.262048 
L 202.946608 58.049025 
L 202.761189 57.836295 
L 202.574584 57.623869 
L 202.386786 57.411759 
L 202.197793 57.199978 
L 202.007602 56.988537 
L 201.816208 56.77745 
L 201.623608 56.566729 
L 201.429799 56.356388 
L 201.234779 56.146442 
L 201.038545 55.936903 
L 200.841094 55.727788 
L 200.642424 55.51911 
L 200.442534 55.310886 
L 200.241422 55.103132 
L 200.039087 54.895864 
L 199.835527 54.689098 
L 199.630742 54.482852 
L 199.424731 54.277144 
L 199.217495 54.071991 
L 199.009033 53.867412 
L 198.799345 53.663427 
L 198.588434 53.460054 
L 198.3763 53.257313 
L 198.162944 53.055225 
L 197.948369 52.85381 
L 197.732578 52.65309 
L 197.515572 52.453087 
L 197.297355 52.253823 
L 197.077931 52.05532 
L 196.857304 51.857601 
L 196.635479 51.660691 
L 196.41246 51.464613 
L 196.188254 51.269392 
L 195.962865 51.075054 
L 195.736302 50.881623 
L 195.50857 50.689126 
L 195.279677 50.49759 
L 195.049632 50.307042 
L 194.818444 50.117508 
L 194.586121 49.929018 
L 194.352673 49.7416 
L 194.118112 49.555283 
L 193.882447 49.370097 
L 193.645692 49.186071 
L 193.407858 49.003237 
L 193.168959 48.821624 
L 192.929007 48.641266 
L 192.688019 48.462193 
L 192.446008 48.284439 
L 192.20299 48.108036 
L 191.958983 47.933017 
L 191.714003 47.759417 
L 191.468068 47.587269 
L 191.221197 47.416609 
L 190.97341 47.247471 
L 190.724727 47.079892 
L 190.47517 46.913907 
L 190.224759 46.749552 
L 189.973517 46.586865 
L 189.721469 46.425883 
L 189.468639 46.266642 
L 189.21505 46.109182 
L 188.960731 45.95354 
L 188.705707 45.799754 
L 188.450005 45.647865 
L 188.193656 45.49791 
L 187.936687 45.349929 
L 187.679129 45.203963 
L 187.421013 45.06005 
L 187.162371 44.918232 
L 186.903236 44.778548 
L 186.643641 44.641038 
L 186.38362 44.505745 
L 186.12321 44.372708 
L 185.862446 44.241968 
L 185.601364 44.113567 
L 185.340004 43.987545 
L 185.078403 43.863944 
L 184.816601 43.742805 
L 184.554638 43.624168 
L 184.292555 43.508075 
L 184.030394 43.394567 
L 183.768197 43.283685 
L 183.506008 43.175469 
L 183.243871 43.06996 
L 182.98183 42.967198 
L 182.719931 42.867223 
L 182.45822 42.770076 
L 182.196743 42.675796 
L 181.935548 42.584421 
L 181.674683 42.495991 
L 181.414197 42.410545 
L 181.154138 42.32812 
L 180.894556 42.248754 
L 180.635501 42.172483 
L 180.377024 42.099345 
L 180.119175 42.029375 
L 179.862006 41.962609 
L 179.605568 41.899081 
L 179.349914 41.838826 
L 179.095095 41.781875 
L 178.841164 41.728263 
L 178.588173 41.67802 
L 178.336176 41.631178 
L 178.085225 41.587767 
L 177.835373 41.547815 
L 177.586673 41.511351 
L 177.339179 41.478402 
L 177.092941 41.448995 
L 176.848015 41.423154 
L 176.604452 41.400904 
L 176.362304 41.382267 
L 176.121623 41.367267 
L 175.882462 41.355923 
L 175.644872 41.348255 
L 175.408903 41.344282 
L 175.174607 41.34402 
L 174.942033 41.347486 
L 174.711231 41.354695 
L 174.482249 41.36566 
L 174.255137 41.380392 
L 174.029941 41.398903 
L 173.806708 41.421202 
L 173.585485 41.447297 
L 173.366317 41.477194 
L 173.149247 41.5109 
L 172.93432 41.548417 
L 172.721579 41.589748 
L 172.511063 41.634895 
L 172.302815 41.683855 
L 172.096873 41.736629 
L 171.893275 41.793212 
L 171.69206 41.8536 
L 171.493262 41.917786 
L 171.296917 41.985762 
L 171.103058 42.057521 
L 170.911717 42.13305 
L 170.722926 42.212339 
L 170.536714 42.295373 
L 170.353109 42.382138 
L 170.172139 42.472619 
L 169.993829 42.566796 
L 169.818204 42.664652 
L 169.645286 42.766167 
L 169.475096 42.871317 
L 169.307655 42.980082 
L 169.142982 43.092436 
L 168.981093 43.208355 
L 168.822004 43.327811 
L 168.665729 43.450777 
L 168.512282 43.577223 
L 168.361673 43.70712 
L 168.213913 43.840436 
L 168.069011 43.977139 
L 167.926972 44.117195 
L 167.787804 44.26057 
L 167.65151 44.407228 
L 167.518093 44.557133 
L 167.387555 44.710248 
L 167.259895 44.866533 
L 167.135114 45.025951 
L 167.013209 45.18846 
L 166.894175 45.354022 
L 166.778008 45.522593 
L 166.664701 45.694132 
L 166.554248 45.868595 
L 166.446639 46.045941 
L 166.341865 46.226123 
L 166.239915 46.409099 
L 166.140777 46.594823 
L 166.044438 46.783249 
L 165.950883 46.974331 
L 165.860097 47.168023 
L 165.772065 47.364279 
L 165.68677 47.56305 
L 165.604192 47.764291 
L 165.524315 47.967953 
L 165.447117 48.173989 
L 165.372579 48.38235 
L 165.300678 48.59299 
L 165.231394 48.805859 
L 165.164704 49.020909 
L 165.100583 49.238093 
L 165.039009 49.457362 
L 164.979956 49.678668 
L 164.9234 49.901963 
L 164.869314 50.127198 
L 164.817673 50.354327 
L 164.76845 50.583302 
L 164.721618 50.814074 
L 164.677149 51.046598 
L 164.635015 51.280825 
L 164.595189 51.516709 
L 164.557642 51.754205 
L 164.522345 51.993264 
L 164.48927 52.233843 
L 164.458386 52.475896 
L 164.429665 52.719377 
L 164.403077 52.964242 
L 164.378592 53.210447 
L 164.356181 53.457948 
L 164.335813 53.706702 
L 164.317459 53.956667 
L 164.301089 54.2078 
L 164.286673 54.460059 
L 164.274181 54.713403 
L 164.263582 54.967792 
L 164.254848 55.223185 
L 164.247948 55.479543 
L 164.242852 55.736827 
L 164.239531 55.994998 
L 164.237955 56.254019 
L 164.238096 56.513853 
L 164.239923 56.774462 
L 164.243409 57.035811 
L 164.248523 57.297864 
L 164.255237 57.560588 
L 164.263524 57.823946 
L 164.273354 58.087907 
L 164.284701 58.352437 
L 164.297535 58.617503 
L 164.311831 58.883075 
L 164.327559 59.149121 
L 164.344695 59.415611 
L 164.363211 59.682515 
L 164.38308 59.949804 
L 164.404277 60.21745 
L 164.426777 60.485424 
L 164.450553 60.7537 
L 164.47558 61.02225 
L 164.501835 61.29105 
L 164.529292 61.560072 
L 164.557927 61.829294 
L 164.587717 62.09869 
L 164.618639 62.368238 
L 164.650668 62.637913 
L 164.683783 62.907695 
L 164.717961 63.17756 
L 164.75318 63.447488 
L 164.789418 63.717459 
L 164.826654 63.987451 
L 164.864867 64.257446 
L 164.904036 64.527425 
L 164.944141 64.79737 
L 164.985162 65.067262 
L 165.02708 65.337084 
L 165.069875 65.60682 
L 165.113528 65.876453 
L 165.158021 66.145967 
L 165.203335 66.415348 
L 165.249452 66.68458 
L 165.296356 66.95365 
L 165.344028 67.222542 
L 165.392452 67.491246 
L 165.441611 67.759746 
L 165.49149 68.028031 
L 165.542071 68.29609 
L 165.59334 68.56391 
L 165.645281 68.83148 
L 165.69788 69.098791 
L 165.751121 69.365831 
L 165.80499 69.632591 
L 165.859474 69.899061 
L 165.914558 70.165233 
L 165.970229 70.431098 
L 166.026474 70.696647 
L 166.08328 70.961873 
L 166.140634 71.226769 
L 166.198525 71.491326 
L 166.25694 71.755539 
L 166.315867 72.0194 
L 166.375295 72.282904 
L 166.435213 72.546045 
L 166.49561 72.808818 
L 166.556475 73.071216 
L 166.617798 73.333236 
L 166.679568 73.594873 
L 166.741776 73.856122 
L 166.804412 74.11698 
L 166.867466 74.377442 
L 166.93093 74.637506 
L 166.994794 74.897167 
L 167.059049 75.156424 
L 167.123688 75.415273 
L 167.188701 75.673713 
L 167.254081 75.93174 
L 167.31982 76.189353 
L 167.38591 76.44655 
L 167.452343 76.70333 
L 167.519113 76.959691 
L 167.586212 77.215632 
L 167.653634 77.471153 
L 167.721372 77.726252 
L 167.789419 77.98093 
L 167.857768 78.235185 
L 167.926415 78.489017 
L 167.995353 78.742428 
L 168.064576 78.995417 
L 168.134078 79.247983 
L 168.203854 79.500129 
L 168.2739 79.751854 
L 168.344209 80.00316 
L 168.414777 80.254048 
L 168.485599 80.504518 
L 168.55667 80.754572 
L 168.627986 81.004211 
L 168.699543 81.253438 
L 168.771336 81.502253 
L 168.843361 81.750658 
L 168.915615 81.998657 
L 168.988093 82.246249 
L 169.060792 82.493439 
L 169.133709 82.740228 
L 169.20684 82.986618 
L 169.280181 83.232612 
L 169.35373 83.478212 
L 169.427483 83.723422 
L 169.501438 83.968245 
L 169.575592 84.212682 
L 169.649942 84.456737 
L 169.724486 84.700413 
L 169.799221 84.943713 
L 169.874145 85.186641 
L 169.949255 85.4292 
L 170.02455 85.671393 
L 170.100027 85.913223 
L 170.175684 86.154695 
L 170.25152 86.395811 
L 170.327534 86.636576 
L 170.403722 86.876993 
L 170.480084 87.117065 
L 170.556618 87.356798 
L 170.633323 87.596194 
L 170.710197 87.835258 
L 170.78724 88.073993 
L 170.864449 88.312404 
L 170.941825 88.550494 
L 171.019366 88.788269 
L 171.097072 89.025731 
L 171.17494 89.262886 
L 171.252972 89.499737 
L 171.331166 89.73629 
L 171.409521 89.972547 
L 171.488037 90.208514 
L 171.566713 90.444195 
L 171.64555 90.679594 
L 171.724546 90.914716 
L 171.803702 91.149566 
L 171.883018 91.384147 
L 171.962493 91.618465 
L 172.042127 91.852524 
L 172.12192 92.086329 
L 172.201873 92.319883 
L 172.281985 92.553193 
L 172.362257 92.786262 
L 172.44269 93.019096 
L 172.523282 93.251698 
L 172.604035 93.484074 
L 172.684949 93.716228 
L 172.766025 93.948166 
L 172.847263 94.179891 
L 172.928663 94.411408 
L 173.010227 94.642723 
L 173.091955 94.87384 
L 173.173848 95.104764 
L 173.255907 95.3355 
L 173.338132 95.566052 
L 173.420524 95.796425 
L 173.503085 96.026624 
L 173.585814 96.256654 
L 173.668715 96.48652 
L 173.751786 96.716226 
L 173.835031 96.945777 
L 173.918448 97.175178 
L 174.002041 97.404434 
L 174.08581 97.633549 
L 174.169757 97.862529 
L 174.253882 98.091378 
L 174.338188 98.320101 
L 174.422675 98.548702 
L 174.507346 98.777187 
L 174.592201 99.00556 
L 174.677242 99.233825 
L 174.762471 99.461988 
L 174.84789 99.690054 
L 174.9335 99.918026 
L 175.019303 100.14591 
L 175.1053 100.37371 
L 175.191494 100.601431 
L 175.277886 100.829077 
L 175.364478 101.056654 
L 175.451272 101.284165 
L 175.53827 101.511616 
L 175.625474 101.739011 
L 175.712885 101.966353 
L 175.800507 102.193649 
L 175.888341 102.420902 
L 175.976389 102.648116 
L 176.064654 102.875297 
L 176.153136 103.102449 
L 176.24184 103.329575 
L 176.330767 103.55668 
L 176.419919 103.783769 
L 176.509299 104.010846 
L 176.598908 104.237915 
L 176.688751 104.464981 
L 176.778828 104.692046 
L 176.869142 104.919116 
L 176.959696 105.146195 
L 177.050492 105.373287 
L 177.141533 105.600395 
L 177.232822 105.827524 
L 177.324361 106.054678 
L 177.416153 106.28186 
L 177.5082 106.509075 
L 177.600505 106.736326 
L 177.693071 106.963616 
L 177.785901 107.190951 
L 177.878998 107.418332 
L 177.972364 107.645764 
L 178.066002 107.873251 
L 178.159915 108.100795 
L 178.254107 108.328401 
L 178.348579 108.556071 
L 178.443336 108.783809 
L 178.53838 109.011619 
L 178.633714 109.239502 
L 178.729342 109.467463 
L 178.825266 109.695505 
L 178.921489 109.92363 
L 179.018016 110.151841 
L 179.114848 110.380141 
L 179.21199 110.608533 
L 179.309444 110.83702 
L 179.407214 111.065604 
L 179.505303 111.294287 
L 179.603715 111.523072 
L 179.702453 111.751962 
L 179.80152 111.980958 
L 179.900921 112.210063 
L 180.000657 112.439279 
L 180.100733 112.668607 
L 180.201153 112.89805 
L 180.30192 113.127609 
L 180.403037 113.357286 
L 180.504509 113.587083 
L 180.606339 113.817 
L 180.70853 114.04704 
L 180.811086 114.277203 
L 180.914011 114.50749 
L 181.017309 114.737902 
L 181.120984 114.968441 
L 181.225039 115.199107 
L 181.329479 115.4299 
L 181.434306 115.66082 
L 181.539526 115.891869 
L 181.645141 116.123046 
L 181.751156 116.354351 
L 181.857576 116.585784 
L 181.964403 116.817345 
L 182.071642 117.049033 
L 182.179297 117.280847 
L 182.287372 117.512787 
L 182.395871 117.744852 
L 182.504799 117.97704 
L 182.614159 118.20935 
L 182.723955 118.441781 
L 182.834193 118.67433 
L 182.944875 118.906997 
L 183.056007 119.139778 
L 183.167592 119.372672 
L 183.279634 119.605676 
L 183.392139 119.838786 
L 183.505111 120.072001 
L 183.618552 120.305317 
L 183.732469 120.538731 
L 183.846866 120.772238 
L 183.961746 121.005835 
L 184.077114 121.239518 
L 184.192975 121.473282 
L 184.309333 121.707123 
L 184.426192 121.941036 
L 184.543557 122.175015 
L 184.661433 122.409055 
L 184.779824 122.643151 
L 184.898733 122.877296 
L 185.018167 123.111483 
L 185.138129 123.345707 
L 185.258624 123.57996 
L 185.379656 123.814234 
L 185.50123 124.048523 
L 185.62335 124.282819 
L 185.746022 124.517112 
L 185.869249 124.751395 
L 185.993035 124.985658 
L 186.117386 125.219892 
L 186.242307 125.454088 
L 186.3678 125.688235 
L 186.493872 125.922323 
L 186.620526 126.156341 
L 186.747768 126.390277 
L 186.875601 126.624121 
L 187.004029 126.85786 
L 187.133059 127.091481 
L 187.262693 127.324972 
L 187.392936 127.558319 
L 187.523793 127.791508 
L 187.655268 128.024526 
L 187.787366 128.257357 
L 187.92009 128.489987 
L 188.053446 128.722399 
L 188.187437 128.954578 
L 188.322067 129.186506 
L 188.457341 129.418168 
L 188.593263 129.649544 
L 188.729837 129.880618 
L 188.867067 130.111369 
L 189.004958 130.34178 
L 189.143512 130.57183 
L 189.282735 130.801499 
L 189.42263 131.030766 
L 189.5632 131.25961 
L 189.70445 131.488008 
L 189.846383 131.715939 
L 189.989004 131.943379 
L 190.132314 132.170303 
L 190.276319 132.396689 
L 190.421021 132.622511 
L 190.566423 132.847743 
L 190.712529 133.072359 
L 190.859343 133.296333 
L 191.006867 133.519636 
L 191.155103 133.742242 
L 191.304056 133.964121 
L 191.453727 134.185243 
L 191.60412 134.40558 
L 191.755236 134.625099 
L 191.907079 134.843771 
L 192.05965 135.061562 
L 192.212952 135.278441 
L 192.366987 135.494374 
L 192.521756 135.709327 
L 192.677262 135.923266 
L 192.833505 136.136154 
L 192.990488 136.347957 
L 193.148212 136.558638 
L 193.306677 136.768159 
L 193.465885 136.976483 
L 193.625836 137.18357 
L 193.786531 137.389382 
L 193.947971 137.593879 
L 194.110155 137.797019 
L 194.273084 137.998763 
L 194.436756 138.199068 
L 194.601173 138.397892 
L 194.766333 138.595191 
L 194.932235 138.790922 
L 195.098879 138.985041 
L 195.266262 139.177502 
L 195.434384 139.368261 
L 195.603241 139.557271 
L 195.772833 139.744486 
L 195.943157 139.929858 
L 196.114209 140.11334 
L 196.285988 140.294884 
L 196.45849 140.474441 
L 196.631711 140.651962 
L 196.805647 140.827398 
L 196.980295 141.000698 
L 197.155649 141.171813 
L 197.331705 141.340691 
L 197.508458 141.507281 
L 197.685902 141.671532 
L 197.864031 141.833393 
L 198.04284 141.992811 
L 198.222321 142.149734 
L 198.402467 142.304109 
L 198.583272 142.455884 
L 198.764727 142.605007 
L 198.946824 142.751424 
L 199.129556 142.895082 
L 199.312912 143.035929 
L 199.496883 143.173911 
L 199.68146 143.308976 
L 199.866633 143.44107 
L 200.05239 143.570141 
L 200.238721 143.696137 
L 200.425614 143.819004 
L 200.613057 143.938691 
L 200.801038 144.055147 
L 200.989544 144.168318 
L 201.178561 144.278156 
L 201.368076 144.384608 
L 201.558073 144.487624 
L 201.748539 144.587156 
L 201.939459 144.683153 
L 202.130815 144.775568 
L 202.322592 144.864352 
L 202.514774 144.949459 
L 202.707342 145.030842 
L 202.900279 145.108457 
L 203.093568 145.182257 
L 203.287188 145.252201 
L 203.481122 145.318244 
L 203.675348 145.380346 
L 203.869848 145.438465 
L 204.064599 145.492563 
L 204.259582 145.542602 
L 204.454774 145.588543 
L 204.650153 145.630352 
L 204.845697 145.667994 
L 205.041382 145.701435 
L 205.237185 145.730645 
L 205.433082 145.755593 
L 205.629048 145.776249 
L 205.825059 145.792588 
L 206.021089 145.804583 
L 206.217113 145.81221 
L 206.413104 145.815447 
L 206.609036 145.814273 
L 206.804882 145.808669 
L 207.000614 145.798617 
L 207.196206 145.784103 
L 207.391629 145.765112 
L 207.586855 145.741632 
L 207.781855 145.713654 
L 207.976601 145.681169 
L 208.171063 145.64417 
L 208.365213 145.602654 
L 208.559019 145.556617 
L 208.752453 145.506059 
L 208.945485 145.450982 
L 209.138085 145.391388 
L 209.330221 145.327282 
L 209.521864 145.258672 
L 209.712983 145.185566 
L 209.903548 145.107976 
L 210.093527 145.025913 
L 210.28289 144.939394 
L 210.471607 144.848434 
L 210.659647 144.753051 
L 210.846978 144.653267 
L 211.03357 144.549103 
L 211.219394 144.440583 
L 211.404417 144.327733 
L 211.588611 144.21058 
L 211.771944 144.089154 
L 211.954388 143.963486 
L 212.135912 143.833608 
L 212.316486 143.699554 
L 212.496082 143.56136 
L 212.674671 143.419065 
L 212.852223 143.272706 
L 213.028712 143.122324 
L 213.204107 142.96796 
L 213.378383 142.809659 
L 213.551511 142.647465 
L 213.723466 142.481423 
L 213.89422 142.31158 
L 214.063748 142.137985 
L 214.232025 141.960687 
L 214.399024 141.779738 
L 214.564723 141.595187 
L 214.729097 141.407088 
L 214.892123 141.215494 
L 215.053778 141.02046 
L 215.21404 140.822041 
L 215.372887 140.620292 
L 215.530298 140.41527 
L 215.686253 140.207033 
L 215.840732 139.995639 
L 215.993716 139.781145 
L 216.145186 139.563611 
L 216.295125 139.343097 
L 216.443516 139.119661 
L 216.590341 138.893364 
L 216.735585 138.664267 
L 216.879234 138.43243 
L 217.021271 138.197914 
L 217.161685 137.960779 
L 217.30046 137.721088 
L 217.437586 137.4789 
L 217.57305 137.234278 
L 217.706842 136.987281 
L 217.83895 136.737971 
L 217.969365 136.486409 
L 218.098079 136.232656 
L 218.225082 135.976771 
L 218.350368 135.718814 
L 218.473929 135.458846 
L 218.595758 135.196926 
L 218.715851 134.933114 
L 218.834201 134.667467 
L 218.950805 134.400044 
L 219.065659 134.130903 
L 219.17876 133.8601 
L 219.290104 133.587694 
L 219.399691 133.31374 
L 219.507518 133.038293 
L 219.613585 132.761409 
L 219.717892 132.483142 
L 219.820439 132.203546 
L 219.921226 131.922673 
L 220.020256 131.640577 
L 220.11753 131.357309 
L 220.213051 131.072919 
L 220.306821 130.787458 
L 220.398843 130.500976 
L 220.489123 130.213521 
L 220.577663 129.925141 
L 220.664469 129.635883 
L 220.749546 129.345793 
L 220.832899 129.054917 
L 220.914535 128.763301 
L 220.994459 128.470986 
L 221.072679 128.178018 
L 221.149202 127.884437 
L 221.224034 127.590286 
L 221.297184 127.295604 
L 221.36866 127.000433 
L 221.43847 126.70481 
L 221.506623 126.408773 
L 221.573128 126.112361 
L 221.637993 125.815609 
L 221.701229 125.518553 
L 221.762845 125.221228 
L 221.82285 124.923667 
L 221.881256 124.625905 
L 221.938072 124.327972 
L 221.993308 124.029902 
L 222.046977 123.731724 
L 222.099087 123.433468 
L 222.149651 123.135164 
L 222.198679 122.83684 
L 222.246182 122.538524 
L 222.292173 122.240241 
L 222.336662 121.94202 
L 222.379662 121.643884 
L 222.421183 121.345858 
L 222.461237 121.047967 
L 222.499837 120.750233 
L 222.536994 120.45268 
L 222.57272 120.155328 
L 222.607027 119.858198 
L 222.639927 119.561312 
L 222.671432 119.264689 
L 222.701555 118.968347 
L 222.730306 118.672306 
L 222.757699 118.376583 
L 222.783746 118.081195 
L 222.808457 117.78616 
L 222.831847 117.491492 
L 222.853925 117.197207 
L 222.874706 116.90332 
L 222.894199 116.609846 
L 222.912419 116.316797 
L 222.929375 116.024187 
L 222.94508 115.732029 
L 222.959546 115.440335 
L 222.972785 115.149115 
L 222.984808 114.858382 
L 222.995627 114.568146 
L 223.005253 114.278416 
L 223.013698 113.989203 
L 223.020972 113.700515 
L 223.027088 113.412362 
L 223.032057 113.124751 
L 223.035888 112.837691 
L 223.038595 112.551188 
L 223.040187 112.26525 
L 223.040675 111.979883 
L 223.040069 111.695094 
L 223.038382 111.410888 
L 223.035622 111.127271 
L 223.0318 110.844248 
L 223.026927 110.561823 
L 223.021013 110.280002 
L 223.014067 109.998787 
L 223.006099 109.718184 
L 222.997121 109.438194 
L 222.98714 109.158822 
L 222.976166 108.880071 
L 222.96421 108.601942 
L 222.95128 108.324437 
L 222.937385 108.04756 
L 222.922535 107.771312 
L 222.906738 107.495693 
L 222.890004 107.220706 
L 222.87234 106.946351 
L 222.853756 106.672628 
L 222.83426 106.399539 
L 222.81386 106.127084 
L 222.792564 105.855262 
L 222.77038 105.584074 
L 222.747317 105.313518 
L 222.723381 105.043595 
L 222.698581 104.774304 
L 222.672925 104.505643 
L 222.646419 104.237612 
L 222.61907 103.970209 
L 222.590887 103.703432 
L 222.561875 103.437281 
L 222.532042 103.171753 
L 222.501395 102.906846 
L 222.46994 102.642558 
L 222.437683 102.378887 
L 222.404631 102.115831 
L 222.370791 101.853386 
L 222.336168 101.591551 
L 222.300768 101.330322 
L 222.264597 101.069696 
L 222.227661 100.809671 
L 222.189965 100.550244 
L 222.151516 100.291411 
L 222.112317 100.033168 
L 222.072376 99.775513 
L 222.031696 99.518441 
L 221.990282 99.26195 
L 221.94814 99.006035 
L 221.905274 98.750693 
L 221.86169 98.49592 
L 221.81739 98.241711 
L 221.772381 97.988064 
L 221.726665 97.734973 
L 221.680248 97.482434 
L 221.633134 97.230444 
L 221.585325 96.978997 
L 221.536827 96.72809 
L 221.487642 96.477718 
L 221.437775 96.227877 
L 221.387229 95.978562 
L 221.336007 95.729769 
L 221.284112 95.481493 
L 221.231549 95.233728 
L 221.178319 94.986472 
L 221.124426 94.739718 
L 221.069872 94.493462 
L 221.014661 94.2477 
L 220.958794 94.002426 
L 220.902275 93.757635 
L 220.845106 93.513323 
L 220.787289 93.269484 
L 220.728827 93.026114 
L 220.669721 92.783208 
L 220.609973 92.540761 
L 220.549586 92.298767 
L 220.488561 92.057222 
L 220.4269 91.81612 
L 220.364604 91.575457 
L 220.301676 91.335227 
L 220.238115 91.095426 
L 220.173925 90.856048 
L 220.109106 90.617087 
L 220.043659 90.37854 
L 219.977585 90.140401 
L 219.910885 89.902664 
L 219.84356 89.665325 
L 219.775611 89.428378 
L 219.707038 89.191819 
L 219.637842 88.955642 
L 219.568023 88.719841 
L 219.497582 88.484413 
L 219.42652 88.249352 
L 219.354835 88.014652 
L 219.28253 87.780309 
L 219.209602 87.546317 
L 219.136053 87.312672 
L 219.061882 87.079368 
L 218.98709 86.846401 
L 218.911675 86.613764 
L 218.835637 86.381454 
L 218.758976 86.149465 
L 218.681692 85.917792 
L 218.603783 85.686431 
L 218.525249 85.455375 
L 218.446089 85.224621 
L 218.366302 84.994163 
L 218.285888 84.763997 
L 218.204844 84.534117 
L 218.12317 84.304519 
L 218.040865 84.075198 
L 217.957928 83.846148 
L 217.874356 83.617366 
L 217.790149 83.388847 
L 217.705305 83.160585 
L 217.619823 82.932577 
" style="fill:#1f77b4;"/>
   </g>
   <g id="LineCollection_1">
    <path clip-path="url(#p84b26fc3c8)" style="fill:none;stroke:#b0b0b0;stroke-dasharray:0.8,1.32;stroke-dashoffset:0;stroke-width:0.8;"/>
    <path clip-path="url(#p84b26fc3c8)" d="M 87.467674 222.819898 
L 79.075731 219.523837 
L 70.986615 215.47639 
L 63.261042 210.707938 
L 55.957002 205.254274 
L 49.129318 199.156333 
L 42.829241 192.459887 
L 37.104058 185.215199 
L 31.996743 177.476648 
L 27.545632 169.302321 
L 23.784136 160.753574 
L 20.740488 151.894575 
L 18.437534 142.79182 
L 16.89256 133.513635 
L 16.117163 124.129662 
L 16.117163 114.710338 
L 16.89256 105.326365 
L 18.437534 96.04818 
L 20.740488 86.945425 
L 23.784136 78.086426 
L 27.545632 69.537679 
L 31.996743 61.363352 
L 37.104058 53.624801 
L 42.829241 46.380113 
L 49.129318 39.683667 
L 55.957002 33.585726 
L 63.261042 28.132062 
L 70.986615 23.36361 
L 79.075731 19.316163 
L 87.467674 16.020102 
" style="fill:none;stroke:#b0b0b0;stroke-dasharray:0.8,1.32;stroke-dashoffset:0;stroke-width:0.8;"/>
    <path clip-path="url(#p84b26fc3c8)" d="M 92.239728 222.819898 
L 85.101115 219.523837 
L 78.220102 215.47639 
L 71.648337 210.707938 
L 65.435149 205.254274 
L 59.627175 199.156333 
L 54.268009 192.459887 
L 49.397877 185.215199 
L 45.053336 177.476648 
L 41.266995 169.302321 
L 38.067275 160.753574 
L 35.478193 151.894575 
L 33.519183 142.79182 
L 32.20495 133.513635 
L 31.545358 124.129662 
L 31.545358 114.710338 
L 32.20495 105.326365 
L 33.519183 96.04818 
L 35.478193 86.945425 
L 38.067275 78.086426 
L 41.266995 69.537679 
L 45.053336 61.363352 
L 49.397877 53.624801 
L 54.268009 46.380113 
L 59.627175 39.683667 
L 65.435149 33.585726 
L 71.648337 28.132062 
L 78.220102 23.36361 
L 85.101115 19.316163 
L 92.239728 16.020102 
" style="fill:none;stroke:#b0b0b0;stroke-dasharray:0.8,1.32;stroke-dashoffset:0;stroke-width:0.8;"/>
    <path clip-path="url(#p84b26fc3c8)" d="M 99.672377 222.819898 
L 94.485871 219.523837 
L 89.486522 215.47639 
L 84.711855 210.707938 
L 80.19771 205.254274 
L 75.97797 199.156333 
L 72.084308 192.459887 
L 68.54595 185.215199 
L 65.389456 177.476648 
L 62.638518 169.302321 
L 60.313785 160.753574 
L 58.432707 151.894575 
L 57.009404 142.79182 
L 56.054557 133.513635 
L 55.575335 124.129662 
L 55.575335 114.710338 
L 56.054557 105.326365 
L 57.009404 96.04818 
L 58.432707 86.945425 
L 60.313785 78.086426 
L 62.638518 69.537679 
L 65.389456 61.363352 
L 68.54595 53.624801 
L 72.084308 46.380113 
L 75.97797 39.683667 
L 80.19771 33.585726 
L 84.711855 28.132062 
L 89.486522 23.36361 
L 94.485871 19.316163 
L 99.672377 16.020102 
" style="fill:none;stroke:#b0b0b0;stroke-dasharray:0.8,1.32;stroke-dashoffset:0;stroke-width:0.8;"/>
    <path clip-path="url(#p84b26fc3c8)" d="M 109.03806 222.819898 
L 106.311352 219.523837 
L 103.683039 215.47639 
L 101.172848 210.707938 
L 98.799622 205.254274 
L 96.581173 199.156333 
L 94.534154 192.459887 
L 92.673929 185.215199 
L 91.014462 177.476648 
L 89.568208 169.302321 
L 88.346024 160.753574 
L 87.357083 151.894575 
L 86.608808 142.79182 
L 86.106815 133.513635 
L 85.854874 124.129662 
L 85.854874 114.710338 
L 86.106815 105.326365 
L 86.608808 96.04818 
L 87.357083 86.945425 
L 88.346024 78.086426 
L 89.568208 69.537679 
L 91.014462 61.363352 
L 92.673929 53.624801 
L 94.534154 46.380113 
L 96.581173 39.683667 
L 98.799622 33.585726 
L 101.172848 28.132062 
L 103.683039 23.36361 
L 106.311352 19.316163 
L 109.03806 16.020102 
" style="fill:none;stroke:#b0b0b0;stroke-dasharray:0.8,1.32;stroke-dashoffset:0;stroke-width:0.8;"/>
    <path clip-path="url(#p84b26fc3c8)" d="M 119.42 222.819898 
L 119.42 219.523837 
L 119.42 215.47639 
L 119.42 210.707938 
L 119.42 205.254274 
L 119.42 199.156333 
L 119.42 192.459887 
L 119.42 185.215199 
L 119.42 177.476648 
L 119.42 169.302321 
L 119.42 160.753574 
L 119.42 151.894575 
L 119.42 142.79182 
L 119.42 133.513635 
L 119.42 124.129662 
L 119.42 114.710338 
L 119.42 105.326365 
L 119.42 96.04818 
L 119.42 86.945425 
L 119.42 78.086426 
L 119.42 69.537679 
L 119.42 61.363352 
L 119.42 53.624801 
L 119.42 46.380113 
L 119.42 39.683667 
L 119.42 33.585726 
L 119.42 28.132062 
L 119.42 23.36361 
L 119.42 19.316163 
L 119.42 16.020102 
" style="fill:none;stroke:#b0b0b0;stroke-dasharray:0.8,1.32;stroke-dashoffset:0;stroke-width:0.8;"/>
    <path clip-path="url(#p84b26fc3c8)" d="M 129.80194 222.819898 
L 132.528648 219.523837 
L 135.156961 215.47639 
L 137.667152 210.707938 
L 140.040378 205.254274 
L 142.258827 199.156333 
L 144.305846 192.459887 
L 146.166071 185.215199 
L 147.825538 177.476648 
L 149.271792 169.302321 
L 150.493976 160.753574 
L 151.482917 151.894575 
L 152.231192 142.79182 
L 152.733185 133.513635 
L 152.985126 124.129662 
L 152.985126 114.710338 
L 152.733185 105.326365 
L 152.231192 96.04818 
L 151.482917 86.945425 
L 150.493976 78.086426 
L 149.271792 69.537679 
L 147.825538 61.363352 
L 146.166071 53.624801 
L 144.305846 46.380113 
L 142.258827 39.683667 
L 140.040378 33.585726 
L 137.667152 28.132062 
L 135.156961 23.36361 
L 132.528648 19.316163 
L 129.80194 16.020102 
" style="fill:none;stroke:#b0b0b0;stroke-dasharray:0.8,1.32;stroke-dashoffset:0;stroke-width:0.8;"/>
    <path clip-path="url(#p84b26fc3c8)" d="M 139.167623 222.819898 
L 144.354129 219.523837 
L 149.353478 215.47639 
L 154.128145 210.707938 
L 158.64229 205.254274 
L 162.86203 199.156333 
L 166.755692 192.459887 
L 170.29405 185.215199 
L 173.450544 177.476648 
L 176.201482 169.302321 
L 178.526215 160.753574 
L 180.407293 151.894575 
L 181.830596 142.79182 
L 182.785443 133.513635 
L 183.264665 124.129662 
L 183.264665 114.710338 
L 182.785443 105.326365 
L 181.830596 96.04818 
L 180.407293 86.945425 
L 178.526215 78.086426 
L 176.201482 69.537679 
L 173.450544 61.363352 
L 170.29405 53.624801 
L 166.755692 46.380113 
L 162.86203 39.683667 
L 158.64229 33.585726 
L 154.128145 28.132062 
L 149.353478 23.36361 
L 144.354129 19.316163 
L 139.167623 16.020102 
" style="fill:none;stroke:#b0b0b0;stroke-dasharray:0.8,1.32;stroke-dashoffset:0;stroke-width:0.8;"/>
    <path clip-path="url(#p84b26fc3c8)" d="M 146.600272 222.819898 
L 153.738885 219.523837 
L 160.619898 215.47639 
L 167.191663 210.707938 
L 173.404851 205.254274 
L 179.212825 199.156333 
L 184.571991 192.459887 
L 189.442123 185.215199 
L 193.786664 177.476648 
L 197.573005 169.302321 
L 200.772725 160.753574 
L 203.361807 151.894575 
L 205.320817 142.79182 
L 206.63505 133.513635 
L 207.294642 124.129662 
L 207.294642 114.710338 
L 206.63505 105.326365 
L 205.320817 96.04818 
L 203.361807 86.945425 
L 200.772725 78.086426 
L 197.573005 69.537679 
L 193.786664 61.363352 
L 189.442123 53.624801 
L 184.571991 46.380113 
L 179.212825 39.683667 
L 173.404851 33.585726 
L 167.191663 28.132062 
L 160.619898 23.36361 
L 153.738885 19.316163 
L 146.600272 16.020102 
" style="fill:none;stroke:#b0b0b0;stroke-dasharray:0.8,1.32;stroke-dashoffset:0;stroke-width:0.8;"/>
    <path clip-path="url(#p84b26fc3c8)" d="M 151.372326 222.819898 
L 159.764269 219.523837 
L 167.853385 215.47639 
L 175.578958 210.707938 
L 182.882998 205.254274 
L 189.710682 199.156333 
L 196.010759 192.459887 
L 201.735942 185.215199 
L 206.843257 177.476648 
L 211.294368 169.302321 
L 215.055864 160.753574 
L 218.099512 151.894575 
L 220.402466 142.79182 
L 221.94744 133.513635 
L 222.722837 124.129662 
L 222.722837 114.710338 
L 221.94744 105.326365 
L 220.402466 96.04818 
L 218.099512 86.945425 
L 215.055864 78.086426 
L 211.294368 69.537679 
L 206.843257 61.363352 
L 201.735942 53.624801 
L 196.010759 46.380113 
L 189.710682 39.683667 
L 182.882998 33.585726 
L 175.578958 28.132062 
L 167.853385 23.36361 
L 159.764269 19.316163 
L 151.372326 16.020102 
" style="fill:none;stroke:#b0b0b0;stroke-dasharray:0.8,1.32;stroke-dashoffset:0;stroke-width:0.8;"/>
    <path clip-path="url(#p84b26fc3c8)" style="fill:none;stroke:#b0b0b0;stroke-dasharray:0.8,1.32;stroke-dashoffset:0;stroke-width:0.8;"/>
   </g>
   <g id="LineCollection_2">
    <path clip-path="url(#p84b26fc3c8)" d="M 85.827531 222.819898 
L 86.020281 222.819898 
L 86.608808 222.819898 
L 87.582015 222.819898 
L 88.928494 222.819898 
L 90.632458 222.819898 
L 92.673929 222.819898 
L 95.028974 222.819898 
L 97.669981 222.819898 
L 100.565987 222.819898 
L 103.683039 222.819898 
L 106.984593 222.819898 
L 110.43194 222.819898 
L 113.984665 222.819898 
L 117.601113 222.819898 
L 121.238887 222.819898 
L 124.855335 222.819898 
L 128.40806 222.819898 
L 131.855407 222.819898 
L 135.156961 222.819898 
L 138.274013 222.819898 
L 141.170019 222.819898 
L 143.811026 222.819898 
L 146.166071 222.819898 
L 148.207542 222.819898 
L 149.911506 222.819898 
L 151.257985 222.819898 
L 152.231192 222.819898 
L 152.819719 222.819898 
L 153.012469 222.819898 
" style="fill:none;stroke:#b0b0b0;stroke-dasharray:0.8,1.32;stroke-dashoffset:0;stroke-width:0.8;"/>
    <path clip-path="url(#p84b26fc3c8)" d="M 55.517342 207.377207 
L 55.88996 207.377207 
L 57.009404 207.377207 
L 58.860554 207.377207 
L 61.421709 207.377207 
L 64.662841 207.377207 
L 68.54595 207.377207 
L 73.025511 207.377207 
L 78.049005 207.377207 
L 83.557536 207.377207 
L 89.486522 207.377207 
L 95.76645 207.377207 
L 102.323695 207.377207 
L 109.081378 207.377207 
L 115.960272 207.377207 
L 122.879728 207.377207 
L 129.758622 207.377207 
L 136.516305 207.377207 
L 143.07355 207.377207 
L 149.353478 207.377207 
L 155.282464 207.377207 
L 160.790995 207.377207 
L 165.814489 207.377207 
L 170.29405 207.377207 
L 174.177159 207.377207 
L 177.418291 207.377207 
L 179.979446 207.377207 
L 181.830596 207.377207 
L 182.95004 207.377207 
L 183.322658 207.377207 
" style="fill:none;stroke:#b0b0b0;stroke-dasharray:0.8,1.32;stroke-dashoffset:0;stroke-width:0.8;"/>
    <path clip-path="url(#p84b26fc3c8)" d="M 31.46419 183.324652 
L 31.978402 183.324652 
L 33.519183 183.324652 
L 36.067074 183.324652 
L 39.592201 183.324652 
L 44.053236 183.324652 
L 49.397877 183.324652 
L 55.563464 183.324652 
L 62.47771 183.324652 
L 70.059553 183.324652 
L 78.220102 183.324652 
L 86.863682 183.324652 
L 95.888954 183.324652 
L 105.190107 183.324652 
L 114.658093 183.324652 
L 124.181907 183.324652 
L 133.649893 183.324652 
L 142.951046 183.324652 
L 151.976318 183.324652 
L 160.619898 183.324652 
L 168.780447 183.324652 
L 176.36229 183.324652 
L 183.276536 183.324652 
L 189.442123 183.324652 
L 194.786764 183.324652 
L 199.247799 183.324652 
L 202.772926 183.324652 
L 205.320817 183.324652 
L 206.861598 183.324652 
L 207.37581 183.324652 
L 207.37581 183.324652 
" style="fill:none;stroke:#b0b0b0;stroke-dasharray:0.8,1.32;stroke-dashoffset:0;stroke-width:0.8;"/>
    <path clip-path="url(#p84b26fc3c8)" d="M 16.021265 153.016664 
L 16.626236 153.016664 
L 18.437534 153.016664 
L 21.432758 153.016664 
L 25.576794 153.016664 
L 30.821055 153.016664 
L 37.104058 153.016664 
L 44.35214 153.016664 
L 52.480324 153.016664 
L 61.393314 153.016664 
L 70.986615 153.016664 
L 81.147752 153.016664 
L 91.757597 153.016664 
L 102.691758 153.016664 
L 113.822042 153.016664 
L 125.017958 153.016664 
L 136.148242 153.016664 
L 147.082403 153.016664 
L 157.692248 153.016664 
L 167.853385 153.016664 
L 177.446686 153.016664 
L 186.359676 153.016664 
L 194.48786 153.016664 
L 201.735942 153.016664 
L 208.018945 153.016664 
L 213.263206 153.016664 
L 217.407242 153.016664 
L 220.402466 153.016664 
L 222.213764 153.016664 
L 222.818735 153.016664 
" style="fill:none;stroke:#b0b0b0;stroke-dasharray:0.8,1.32;stroke-dashoffset:0;stroke-width:0.8;"/>
    <path clip-path="url(#p84b26fc3c8)" d="M 10.7 119.42 
L 11.33624 119.42 
L 13.240751 119.42 
L 16.390117 119.42 
L 20.747414 119.42 
L 26.261556 119.42 
L 32.867896 119.42 
L 40.488981 119.42 
L 49.035459 119.42 
L 58.407132 119.42 
L 68.494125 119.42 
L 79.178177 119.42 
L 90.334028 119.42 
L 101.830885 119.42 
L 113.533959 119.42 
L 125.306041 119.42 
L 137.009115 119.42 
L 148.505972 119.42 
L 159.661823 119.42 
L 170.345875 119.42 
L 180.432868 119.42 
L 189.804541 119.42 
L 198.351019 119.42 
L 205.972104 119.42 
L 212.578444 119.42 
L 218.092586 119.42 
L 222.449883 119.42 
L 225.599249 119.42 
L 227.50376 119.42 
L 228.14 119.42 
" style="fill:none;stroke:#b0b0b0;stroke-dasharray:0.8,1.32;stroke-dashoffset:0;stroke-width:0.8;"/>
    <path clip-path="url(#p84b26fc3c8)" d="M 16.021265 85.823336 
L 16.626236 85.823336 
L 18.437534 85.823336 
L 21.432758 85.823336 
L 25.576794 85.823336 
L 30.821055 85.823336 
L 37.104058 85.823336 
L 44.35214 85.823336 
L 52.480324 85.823336 
L 61.393314 85.823336 
L 70.986615 85.823336 
L 81.147752 85.823336 
L 91.757597 85.823336 
L 102.691758 85.823336 
L 113.822042 85.823336 
L 125.017958 85.823336 
L 136.148242 85.823336 
L 147.082403 85.823336 
L 157.692248 85.823336 
L 167.853385 85.823336 
L 177.446686 85.823336 
L 186.359676 85.823336 
L 194.48786 85.823336 
L 201.735942 85.823336 
L 208.018945 85.823336 
L 213.263206 85.823336 
L 217.407242 85.823336 
L 220.402466 85.823336 
L 222.213764 85.823336 
L 222.818735 85.823336 
" style="fill:none;stroke:#b0b0b0;stroke-dasharray:0.8,1.32;stroke-dashoffset:0;stroke-width:0.8;"/>
    <path clip-path="url(#p84b26fc3c8)" d="M 31.46419 55.515348 
L 31.978402 55.515348 
L 33.519183 55.515348 
L 36.067074 55.515348 
L 39.592201 55.515348 
L 44.053236 55.515348 
L 49.397877 55.515348 
L 55.563464 55.515348 
L 62.47771 55.515348 
L 70.059553 55.515348 
L 78.220102 55.515348 
L 86.863682 55.515348 
L 95.888954 55.515348 
L 105.190107 55.515348 
L 114.658093 55.515348 
L 124.181907 55.515348 
L 133.649893 55.515348 
L 142.951046 55.515348 
L 151.976318 55.515348 
L 160.619898 55.515348 
L 168.780447 55.515348 
L 176.36229 55.515348 
L 183.276536 55.515348 
L 189.442123 55.515348 
L 194.786764 55.515348 
L 199.247799 55.515348 
L 202.772926 55.515348 
L 205.320817 55.515348 
L 206.861598 55.515348 
L 207.37581 55.515348 
L 207.37581 55.515348 
" style="fill:none;stroke:#b0b0b0;stroke-dasharray:0.8,1.32;stroke-dashoffset:0;stroke-width:0.8;"/>
    <path clip-path="url(#p84b26fc3c8)" d="M 55.517342 31.462793 
L 55.88996 31.462793 
L 57.009404 31.462793 
L 58.860554 31.462793 
L 61.421709 31.462793 
L 64.662841 31.462793 
L 68.54595 31.462793 
L 73.025511 31.462793 
L 78.049005 31.462793 
L 83.557536 31.462793 
L 89.486522 31.462793 
L 95.76645 31.462793 
L 102.323695 31.462793 
L 109.081378 31.462793 
L 115.960272 31.462793 
L 122.879728 31.462793 
L 129.758622 31.462793 
L 136.516305 31.462793 
L 143.07355 31.462793 
L 149.353478 31.462793 
L 155.282464 31.462793 
L 160.790995 31.462793 
L 165.814489 31.462793 
L 170.29405 31.462793 
L 174.177159 31.462793 
L 177.418291 31.462793 
L 179.979446 31.462793 
L 181.830596 31.462793 
L 182.95004 31.462793 
L 183.322658 31.462793 
" style="fill:none;stroke:#b0b0b0;stroke-dasharray:0.8,1.32;stroke-dashoffset:0;stroke-width:0.8;"/>
    <path clip-path="url(#p84b26fc3c8)" d="M 85.827531 16.020102 
L 86.020281 16.020102 
L 86.608808 16.020102 
L 87.582015 16.020102 
L 88.928494 16.020102 
L 90.632458 16.020102 
L 92.673929 16.020102 
L 95.028974 16.020102 
L 97.669981 16.020102 
L 100.565987 16.020102 
L 103.683039 16.020102 
L 106.984593 16.020102 
L 110.43194 16.020102 
L 113.984665 16.020102 
L 117.601113 16.020102 
L 121.238887 16.020102 
L 124.855335 16.020102 
L 128.40806 16.020102 
L 131.855407 16.020102 
L 135.156961 16.020102 
L 138.274013 16.020102 
L 141.170019 16.020102 
L 143.811026 16.020102 
L 146.166071 16.020102 
L 148.207542 16.020102 
L 149.911506 16.020102 
L 151.257985 16.020102 
L 152.231192 16.020102 
L 152.819719 16.020102 
L 153.012469 16.020102 
" style="fill:none;stroke:#b0b0b0;stroke-dasharray:0.8,1.32;stroke-dashoffset:0;stroke-width:0.8;"/>
   </g>
   <g id="patch_3">
    <path d="M 228.14 119.42 
L 227.54442 130.784335 
L 225.764207 142.024159 
L 222.818864 153.016328 
L 218.740662 163.640408 
L 213.574282 173.78 
L 207.376328 183.324013 
L 200.214705 192.16788 
L 192.16788 200.214705 
L 183.324013 207.376328 
L 173.78 213.574282 
L 163.640408 218.740662 
L 153.016328 222.818864 
L 142.024159 225.764207 
L 130.784335 227.54442 
L 119.42 228.14 
L 108.055665 227.54442 
L 96.815841 225.764207 
L 85.823672 222.818864 
L 75.199592 218.740662 
L 65.06 213.574282 
L 55.515987 207.376328 
L 46.67212 200.214705 
L 38.625295 192.16788 
L 31.463672 183.324013 
L 25.265718 173.78 
L 20.099338 163.640408 
L 16.021136 153.016328 
L 13.075793 142.024159 
L 11.29558 130.784335 
L 10.7 119.42 
L 11.29558 108.055665 
L 13.075793 96.815841 
L 16.021136 85.823672 
L 20.099338 75.199592 
L 25.265718 65.06 
L 31.463672 55.515987 
L 38.625295 46.67212 
L 46.67212 38.625295 
L 55.515987 31.463672 
L 65.06 25.265718 
L 75.199592 20.099338 
L 85.823672 16.021136 
L 96.815841 13.075793 
L 108.055665 11.29558 
L 119.42 10.7 
L 130.784335 11.29558 
L 142.024159 13.075793 
L 153.016328 16.021136 
L 163.640408 20.099338 
L 173.78 25.265718 
L 183.324013 31.463672 
L 192.16788 38.625295 
L 200.214705 46.67212 
L 207.376328 55.515987 
L 213.574282 65.06 
L 218.740662 75.199592 
L 222.818864 85.823672 
L 225.764207 96.815841 
L 227.54442 108.055665 
L 228.14 119.42 
L 228.14 119.42 
" style="fill:none;stroke:#000000;stroke-linejoin:miter;"/>
   </g>
  </g>
 </g>
 <defs>
  <clipPath id="p84b26fc3c8">
   <rect height="217.44" width="217.44" x="10.7" y="10.7"/>
  </clipPath>
 </defs>
</svg>
