  0
SECTION
  2
HEADER
  9
$ACADVER
  1
AC1009
  9
$LIMMIN
  10
622000.9810113892
  20
7310574.1155935423
  9
$LIMMAX
  10
622372.0893137421
  20
7310900.6803020258
  9
$EXTMIN
  10
622000.9810113892
  20
7310574.1155935423
  9
$EXTMAX
  10
622372.0893137421
  20
7310900.6803020258
  999
Created by Agisoft PhotoScan
  0
ENDSEC
  0
SECTION
  2
ENTITIES
  0
POLYLINE
  8
Unknown_Line_Type
  66
1
  70
8
  0
VERTEX
  8
Unknown_Line_Type
  10
622175.6587107157
  20
7310655.1402382292
  30
1629.5274350218
  0
VERTEX
  8
Unknown_Line_Type
  10
622177.1974115257
  20
7310656.0831602626
  30
1630.4171960837
  0
VERTEX
  8
Unknown_Line_Type
  10
622179.1357583256
  20
7310656.6468535736
  30
1630.9848328536
  0
VERTEX
  8
Unknown_Line_Type
  10
622182.0949226917
  20
7310656.4100670340
  30
1631.0799599887
  0
VERTEX
  8
Unknown_Line_Type
  10
622185.4368857550
  20
7310657.8000980038
  30
1632.4035175118
  0
VERTEX
  8
Unknown_Line_Type
  10
622188.3526707080
  20
7310658.4450801881
  30
1633.1508752507
  0
VERTEX
  8
Unknown_Line_Type
  10
622191.9669988945
  20
7310658.4796418073
  30
1633.5046499686
  0
VERTEX
  8
Unknown_Line_Type
  10
622196.3316533545
  20
7310659.5258978205
  30
1634.6699515538
  0
VERTEX
  8
Unknown_Line_Type
  10
622199.1110421091
  20
7310659.6862974679
  30
1634.7955507914
  0
VERTEX
  8
Unknown_Line_Type
  10
622201.8819858504
  20
7310660.3467821293
  30
1634.9447083865
  0
VERTEX
  8
Unknown_Line_Type
  10
622203.6564273469
  20
7310662.3943575863
  30
1635.8566972835
  0
VERTEX
  8
Unknown_Line_Type
  10
622205.0262628536
  20
7310663.6873207726
  30
1636.2061535874
  0
VERTEX
  8
Unknown_Line_Type
  10
622207.2117378080
  20
7310664.6746467305
  30
1636.0984803010
  0
VERTEX
  8
Unknown_Line_Type
  10
622209.2552898373
  20
7310665.6750880983
  30
1636.3490601432
  0
VERTEX
  8
Unknown_Line_Type
  10
622212.2973057182
  20
7310666.6899771281
  30
1636.7210694423
  0
VERTEX
  8
Unknown_Line_Type
  10
622215.7245139638
  20
7310667.2762339702
  30
1637.3091906067
  0
VERTEX
  8
Unknown_Line_Type
  10
622217.0589364619
  20
7310667.4787055310
  30
1637.5757566983
  0
VERTEX
  8
Unknown_Line_Type
  10
622219.8146763322
  20
7310667.5653490163
  30
1637.9617358443
  0
VERTEX
  8
Unknown_Line_Type
  10
622221.6963859969
  20
7310667.6571675632
  30
1638.4640534309
  0
VERTEX
  8
Unknown_Line_Type
  10
622222.9949751044
  20
7310668.0413408522
  30
1638.9772911414
  0
VERTEX
  8
Unknown_Line_Type
  10
622223.7107275311
  20
7310668.1409100275
  30
1639.1868466361
  0
SEQEND
  8
Unknown_Line_Type
  0
POLYLINE
  8
Unknown_Line_Type
  66
1
  70
8
  0
VERTEX
  8
Unknown_Line_Type
  10
622236.9010470534
  20
7310664.7506932449
  30
1635.1230489674
  0
VERTEX
  8
Unknown_Line_Type
  10
622240.6956446788
  20
7310666.8419017754
  30
1634.6597241566
  0
VERTEX
  8
Unknown_Line_Type
  10
622243.5936340080
  20
7310669.4383867308
  30
1634.3135656944
  0
VERTEX
  8
Unknown_Line_Type
  10
622247.9902351496
  20
7310672.9273341224
  30
1633.6686099047
  0
VERTEX
  8
Unknown_Line_Type
  10
622249.8810530736
  20
7310674.7782570319
  30
1633.3395762398
  0
VERTEX
  8
Unknown_Line_Type
  10
622252.4385365247
  20
7310676.3741625212
  30
1632.3199513901
  0
VERTEX
  8
Unknown_Line_Type
  10
622255.0139717581
  20
7310678.2145168595
  30
1631.2945743651
  0
VERTEX
  8
Unknown_Line_Type
  10
622258.0203952849
  20
7310680.9935773127
  30
1630.2422613940
  0
VERTEX
  8
Unknown_Line_Type
  10
622259.6389773008
  20
7310683.6485287752
  30
1630.1633604534
  0
VERTEX
  8
Unknown_Line_Type
  10
622261.9550554969
  20
7310687.0782760819
  30
1630.0649965173
  0
VERTEX
  8
Unknown_Line_Type
  10
622263.2074419479
  20
7310689.1570113720
  30
1629.7200803645
  0
VERTEX
  8
Unknown_Line_Type
  10
622264.7389260853
  20
7310692.8656761181
  30
1629.3147981303
  0
VERTEX
  8
Unknown_Line_Type
  10
622266.5281772049
  20
7310696.7875156645
  30
1628.4785913869
  0
VERTEX
  8
Unknown_Line_Type
  10
622267.7710395715
  20
7310698.6101664826
  30
1627.7165662121
  0
VERTEX
  8
Unknown_Line_Type
  10
622268.4260985768
  20
7310701.4799554311
  30
1627.3261747606
  0
VERTEX
  8
Unknown_Line_Type
  10
622269.8558962725
  20
7310704.8538692240
  30
1626.7857058170
  0
VERTEX
  8
Unknown_Line_Type
  10
622271.6540925013
  20
7310709.6040452626
  30
1625.6221664574
  0
VERTEX
  8
Unknown_Line_Type
  10
622272.7583564394
  20
7310712.6703744866
  30
1624.7987164802
  0
VERTEX
  8
Unknown_Line_Type
  10
622274.9824576335
  20
7310716.2661163006
  30
1622.6869782852
  0
SEQEND
  8
Unknown_Line_Type
  0
POLYLINE
  8
Unknown_Line_Type
  66
1
  70
8
  0
VERTEX
  8
Unknown_Line_Type
  10
622275.3781613722
  20
7310720.2004088685
  30
1622.2310416906
  0
VERTEX
  8
Unknown_Line_Type
  10
622275.1508899092
  20
7310722.4266960043
  30
1622.5556686013
  0
VERTEX
  8
Unknown_Line_Type
  10
622276.6535883918
  20
7310725.8604920935
  30
1622.1473206044
  0
VERTEX
  8
Unknown_Line_Type
  10
622276.7745622665
  20
7310727.0671029165
  30
1622.5278750677
  0
VERTEX
  8
Unknown_Line_Type
  10
622278.4159569633
  20
7310729.5261125769
  30
1622.3106804147
  0
VERTEX
  8
Unknown_Line_Type
  10
622281.0839569927
  20
7310732.6631278694
  30
1621.0777793486
  0
VERTEX
  8
Unknown_Line_Type
  10
622282.6724027740
  20
7310736.0796554051
  30
1619.8041422266
  0
VERTEX
  8
Unknown_Line_Type
  10
622283.2891116669
  20
7310738.1118638264
  30
1619.0014151721
  0
VERTEX
  8
Unknown_Line_Type
  10
622285.2011483747
  20
7310740.0594580295
  30
1617.3708995031
  0
VERTEX
  8
Unknown_Line_Type
  10
622285.3126241377
  20
7310742.0965075660
  30
1616.5497621778
  0
VERTEX
  8
Unknown_Line_Type
  10
622288.0173241708
  20
7310743.8196971444
  30
1614.6664132352
  0
SEQEND
  8
Unknown_Line_Type
  0
POLYLINE
  8
Unknown_Line_Type
  66
1
  70
8
  0
VERTEX
  8
Unknown_Line_Type
  10
622138.8429639761
  20
7310780.2018594788
  30
1682.8844739175
  0
VERTEX
  8
Unknown_Line_Type
  10
622139.7580840578
  20
7310781.0441360418
  30
1683.4695656448
  0
VERTEX
  8
Unknown_Line_Type
  10
622141.2141127823
  20
7310781.2056871094
  30
1683.5334339851
  0
VERTEX
  8
Unknown_Line_Type
  10
622142.6025410279
  20
7310781.5344904922
  30
1683.6976864020
  0
VERTEX
  8
Unknown_Line_Type
  10
622144.2010078270
  20
7310782.3940738086
  30
1684.3527078329
  0
VERTEX
  8
Unknown_Line_Type
  10
622145.5106800157
  20
7310782.7443294711
  30
1684.5744013181
  0
VERTEX
  8
Unknown_Line_Type
  10
622146.7526057267
  20
7310783.8129253909
  30
1685.3818233357
  0
VERTEX
  8
Unknown_Line_Type
  10
622148.4174043783
  20
7310783.3913394418
  30
1684.9041864867
  0
VERTEX
  8
Unknown_Line_Type
  10
622150.0377623724
  20
7310783.6171071474
  30
1684.8362714611
  0
VERTEX
  8
Unknown_Line_Type
  10
622152.1081046362
  20
7310784.2706739213
  30
1685.0275732388
  0
VERTEX
  8
Unknown_Line_Type
  10
622153.5411116228
  20
7310785.7084496468
  30
1685.6622283000
  0
VERTEX
  8
Unknown_Line_Type
  10
622154.3401070569
  20
7310787.0362138860
  30
1686.4280303966
  0
VERTEX
  8
Unknown_Line_Type
  10
622156.1551631426
  20
7310787.6308238804
  30
1686.3745894481
  0
VERTEX
  8
Unknown_Line_Type
  10
622158.6421245309
  20
7310788.9805695042
  30
1686.7269438219
  0
VERTEX
  8
Unknown_Line_Type
  10
622160.2693404075
  20
7310789.7162576523
  30
1686.8384188308
  0
VERTEX
  8
Unknown_Line_Type
  10
622162.6253555398
  20
7310790.8616627343
  30
1686.9678763278
  0
VERTEX
  8
Unknown_Line_Type
  10
622164.2263793281
  20
7310792.0451883189
  30
1687.3304304982
  0
VERTEX
  8
Unknown_Line_Type
  10
622166.0861382771
  20
7310793.4617614709
  30
1687.9765571208
  0
VERTEX
  8
Unknown_Line_Type
  10
622167.9630303294
  20
7310795.1919943560
  30
1687.9631861735
  0
VERTEX
  8
Unknown_Line_Type
  10
622169.4514640751
  20
7310797.0810559476
  30
1687.9251327697
  0
VERTEX
  8
Unknown_Line_Type
  10
622171.5426936944
  20
7310800.3579988703
  30
1687.8419142196
  0
VERTEX
  8
Unknown_Line_Type
  10
622173.4612871634
  20
7310803.8006763440
  30
1687.5499588584
  0
VERTEX
  8
Unknown_Line_Type
  10
622174.3971447545
  20
7310806.0211770069
  30
1687.9675701287
  0
VERTEX
  8
Unknown_Line_Type
  10
622174.9700201233
  20
7310807.7294241097
  30
1688.1348351106
  0
SEQEND
  8
Unknown_Line_Type
  0
POLYLINE
  8
Unknown_Line_Type
  66
1
  70
8
  0
VERTEX
  8
Unknown_Line_Type
  10
622138.7774614663
  20
7310683.1626106258
  30
1635.7512422622
  0
VERTEX
  8
Unknown_Line_Type
  10
622141.0491259310
  20
7310683.7847859804
  30
1636.9264969468
  0
VERTEX
  8
Unknown_Line_Type
  10
622143.7409195605
  20
7310684.1949532889
  30
1638.1754057076
  0
VERTEX
  8
Unknown_Line_Type
  10
622146.3840958480
  20
7310684.8750721812
  30
1639.6452493721
  0
VERTEX
  8
Unknown_Line_Type
  10
622148.0581625479
  20
7310685.1654532384
  30
1640.6308263243
  0
VERTEX
  8
Unknown_Line_Type
  10
622150.8488450046
  20
7310687.0472783223
  30
1642.3301467975
  0
VERTEX
  8
Unknown_Line_Type
  10
622154.8119823873
  20
7310687.5997191258
  30
1644.2553947458
  0
VERTEX
  8
Unknown_Line_Type
  10
622156.9594801401
  20
7310686.4124018895
  30
1644.8689713132
  0
VERTEX
  8
Unknown_Line_Type
  10
622157.9305409300
  20
7310683.2167185927
  30
1644.5775772251
  0
VERTEX
  8
Unknown_Line_Type
  10
622159.3819621535
  20
7310682.8273593858
  30
1645.1116897514
  0
VERTEX
  8
Unknown_Line_Type
  10
622161.6661604586
  20
7310684.2617881447
  30
1646.2068566756
  0
VERTEX
  8
Unknown_Line_Type
  10
622163.7447779311
  20
7310685.6324027600
  30
1647.3044961104
  0
VERTEX
  8
Unknown_Line_Type
  10
622165.8346326795
  20
7310686.9421197465
  30
1648.0576147889
  0
VERTEX
  8
Unknown_Line_Type
  10
622169.0392127991
  20
7310689.8596630897
  30
1649.5888898165
  0
VERTEX
  8
Unknown_Line_Type
  10
622170.8032595491
  20
7310692.7186933123
  30
1650.8479603277
  0
VERTEX
  8
Unknown_Line_Type
  10
622171.7090813388
  20
7310692.8061134964
  30
1651.3062368920
  0
VERTEX
  8
Unknown_Line_Type
  10
622174.7414751416
  20
7310692.4549171478
  30
1652.4673706926
  0
VERTEX
  8
Unknown_Line_Type
  10
622178.5387058503
  20
7310693.9488010947
  30
1654.1202406401
  0
VERTEX
  8
Unknown_Line_Type
  10
622182.9572996656
  20
7310690.4149817089
  30
1655.6671846310
  0
VERTEX
  8
Unknown_Line_Type
  10
622186.1027835087
  20
7310687.7050565258
  30
1656.5187584290
  0
VERTEX
  8
Unknown_Line_Type
  10
622188.1809444113
  20
7310687.9515494481
  30
1657.0567176441
  0
VERTEX
  8
Unknown_Line_Type
  10
622191.0771899294
  20
7310688.9514563186
  30
1657.8230885798
  0
VERTEX
  8
Unknown_Line_Type
  10
622193.8219686836
  20
7310690.7196709048
  30
1658.6300199408
  0
SEQEND
  8
Unknown_Line_Type
  0
POLYLINE
  8
Unknown_Line_Type
  66
1
  70
8
  0
VERTEX
  8
Unknown_Line_Type
  10
622190.5758365884
  20
7310684.8532654475
  30
1657.0079920443
  0
VERTEX
  8
Unknown_Line_Type
  10
622194.1999948323
  20
7310686.6847010767
  30
1658.1190180677
  0
VERTEX
  8
Unknown_Line_Type
  10
622195.5210891314
  20
7310688.1477089208
  30
1658.5807721470
  0
VERTEX
  8
Unknown_Line_Type
  10
622198.9302849006
  20
7310688.7875039484
  30
1659.3999502534
  0
VERTEX
  8
Unknown_Line_Type
  10
622201.8913796858
  20
7310689.0759488419
  30
1659.8293608341
  0
VERTEX
  8
Unknown_Line_Type
  10
622204.3681847906
  20
7310690.1603404917
  30
1660.2465577781
  0
VERTEX
  8
Unknown_Line_Type
  10
622206.7659030630
  20
7310693.0245517818
  30
1660.7350760297
  0
VERTEX
  8
Unknown_Line_Type
  10
622210.6803688903
  20
7310692.8894047122
  30
1661.2021295657
  0
VERTEX
  8
Unknown_Line_Type
  10
622206.7096856060
  20
7310698.0316102058
  30
1660.7153884653
  0
VERTEX
  8
Unknown_Line_Type
  10
622216.4682378845
  20
7310692.9517518263
  30
1661.5948400114
  0
SEQEND
  8
Unknown_Line_Type
  0
POLYLINE
  8
Unknown_Line_Type
  66
1
  70
8
  0
VERTEX
  8
Unknown_Line_Type
  10
622115.2807817723
  20
7310750.2142346632
  30
1660.9820628741
  0
VERTEX
  8
Unknown_Line_Type
  10
622116.7623423580
  20
7310750.3437431995
  30
1661.0724855061
  0
VERTEX
  8
Unknown_Line_Type
  10
622117.9329484792
  20
7310751.5367982117
  30
1662.1517826696
  0
VERTEX
  8
Unknown_Line_Type
  10
622120.4948875553
  20
7310752.0866200505
  30
1662.7651780873
  0
VERTEX
  8
Unknown_Line_Type
  10
622121.3872861536
  20
7310753.0953329522
  30
1663.5544996372
  0
VERTEX
  8
Unknown_Line_Type
  10
622123.2303675357
  20
7310754.3506200016
  30
1664.7685817979
  0
VERTEX
  8
Unknown_Line_Type
  10
622125.1174795778
  20
7310754.0475394512
  30
1665.0666535794
  0
VERTEX
  8
Unknown_Line_Type
  10
622127.4378511517
  20
7310754.1359438831
  30
1665.3105276903
  0
VERTEX
  8
Unknown_Line_Type
  10
622129.5102472574
  20
7310754.9619687526
  30
1666.0407074970
  0
VERTEX
  8
Unknown_Line_Type
  10
622132.3240679900
  20
7310755.0371481422
  30
1666.7330829168
  0
VERTEX
  8
Unknown_Line_Type
  10
622135.6925061481
  20
7310756.0477976501
  30
1667.9613977492
  0
VERTEX
  8
Unknown_Line_Type
  10
622137.9469719417
  20
7310757.0685682558
  30
1668.9672231321
  0
VERTEX
  8
Unknown_Line_Type
  10
622141.2890807920
  20
7310758.4136772910
  30
1670.1948800684
  0
VERTEX
  8
Unknown_Line_Type
  10
622142.8424650410
  20
7310758.9374390952
  30
1670.5826706011
  0
VERTEX
  8
Unknown_Line_Type
  10
622145.7318068524
  20
7310759.4893460590
  30
1670.9403788829
  0
VERTEX
  8
Unknown_Line_Type
  10
622147.6254034969
  20
7310759.8013306912
  30
1671.0022358093
  0
VERTEX
  8
Unknown_Line_Type
  10
622149.5790877044
  20
7310761.1605521105
  30
1671.8162114389
  0
SEQEND
  8
Unknown_Line_Type
  0
POLYLINE
  8
Unknown_Line_Type
  66
1
  70
8
  0
VERTEX
  8
Unknown_Line_Type
  10
622045.3279413014
  20
7310829.5847962229
  30
1714.7298520695
  0
VERTEX
  8
Unknown_Line_Type
  10
622049.8983109441
  20
7310829.3319614762
  30
1714.9221377129
  0
VERTEX
  8
Unknown_Line_Type
  10
622055.2950602368
  20
7310829.1017829776
  30
1715.1838338394
  0
VERTEX
  8
Unknown_Line_Type
  10
622059.8817210291
  20
7310827.2620257242
  30
1714.6385440444
  0
VERTEX
  8
Unknown_Line_Type
  10
622064.7630751678
  20
7310827.0623944663
  30
1715.4234992709
  0
VERTEX
  8
Unknown_Line_Type
  10
622067.8004910029
  20
7310827.6293989643
  30
1715.4391092791
  0
VERTEX
  8
Unknown_Line_Type
  10
622072.0608969074
  20
7310827.5658010058
  30
1714.6479735109
  0
VERTEX
  8
Unknown_Line_Type
  10
622074.8480683981
  20
7310827.7785809562
  30
1714.6750403637
  0
VERTEX
  8
Unknown_Line_Type
  10
622078.0577392227
  20
7310828.5861997735
  30
1715.1561262117
  0
VERTEX
  8
Unknown_Line_Type
  10
622082.0411357494
  20
7310830.3802098241
  30
1716.3826571474
  0
VERTEX
  8
Unknown_Line_Type
  10
622085.5964986084
  20
7310832.8606727198
  30
1718.1583768438
  0
VERTEX
  8
Unknown_Line_Type
  10
622088.2653546331
  20
7310833.1218203632
  30
1718.2390210895
  0
VERTEX
  8
Unknown_Line_Type
  10
622091.0686443768
  20
7310834.5853203302
  30
1719.1375362072
  0
VERTEX
  8
Unknown_Line_Type
  10
622093.9257272168
  20
7310835.8411685061
  30
1719.8602682758
  0
VERTEX
  8
Unknown_Line_Type
  10
622095.5884953669
  20
7310837.6827162690
  30
1721.2195348397
  0
VERTEX
  8
Unknown_Line_Type
  10
622097.7278850436
  20
7310839.7102110572
  30
1722.5315444122
  0
VERTEX
  8
Unknown_Line_Type
  10
622097.5928042311
  20
7310843.9900393849
  30
1726.1431238338
  0
VERTEX
  8
Unknown_Line_Type
  10
622100.4678505588
  20
7310846.1873123124
  30
1727.3057001965
  0
VERTEX
  8
Unknown_Line_Type
  10
622104.9493860807
  20
7310846.3877188303
  30
1726.3295618736
  0
VERTEX
  8
Unknown_Line_Type
  10
622109.0891926516
  20
7310848.5751231872
  30
1727.6178272147
  0
VERTEX
  8
Unknown_Line_Type
  10
622109.8713208465
  20
7310851.0269000158
  30
1729.7720178834
  0
VERTEX
  8
Unknown_Line_Type
  10
622112.2263979059
  20
7310851.7387479628
  30
1730.1125442340
  0
VERTEX
  8
Unknown_Line_Type
  10
622114.1189242436
  20
7310853.0327077881
  30
1730.8683886830
  0
SEQEND
  8
Unknown_Line_Type
  0
POLYLINE
  8
Unknown_Line_Type
  66
1
  70
8
  0
VERTEX
  8
Unknown_Line_Type
  10
622133.1285711309
  20
7310882.3419649806
  30
1745.6209504922
  0
VERTEX
  8
Unknown_Line_Type
  10
622130.5227672665
  20
7310880.4245075658
  30
1744.7426082289
  0
VERTEX
  8
Unknown_Line_Type
  10
622129.3293290560
  20
7310880.2018356323
  30
1744.9177872234
  0
VERTEX
  8
Unknown_Line_Type
  10
622128.2392855092
  20
7310879.4482712001
  30
1744.6225912828
  0
VERTEX
  8
Unknown_Line_Type
  10
622127.5179753036
  20
7310878.3209956829
  30
1743.9100534629
  0
VERTEX
  8
Unknown_Line_Type
  10
622125.5686681148
  20
7310876.4453404061
  30
1743.0856861919
  0
SEQEND
  8
Unknown_Line_Type
  0
POLYLINE
  8
Unknown_Line_Type
  66
1
  70
8
  0
VERTEX
  8
Unknown_Line_Type
  10
622060.6127784641
  20
7310843.7084397078
  30
1736.3894414262
  0
VERTEX
  8
Unknown_Line_Type
  10
622062.4744899003
  20
7310843.7275957223
  30
1735.4682095017
  0
VERTEX
  8
Unknown_Line_Type
  10
622063.0735856183
  20
7310843.9410489509
  30
1735.3999011345
  0
VERTEX
  8
Unknown_Line_Type
  10
622063.6722531149
  20
7310844.1547217146
  30
1735.3318065416
  0
VERTEX
  8
Unknown_Line_Type
  10
622064.0521421604
  20
7310844.4965649042
  30
1735.4683541085
  0
VERTEX
  8
Unknown_Line_Type
  10
622065.4130549005
  20
7310845.3491249960
  30
1735.4218254306
  0
VERTEX
  8
Unknown_Line_Type
  10
622065.5818857872
  20
7310845.4659269173
  30
1735.4192837556
  0
VERTEX
  8
Unknown_Line_Type
  10
622065.8872059063
  20
7310845.9745099302
  30
1735.7348892569
  0
VERTEX
  8
Unknown_Line_Type
  10
622066.3486407986
  20
7310846.3824441722
  30
1735.8202766179
  0
VERTEX
  8
Unknown_Line_Type
  10
622066.9659671123
  20
7310846.7010215987
  30
1735.7567287520
  0
VERTEX
  8
Unknown_Line_Type
  10
622067.5771725131
  20
7310847.4064917099
  30
1736.2449932738
  0
VERTEX
  8
Unknown_Line_Type
  10
622068.0424185178
  20
7310848.6513602473
  30
1737.3989923636
  0
VERTEX
  8
Unknown_Line_Type
  10
622068.7350655908
  20
7310848.9068984669
  30
1737.4400363683
  0
VERTEX
  8
Unknown_Line_Type
  10
622069.8317525238
  20
7310849.1866457621
  30
1737.4248357151
  0
VERTEX
  8
Unknown_Line_Type
  10
622070.7817682801
  20
7310850.4505508002
  30
1738.3508893555
  0
VERTEX
  8
Unknown_Line_Type
  10
622071.1578841958
  20
7310851.5918865008
  30
1739.2722540637
  0
VERTEX
  8
Unknown_Line_Type
  10
622071.3103639209
  20
7310852.9195164796
  30
1740.4872252647
  0
VERTEX
  8
Unknown_Line_Type
  10
622072.6440169300
  20
7310852.5891143335
  30
1740.2626870496
  0
VERTEX
  8
Unknown_Line_Type
  10
622074.1842050394
  20
7310852.4876356954
  30
1740.3074213169
  0
VERTEX
  8
Unknown_Line_Type
  10
622074.8475653750
  20
7310853.9134490825
  30
1741.6145821181
  0
VERTEX
  8
Unknown_Line_Type
  10
622075.6322707795
  20
7310854.6267140638
  30
1742.2010959645
  0
SEQEND
  8
Unknown_Line_Type
  0
POLYLINE
  8
Unknown_Line_Type
  66
1
  70
8
  0
VERTEX
  8
Unknown_Line_Type
  10
622000.9810113892
  20
7310849.8912854567
  30
1746.5917984855
  0
VERTEX
  8
Unknown_Line_Type
  10
622001.6740199686
  20
7310850.5947838761
  30
1746.9887384004
  0
VERTEX
  8
Unknown_Line_Type
  10
622002.7303919303
  20
7310851.0057089981
  30
1746.8964791617
  0
VERTEX
  8
Unknown_Line_Type
  10
622003.2747121401
  20
7310851.3420501491
  30
1747.0653239858
  0
VERTEX
  8
Unknown_Line_Type
  10
622003.8921468242
  20
7310851.6021924596
  30
1747.1900143708
  0
VERTEX
  8
Unknown_Line_Type
  10
622004.7440172447
  20
7310851.7624256704
  30
1747.1076539506
  0
VERTEX
  8
Unknown_Line_Type
  10
622005.1695081058
  20
7310851.9109069742
  30
1747.1958461522
  0
VERTEX
  8
Unknown_Line_Type
  10
622006.3341505561
  20
7310852.1981731188
  30
1747.2710048059
  0
VERTEX
  8
Unknown_Line_Type
  10
622006.6678236720
  20
7310851.9990274021
  30
1746.7667763080
  0
VERTEX
  8
Unknown_Line_Type
  10
622007.5282638995
  20
7310851.5102225961
  30
1745.5338934722
  0
VERTEX
  8
Unknown_Line_Type
  10
622007.9321927039
  20
7310851.2977172649
  30
1745.0487526518
  0
VERTEX
  8
Unknown_Line_Type
  10
622008.5020467102
  20
7310851.7368431604
  30
1745.6322208790
  0
VERTEX
  8
Unknown_Line_Type
  10
622009.0425405006
  20
7310852.1348633608
  30
1746.3541142335
  0
VERTEX
  8
Unknown_Line_Type
  10
622009.9709640973
  20
7310852.7091935202
  30
1746.9234401366
  0
VERTEX
  8
Unknown_Line_Type
  10
622010.2600893744
  20
7310852.8618355338
  30
1746.9483959366
  0
VERTEX
  8
Unknown_Line_Type
  10
622010.8522962483
  20
7310853.1866612080
  30
1746.9154992941
  0
VERTEX
  8
Unknown_Line_Type
  10
622011.2095318688
  20
7310853.4411515724
  30
1746.9658919665
  0
VERTEX
  8
Unknown_Line_Type
  10
622011.9005628575
  20
7310853.9979201993
  30
1747.1285635994
  0
VERTEX
  8
Unknown_Line_Type
  10
622012.7300414086
  20
7310854.5560037177
  30
1747.0519076766
  0
VERTEX
  8
Unknown_Line_Type
  10
622013.2690254119
  20
7310854.8298084354
  30
1746.7483171644
  0
VERTEX
  8
Unknown_Line_Type
  10
622013.8614099812
  20
7310854.8690683283
  30
1745.7614937525
  0
VERTEX
  8
Unknown_Line_Type
  10
622014.0518352515
  20
7310854.7381358538
  30
1745.2040191673
  0
VERTEX
  8
Unknown_Line_Type
  10
622014.2907458908
  20
7310854.6650000671
  30
1744.4800080003
  0
VERTEX
  8
Unknown_Line_Type
  10
622014.6610108807
  20
7310854.7989549618
  30
1743.7533149185
  0
VERTEX
  8
Unknown_Line_Type
  10
622014.9777679738
  20
7310854.8197795432
  30
1743.1357628269
  0
SEQEND
  8
Unknown_Line_Type
  0
POLYLINE
  8
Unknown_Line_Type
  66
1
  70
8
  0
VERTEX
  8
Unknown_Line_Type
  10
622042.3750189389
  20
7310887.8553832565
  30
1783.1229568818
  0
VERTEX
  8
Unknown_Line_Type
  10
622041.2682213439
  20
7310887.7267224435
  30
1783.3244934977
  0
VERTEX
  8
Unknown_Line_Type
  10
622039.7241176054
  20
7310887.2606446184
  30
1783.5647476767
  0
VERTEX
  8
Unknown_Line_Type
  10
622038.5009789713
  20
7310886.8494786005
  30
1783.1010180136
  0
VERTEX
  8
Unknown_Line_Type
  10
622035.7778303898
  20
7310886.0829343814
  30
1783.0670213444
  0
VERTEX
  8
Unknown_Line_Type
  10
622034.4727276748
  20
7310885.5370347276
  30
1782.0395058758
  0
VERTEX
  8
Unknown_Line_Type
  10
622033.9172700053
  20
7310885.1276270784
  30
1781.2548766273
  0
VERTEX
  8
Unknown_Line_Type
  10
622032.8141909523
  20
7310884.9436521865
  30
1781.4439255898
  0
VERTEX
  8
Unknown_Line_Type
  10
622031.0403697426
  20
7310884.5347467894
  30
1780.5208975754
  0
SEQEND
  8
Unknown_Line_Type
  0
POLYLINE
  8
Unknown_Line_Type
  66
1
  70
8
  0
VERTEX
  8
Unknown_Line_Type
  10
622040.3198915096
  20
7310861.2948108073
  30
1754.0232011468
  0
VERTEX
  8
Unknown_Line_Type
  10
622041.6638787801
  20
7310861.2896767501
  30
1754.4153256570
  0
VERTEX
  8
Unknown_Line_Type
  10
622042.7301688597
  20
7310861.3099510064
  30
1754.7176309653
  0
VERTEX
  8
Unknown_Line_Type
  10
622043.7809464717
  20
7310861.4383403184
  30
1755.0654490672
  0
VERTEX
  8
Unknown_Line_Type
  10
622044.2919534243
  20
7310861.7061550179
  30
1755.4130643712
  0
VERTEX
  8
Unknown_Line_Type
  10
622044.7483436061
  20
7310862.0186470672
  30
1755.8076292712
  0
VERTEX
  8
Unknown_Line_Type
  10
622044.8636894185
  20
7310862.4457073426
  30
1756.2363919981
  0
VERTEX
  8
Unknown_Line_Type
  10
622045.6771977372
  20
7310862.9427063596
  30
1756.7929789692
  0
VERTEX
  8
Unknown_Line_Type
  10
622046.0857557604
  20
7310863.7195807938
  30
1757.5808168561
  0
VERTEX
  8
Unknown_Line_Type
  10
622046.4650631668
  20
7310864.5721577015
  30
1758.4502150824
  0
VERTEX
  8
Unknown_Line_Type
  10
622047.4203677131
  20
7310864.3680134341
  30
1758.3690923158
  0
VERTEX
  8
Unknown_Line_Type
  10
622047.5457722647
  20
7310865.1206726301
  30
1759.0348996596
  0
VERTEX
  8
Unknown_Line_Type
  10
622047.8637278180
  20
7310866.4473069459
  30
1760.0695933836
  0
VERTEX
  8
Unknown_Line_Type
  10
622048.0905811078
  20
7310867.9286481207
  30
1761.3098199562
  0
SEQEND
  8
Unknown_Line_Type
  0
POLYLINE
  8
Unknown_Line_Type
  66
1
  70
8
  0
VERTEX
  8
Unknown_Line_Type
  10
622008.0315375819
  20
7310854.1320002861
  30
1751.0478043582
  0
VERTEX
  8
Unknown_Line_Type
  10
622008.5398510624
  20
7310854.1271461248
  30
1751.0158275131
  0
VERTEX
  8
Unknown_Line_Type
  10
622009.3967855242
  20
7310854.4473318653
  30
1751.4039474315
  0
VERTEX
  8
Unknown_Line_Type
  10
622010.7971148097
  20
7310855.0341187250
  30
1751.6429601005
  0
VERTEX
  8
Unknown_Line_Type
  10
622012.1373329340
  20
7310855.9565620236
  30
1751.6082036382
  0
VERTEX
  8
Unknown_Line_Type
  10
622012.5649977402
  20
7310855.9336000616
  30
1751.0529759376
  0
VERTEX
  8
Unknown_Line_Type
  10
622013.2428489345
  20
7310855.9369718209
  30
1749.9750036122
  0
VERTEX
  8
Unknown_Line_Type
  10
622013.9374077307
  20
7310856.4731744733
  30
1749.1172822453
  0
VERTEX
  8
Unknown_Line_Type
  10
622014.5797828075
  20
7310856.7034692587
  30
1747.9323028876
  0
VERTEX
  8
Unknown_Line_Type
  10
622015.3364979643
  20
7310858.1041108491
  30
1748.4216781861
  0
VERTEX
  8
Unknown_Line_Type
  10
622015.8396103805
  20
7310858.6370642781
  30
1748.3905825820
  0
VERTEX
  8
Unknown_Line_Type
  10
622016.4619018273
  20
7310859.4741005804
  30
1748.8997043063
  0
VERTEX
  8
Unknown_Line_Type
  10
622017.4064135163
  20
7310859.8446701709
  30
1748.9235151923
  0
VERTEX
  8
Unknown_Line_Type
  10
622018.7808491520
  20
7310859.6294556372
  30
1748.4368285563
  0
VERTEX
  8
Unknown_Line_Type
  10
622019.2133275484
  20
7310859.6787150688
  30
1748.6426760327
  0
VERTEX
  8
Unknown_Line_Type
  10
622020.2546959464
  20
7310859.4660949260
  30
1748.4712748202
  0
VERTEX
  8
Unknown_Line_Type
  10
622020.8584328609
  20
7310859.4802810829
  30
1748.7805099137
  0
VERTEX
  8
Unknown_Line_Type
  10
622021.6641517717
  20
7310859.4787920220
  30
1749.0576543470
  0
VERTEX
  8
Unknown_Line_Type
  10
622022.0865740500
  20
7310859.8926647594
  30
1749.8673032459
  0
SEQEND
  8
Unknown_Line_Type
  0
POLYLINE
  8
Unknown_Line_Type
  66
1
  70
8
  0
VERTEX
  8
Unknown_Line_Type
  10
622100.0992805557
  20
7310851.6961115301
  30
1733.9231232693
  0
VERTEX
  8
Unknown_Line_Type
  10
622101.0683262191
  20
7310852.1743311333
  30
1734.3788701295
  0
VERTEX
  8
Unknown_Line_Type
  10
622102.8720301229
  20
7310853.1286958549
  30
1735.1219140320
  0
VERTEX
  8
Unknown_Line_Type
  10
622103.9839490514
  20
7310853.9474047227
  30
1735.8305464170
  0
VERTEX
  8
Unknown_Line_Type
  10
622105.3232190128
  20
7310854.5716710687
  30
1736.2406270276
  0
VERTEX
  8
Unknown_Line_Type
  10
622105.9471561454
  20
7310855.6540700309
  30
1737.3537973511
  0
VERTEX
  8
Unknown_Line_Type
  10
622107.1456107519
  20
7310856.5328022912
  30
1737.8057641707
  0
VERTEX
  8
Unknown_Line_Type
  10
622108.6150539788
  20
7310857.8708001459
  30
1738.1322694369
  0
VERTEX
  8
Unknown_Line_Type
  10
622110.2075391207
  20
7310859.1644106675
  30
1738.2500064696
  0
VERTEX
  8
Unknown_Line_Type
  10
622111.8046592611
  20
7310860.2397318389
  30
1738.3477433365
  0
VERTEX
  8
Unknown_Line_Type
  10
622113.4323793852
  20
7310861.4777497817
  30
1738.8267886882
  0
VERTEX
  8
Unknown_Line_Type
  10
622115.5512601401
  20
7310862.4574873988
  30
1739.3293010639
  0
VERTEX
  8
Unknown_Line_Type
  10
622118.2143390667
  20
7310863.9921043199
  30
1739.8572631132
  0
VERTEX
  8
Unknown_Line_Type
  10
622120.5820005183
  20
7310866.1889510797
  30
1740.6160407238
  0
VERTEX
  8
Unknown_Line_Type
  10
622121.0874964345
  20
7310867.4818260372
  30
1741.3393423311
  0
VERTEX
  8
Unknown_Line_Type
  10
622121.8975113451
  20
7310868.4261588752
  30
1741.5483210159
  0
VERTEX
  8
Unknown_Line_Type
  10
622123.2878765359
  20
7310871.0445845164
  30
1742.3240178390
  0
SEQEND
  8
Unknown_Line_Type
  0
POLYLINE
  8
Unknown_Line_Type
  66
1
  70
8
  0
VERTEX
  8
Unknown_Line_Type
  10
622058.2548929990
  20
7310840.5754478509
  30
1731.9493599106
  0
VERTEX
  8
Unknown_Line_Type
  10
622059.5973290722
  20
7310840.3386218194
  30
1731.7557060926
  0
VERTEX
  8
Unknown_Line_Type
  10
622060.4029283369
  20
7310840.4270130694
  30
1732.0433275311
  0
VERTEX
  8
Unknown_Line_Type
  10
622061.3117409259
  20
7310840.3323592357
  30
1731.5918685994
  0
VERTEX
  8
Unknown_Line_Type
  10
622061.5411437736
  20
7310840.2398255784
  30
1731.2966053717
  0
VERTEX
  8
Unknown_Line_Type
  10
622061.7411649337
  20
7310840.4660081379
  30
1731.7374735315
  0
VERTEX
  8
Unknown_Line_Type
  10
622062.8073165431
  20
7310840.8662844887
  30
1731.9440620856
  0
VERTEX
  8
Unknown_Line_Type
  10
622063.7120197341
  20
7310841.4858101793
  30
1732.2508308388
  0
VERTEX
  8
Unknown_Line_Type
  10
622064.6749167127
  20
7310841.8963847775
  30
1732.0188621911
  0
VERTEX
  8
Unknown_Line_Type
  10
622064.9780825451
  20
7310842.3426154386
  30
1732.3949025206
  0
VERTEX
  8
Unknown_Line_Type
  10
622066.0271300604
  20
7310841.9488535728
  30
1731.1956104253
  0
VERTEX
  8
Unknown_Line_Type
  10
622067.6682586905
  20
7310843.3766709892
  30
1731.6483690421
  0
SEQEND
  8
Unknown_Line_Type
  0
POLYLINE
  8
Unknown_Line_Type
  66
1
  70
8
  0
VERTEX
  8
Unknown_Line_Type
  10
622094.9463854097
  20
7310856.3576378003
  30
1740.2788546705
  0
VERTEX
  8
Unknown_Line_Type
  10
622096.0553447903
  20
7310856.4147326667
  30
1740.2402962122
  0
VERTEX
  8
Unknown_Line_Type
  10
622096.7482146923
  20
7310856.8626676835
  30
1740.8047559127
  0
VERTEX
  8
Unknown_Line_Type
  10
622097.6019209329
  20
7310857.4052849710
  30
1741.4785703121
  0
VERTEX
  8
Unknown_Line_Type
  10
622098.5751330541
  20
7310857.9372802349
  30
1742.0060591412
  0
VERTEX
  8
Unknown_Line_Type
  10
622100.3505235163
  20
7310857.9614482764
  30
1741.6673489649
  0
VERTEX
  8
Unknown_Line_Type
  10
622101.9992902638
  20
7310858.2012215992
  30
1741.6194006011
  0
VERTEX
  8
Unknown_Line_Type
  10
622103.5001089077
  20
7310858.7256361544
  30
1741.8083081967
  0
VERTEX
  8
Unknown_Line_Type
  10
622104.4828714713
  20
7310858.8855732176
  30
1741.6684356223
  0
VERTEX
  8
Unknown_Line_Type
  10
622105.0081901791
  20
7310859.6334047187
  30
1742.2187491375
  0
VERTEX
  8
Unknown_Line_Type
  10
622105.9162631094
  20
7310860.2652765475
  30
1742.3847373800
  0
VERTEX
  8
Unknown_Line_Type
  10
622106.0646212510
  20
7310861.0973348599
  30
1743.1922143897
  0
VERTEX
  8
Unknown_Line_Type
  10
622105.8163872331
  20
7310862.0841111466
  30
1744.3320910321
  0
VERTEX
  8
Unknown_Line_Type
  10
622105.6900420226
  20
7310863.8980147243
  30
1745.7290497888
  0
VERTEX
  8
Unknown_Line_Type
  10
622105.7334349015
  20
7310865.0634392966
  30
1746.4712230426
  0
VERTEX
  8
Unknown_Line_Type
  10
622106.4525182233
  20
7310865.2915866105
  30
1746.3128959480
  0
VERTEX
  8
Unknown_Line_Type
  10
622106.9440222742
  20
7310866.1487712953
  30
1746.6985344130
  0
VERTEX
  8
Unknown_Line_Type
  10
622106.8765798771
  20
7310867.5330078769
  30
1747.6757444755
  0
VERTEX
  8
Unknown_Line_Type
  10
622108.0559759309
  20
7310868.3177515939
  30
1747.8143169860
  0
VERTEX
  8
Unknown_Line_Type
  10
622108.3772047962
  20
7310869.3909562239
  30
1748.4442999415
  0
VERTEX
  8
Unknown_Line_Type
  10
622109.0287670144
  20
7310869.8967149938
  30
1748.5786719539
  0
VERTEX
  8
Unknown_Line_Type
  10
622109.1115907998
  20
7310871.6596139381
  30
1749.7070947541
  0
VERTEX
  8
Unknown_Line_Type
  10
622109.8453873111
  20
7310871.8438678980
  30
1749.5387879501
  0
VERTEX
  8
Unknown_Line_Type
  10
622109.6048099307
  20
7310873.7027220652
  30
1750.8022228041
  0
VERTEX
  8
Unknown_Line_Type
  10
622110.5436183609
  20
7310874.9597548917
  30
1751.1632394940
  0
VERTEX
  8
Unknown_Line_Type
  10
622111.2312710938
  20
7310875.7864857046
  30
1751.3283879747
  0
VERTEX
  8
Unknown_Line_Type
  10
622111.3396650287
  20
7310877.0162783228
  30
1752.0232808285
  0
VERTEX
  8
Unknown_Line_Type
  10
622111.3721068573
  20
7310878.3314871332
  30
1752.8723001043
  0
VERTEX
  8
Unknown_Line_Type
  10
622112.4005890498
  20
7310879.5113951601
  30
1753.1484868964
  0
SEQEND
  8
Unknown_Line_Type
  0
POLYLINE
  8
Unknown_Line_Type
  66
1
  70
8
  0
VERTEX
  8
Unknown_Line_Type
  10
622139.2156901669
  20
7310890.4800207783
  30
1743.0390321307
  0
VERTEX
  8
Unknown_Line_Type
  10
622139.7497923099
  20
7310891.2402533628
  30
1743.4959469926
  0
VERTEX
  8
Unknown_Line_Type
  10
622140.6455856412
  20
7310891.6702880133
  30
1743.3921942750
  0
VERTEX
  8
Unknown_Line_Type
  10
622142.0372008720
  20
7310891.8245165199
  30
1742.9064381649
  0
VERTEX
  8
Unknown_Line_Type
  10
622142.7992980256
  20
7310891.8257318623
  30
1742.6648165747
  0
VERTEX
  8
Unknown_Line_Type
  10
622143.2542960466
  20
7310891.7862354144
  30
1742.4696737318
  0
VERTEX
  8
Unknown_Line_Type
  10
622143.7769969632
  20
7310891.7238069233
  30
1742.1451661111
  0
VERTEX
  8
Unknown_Line_Type
  10
622144.2242073694
  20
7310891.7952436116
  30
1742.2728500665
  0
VERTEX
  8
Unknown_Line_Type
  10
622144.7676028444
  20
7310892.0040864525
  30
1742.7858075579
  0
VERTEX
  8
Unknown_Line_Type
  10
622145.7200238858
  20
7310892.2089088960
  30
1743.1137127669
  0
VERTEX
  8
Unknown_Line_Type
  10
622146.9688698229
  20
7310892.4749061065
  30
1743.3977054230
  0
VERTEX
  8
Unknown_Line_Type
  10
622148.6155485399
  20
7310892.8752097916
  30
1743.9361811474
  0
VERTEX
  8
Unknown_Line_Type
  10
622149.5449631217
  20
7310893.1775424806
  30
1744.3513371502
  0
VERTEX
  8
Unknown_Line_Type
  10
622150.1280061556
  20
7310893.4567381162
  30
1744.6677450802
  0
VERTEX
  8
Unknown_Line_Type
  10
622150.5125333248
  20
7310893.6040561851
  30
1744.6569434191
  0
VERTEX
  8
Unknown_Line_Type
  10
622151.0273584049
  20
7310894.1516438946
  30
1745.3212817150
  0
VERTEX
  8
Unknown_Line_Type
  10
622151.2009476741
  20
7310894.4814798478
  30
1745.9049351554
  0
VERTEX
  8
Unknown_Line_Type
  10
622151.6120601001
  20
7310894.9460444860
  30
1746.2321787706
  0
VERTEX
  8
Unknown_Line_Type
  10
622152.2394467365
  20
7310895.4051077953
  30
1746.0594582221
  0
VERTEX
  8
Unknown_Line_Type
  10
622152.7192704480
  20
7310895.7907484695
  30
1746.0966208468
  0
VERTEX
  8
Unknown_Line_Type
  10
622153.4816226654
  20
7310896.4951524902
  30
1746.7751029195
  0
VERTEX
  8
Unknown_Line_Type
  10
622153.8967319948
  20
7310896.8637012988
  30
1747.5146747329
  0
VERTEX
  8
Unknown_Line_Type
  10
622154.6385421256
  20
7310897.1368276346
  30
1747.6086946569
  0
VERTEX
  8
Unknown_Line_Type
  10
622154.8569219746
  20
7310897.4232753143
  30
1748.2190189171
  0
VERTEX
  8
Unknown_Line_Type
  10
622155.4198285932
  20
7310897.7704534791
  30
1748.4293313618
  0
VERTEX
  8
Unknown_Line_Type
  10
622155.7847181645
  20
7310898.0355549911
  30
1748.4728244932
  0
VERTEX
  8
Unknown_Line_Type
  10
622156.5965288604
  20
7310899.2200711761
  30
1749.0830492803
  0
VERTEX
  8
Unknown_Line_Type
  10
622157.3239905613
  20
7310899.9599623382
  30
1749.1563395304
  0
VERTEX
  8
Unknown_Line_Type
  10
622158.0546886232
  20
7310900.6803020258
  30
1749.2266424086
  0
SEQEND
  8
Unknown_Line_Type
  0
POLYLINE
  8
Unknown_Line_Type
  66
1
  70
8
  0
VERTEX
  8
Unknown_Line_Type
  10
622097.5123715040
  20
7310891.2211474590
  30
1770.5886564212
  0
VERTEX
  8
Unknown_Line_Type
  10
622098.1737005703
  20
7310891.3293835530
  30
1770.1040870037
  0
VERTEX
  8
Unknown_Line_Type
  10
622098.6868567187
  20
7310891.4464978762
  30
1769.8086192398
  0
VERTEX
  8
Unknown_Line_Type
  10
622099.5428357699
  20
7310891.7436249927
  30
1770.2114330680
  0
VERTEX
  8
Unknown_Line_Type
  10
622100.3286192784
  20
7310891.9094111184
  30
1770.5028814061
  0
VERTEX
  8
Unknown_Line_Type
  10
622101.2153771084
  20
7310891.9943771493
  30
1770.3408485516
  0
VERTEX
  8
Unknown_Line_Type
  10
622101.5475172879
  20
7310892.0189930890
  30
1770.0157291076
  0
VERTEX
  8
Unknown_Line_Type
  10
622102.4626928662
  20
7310892.1343029570
  30
1770.5892742019
  0
VERTEX
  8
Unknown_Line_Type
  10
622102.8926974158
  20
7310892.2531470824
  30
1770.7316939493
  0
VERTEX
  8
Unknown_Line_Type
  10
622103.6330553802
  20
7310892.5339487530
  30
1770.9407850430
  0
VERTEX
  8
Unknown_Line_Type
  10
622104.8427610715
  20
7310893.3292892193
  30
1771.4450617502
  0
VERTEX
  8
Unknown_Line_Type
  10
622106.6840431474
  20
7310894.1928402502
  30
1771.8849560546
  0
VERTEX
  8
Unknown_Line_Type
  10
622107.6387421114
  20
7310894.7267635819
  30
1771.9286566510
  0
SEQEND
  8
Unknown_Line_Type
  0
POLYLINE
  8
Unknown_Line_Type
  66
1
  70
8
  0
VERTEX
  8
Unknown_Line_Type
  10
622120.3227913735
  20
7310878.2607352026
  30
1748.3757596172
  0
VERTEX
  8
Unknown_Line_Type
  10
622120.8473523229
  20
7310879.2374615762
  30
1748.9907206192
  0
VERTEX
  8
Unknown_Line_Type
  10
622121.3615579059
  20
7310880.0794724524
  30
1749.5938652053
  0
VERTEX
  8
Unknown_Line_Type
  10
622122.3233549787
  20
7310880.3268831158
  30
1749.4562075474
  0
VERTEX
  8
Unknown_Line_Type
  10
622123.1761454659
  20
7310880.8858615067
  30
1749.7204991361
  0
VERTEX
  8
Unknown_Line_Type
  10
622124.0529464698
  20
7310881.3030626485
  30
1749.7652196091
  0
VERTEX
  8
Unknown_Line_Type
  10
622125.8377971301
  20
7310882.1010585874
  30
1749.4466941488
  0
VERTEX
  8
Unknown_Line_Type
  10
622126.7099749936
  20
7310882.9987486638
  30
1749.9934333523
  0
VERTEX
  8
Unknown_Line_Type
  10
622127.9946607658
  20
7310884.1408778131
  30
1750.6956858614
  0
VERTEX
  8
Unknown_Line_Type
  10
622129.2763956116
  20
7310886.2393950205
  30
1751.3592438123
  0
VERTEX
  8
Unknown_Line_Type
  10
622129.7717277055
  20
7310887.8195628282
  30
1751.3040265191
  0
VERTEX
  8
Unknown_Line_Type
  10
622130.2262183327
  20
7310892.2687481157
  30
1751.8860701823
  0
VERTEX
  8
Unknown_Line_Type
  10
622130.6670636134
  20
7310893.3955856301
  30
1752.0391910531
  0
SEQEND
  8
Unknown_Line_Type
  0
POLYLINE
  8
Unknown_Line_Type
  66
1
  70
8
  0
VERTEX
  8
Unknown_Line_Type
  10
622124.3800451125
  20
7310879.3503403571
  30
1747.3087789943
  0
VERTEX
  8
Unknown_Line_Type
  10
622124.8380184108
  20
7310880.0224220846
  30
1747.7996605031
  0
VERTEX
  8
Unknown_Line_Type
  10
622125.3320016600
  20
7310880.2603321951
  30
1747.7414820171
  0
VERTEX
  8
Unknown_Line_Type
  10
622126.6243842531
  20
7310881.2417113166
  30
1747.9257031361
  0
VERTEX
  8
Unknown_Line_Type
  10
622127.1725429338
  20
7310881.1775219701
  30
1747.4785475713
  0
VERTEX
  8
Unknown_Line_Type
  10
622128.0310693529
  20
7310881.9038571939
  30
1747.9069045659
  0
VERTEX
  8
Unknown_Line_Type
  10
622129.2910637786
  20
7310883.1551949345
  30
1748.7704748243
  0
VERTEX
  8
Unknown_Line_Type
  10
622129.7336957080
  20
7310883.4414209630
  30
1748.8748126317
  0
VERTEX
  8
Unknown_Line_Type
  10
622130.7151581822
  20
7310884.3902985398
  30
1749.1581757404
  0
VERTEX
  8
Unknown_Line_Type
  10
622131.4654827867
  20
7310885.5350299403
  30
1749.4045643895
  0
VERTEX
  8
Unknown_Line_Type
  10
622132.3631951299
  20
7310887.7183393110
  30
1749.1950508700
  0
SEQEND
  8
Unknown_Line_Type
  0
POLYLINE
  8
Unknown_Line_Type
  66
1
  70
8
  0
VERTEX
  8
Unknown_Line_Type
  10
622173.5635749993
  20
7310640.3942699749
  30
1619.7093261746
  0
VERTEX
  8
Unknown_Line_Type
  10
622174.4652229108
  20
7310640.7075782716
  30
1619.9191752548
  0
VERTEX
  8
Unknown_Line_Type
  10
622176.3510828272
  20
7310641.2918749489
  30
1620.5851929000
  0
VERTEX
  8
Unknown_Line_Type
  10
622178.6436917154
  20
7310641.7774118707
  30
1621.0568532011
  0
VERTEX
  8
Unknown_Line_Type
  10
622180.0342369122
  20
7310642.1838280391
  30
1621.1743315825
  0
VERTEX
  8
Unknown_Line_Type
  10
622181.5927499057
  20
7310643.1963701472
  30
1621.1318081666
  0
VERTEX
  8
Unknown_Line_Type
  10
622183.0708447530
  20
7310644.0243196627
  30
1621.3501102770
  0
VERTEX
  8
Unknown_Line_Type
  10
622184.6255894629
  20
7310644.5875519412
  30
1622.0240590221
  0
VERTEX
  8
Unknown_Line_Type
  10
622186.4054452654
  20
7310644.9181140857
  30
1622.5165367636
  0
VERTEX
  8
Unknown_Line_Type
  10
622187.4431599497
  20
7310644.9723168314
  30
1622.8209798230
  0
VERTEX
  8
Unknown_Line_Type
  10
622188.2321869577
  20
7310644.9663409237
  30
1623.1717036744
  0
VERTEX
  8
Unknown_Line_Type
  10
622189.7807881960
  20
7310645.0406895224
  30
1623.9088379514
  0
VERTEX
  8
Unknown_Line_Type
  10
622191.2968210325
  20
7310645.3775835847
  30
1624.0615484144
  0
VERTEX
  8
Unknown_Line_Type
  10
622192.2548052062
  20
7310645.6197903510
  30
1624.1491212698
  0
VERTEX
  8
Unknown_Line_Type
  10
622193.7164172245
  20
7310646.2359734224
  30
1624.6290944466
  0
VERTEX
  8
Unknown_Line_Type
  10
622194.2567132153
  20
7310646.3324153628
  30
1624.6899887518
  0
VERTEX
  8
Unknown_Line_Type
  10
622195.7856379094
  20
7310646.2379307207
  30
1624.4157051548
  0
VERTEX
  8
Unknown_Line_Type
  10
622197.3249942137
  20
7310646.2999215387
  30
1625.2797656893
  0
VERTEX
  8
Unknown_Line_Type
  10
622198.5029171029
  20
7310646.2681337688
  30
1626.1053038786
  0
VERTEX
  8
Unknown_Line_Type
  10
622201.2377455307
  20
7310646.5493864985
  30
1626.3323543540
  0
VERTEX
  8
Unknown_Line_Type
  10
622203.0276162347
  20
7310647.5841544233
  30
1626.5890656602
  0
VERTEX
  8
Unknown_Line_Type
  10
622204.1101742613
  20
7310648.0704902597
  30
1626.4167781505
  0
VERTEX
  8
Unknown_Line_Type
  10
622207.0297557426
  20
7310649.6456922833
  30
1626.9659687418
  0
VERTEX
  8
Unknown_Line_Type
  10
622209.0730205054
  20
7310650.4112159684
  30
1626.7323777319
  0
SEQEND
  8
Unknown_Line_Type
  0
POLYLINE
  8
Unknown_Line_Type
  66
1
  70
8
  0
VERTEX
  8
Unknown_Line_Type
  10
622183.7171034074
  20
7310637.6492422689
  30
1614.8872408145
  0
VERTEX
  8
Unknown_Line_Type
  10
622185.2446494477
  20
7310638.0644988678
  30
1615.3391425939
  0
VERTEX
  8
Unknown_Line_Type
  10
622186.1943261814
  20
7310638.3799160086
  30
1615.4252978537
  0
VERTEX
  8
Unknown_Line_Type
  10
622187.0106263529
  20
7310638.3897905266
  30
1615.3822764383
  0
VERTEX
  8
Unknown_Line_Type
  10
622188.4473027561
  20
7310638.9230207577
  30
1616.3258615146
  0
VERTEX
  8
Unknown_Line_Type
  10
622189.5719554883
  20
7310639.2698686123
  30
1616.6429180453
  0
VERTEX
  8
Unknown_Line_Type
  10
622190.5506724655
  20
7310639.2561450098
  30
1616.4338523853
  0
VERTEX
  8
Unknown_Line_Type
  10
622191.9403287434
  20
7310639.3305450119
  30
1616.4193076009
  0
VERTEX
  8
Unknown_Line_Type
  10
622193.1678668127
  20
7310640.1901717186
  30
1617.5359426308
  0
VERTEX
  8
Unknown_Line_Type
  10
622194.5740656959
  20
7310640.4439222850
  30
1617.7323484019
  0
VERTEX
  8
Unknown_Line_Type
  10
622195.8608427411
  20
7310640.6282617468
  30
1617.9285536732
  0
VERTEX
  8
Unknown_Line_Type
  10
622197.5793158817
  20
7310640.6821194235
  30
1618.3916351425
  0
VERTEX
  8
Unknown_Line_Type
  10
622199.3269202941
  20
7310641.5590413222
  30
1618.8449832570
  0
VERTEX
  8
Unknown_Line_Type
  10
622201.9526742316
  20
7310642.9123901818
  30
1618.9059179633
  0
VERTEX
  8
Unknown_Line_Type
  10
622203.6307331179
  20
7310643.5187126379
  30
1618.8997831771
  0
VERTEX
  8
Unknown_Line_Type
  10
622205.6690209539
  20
7310644.3955536960
  30
1619.2061790751
  0
VERTEX
  8
Unknown_Line_Type
  10
622207.3847727452
  20
7310645.0885680132
  30
1619.6419552069
  0
VERTEX
  8
Unknown_Line_Type
  10
622209.5408938197
  20
7310645.4973387178
  30
1619.9292019671
  0
VERTEX
  8
Unknown_Line_Type
  10
622210.3744496184
  20
7310645.8670563102
  30
1619.9682405855
  0
VERTEX
  8
Unknown_Line_Type
  10
622212.2287684138
  20
7310647.0150514040
  30
1620.3373393814
  0
VERTEX
  8
Unknown_Line_Type
  10
622214.2025632554
  20
7310647.7901363894
  30
1620.6577225247
  0
VERTEX
  8
Unknown_Line_Type
  10
622217.5615989500
  20
7310648.9003282376
  30
1621.5207804932
  0
VERTEX
  8
Unknown_Line_Type
  10
622219.4875138006
  20
7310648.8790727640
  30
1621.1933167536
  0
VERTEX
  8
Unknown_Line_Type
  10
622221.0465847773
  20
7310649.3716312684
  30
1621.5234802298
  0
VERTEX
  8
Unknown_Line_Type
  10
622222.4963153099
  20
7310649.7538964199
  30
1621.8678703877
  0
VERTEX
  8
Unknown_Line_Type
  10
622226.5076061782
  20
7310651.1292482540
  30
1622.2467254866
  0
SEQEND
  8
Unknown_Line_Type
  0
POLYLINE
  8
Unknown_Line_Type
  66
1
  70
8
  0
VERTEX
  8
Unknown_Line_Type
  10
622097.3984551831
  20
7310770.6524820793
  30
1673.6702553659
  0
VERTEX
  8
Unknown_Line_Type
  10
622098.9864237764
  20
7310770.7289573317
  30
1674.2836284078
  0
VERTEX
  8
Unknown_Line_Type
  10
622101.4478387213
  20
7310770.7190956706
  30
1674.5270145696
  0
VERTEX
  8
Unknown_Line_Type
  10
622102.6487005476
  20
7310770.5305144545
  30
1674.4904786625
  0
VERTEX
  8
Unknown_Line_Type
  10
622104.5880229604
  20
7310770.2050915360
  30
1674.5157849335
  0
VERTEX
  8
Unknown_Line_Type
  10
622105.7538295210
  20
7310770.0372387543
  30
1674.3129897857
  0
VERTEX
  8
Unknown_Line_Type
  10
622106.4201740694
  20
7310770.6196435820
  30
1675.0888644463
  0
VERTEX
  8
Unknown_Line_Type
  10
622107.4225809770
  20
7310770.6423969716
  30
1674.9645365847
  0
VERTEX
  8
Unknown_Line_Type
  10
622107.3485570431
  20
7310770.9054693058
  30
1675.4527633196
  0
VERTEX
  8
Unknown_Line_Type
  10
622108.0544925783
  20
7310771.1629291959
  30
1675.6946120054
  0
VERTEX
  8
Unknown_Line_Type
  10
622108.9661987379
  20
7310771.2163285008
  30
1675.5907756921
  0
VERTEX
  8
Unknown_Line_Type
  10
622109.4064196361
  20
7310771.2384810029
  30
1675.5397469854
  0
VERTEX
  8
Unknown_Line_Type
  10
622110.0529574050
  20
7310771.3839985467
  30
1675.9814196683
  0
VERTEX
  8
Unknown_Line_Type
  10
622110.9960585513
  20
7310771.4299811721
  30
1676.4771697588
  0
VERTEX
  8
Unknown_Line_Type
  10
622111.4184394921
  20
7310771.4405958317
  30
1676.6479709515
  0
VERTEX
  8
Unknown_Line_Type
  10
622111.7234869232
  20
7310771.3830720549
  30
1676.5740273008
  0
VERTEX
  8
Unknown_Line_Type
  10
622112.7128349209
  20
7310771.2420759825
  30
1676.2222506902
  0
VERTEX
  8
Unknown_Line_Type
  10
622113.3193775804
  20
7310771.2895593131
  30
1676.5716554670
  0
VERTEX
  8
Unknown_Line_Type
  10
622114.1417831543
  20
7310771.5016273018
  30
1676.8089361959
  0
VERTEX
  8
Unknown_Line_Type
  10
622114.4662952711
  20
7310772.1025661575
  30
1677.4914617239
  0
VERTEX
  8
Unknown_Line_Type
  10
622114.9424316397
  20
7310772.4806967750
  30
1677.7366638129
  0
VERTEX
  8
Unknown_Line_Type
  10
622115.5864730337
  20
7310772.6131447172
  30
1677.7012548911
  0
VERTEX
  8
Unknown_Line_Type
  10
622115.9152063485
  20
7310772.5476607811
  30
1677.5316206278
  0
VERTEX
  8
Unknown_Line_Type
  10
622116.6015363359
  20
7310772.7548453491
  30
1677.6480910312
  0
VERTEX
  8
Unknown_Line_Type
  10
622117.1309226574
  20
7310772.9709225036
  30
1677.8340313795
  0
VERTEX
  8
Unknown_Line_Type
  10
622117.5768219247
  20
7310772.9465316590
  30
1677.8140917282
  0
VERTEX
  8
Unknown_Line_Type
  10
622118.1435839972
  20
7310772.8494293131
  30
1677.7540561499
  0
VERTEX
  8
Unknown_Line_Type
  10
622119.1120929469
  20
7310772.9503457956
  30
1677.9604672421
  0
VERTEX
  8
Unknown_Line_Type
  10
622120.2175893727
  20
7310772.7003871463
  30
1677.6631247000
  0
VERTEX
  8
Unknown_Line_Type
  10
622121.3313009364
  20
7310773.0025874684
  30
1677.8418297931
  0
VERTEX
  8
Unknown_Line_Type
  10
622121.7477171604
  20
7310773.7741119340
  30
1678.5213813666
  0
VERTEX
  8
Unknown_Line_Type
  10
622123.3064817902
  20
7310774.1637451109
  30
1678.6730136639
  0
VERTEX
  8
Unknown_Line_Type
  10
622124.1297555461
  20
7310774.6356937140
  30
1679.1000292265
  0
VERTEX
  8
Unknown_Line_Type
  10
622125.4916620585
  20
7310774.2850049064
  30
1678.6411553503
  0
VERTEX
  8
Unknown_Line_Type
  10
622127.5128176321
  20
7310774.9514590576
  30
1679.1592861250
  0
VERTEX
  8
Unknown_Line_Type
  10
622129.9605318564
  20
7310775.6939891828
  30
1679.5688565791
  0
SEQEND
  8
Unknown_Line_Type
  0
POLYLINE
  8
Unknown_Line_Type
  66
1
  70
8
  0
VERTEX
  8
Unknown_Line_Type
  10
622152.1347134563
  20
7310696.8085508253
  30
1645.8030032576
  0
VERTEX
  8
Unknown_Line_Type
  10
622153.2126075476
  20
7310696.8154913429
  30
1646.2144788259
  0
VERTEX
  8
Unknown_Line_Type
  10
622154.7268121672
  20
7310696.7236304488
  30
1646.7183222071
  0
VERTEX
  8
Unknown_Line_Type
  10
622155.4939932365
  20
7310695.9155950695
  30
1646.6956091122
  0
VERTEX
  8
Unknown_Line_Type
  10
622156.5994941371
  20
7310695.9361825977
  30
1647.0401988169
  0
VERTEX
  8
Unknown_Line_Type
  10
622157.2314715192
  20
7310696.9861771129
  30
1647.5659801263
  0
VERTEX
  8
Unknown_Line_Type
  10
622157.1945688633
  20
7310699.7999886870
  30
1648.4110345296
  0
VERTEX
  8
Unknown_Line_Type
  10
622158.0521749192
  20
7310700.0863441173
  30
1648.7639602314
  0
VERTEX
  8
Unknown_Line_Type
  10
622159.9058171039
  20
7310699.2688546348
  30
1649.1302415818
  0
VERTEX
  8
Unknown_Line_Type
  10
622160.7644952277
  20
7310700.1446749084
  30
1649.6343463819
  0
VERTEX
  8
Unknown_Line_Type
  10
622161.7613608269
  20
7310699.8561373027
  30
1649.8889319385
  0
VERTEX
  8
Unknown_Line_Type
  10
622164.5283112506
  20
7310698.1333041061
  30
1650.2271821138
  0
VERTEX
  8
Unknown_Line_Type
  10
622165.6150289793
  20
7310698.0304019805
  30
1650.5135120962
  0
VERTEX
  8
Unknown_Line_Type
  10
622166.9367025615
  20
7310699.2117543062
  30
1651.2715480751
  0
VERTEX
  8
Unknown_Line_Type
  10
622168.1966924430
  20
7310699.2535881661
  30
1651.6555390065
  0
VERTEX
  8
Unknown_Line_Type
  10
622169.3549002480
  20
7310698.7718515350
  30
1651.9302158739
  0
VERTEX
  8
Unknown_Line_Type
  10
622169.1668613056
  20
7310702.3508045878
  30
1652.5590759338
  0
VERTEX
  8
Unknown_Line_Type
  10
622169.5703530179
  20
7310704.8832436586
  30
1653.1267958613
  0
VERTEX
  8
Unknown_Line_Type
  10
622169.9107800961
  20
7310705.8086550925
  30
1653.3729197224
  0
VERTEX
  8
Unknown_Line_Type
  10
622170.8230386551
  20
7310706.4079172695
  30
1653.6741590472
  0
SEQEND
  8
Unknown_Line_Type
  0
POLYLINE
  8
Unknown_Line_Type
  66
1
  70
8
  0
VERTEX
  8
Unknown_Line_Type
  10
622095.7217405258
  20
7310891.1709160013
  30
1772.2794770864
  0
VERTEX
  8
Unknown_Line_Type
  10
622096.6270576201
  20
7310891.4867133517
  30
1773.0317597494
  0
VERTEX
  8
Unknown_Line_Type
  10
622097.8243514570
  20
7310891.8115121117
  30
1773.3646039755
  0
VERTEX
  8
Unknown_Line_Type
  10
622098.5727848115
  20
7310892.0805272209
  30
1773.9747407860
  0
VERTEX
  8
Unknown_Line_Type
  10
622099.2391632438
  20
7310892.2330504656
  30
1774.1905740493
  0
VERTEX
  8
Unknown_Line_Type
  10
622099.9951359450
  20
7310892.3717246912
  30
1774.2546491641
  0
VERTEX
  8
Unknown_Line_Type
  10
622101.2772463693
  20
7310893.2067332864
  30
1775.0996708415
  0
VERTEX
  8
Unknown_Line_Type
  10
622101.8574868259
  20
7310893.6319034239
  30
1775.3391727740
  0
VERTEX
  8
Unknown_Line_Type
  10
622102.1230131767
  20
7310894.0860971082
  30
1775.7779928907
  0
VERTEX
  8
Unknown_Line_Type
  10
622102.6312994141
  20
7310894.6816052534
  30
1776.2214573868
  0
VERTEX
  8
Unknown_Line_Type
  10
622102.9979201112
  20
7310895.0896579651
  30
1776.5023660046
  0
VERTEX
  8
Unknown_Line_Type
  10
622103.5995060175
  20
7310895.8109766161
  30
1777.0119074001
  0
VERTEX
  8
Unknown_Line_Type
  10
622104.1108486932
  20
7310896.8417252814
  30
1777.5551759634
  0
SEQEND
  8
Unknown_Line_Type
  0
POLYLINE
  8
Unknown_Line_Type
  66
1
  70
8
  0
VERTEX
  8
Unknown_Line_Type
  10
622084.0123534692
  20
7310893.6926631201
  30
1775.6586499033
  0
VERTEX
  8
Unknown_Line_Type
  10
622084.7843281595
  20
7310893.6665961994
  30
1776.1389694759
  0
VERTEX
  8
Unknown_Line_Type
  10
622085.5337858598
  20
7310893.5978554860
  30
1776.5826623725
  0
VERTEX
  8
Unknown_Line_Type
  10
622086.1164737776
  20
7310893.5549867572
  30
1777.1961649441
  0
VERTEX
  8
Unknown_Line_Type
  10
622086.8073858210
  20
7310893.5590239409
  30
1778.2614839127
  0
VERTEX
  8
Unknown_Line_Type
  10
622087.2775823436
  20
7310893.6911043227
  30
1779.1547803154
  0
VERTEX
  8
Unknown_Line_Type
  10
622088.1421960895
  20
7310893.8416375350
  30
1779.5346363626
  0
VERTEX
  8
Unknown_Line_Type
  10
622089.1208075511
  20
7310893.9773740582
  30
1779.5538603002
  0
VERTEX
  8
Unknown_Line_Type
  10
622089.4031331495
  20
7310894.1991864974
  30
1780.0297863249
  0
VERTEX
  8
Unknown_Line_Type
  10
622089.9440161898
  20
7310894.8048111722
  30
1780.9445357793
  0
VERTEX
  8
Unknown_Line_Type
  10
622090.4434473479
  20
7310895.2634942941
  30
1781.4121391859
  0
VERTEX
  8
Unknown_Line_Type
  10
622091.3739493646
  20
7310895.9024653025
  30
1781.8507371642
  0
VERTEX
  8
Unknown_Line_Type
  10
622092.1506028189
  20
7310896.5137855206
  30
1782.3171047645
  0
VERTEX
  8
Unknown_Line_Type
  10
622092.5289029217
  20
7310897.5330701424
  30
1783.2998346537
  0
VERTEX
  8
Unknown_Line_Type
  10
622093.0664189109
  20
7310898.8906982876
  30
1784.3721888361
  0
VERTEX
  8
Unknown_Line_Type
  10
622093.3367516381
  20
7310899.8048001397
  30
1785.0981252245
  0
SEQEND
  8
Unknown_Line_Type
  0
POLYLINE
  8
Unknown_Line_Type
  66
1
  70
8
  0
VERTEX
  8
Unknown_Line_Type
  10
622086.2177704691
  20
7310892.5795113854
  30
1772.5539675311
  0
VERTEX
  8
Unknown_Line_Type
  10
622087.3378077345
  20
7310892.5058695739
  30
1773.1594130006
  0
VERTEX
  8
Unknown_Line_Type
  10
622087.8589645204
  20
7310892.4969023094
  30
1773.5557780721
  0
VERTEX
  8
Unknown_Line_Type
  10
622089.8412140188
  20
7310892.5493370630
  30
1775.1336986081
  0
VERTEX
  8
Unknown_Line_Type
  10
622091.3810632337
  20
7310892.6022485578
  30
1776.0271118325
  0
VERTEX
  8
Unknown_Line_Type
  10
622093.2556081506
  20
7310893.3698178176
  30
1777.3177889925
  0
VERTEX
  8
Unknown_Line_Type
  10
622094.9914892657
  20
7310894.2116746698
  30
1778.4122439598
  0
VERTEX
  8
Unknown_Line_Type
  10
622095.8746466527
  20
7310895.1761411093
  30
1779.4688597166
  0
VERTEX
  8
Unknown_Line_Type
  10
622096.7927922697
  20
7310896.2823413797
  30
1780.2100744560
  0
VERTEX
  8
Unknown_Line_Type
  10
622096.9370445084
  20
7310897.1902543940
  30
1780.9844397215
  0
SEQEND
  8
Unknown_Line_Type
  0
POLYLINE
  8
Unknown_Line_Type
  66
1
  70
8
  0
VERTEX
  8
Unknown_Line_Type
  10
622209.9644800499
  20
7310699.7426484497
  30
1660.9229860408
  0
VERTEX
  8
Unknown_Line_Type
  10
622217.5577959748
  20
7310695.2582890773
  30
1661.6831918157
  0
VERTEX
  8
Unknown_Line_Type
  10
622220.2399019729
  20
7310694.4936873820
  30
1661.4697656890
  0
VERTEX
  8
Unknown_Line_Type
  10
622220.7735701301
  20
7310695.1398297362
  30
1661.4595505109
  0
VERTEX
  8
Unknown_Line_Type
  10
622220.1264551232
  20
7310696.8778893333
  30
1661.4358521738
  0
VERTEX
  8
Unknown_Line_Type
  10
622217.2642534041
  20
7310700.4457070678
  30
1660.7686391489
  0
VERTEX
  8
Unknown_Line_Type
  10
622218.8830009301
  20
7310700.4935822226
  30
1660.7129873222
  0
VERTEX
  8
Unknown_Line_Type
  10
622219.8880813803
  20
7310701.6014010608
  30
1660.5018892822
  0
VERTEX
  8
Unknown_Line_Type
  10
622224.7319479412
  20
7310700.0127042504
  30
1660.3251954143
  0
VERTEX
  8
Unknown_Line_Type
  10
622226.7620190625
  20
7310700.3328039162
  30
1659.7141801777
  0
VERTEX
  8
Unknown_Line_Type
  10
622227.9217455025
  20
7310700.5579100065
  30
1659.3577448111
  0
VERTEX
  8
Unknown_Line_Type
  10
622226.3370234113
  20
7310703.4869087115
  30
1659.2969515520
  0
VERTEX
  8
Unknown_Line_Type
  10
622228.0564707659
  20
7310704.1387615819
  30
1659.0186589541
  0
VERTEX
  8
Unknown_Line_Type
  10
622228.9419139233
  20
7310706.3370905267
  30
1658.6332986708
  0
VERTEX
  8
Unknown_Line_Type
  10
622228.2936570115
  20
7310709.0990294917
  30
1658.2905083318
  0
VERTEX
  8
Unknown_Line_Type
  10
622229.8395923210
  20
7310709.0175580159
  30
1657.9391676269
  0
VERTEX
  8
Unknown_Line_Type
  10
622233.0865084501
  20
7310707.5004275031
  30
1657.6087311353
  0
VERTEX
  8
Unknown_Line_Type
  10
622232.9525822875
  20
7310708.1217605919
  30
1657.5301771137
  0
VERTEX
  8
Unknown_Line_Type
  10
622231.5841313847
  20
7310710.4895576313
  30
1657.3295941161
  0
VERTEX
  8
Unknown_Line_Type
  10
622232.2711811303
  20
7310711.0086415047
  30
1657.0285412764
  0
VERTEX
  8
Unknown_Line_Type
  10
622232.4431785311
  20
7310712.0179866180
  30
1656.7493444731
  0
SEQEND
  8
Unknown_Line_Type
  0
POLYLINE
  8
Unknown_Line_Type
  66
1
  70
8
  0
VERTEX
  8
Unknown_Line_Type
  10
622158.7669061259
  20
7310897.3269997556
  30
1741.2034774599
  0
VERTEX
  8
Unknown_Line_Type
  10
622157.8263900755
  20
7310897.1119017396
  30
1740.5328361162
  0
VERTEX
  8
Unknown_Line_Type
  10
622156.7195792990
  20
7310896.8266638285
  30
1739.7269161375
  0
VERTEX
  8
Unknown_Line_Type
  10
622156.0623095937
  20
7310896.3998687509
  30
1739.3312889736
  0
VERTEX
  8
Unknown_Line_Type
  10
622155.2182945401
  20
7310895.7802012525
  30
1739.2919881850
  0
VERTEX
  8
Unknown_Line_Type
  10
622154.7506764036
  20
7310895.2789846603
  30
1739.0498957634
  0
VERTEX
  8
Unknown_Line_Type
  10
622154.0128882955
  20
7310894.5652824100
  30
1738.7543696347
  0
VERTEX
  8
Unknown_Line_Type
  10
622152.3061698794
  20
7310893.1525398977
  30
1738.3551599348
  0
VERTEX
  8
Unknown_Line_Type
  10
622151.1278172814
  20
7310892.5199367143
  30
1737.7535945863
  0
VERTEX
  8
Unknown_Line_Type
  10
622149.6979294319
  20
7310892.1360531794
  30
1737.2136372896
  0
VERTEX
  8
Unknown_Line_Type
  10
622149.1803306764
  20
7310891.9785560798
  30
1736.5880972526
  0
VERTEX
  8
Unknown_Line_Type
  10
622147.9200314289
  20
7310891.6608439684
  30
1736.3705006688
  0
VERTEX
  8
Unknown_Line_Type
  10
622147.0523003816
  20
7310890.9247725708
  30
1735.5145297838
  0
VERTEX
  8
Unknown_Line_Type
  10
622146.0496061143
  20
7310889.4938834868
  30
1734.7345581167
  0
VERTEX
  8
Unknown_Line_Type
  10
622145.6868198364
  20
7310888.4118645657
  30
1734.2352395075
  0
VERTEX
  8
Unknown_Line_Type
  10
622144.7894111918
  20
7310886.4242588691
  30
1733.8563978467
  0
VERTEX
  8
Unknown_Line_Type
  10
622144.2807702292
  20
7310885.5826612823
  30
1733.4023010931
  0
VERTEX
  8
Unknown_Line_Type
  10
622143.6790379528
  20
7310884.8140280573
  30
1733.4281262424
  0
VERTEX
  8
Unknown_Line_Type
  10
622143.2760914248
  20
7310883.9902221151
  30
1733.0372323450
  0
VERTEX
  8
Unknown_Line_Type
  10
622142.4915776065
  20
7310882.8198402422
  30
1733.8970879029
  0
VERTEX
  8
Unknown_Line_Type
  10
622142.1224419680
  20
7310882.4091588482
  30
1735.8261068813
  0
VERTEX
  8
Unknown_Line_Type
  10
622141.7841948392
  20
7310880.4834868219
  30
1736.0874779096
  0
VERTEX
  8
Unknown_Line_Type
  10
622141.1684712814
  20
7310879.3330423199
  30
1736.1177556183
  0
VERTEX
  8
Unknown_Line_Type
  10
622140.3651003991
  20
7310878.4888661113
  30
1735.7866630596
  0
VERTEX
  8
Unknown_Line_Type
  10
622139.6617930824
  20
7310877.6801080741
  30
1734.8364806465
  0
VERTEX
  8
Unknown_Line_Type
  10
622139.1387578734
  20
7310877.1644865787
  30
1733.9227242767
  0
SEQEND
  8
Unknown_Line_Type
  0
POLYLINE
  8
Unknown_Line_Type
  66
1
  70
8
  0
VERTEX
  8
Unknown_Line_Type
  10
622146.4153518740
  20
7310798.4481723476
  30
1695.4725846332
  0
VERTEX
  8
Unknown_Line_Type
  10
622147.2347051190
  20
7310799.6879859529
  30
1696.4791444922
  0
VERTEX
  8
Unknown_Line_Type
  10
622149.7864185507
  20
7310800.5758167766
  30
1697.4803785087
  0
VERTEX
  8
Unknown_Line_Type
  10
622152.1576078998
  20
7310803.6915780529
  30
1698.7738303445
  0
VERTEX
  8
Unknown_Line_Type
  10
622153.3575801158
  20
7310802.3415173544
  30
1697.9315292963
  0
VERTEX
  8
Unknown_Line_Type
  10
622154.4132155611
  20
7310802.6030005794
  30
1697.7139674751
  0
VERTEX
  8
Unknown_Line_Type
  10
622156.3447175573
  20
7310803.2306824606
  30
1697.5598794770
  0
VERTEX
  8
Unknown_Line_Type
  10
622157.0384278554
  20
7310805.2006954188
  30
1698.3119268094
  0
VERTEX
  8
Unknown_Line_Type
  10
622157.3670119040
  20
7310807.0652651303
  30
1698.9659735096
  0
VERTEX
  8
Unknown_Line_Type
  10
622158.8637395098
  20
7310807.3959914958
  30
1698.6429013605
  0
VERTEX
  8
Unknown_Line_Type
  10
622161.8028687500
  20
7310807.2619805150
  30
1697.5351517182
  0
VERTEX
  8
Unknown_Line_Type
  10
622163.1338732274
  20
7310811.7942415662
  30
1697.7918335696
  0
VERTEX
  8
Unknown_Line_Type
  10
622164.5966025206
  20
7310812.2593758944
  30
1696.9431693421
  0
VERTEX
  8
Unknown_Line_Type
  10
622165.7827886592
  20
7310811.8702374566
  30
1695.9831168650
  0
VERTEX
  8
Unknown_Line_Type
  10
622166.5692290345
  20
7310814.1159831025
  30
1695.9302142578
  0
VERTEX
  8
Unknown_Line_Type
  10
622168.5326896365
  20
7310814.2042257534
  30
1694.3834603369
  0
VERTEX
  8
Unknown_Line_Type
  10
622168.9057814288
  20
7310816.0262861103
  30
1694.5561211464
  0
VERTEX
  8
Unknown_Line_Type
  10
622170.1523511845
  20
7310817.0456766244
  30
1693.9297499474
  0
SEQEND
  8
Unknown_Line_Type
  0
POLYLINE
  8
Unknown_Line_Type
  66
1
  70
8
  0
VERTEX
  8
Unknown_Line_Type
  10
622220.0293673953
  20
7310672.2288973518
  30
1642.0085516486
  0
VERTEX
  8
Unknown_Line_Type
  10
622221.1646158805
  20
7310672.1470109802
  30
1642.3618329402
  0
VERTEX
  8
Unknown_Line_Type
  10
622222.7841650017
  20
7310672.1418381119
  30
1642.8560251023
  0
VERTEX
  8
Unknown_Line_Type
  10
622224.0854227740
  20
7310671.7928097975
  30
1642.8352914884
  0
VERTEX
  8
Unknown_Line_Type
  10
622224.8402472963
  20
7310671.8325373009
  30
1642.9753565148
  0
VERTEX
  8
Unknown_Line_Type
  10
622225.6573963215
  20
7310672.2168203043
  30
1643.3431110107
  0
VERTEX
  8
Unknown_Line_Type
  10
622226.8099232939
  20
7310672.5263735168
  30
1643.5028690459
  0
VERTEX
  8
Unknown_Line_Type
  10
622227.7720146631
  20
7310672.9622980841
  30
1643.7269938866
  0
VERTEX
  8
Unknown_Line_Type
  10
622228.6466473504
  20
7310673.4231598489
  30
1643.8646698269
  0
VERTEX
  8
Unknown_Line_Type
  10
622229.3026937284
  20
7310673.6724749580
  30
1643.8782977673
  0
VERTEX
  8
Unknown_Line_Type
  10
622230.1659262761
  20
7310674.4994574282
  30
1644.2311489591
  0
VERTEX
  8
Unknown_Line_Type
  10
622231.4494284770
  20
7310675.2801137231
  30
1644.3073785912
  0
VERTEX
  8
Unknown_Line_Type
  10
622232.2569731742
  20
7310675.8035248928
  30
1644.3889515522
  0
VERTEX
  8
Unknown_Line_Type
  10
622233.0517462069
  20
7310675.9932476301
  30
1644.2103043062
  0
VERTEX
  8
Unknown_Line_Type
  10
622233.6195417316
  20
7310676.3796034120
  30
1644.2239983801
  0
VERTEX
  8
Unknown_Line_Type
  10
622234.1625520903
  20
7310676.4682839708
  30
1643.9704650645
  0
VERTEX
  8
Unknown_Line_Type
  10
622234.8064015692
  20
7310677.1454951279
  30
1643.8981412261
  0
VERTEX
  8
Unknown_Line_Type
  10
622235.2336264651
  20
7310678.0178466924
  30
1644.0547563647
  0
VERTEX
  8
Unknown_Line_Type
  10
622236.0679617105
  20
7310678.7410150105
  30
1643.9194530645
  0
VERTEX
  8
Unknown_Line_Type
  10
622237.3858122282
  20
7310679.6179136652
  30
1643.5119359769
  0
VERTEX
  8
Unknown_Line_Type
  10
622238.1251257841
  20
7310680.3096663877
  30
1643.3378291245
  0
VERTEX
  8
Unknown_Line_Type
  10
622239.3830171960
  20
7310680.8783697011
  30
1642.8074440804
  0
SEQEND
  8
Unknown_Line_Type
  0
POLYLINE
  8
Unknown_Line_Type
  66
1
  70
8
  0
VERTEX
  8
Unknown_Line_Type
  10
622210.2151621963
  20
7310666.9703138284
  30
1637.1126376942
  0
VERTEX
  8
Unknown_Line_Type
  10
622211.1632195029
  20
7310667.2292582523
  30
1637.2268304259
  0
VERTEX
  8
Unknown_Line_Type
  10
622211.9412847903
  20
7310667.2166062687
  30
1637.1744960070
  0
VERTEX
  8
Unknown_Line_Type
  10
622212.5735950549
  20
7310667.5661867531
  30
1637.4962624946
  0
VERTEX
  8
Unknown_Line_Type
  10
622213.2459789830
  20
7310668.0668156017
  30
1638.1131233796
  0
VERTEX
  8
Unknown_Line_Type
  10
622214.2774144828
  20
7310668.0324540362
  30
1638.2402187888
  0
VERTEX
  8
Unknown_Line_Type
  10
622215.4996227659
  20
7310668.1771569140
  30
1638.4377278577
  0
VERTEX
  8
Unknown_Line_Type
  10
622217.2825240059
  20
7310668.8643451799
  30
1639.0173457188
  0
VERTEX
  8
Unknown_Line_Type
  10
622218.9527709696
  20
7310668.8400934190
  30
1638.9804500723
  0
VERTEX
  8
Unknown_Line_Type
  10
622219.4805124227
  20
7310668.9309809282
  30
1639.0787667112
  0
VERTEX
  8
Unknown_Line_Type
  10
622219.9951311061
  20
7310669.3105843263
  30
1639.4883605949
  0
VERTEX
  8
Unknown_Line_Type
  10
622221.1679661847
  20
7310669.5779246185
  30
1639.9371011455
  0
VERTEX
  8
Unknown_Line_Type
  10
622222.1006817959
  20
7310669.5172085604
  30
1640.1399197601
  0
VERTEX
  8
Unknown_Line_Type
  10
622223.3387370360
  20
7310669.6478917887
  30
1640.5921284213
  0
VERTEX
  8
Unknown_Line_Type
  10
622224.2564627040
  20
7310669.6555633983
  30
1640.7479019344
  0
VERTEX
  8
Unknown_Line_Type
  10
622225.0306819346
  20
7310669.9073083121
  30
1641.0916987936
  0
VERTEX
  8
Unknown_Line_Type
  10
622225.8453196327
  20
7310670.1968317712
  30
1641.4590630889
  0
VERTEX
  8
Unknown_Line_Type
  10
622226.6520859054
  20
7310670.3878476284
  30
1641.5899510690
  0
VERTEX
  8
Unknown_Line_Type
  10
622227.2834836457
  20
7310670.6799180917
  30
1641.7938782573
  0
VERTEX
  8
Unknown_Line_Type
  10
622228.6088323054
  20
7310671.5632941592
  30
1642.3143573960
  0
VERTEX
  8
Unknown_Line_Type
  10
622229.5156617241
  20
7310671.9697659463
  30
1642.2959304848
  0
VERTEX
  8
Unknown_Line_Type
  10
622230.8568798124
  20
7310672.3303539688
  30
1641.9947593938
  0
VERTEX
  8
Unknown_Line_Type
  10
622231.2965419533
  20
7310672.8524416490
  30
1642.2696698859
  0
VERTEX
  8
Unknown_Line_Type
  10
622231.8752753229
  20
7310673.1570261316
  30
1642.2666118931
  0
VERTEX
  8
Unknown_Line_Type
  10
622232.8877534400
  20
7310673.6944737947
  30
1642.2041818838
  0
VERTEX
  8
Unknown_Line_Type
  10
622233.1094851487
  20
7310673.7477637660
  30
1642.1320090824
  0
VERTEX
  8
Unknown_Line_Type
  10
622234.4286022318
  20
7310674.4774316475
  30
1642.0059317693
  0
VERTEX
  8
Unknown_Line_Type
  10
622235.1559765899
  20
7310675.1586190900
  30
1642.0802865679
  0
VERTEX
  8
Unknown_Line_Type
  10
622235.9721429963
  20
7310675.8544860426
  30
1641.8808613738
  0
VERTEX
  8
Unknown_Line_Type
  10
622237.1552049974
  20
7310676.8075082777
  30
1641.5543160662
  0
VERTEX
  8
Unknown_Line_Type
  10
622238.0771457368
  20
7310677.5323058870
  30
1641.5559198920
  0
VERTEX
  8
Unknown_Line_Type
  10
622239.1138008990
  20
7310677.7557131657
  30
1641.0603168479
  0
VERTEX
  8
Unknown_Line_Type
  10
622239.7391687844
  20
7310678.5322865117
  30
1641.2146591824
  0
VERTEX
  8
Unknown_Line_Type
  10
622240.3776103966
  20
7310678.9278562730
  30
1641.0877311924
  0
VERTEX
  8
Unknown_Line_Type
  10
622241.6260395168
  20
7310679.7317117527
  30
1640.9122323803
  0
VERTEX
  8
Unknown_Line_Type
  10
622242.4445109757
  20
7310680.5309083993
  30
1640.8868625571
  0
VERTEX
  8
Unknown_Line_Type
  10
622243.1459441666
  20
7310681.0545579344
  30
1640.6841436850
  0
VERTEX
  8
Unknown_Line_Type
  10
622243.5471895596
  20
7310681.7087818868
  30
1640.7561943032
  0
VERTEX
  8
Unknown_Line_Type
  10
622244.2117249121
  20
7310682.6259598844
  30
1640.7175308234
  0
VERTEX
  8
Unknown_Line_Type
  10
622244.5154659557
  20
7310683.1587253418
  30
1640.7215802896
  0
VERTEX
  8
Unknown_Line_Type
  10
622245.7006118768
  20
7310684.6574043967
  30
1640.5323092638
  0
VERTEX
  8
Unknown_Line_Type
  10
622246.2851746606
  20
7310685.2750993585
  30
1640.3803408067
  0
VERTEX
  8
Unknown_Line_Type
  10
622247.1909590499
  20
7310686.8472790634
  30
1640.3144833192
  0
VERTEX
  8
Unknown_Line_Type
  10
622248.2805677849
  20
7310687.7611334939
  30
1639.8720516842
  0
VERTEX
  8
Unknown_Line_Type
  10
622248.8123010453
  20
7310688.0299687646
  30
1639.5909339178
  0
SEQEND
  8
Unknown_Line_Type
  0
POLYLINE
  8
Unknown_Line_Type
  66
1
  70
8
  0
VERTEX
  8
Unknown_Line_Type
  10
622221.9766207319
  20
7310662.5897093918
  30
1635.0051757923
  0
VERTEX
  8
Unknown_Line_Type
  10
622223.6472838615
  20
7310662.5179972127
  30
1635.4782358485
  0
VERTEX
  8
Unknown_Line_Type
  10
622224.5508848202
  20
7310662.5835863240
  30
1635.7548653904
  0
VERTEX
  8
Unknown_Line_Type
  10
622226.3118638349
  20
7310663.1056346027
  30
1636.4301961260
  0
VERTEX
  8
Unknown_Line_Type
  10
622227.6026555318
  20
7310663.4367350526
  30
1636.6906093030
  0
VERTEX
  8
Unknown_Line_Type
  10
622228.8309155047
  20
7310663.9073767606
  30
1636.9083046138
  0
VERTEX
  8
Unknown_Line_Type
  10
622229.6509763219
  20
7310664.0752548994
  30
1636.8639814457
  0
VERTEX
  8
Unknown_Line_Type
  10
622230.5840223010
  20
7310663.8667537766
  30
1636.5354479634
  0
VERTEX
  8
Unknown_Line_Type
  10
622232.1274161039
  20
7310664.2354418617
  30
1636.3200724398
  0
VERTEX
  8
Unknown_Line_Type
  10
622233.1640583574
  20
7310664.6579987602
  30
1636.2466859234
  0
VERTEX
  8
Unknown_Line_Type
  10
622234.2669041738
  20
7310664.2958613839
  30
1635.6592145551
  0
VERTEX
  8
Unknown_Line_Type
  10
622235.3979690654
  20
7310664.5275388621
  30
1635.4847871944
  0
VERTEX
  8
Unknown_Line_Type
  10
622235.8784336273
  20
7310664.4719454441
  30
1635.2923049098
  0
SEQEND
  8
Unknown_Line_Type
  0
POLYLINE
  8
Unknown_Line_Type
  66
1
  70
8
  0
VERTEX
  8
Unknown_Line_Type
  10
622225.5806143412
  20
7310664.8680295032
  30
1637.3365801666
  0
VERTEX
  8
Unknown_Line_Type
  10
622228.0994776663
  20
7310665.4597115330
  30
1637.9147181663
  0
VERTEX
  8
Unknown_Line_Type
  10
622229.1803437311
  20
7310665.3691348871
  30
1637.7330929868
  0
VERTEX
  8
Unknown_Line_Type
  10
622229.9648222786
  20
7310665.4812520742
  30
1637.6377062664
  0
VERTEX
  8
Unknown_Line_Type
  10
622230.8009212394
  20
7310665.2376669953
  30
1637.2974452853
  0
VERTEX
  8
Unknown_Line_Type
  10
622232.3657003348
  20
7310666.0851850864
  30
1637.3553797875
  0
VERTEX
  8
Unknown_Line_Type
  10
622233.6771541295
  20
7310666.6738966499
  30
1637.2742893856
  0
VERTEX
  8
Unknown_Line_Type
  10
622235.1838389023
  20
7310666.7372930665
  30
1636.8451418050
  0
VERTEX
  8
Unknown_Line_Type
  10
622235.7704366171
  20
7310666.8733542226
  30
1636.7240331434
  0
VERTEX
  8
Unknown_Line_Type
  10
622237.2707958388
  20
7310667.9718632214
  30
1636.6590664369
  0
VERTEX
  8
Unknown_Line_Type
  10
622238.5332968953
  20
7310668.0193886831
  30
1636.1002469541
  0
VERTEX
  8
Unknown_Line_Type
  10
622240.2008848126
  20
7310668.9793524807
  30
1635.7630417174
  0
VERTEX
  8
Unknown_Line_Type
  10
622241.5869578956
  20
7310669.8370481338
  30
1635.5231582688
  0
VERTEX
  8
Unknown_Line_Type
  10
622242.6577677114
  20
7310669.9126060922
  30
1634.9971144964
  0
SEQEND
  8
Unknown_Line_Type
  0
POLYLINE
  8
Unknown_Line_Type
  66
1
  70
8
  0
VERTEX
  8
Unknown_Line_Type
  10
622107.4554569133
  20
7310830.7088074172
  30
1715.3057553864
  0
VERTEX
  8
Unknown_Line_Type
  10
622108.1115132863
  20
7310831.5089301690
  30
1715.8360561747
  0
VERTEX
  8
Unknown_Line_Type
  10
622109.2197474776
  20
7310832.9764275160
  30
1716.6766925909
  0
VERTEX
  8
Unknown_Line_Type
  10
622111.0197901257
  20
7310832.8563534208
  30
1716.3817472087
  0
VERTEX
  8
Unknown_Line_Type
  10
622111.4448396217
  20
7310834.6394869797
  30
1717.4991870050
  0
VERTEX
  8
Unknown_Line_Type
  10
622112.4905100658
  20
7310835.9220401300
  30
1718.1982519779
  0
VERTEX
  8
Unknown_Line_Type
  10
622113.6383189882
  20
7310837.0032818336
  30
1718.7827747611
  0
VERTEX
  8
Unknown_Line_Type
  10
622114.2904921714
  20
7310837.1664892780
  30
1718.8114566370
  0
VERTEX
  8
Unknown_Line_Type
  10
622115.3125082373
  20
7310838.5227478240
  30
1719.7086214599
  0
VERTEX
  8
Unknown_Line_Type
  10
622116.0263120600
  20
7310840.3175407331
  30
1720.9509002109
  0
VERTEX
  8
Unknown_Line_Type
  10
622116.7842915310
  20
7310841.1311807875
  30
1721.3791534283
  0
VERTEX
  8
Unknown_Line_Type
  10
622118.5058124964
  20
7310840.9728725273
  30
1720.8825400235
  0
VERTEX
  8
Unknown_Line_Type
  10
622118.8701151063
  20
7310840.9615165982
  30
1720.7915982957
  0
VERTEX
  8
Unknown_Line_Type
  10
622119.3540094646
  20
7310841.2472105967
  30
1720.8914448463
  0
VERTEX
  8
Unknown_Line_Type
  10
622119.6236566071
  20
7310842.3389022406
  30
1721.6278368627
  0
VERTEX
  8
Unknown_Line_Type
  10
622120.3541424982
  20
7310843.4360154383
  30
1722.2639192554
  0
VERTEX
  8
Unknown_Line_Type
  10
622122.0263550024
  20
7310844.8331843950
  30
1722.9460630026
  0
VERTEX
  8
Unknown_Line_Type
  10
622122.9197254786
  20
7310846.0369572872
  30
1723.6653406667
  0
VERTEX
  8
Unknown_Line_Type
  10
622123.5182198506
  20
7310846.5260849399
  30
1723.9049873787
  0
VERTEX
  8
Unknown_Line_Type
  10
622124.6340609338
  20
7310846.5265366146
  30
1723.6721740101
  0
VERTEX
  8
Unknown_Line_Type
  10
622126.5118973262
  20
7310845.8073730888
  30
1722.7850064818
  0
VERTEX
  8
Unknown_Line_Type
  10
622127.8779232809
  20
7310846.0089502297
  30
1722.6290568398
  0
VERTEX
  8
Unknown_Line_Type
  10
622129.2758541907
  20
7310845.6474918183
  30
1722.0143843367
  0
VERTEX
  8
Unknown_Line_Type
  10
622130.3956317044
  20
7310846.0309321694
  30
1721.8985451718
  0
VERTEX
  8
Unknown_Line_Type
  10
622131.0350626824
  20
7310846.2635395750
  30
1721.8331022517
  0
VERTEX
  8
Unknown_Line_Type
  10
622133.0818869050
  20
7310847.2210495099
  30
1721.7287964188
  0
VERTEX
  8
Unknown_Line_Type
  10
622133.4074300181
  20
7310847.9573932197
  30
1722.0101809280
  0
VERTEX
  8
Unknown_Line_Type
  10
622134.0027817482
  20
7310848.2799298754
  30
1721.9545593049
  0
VERTEX
  8
Unknown_Line_Type
  10
622135.0251158770
  20
7310848.2699947543
  30
1721.5473635249
  0
VERTEX
  8
Unknown_Line_Type
  10
622135.6543732670
  20
7310847.9175279643
  30
1721.1242060513
  0
VERTEX
  8
Unknown_Line_Type
  10
622136.1480665559
  20
7310848.2399070999
  30
1721.0810671439
  0
VERTEX
  8
Unknown_Line_Type
  10
622137.1508132061
  20
7310848.2564967312
  30
1720.6797573935
  0
VERTEX
  8
Unknown_Line_Type
  10
622137.5242549124
  20
7310850.1550679347
  30
1721.3418366229
  0
SEQEND
  8
Unknown_Line_Type
  0
POLYLINE
  8
Unknown_Line_Type
  66
1
  70
8
  0
VERTEX
  8
Unknown_Line_Type
  10
622095.8605369472
  20
7310765.3149005082
  30
1669.1340527109
  0
VERTEX
  8
Unknown_Line_Type
  10
622097.1180728340
  20
7310766.2979718149
  30
1670.0439231143
  0
VERTEX
  8
Unknown_Line_Type
  10
622102.1494337674
  20
7310765.5325261839
  30
1670.7730368219
  0
VERTEX
  8
Unknown_Line_Type
  10
622104.3260275247
  20
7310767.2668760382
  30
1671.8225718793
  0
VERTEX
  8
Unknown_Line_Type
  10
622108.5656683836
  20
7310766.4132845756
  30
1671.6757858706
  0
VERTEX
  8
Unknown_Line_Type
  10
622111.9262783148
  20
7310767.4456072962
  30
1672.5097241730
  0
VERTEX
  8
Unknown_Line_Type
  10
622114.3913804120
  20
7310768.8684397778
  30
1673.7651477304
  0
VERTEX
  8
Unknown_Line_Type
  10
622118.7977902745
  20
7310769.8123396421
  30
1675.3052709776
  0
VERTEX
  8
Unknown_Line_Type
  10
622121.0000059817
  20
7310771.8084323760
  30
1676.7367772112
  0
VERTEX
  8
Unknown_Line_Type
  10
622123.4921852537
  20
7310772.1929340418
  30
1676.9544808275
  0
VERTEX
  8
Unknown_Line_Type
  10
622125.2879753765
  20
7310772.9213654520
  30
1677.4955981358
  0
VERTEX
  8
Unknown_Line_Type
  10
622128.9306033517
  20
7310773.3740079394
  30
1678.0846730741
  0
VERTEX
  8
Unknown_Line_Type
  10
622131.4026538036
  20
7310774.3525824249
  30
1678.8963054087
  0
SEQEND
  8
Unknown_Line_Type
  0
POLYLINE
  8
Unknown_Line_Type
  66
1
  70
8
  0
VERTEX
  8
Unknown_Line_Type
  10
622199.5788419535
  20
7310793.8472494278
  30
1667.6132832385
  0
VERTEX
  8
Unknown_Line_Type
  10
622200.4721004713
  20
7310795.3976938240
  30
1667.6863801204
  0
VERTEX
  8
Unknown_Line_Type
  10
622202.1494803201
  20
7310798.2664258890
  30
1667.5647875674
  0
VERTEX
  8
Unknown_Line_Type
  10
622204.4246150926
  20
7310801.3001333009
  30
1667.3245073343
  0
VERTEX
  8
Unknown_Line_Type
  10
622206.9418165362
  20
7310803.7935877386
  30
1666.8248172785
  0
VERTEX
  8
Unknown_Line_Type
  10
622209.1959596184
  20
7310806.2420292413
  30
1666.0444402676
  0
VERTEX
  8
Unknown_Line_Type
  10
622211.8086566267
  20
7310808.6756747020
  30
1664.4804896759
  0
VERTEX
  8
Unknown_Line_Type
  10
622213.9324615665
  20
7310811.1498486139
  30
1662.9928975105
  0
VERTEX
  8
Unknown_Line_Type
  10
622214.1241290440
  20
7310813.6405847352
  30
1663.5536981173
  0
VERTEX
  8
Unknown_Line_Type
  10
622216.0958470391
  20
7310815.1500047985
  30
1662.7441179035
  0
VERTEX
  8
Unknown_Line_Type
  10
622218.2700086609
  20
7310816.0757526420
  30
1662.5448151709
  0
VERTEX
  8
Unknown_Line_Type
  10
622220.5423222078
  20
7310816.6887192782
  30
1662.5807457536
  0
SEQEND
  8
Unknown_Line_Type
  0
POLYLINE
  8
Unknown_Line_Type
  66
1
  70
8
  0
VERTEX
  8
Unknown_Line_Type
  10
622156.6121745647
  20
7310795.9709827444
  30
1692.6939433698
  0
VERTEX
  8
Unknown_Line_Type
  10
622157.1909586903
  20
7310796.3611609582
  30
1692.8316125413
  0
VERTEX
  8
Unknown_Line_Type
  10
622157.7573251129
  20
7310797.5452915058
  30
1693.5247337382
  0
VERTEX
  8
Unknown_Line_Type
  10
622158.6586458343
  20
7310798.1987939160
  30
1693.7274064733
  0
VERTEX
  8
Unknown_Line_Type
  10
622159.4634263114
  20
7310798.2268621977
  30
1693.5373845878
  0
VERTEX
  8
Unknown_Line_Type
  10
622161.5092001216
  20
7310799.3387442306
  30
1693.6925007157
  0
VERTEX
  8
Unknown_Line_Type
  10
622163.2555517494
  20
7310800.2465580422
  30
1693.6195074021
  0
VERTEX
  8
Unknown_Line_Type
  10
622163.4278299835
  20
7310801.3934418093
  30
1694.0796891005
  0
VERTEX
  8
Unknown_Line_Type
  10
622165.3937303646
  20
7310801.7238478456
  30
1693.3671465862
  0
VERTEX
  8
Unknown_Line_Type
  10
622166.3492730525
  20
7310803.2618299546
  30
1693.3157318363
  0
VERTEX
  8
Unknown_Line_Type
  10
622167.2948575211
  20
7310804.6028432772
  30
1692.9495328504
  0
VERTEX
  8
Unknown_Line_Type
  10
622167.2618632686
  20
7310806.4790024776
  30
1693.0877067894
  0
VERTEX
  8
Unknown_Line_Type
  10
622167.7399839582
  20
7310808.2754443521
  30
1693.0501674027
  0
VERTEX
  8
Unknown_Line_Type
  10
622168.6903904192
  20
7310808.1377584748
  30
1692.3828956051
  0
VERTEX
  8
Unknown_Line_Type
  10
622168.9419710711
  20
7310809.6199427713
  30
1692.5946474399
  0
VERTEX
  8
Unknown_Line_Type
  10
622169.9093083043
  20
7310811.1426071879
  30
1692.3842591456
  0
VERTEX
  8
Unknown_Line_Type
  10
622171.6086788217
  20
7310810.8952211346
  30
1691.2231307943
  0
VERTEX
  8
Unknown_Line_Type
  10
622172.3672467839
  20
7310812.9571163952
  30
1690.9336706015
  0
VERTEX
  8
Unknown_Line_Type
  10
622172.8631299834
  20
7310814.4446310345
  30
1690.8975774812
  0
VERTEX
  8
Unknown_Line_Type
  10
622173.5097133485
  20
7310815.4131333437
  30
1690.6269272907
  0
VERTEX
  8
Unknown_Line_Type
  10
622174.8335641535
  20
7310816.5216810983
  30
1689.8611178918
  0
VERTEX
  8
Unknown_Line_Type
  10
622175.8761244076
  20
7310817.6575039811
  30
1689.4206413607
  0
VERTEX
  8
Unknown_Line_Type
  10
622177.3234709289
  20
7310817.5510963183
  30
1688.4423567318
  0
VERTEX
  8
Unknown_Line_Type
  10
622178.2838032435
  20
7310818.3405141421
  30
1687.9356376623
  0
VERTEX
  8
Unknown_Line_Type
  10
622179.1168969745
  20
7310819.6309367651
  30
1687.5801406927
  0
VERTEX
  8
Unknown_Line_Type
  10
622180.9908623948
  20
7310820.5274043474
  30
1686.5093351064
  0
SEQEND
  8
Unknown_Line_Type
  0
POLYLINE
  8
Unknown_Line_Type
  66
1
  70
8
  0
VERTEX
  8
Unknown_Line_Type
  10
622345.8023909128
  20
7310574.1155935423
  30
1542.8674066175
  0
VERTEX
  8
Unknown_Line_Type
  10
622347.0183005465
  20
7310575.1851705052
  30
1543.3426924360
  0
VERTEX
  8
Unknown_Line_Type
  10
622347.7920061013
  20
7310575.8959917724
  30
1544.1475019491
  0
VERTEX
  8
Unknown_Line_Type
  10
622349.6422769018
  20
7310577.3131698063
  30
1544.2789428250
  0
VERTEX
  8
Unknown_Line_Type
  10
622351.4322893107
  20
7310578.9398517478
  30
1545.4910791250
  0
VERTEX
  8
Unknown_Line_Type
  10
622352.9050710301
  20
7310580.7914133146
  30
1546.1987729796
  0
VERTEX
  8
Unknown_Line_Type
  10
622353.7169550586
  20
7310582.0923541225
  30
1546.8960775709
  0
VERTEX
  8
Unknown_Line_Type
  10
622354.6948655192
  20
7310583.3826301126
  30
1546.3201943610
  0
VERTEX
  8
Unknown_Line_Type
  10
622356.1695656169
  20
7310584.7974249432
  30
1547.0810689462
  0
VERTEX
  8
Unknown_Line_Type
  10
622358.4886951560
  20
7310585.5929738749
  30
1547.7169272212
  0
VERTEX
  8
Unknown_Line_Type
  10
622359.8777437216
  20
7310586.2346172594
  30
1547.6994159259
  0
VERTEX
  8
Unknown_Line_Type
  10
622361.6487488317
  20
7310587.4004329462
  30
1548.1192263409
  0
VERTEX
  8
Unknown_Line_Type
  10
622362.8818728256
  20
7310588.6704750881
  30
1547.3165780040
  0
VERTEX
  8
Unknown_Line_Type
  10
622364.0062213019
  20
7310590.5269133421
  30
1547.0108240236
  0
VERTEX
  8
Unknown_Line_Type
  10
622364.6918499856
  20
7310592.3082944248
  30
1547.7011355352
  0
VERTEX
  8
Unknown_Line_Type
  10
622365.9101825762
  20
7310593.7192802690
  30
1547.9181677667
  0
VERTEX
  8
Unknown_Line_Type
  10
622367.0919037196
  20
7310594.8492400395
  30
1548.4939272971
  0
VERTEX
  8
Unknown_Line_Type
  10
622368.6009973177
  20
7310596.1189271398
  30
1548.3136201354
  0
VERTEX
  8
Unknown_Line_Type
  10
622369.6196341375
  20
7310596.6843790347
  30
1548.7302428589
  0
VERTEX
  8
Unknown_Line_Type
  10
622371.2014875249
  20
7310597.2046285830
  30
1548.5729867330
  0
VERTEX
  8
Unknown_Line_Type
  10
622372.0893137421
  20
7310597.6393465661
  30
1549.3729284798
  0
SEQEND
  8
Unknown_Line_Type
  0
ENDSEC
  0
EOF
