  0
SECTION
  2
HEADER
  9
$ACADVER
  1
AC1009
  9
$LIMMIN
  10
622000.9810113892
  20
7310574.1155935423
  9
$LIMMAX
  10
622372.0893137421
  20
7310900.6803020258
  9
$EXTMIN
  10
622000.9810113892
  20
7310574.1155935423
  9
$EXTMAX
  10
622372.0893137421
  20
7310900.6803020258
  999
Created by Agisoft PhotoScan
  0
ENDSEC
  0
SECTION
  2
ENTITIES
  0
POLYLINE
  8
Unknown_Line_Type
  66
1
  70
8
  0
VERTEX
  8
Unknown_Line_Type
  10
622175.6587107157
  20
7310655.1402382292
  30
1629.5274350218
  0
VERTEX
  8
Unknown_Line_Type
  10
622177.1974115257
  20
7310656.0831602626
  30
1630.4171960837
  0
VERTEX
  8
Unknown_Line_Type
  10
622179.1357583256
  20
7310656.6468535736
  30
1630.9848328536
  0
VERTEX
  8
Unknown_Line_Type
  10
622182.0949226917
  20
7310656.4100670340
  30
1631.0799599887
  0
VERTEX
  8
Unknown_Line_Type
  10
622185.4368857550
  20
7310657.8000980038
  30
1632.4035175118
  0
VERTEX
  8
Unknown_Line_Type
  10
622188.3526707080
  20
7310658.4450801881
  30
1633.1508752507
  0
VERTEX
  8
Unknown_Line_Type
  10
622191.9669988945
  20
7310658.4796418073
  30
1633.5046499686
  0
VERTEX
  8
Unknown_Line_Type
  10
622196.3316533545
  20
7310659.5258978205
  30
1634.6699515538
  0
VERTEX
  8
Unknown_Line_Type
  10
622199.1110421091
  20
7310659.6862974679
  30
1634.7955507914
  0
VERTEX
  8
Unknown_Line_Type
  10
622201.8819858504
  20
7310660.3467821293
  30
1634.9447083865
  0
VERTEX
  8
Unknown_Line_Type
  10
622203.6564273469
  20
7310662.3943575863
  30
1635.8566972835
  0
VERTEX
  8
Unknown_Line_Type
  10
622205.0262628536
  20
7310663.6873207726
  30
1636.2061535874
  0
VERTEX
  8
Unknown_Line_Type
  10
622207.2117378080
  20
7310664.6746467305
  30
1636.0984803010
  0
VERTEX
  8
Unknown_Line_Type
  10
622209.2552898373
  20
7310665.6750880983
  30
1636.3490601432
  0
VERTEX
  8
Unknown_Line_Type
  10
622212.2973057182
  20
7310666.6899771281
  30
1636.7210694423
  0
VERTEX
  8
Unknown_Line_Type
  10
622215.7245139638
  20
7310667.2762339702
  30
1637.3091906067
  0
VERTEX
  8
Unknown_Line_Type
  10
622217.0589364619
  20
7310667.4787055310
  30
1637.5757566983
  0
VERTEX
  8
Unknown_Line_Type
  10
622219.8146763322
  20
7310667.5653490163
  30
1637.9617358443
  0
VERTEX
  8
Unknown_Line_Type
  10
622221.6963859969
  20
7310667.6571675632
  30
1638.4640534309
  0
VERTEX
  8
Unknown_Line_Type
  10
622222.9949751044
  20
7310668.0413408522
  30
1638.9772911414
  0
VERTEX
  8
Unknown_Line_Type
  10
622223.7107275311
  20
7310668.1409100275
  30
1639.1868466361
  0
SEQEND
  8
Unknown_Line_Type
  0
POLYLINE
  8
Unknown_Line_Type
  66
1
  70
8
  0
VERTEX
  8
Unknown_Line_Type
  10
622236.9010470534
  20
7310664.7506932449
  30
1635.1230489674
  0
VERTEX
  8
Unknown_Line_Type
  10
622240.6956446788
  20
7310666.8419017754
  30
1634.6597241566
  0
VERTEX
  8
Unknown_Line_Type
  10
622243.5936340080
  20
7310669.4383867308
  30
1634.3135656944
  0
VERTEX
  8
Unknown_Line_Type
  10
622247.9902351496
  20
7310672.9273341224
  30
1633.6686099047
  0
VERTEX
  8
Unknown_Line_Type
  10
622249.8810530736
  20
7310674.7782570319
  30
1633.3395762398
  0
VERTEX
  8
Unknown_Line_Type
  10
622253.2381277368
  20
7310676.0634018285
  30
1632.7555336994
  0
VERTEX
  8
Unknown_Line_Type
  10
622255.4519088391
  20
7310678.5965156136
  30
1632.0969439009
  0
VERTEX
  8
Unknown_Line_Type
  10
622257.7528155971
  20
7310681.5897719236
  30
1631.6059609701
  0
VERTEX
  8
Unknown_Line_Type
  10
622260.1443848241
  20
7310683.6258051191
  30
1630.9091794113
  0
VERTEX
  8
Unknown_Line_Type
  10
622261.9550554969
  20
7310687.0782760819
  30
1630.0649965173
  0
VERTEX
  8
Unknown_Line_Type
  10
622263.2074419479
  20
7310689.1570113720
  30
1629.7200803645
  0
VERTEX
  8
Unknown_Line_Type
  10
622264.7389260853
  20
7310692.8656761181
  30
1629.3147981303
  0
VERTEX
  8
Unknown_Line_Type
  10
622266.5281772049
  20
7310696.7875156645
  30
1628.4785913869
  0
VERTEX
  8
Unknown_Line_Type
  10
622267.7710395715
  20
7310698.6101664826
  30
1627.7165662121
  0
VERTEX
  8
Unknown_Line_Type
  10
622268.4260985768
  20
7310701.4799554311
  30
1627.3261747606
  0
VERTEX
  8
Unknown_Line_Type
  10
622269.8558962725
  20
7310704.8538692240
  30
1626.7857058170
  0
VERTEX
  8
Unknown_Line_Type
  10
622271.6540925013
  20
7310709.6040452626
  30
1625.6221664574
  0
VERTEX
  8
Unknown_Line_Type
  10
622272.7583564394
  20
7310712.6703744866
  30
1624.7987164802
  0
VERTEX
  8
Unknown_Line_Type
  10
622274.5778796671
  20
7310713.1246073246
  30
1624.8866591867
  0
SEQEND
  8
Unknown_Line_Type
  0
POLYLINE
  8
Unknown_Line_Type
  66
1
  70
8
  0
VERTEX
  8
Unknown_Line_Type
  10
622275.3781613722
  20
7310720.2004088685
  30
1622.2310416906
  0
VERTEX
  8
Unknown_Line_Type
  10
622275.1508899092
  20
7310722.4266960043
  30
1622.5556686013
  0
VERTEX
  8
Unknown_Line_Type
  10
622276.6535883918
  20
7310725.8604920935
  30
1622.1473206044
  0
VERTEX
  8
Unknown_Line_Type
  10
622276.7745622665
  20
7310727.0671029165
  30
1622.5278750677
  0
VERTEX
  8
Unknown_Line_Type
  10
622278.4159569633
  20
7310729.5261125769
  30
1622.3106804147
  0
VERTEX
  8
Unknown_Line_Type
  10
622281.0839569927
  20
7310732.6631278694
  30
1621.0777793486
  0
VERTEX
  8
Unknown_Line_Type
  10
622282.6724027740
  20
7310736.0796554051
  30
1619.8041422266
  0
VERTEX
  8
Unknown_Line_Type
  10
622283.2891116669
  20
7310738.1118638264
  30
1619.0014151721
  0
VERTEX
  8
Unknown_Line_Type
  10
622285.2011483747
  20
7310740.0594580295
  30
1617.3708995031
  0
VERTEX
  8
Unknown_Line_Type
  10
622285.3126241377
  20
7310742.0965075660
  30
1616.5497621778
  0
VERTEX
  8
Unknown_Line_Type
  10
622288.0173241708
  20
7310743.8196971444
  30
1614.6664132352
  0
SEQEND
  8
Unknown_Line_Type
  0
POLYLINE
  8
Unknown_Line_Type
  66
1
  70
8
  0
VERTEX
  8
Unknown_Line_Type
  10
622138.8429639761
  20
7310780.2018594788
  30
1682.8844739175
  0
VERTEX
  8
Unknown_Line_Type
  10
622139.7580840578
  20
7310781.0441360418
  30
1683.4695656448
  0
VERTEX
  8
Unknown_Line_Type
  10
622141.2141127823
  20
7310781.2056871094
  30
1683.5334339851
  0
VERTEX
  8
Unknown_Line_Type
  10
622142.6025410279
  20
7310781.5344904922
  30
1683.6976864020
  0
VERTEX
  8
Unknown_Line_Type
  10
622144.2010078270
  20
7310782.3940738086
  30
1684.3527078329
  0
VERTEX
  8
Unknown_Line_Type
  10
622145.5106800157
  20
7310782.7443294711
  30
1684.5744013181
  0
VERTEX
  8
Unknown_Line_Type
  10
622146.7526057267
  20
7310783.8129253909
  30
1685.3818233357
  0
VERTEX
  8
Unknown_Line_Type
  10
622148.4174043783
  20
7310783.3913394418
  30
1684.9041864867
  0
VERTEX
  8
Unknown_Line_Type
  10
622150.0377623724
  20
7310783.6171071474
  30
1684.8362714611
  0
VERTEX
  8
Unknown_Line_Type
  10
622152.1081046362
  20
7310784.2706739213
  30
1685.0275732388
  0
VERTEX
  8
Unknown_Line_Type
  10
622153.5411116228
  20
7310785.7084496468
  30
1685.6622283000
  0
VERTEX
  8
Unknown_Line_Type
  10
622154.3401070569
  20
7310787.0362138860
  30
1686.4280303966
  0
VERTEX
  8
Unknown_Line_Type
  10
622156.1551631426
  20
7310787.6308238804
  30
1686.3745894481
  0
VERTEX
  8
Unknown_Line_Type
  10
622158.6421245309
  20
7310788.9805695042
  30
1686.7269438219
  0
VERTEX
  8
Unknown_Line_Type
  10
622160.2693404075
  20
7310789.7162576523
  30
1686.8384188308
  0
VERTEX
  8
Unknown_Line_Type
  10
622162.6253555398
  20
7310790.8616627343
  30
1686.9678763278
  0
VERTEX
  8
Unknown_Line_Type
  10
622164.2263793281
  20
7310792.0451883189
  30
1687.3304304982
  0
VERTEX
  8
Unknown_Line_Type
  10
622166.0861382771
  20
7310793.4617614709
  30
1687.9765571208
  0
VERTEX
  8
Unknown_Line_Type
  10
622167.9630303294
  20
7310795.1919943560
  30
1687.9631861735
  0
VERTEX
  8
Unknown_Line_Type
  10
622169.4514640751
  20
7310797.0810559476
  30
1687.9251327697
  0
VERTEX
  8
Unknown_Line_Type
  10
622171.5426936944
  20
7310800.3579988703
  30
1687.8419142196
  0
VERTEX
  8
Unknown_Line_Type
  10
622173.4612871634
  20
7310803.8006763440
  30
1687.5499588584
  0
VERTEX
  8
Unknown_Line_Type
  10
622174.3971447545
  20
7310806.0211770069
  30
1687.9675701287
  0
VERTEX
  8
Unknown_Line_Type
  10
622174.9700201233
  20
7310807.7294241097
  30
1688.1348351106
  0
SEQEND
  8
Unknown_Line_Type
  0
POLYLINE
  8
Unknown_Line_Type
  66
1
  70
8
  0
VERTEX
  8
Unknown_Line_Type
  10
622190.5758365884
  20
7310684.8532654475
  30
1657.0079920443
  0
VERTEX
  8
Unknown_Line_Type
  10
622194.1999948323
  20
7310686.6847010767
  30
1658.1190180677
  0
VERTEX
  8
Unknown_Line_Type
  10
622195.5210891314
  20
7310688.1477089208
  30
1658.5807721470
  0
VERTEX
  8
Unknown_Line_Type
  10
622198.9302849006
  20
7310688.7875039484
  30
1659.3999502534
  0
VERTEX
  8
Unknown_Line_Type
  10
622201.8913796858
  20
7310689.0759488419
  30
1659.8293608341
  0
VERTEX
  8
Unknown_Line_Type
  10
622204.3681847906
  20
7310690.1603404917
  30
1660.2465577781
  0
VERTEX
  8
Unknown_Line_Type
  10
622206.7659030630
  20
7310693.0245517818
  30
1660.7350760297
  0
VERTEX
  8
Unknown_Line_Type
  10
622210.6803688903
  20
7310692.8894047122
  30
1661.2021295657
  0
VERTEX
  8
Unknown_Line_Type
  10
622213.9210094424
  20
7310692.0209431760
  30
1661.4385078372
  0
VERTEX
  8
Unknown_Line_Type
  10
622216.4682378845
  20
7310692.9517518263
  30
1661.5948400114
  0
SEQEND
  8
Unknown_Line_Type
  0
POLYLINE
  8
Unknown_Line_Type
  66
1
  70
8
  0
VERTEX
  8
Unknown_Line_Type
  10
622115.2807817723
  20
7310750.2142346632
  30
1660.9820628741
  0
VERTEX
  8
Unknown_Line_Type
  10
622116.7623423580
  20
7310750.3437431995
  30
1661.0724855061
  0
VERTEX
  8
Unknown_Line_Type
  10
622117.9329484792
  20
7310751.5367982117
  30
1662.1517826696
  0
VERTEX
  8
Unknown_Line_Type
  10
622120.4948875553
  20
7310752.0866200505
  30
1662.7651780873
  0
VERTEX
  8
Unknown_Line_Type
  10
622121.3872861536
  20
7310753.0953329522
  30
1663.5544996372
  0
VERTEX
  8
Unknown_Line_Type
  10
622123.2303675357
  20
7310754.3506200016
  30
1664.7685817979
  0
VERTEX
  8
Unknown_Line_Type
  10
622125.1174795778
  20
7310754.0475394512
  30
1665.0666535794
  0
VERTEX
  8
Unknown_Line_Type
  10
622127.4378511517
  20
7310754.1359438831
  30
1665.3105276903
  0
VERTEX
  8
Unknown_Line_Type
  10
622129.5102472574
  20
7310754.9619687526
  30
1666.0407074970
  0
VERTEX
  8
Unknown_Line_Type
  10
622132.3240679900
  20
7310755.0371481422
  30
1666.7330829168
  0
VERTEX
  8
Unknown_Line_Type
  10
622135.6925061481
  20
7310756.0477976501
  30
1667.9613977492
  0
VERTEX
  8
Unknown_Line_Type
  10
622137.9469719417
  20
7310757.0685682558
  30
1668.9672231321
  0
VERTEX
  8
Unknown_Line_Type
  10
622141.2890807920
  20
7310758.4136772910
  30
1670.1948800684
  0
VERTEX
  8
Unknown_Line_Type
  10
622142.8424650410
  20
7310758.9374390952
  30
1670.5826706011
  0
VERTEX
  8
Unknown_Line_Type
  10
622145.7318068524
  20
7310759.4893460590
  30
1670.9403788829
  0
VERTEX
  8
Unknown_Line_Type
  10
622147.6254034969
  20
7310759.8013306912
  30
1671.0022358093
  0
VERTEX
  8
Unknown_Line_Type
  10
622149.5790877044
  20
7310761.1605521105
  30
1671.8162114389
  0
SEQEND
  8
Unknown_Line_Type
  0
POLYLINE
  8
Unknown_Line_Type
  66
1
  70
8
  0
VERTEX
  8
Unknown_Line_Type
  10
622045.3279413014
  20
7310829.5847962229
  30
1714.7298520695
  0
VERTEX
  8
Unknown_Line_Type
  10
622049.8983109441
  20
7310829.3319614762
  30
1714.9221377129
  0
VERTEX
  8
Unknown_Line_Type
  10
622055.2950602368
  20
7310829.1017829776
  30
1715.1838338394
  0
VERTEX
  8
Unknown_Line_Type
  10
622059.8817210291
  20
7310827.2620257242
  30
1714.6385440444
  0
VERTEX
  8
Unknown_Line_Type
  10
622064.7630751678
  20
7310827.0623944663
  30
1715.4234992709
  0
VERTEX
  8
Unknown_Line_Type
  10
622067.8004910029
  20
7310827.6293989643
  30
1715.4391092791
  0
VERTEX
  8
Unknown_Line_Type
  10
622072.0608969074
  20
7310827.5658010058
  30
1714.6479735109
  0
VERTEX
  8
Unknown_Line_Type
  10
622074.8480683981
  20
7310827.7785809562
  30
1714.6750403637
  0
VERTEX
  8
Unknown_Line_Type
  10
622078.0577392227
  20
7310828.5861997735
  30
1715.1561262117
  0
VERTEX
  8
Unknown_Line_Type
  10
622082.0411357494
  20
7310830.3802098241
  30
1716.3826571474
  0
VERTEX
  8
Unknown_Line_Type
  10
622085.5964986084
  20
7310832.8606727198
  30
1718.1583768438
  0
VERTEX
  8
Unknown_Line_Type
  10
622088.2653546331
  20
7310833.1218203632
  30
1718.2390210895
  0
VERTEX
  8
Unknown_Line_Type
  10
622091.0686443768
  20
7310834.5853203302
  30
1719.1375362072
  0
VERTEX
  8
Unknown_Line_Type
  10
622093.9257272168
  20
7310835.8411685061
  30
1719.8602682758
  0
VERTEX
  8
Unknown_Line_Type
  10
622095.5884953669
  20
7310837.6827162690
  30
1721.2195348397
  0
VERTEX
  8
Unknown_Line_Type
  10
622097.7278850436
  20
7310839.7102110572
  30
1722.5315444122
  0
VERTEX
  8
Unknown_Line_Type
  10
622097.5928042311
  20
7310843.9900393849
  30
1726.1431238338
  0
VERTEX
  8
Unknown_Line_Type
  10
622100.4678505588
  20
7310846.1873123124
  30
1727.3057001965
  0
VERTEX
  8
Unknown_Line_Type
  10
622104.9493860807
  20
7310846.3877188303
  30
1726.3295618736
  0
VERTEX
  8
Unknown_Line_Type
  10
622109.0891926516
  20
7310848.5751231872
  30
1727.6178272147
  0
VERTEX
  8
Unknown_Line_Type
  10
622109.8713208465
  20
7310851.0269000158
  30
1729.7720178834
  0
VERTEX
  8
Unknown_Line_Type
  10
622112.2263979059
  20
7310851.7387479628
  30
1730.1125442340
  0
VERTEX
  8
Unknown_Line_Type
  10
622114.1189242436
  20
7310853.0327077881
  30
1730.8683886830
  0
SEQEND
  8
Unknown_Line_Type
  0
POLYLINE
  8
Unknown_Line_Type
  66
1
  70
8
  0
VERTEX
  8
Unknown_Line_Type
  10
622133.1285711309
  20
7310882.3419649806
  30
1745.6209504922
  0
VERTEX
  8
Unknown_Line_Type
  10
622130.5227672665
  20
7310880.4245075658
  30
1744.7426082289
  0
VERTEX
  8
Unknown_Line_Type
  10
622129.3293290560
  20
7310880.2018356323
  30
1744.9177872234
  0
VERTEX
  8
Unknown_Line_Type
  10
622128.2392855092
  20
7310879.4482712001
  30
1744.6225912828
  0
VERTEX
  8
Unknown_Line_Type
  10
622127.5179753036
  20
7310878.3209956829
  30
1743.9100534629
  0
VERTEX
  8
Unknown_Line_Type
  10
622125.5686681148
  20
7310876.4453404061
  30
1743.0856861919
  0
SEQEND
  8
Unknown_Line_Type
  0
POLYLINE
  8
Unknown_Line_Type
  66
1
  70
8
  0
VERTEX
  8
Unknown_Line_Type
  10
622060.6127784641
  20
7310843.7084397078
  30
1736.3894414262
  0
VERTEX
  8
Unknown_Line_Type
  10
622062.4744899003
  20
7310843.7275957223
  30
1735.4682095017
  0
VERTEX
  8
Unknown_Line_Type
  10
622063.0735856183
  20
7310843.9410489509
  30
1735.3999011345
  0
VERTEX
  8
Unknown_Line_Type
  10
622063.6722531149
  20
7310844.1547217146
  30
1735.3318065416
  0
VERTEX
  8
Unknown_Line_Type
  10
622064.0521421604
  20
7310844.4965649042
  30
1735.4683541085
  0
VERTEX
  8
Unknown_Line_Type
  10
622065.4130549005
  20
7310845.3491249960
  30
1735.4218254306
  0
VERTEX
  8
Unknown_Line_Type
  10
622065.5818857872
  20
7310845.4659269173
  30
1735.4192837556
  0
VERTEX
  8
Unknown_Line_Type
  10
622065.8872059063
  20
7310845.9745099302
  30
1735.7348892569
  0
VERTEX
  8
Unknown_Line_Type
  10
622066.3486407986
  20
7310846.3824441722
  30
1735.8202766179
  0
VERTEX
  8
Unknown_Line_Type
  10
622066.9659671123
  20
7310846.7010215987
  30
1735.7567287520
  0
VERTEX
  8
Unknown_Line_Type
  10
622067.5771725131
  20
7310847.4064917099
  30
1736.2449932738
  0
VERTEX
  8
Unknown_Line_Type
  10
622068.0424185178
  20
7310848.6513602473
  30
1737.3989923636
  0
VERTEX
  8
Unknown_Line_Type
  10
622068.7350655908
  20
7310848.9068984669
  30
1737.4400363683
  0
VERTEX
  8
Unknown_Line_Type
  10
622069.8317525238
  20
7310849.1866457621
  30
1737.4248357151
  0
VERTEX
  8
Unknown_Line_Type
  10
622070.7817682801
  20
7310850.4505508002
  30
1738.3508893555
  0
VERTEX
  8
Unknown_Line_Type
  10
622071.1578841958
  20
7310851.5918865008
  30
1739.2722540637
  0
VERTEX
  8
Unknown_Line_Type
  10
622071.3103639209
  20
7310852.9195164796
  30
1740.4872252647
  0
VERTEX
  8
Unknown_Line_Type
  10
622072.6440169300
  20
7310852.5891143335
  30
1740.2626870496
  0
VERTEX
  8
Unknown_Line_Type
  10
622074.1842050394
  20
7310852.4876356954
  30
1740.3074213169
  0
VERTEX
  8
Unknown_Line_Type
  10
622074.8475653750
  20
7310853.9134490825
  30
1741.6145821181
  0
VERTEX
  8
Unknown_Line_Type
  10
622075.6322707795
  20
7310854.6267140638
  30
1742.2010959645
  0
SEQEND
  8
Unknown_Line_Type
  0
POLYLINE
  8
Unknown_Line_Type
  66
1
  70
8
  0
VERTEX
  8
Unknown_Line_Type
  10
622000.9810113892
  20
7310849.8912854567
  30
1746.5917984855
  0
VERTEX
  8
Unknown_Line_Type
  10
622001.6740199686
  20
7310850.5947838761
  30
1746.9887384004
  0
VERTEX
  8
Unknown_Line_Type
  10
622002.7303919303
  20
7310851.0057089981
  30
1746.8964791617
  0
VERTEX
  8
Unknown_Line_Type
  10
622003.2747121401
  20
7310851.3420501491
  30
1747.0653239858
  0
VERTEX
  8
Unknown_Line_Type
  10
622003.8921468242
  20
7310851.6021924596
  30
1747.1900143708
  0
VERTEX
  8
Unknown_Line_Type
  10
622004.7440172447
  20
7310851.7624256704
  30
1747.1076539506
  0
VERTEX
  8
Unknown_Line_Type
  10
622005.1695081058
  20
7310851.9109069742
  30
1747.1958461522
  0
VERTEX
  8
Unknown_Line_Type
  10
622006.3341505561
  20
7310852.1981731188
  30
1747.2710048059
  0
VERTEX
  8
Unknown_Line_Type
  10
622006.6678236720
  20
7310851.9990274021
  30
1746.7667763080
  0
VERTEX
  8
Unknown_Line_Type
  10
622007.5282638995
  20
7310851.5102225961
  30
1745.5338934722
  0
VERTEX
  8
Unknown_Line_Type
  10
622007.9321927039
  20
7310851.2977172649
  30
1745.0487526518
  0
VERTEX
  8
Unknown_Line_Type
  10
622008.5020467102
  20
7310851.7368431604
  30
1745.6322208790
  0
VERTEX
  8
Unknown_Line_Type
  10
622009.0425405006
  20
7310852.1348633608
  30
1746.3541142335
  0
VERTEX
  8
Unknown_Line_Type
  10
622009.9709640973
  20
7310852.7091935202
  30
1746.9234401366
  0
VERTEX
  8
Unknown_Line_Type
  10
622010.2600893744
  20
7310852.8618355338
  30
1746.9483959366
  0
VERTEX
  8
Unknown_Line_Type
  10
622010.8522962483
  20
7310853.1866612080
  30
1746.9154992941
  0
VERTEX
  8
Unknown_Line_Type
  10
622011.2095318688
  20
7310853.4411515724
  30
1746.9658919665
  0
VERTEX
  8
Unknown_Line_Type
  10
622011.9005628575
  20
7310853.9979201993
  30
1747.1285635994
  0
VERTEX
  8
Unknown_Line_Type
  10
622012.7300414086
  20
7310854.5560037177
  30
1747.0519076766
  0
VERTEX
  8
Unknown_Line_Type
  10
622013.2690254119
  20
7310854.8298084354
  30
1746.7483171644
  0
VERTEX
  8
Unknown_Line_Type
  10
622013.8614099812
  20
7310854.8690683283
  30
1745.7614937525
  0
VERTEX
  8
Unknown_Line_Type
  10
622014.0518352515
  20
7310854.7381358538
  30
1745.2040191673
  0
VERTEX
  8
Unknown_Line_Type
  10
622014.2907458908
  20
7310854.6650000671
  30
1744.4800080003
  0
VERTEX
  8
Unknown_Line_Type
  10
622014.6610108807
  20
7310854.7989549618
  30
1743.7533149185
  0
VERTEX
  8
Unknown_Line_Type
  10
622014.9777679738
  20
7310854.8197795432
  30
1743.1357628269
  0
SEQEND
  8
Unknown_Line_Type
  0
POLYLINE
  8
Unknown_Line_Type
  66
1
  70
8
  0
VERTEX
  8
Unknown_Line_Type
  10
622042.3750189389
  20
7310887.8553832565
  30
1783.1229568818
  0
VERTEX
  8
Unknown_Line_Type
  10
622041.2682213439
  20
7310887.7267224435
  30
1783.3244934977
  0
VERTEX
  8
Unknown_Line_Type
  10
622039.7241176054
  20
7310887.2606446184
  30
1783.5647476767
  0
VERTEX
  8
Unknown_Line_Type
  10
622038.5009789713
  20
7310886.8494786005
  30
1783.1010180136
  0
VERTEX
  8
Unknown_Line_Type
  10
622035.7778303898
  20
7310886.0829343814
  30
1783.0670213444
  0
VERTEX
  8
Unknown_Line_Type
  10
622034.4727276748
  20
7310885.5370347276
  30
1782.0395058758
  0
VERTEX
  8
Unknown_Line_Type
  10
622033.9172700053
  20
7310885.1276270784
  30
1781.2548766273
  0
VERTEX
  8
Unknown_Line_Type
  10
622032.8141909523
  20
7310884.9436521865
  30
1781.4439255898
  0
VERTEX
  8
Unknown_Line_Type
  10
622031.0403697426
  20
7310884.5347467894
  30
1780.5208975754
  0
SEQEND
  8
Unknown_Line_Type
  0
POLYLINE
  8
Unknown_Line_Type
  66
1
  70
8
  0
VERTEX
  8
Unknown_Line_Type
  10
622040.3198915096
  20
7310861.2948108073
  30
1754.0232011468
  0
VERTEX
  8
Unknown_Line_Type
  10
622041.6638787801
  20
7310861.2896767501
  30
1754.4153256570
  0
VERTEX
  8
Unknown_Line_Type
  10
622042.7301688597
  20
7310861.3099510064
  30
1754.7176309653
  0
VERTEX
  8
Unknown_Line_Type
  10
622043.7809464717
  20
7310861.4383403184
  30
1755.0654490672
  0
VERTEX
  8
Unknown_Line_Type
  10
622044.2919534243
  20
7310861.7061550179
  30
1755.4130643712
  0
VERTEX
  8
Unknown_Line_Type
  10
622044.7483436061
  20
7310862.0186470672
  30
1755.8076292712
  0
VERTEX
  8
Unknown_Line_Type
  10
622044.8636894185
  20
7310862.4457073426
  30
1756.2363919981
  0
VERTEX
  8
Unknown_Line_Type
  10
622045.6771977372
  20
7310862.9427063596
  30
1756.7929789692
  0
VERTEX
  8
Unknown_Line_Type
  10
622046.0857557604
  20
7310863.7195807938
  30
1757.5808168561
  0
VERTEX
  8
Unknown_Line_Type
  10
622046.4650631668
  20
7310864.5721577015
  30
1758.4502150824
  0
VERTEX
  8
Unknown_Line_Type
  10
622047.4203677131
  20
7310864.3680134341
  30
1758.3690923158
  0
VERTEX
  8
Unknown_Line_Type
  10
622047.5457722647
  20
7310865.1206726301
  30
1759.0348996596
  0
VERTEX
  8
Unknown_Line_Type
  10
622047.8637278180
  20
7310866.4473069459
  30
1760.0695933836
  0
VERTEX
  8
Unknown_Line_Type
  10
622048.0905811078
  20
7310867.9286481207
  30
1761.3098199562
  0
SEQEND
  8
Unknown_Line_Type
  0
POLYLINE
  8
Unknown_Line_Type
  66
1
  70
8
  0
VERTEX
  8
Unknown_Line_Type
  10
622008.0315375819
  20
7310854.1320002861
  30
1751.0478043582
  0
VERTEX
  8
Unknown_Line_Type
  10
622008.5398510624
  20
7310854.1271461248
  30
1751.0158275131
  0
VERTEX
  8
Unknown_Line_Type
  10
622009.3967855242
  20
7310854.4473318653
  30
1751.4039474315
  0
VERTEX
  8
Unknown_Line_Type
  10
622010.7971148097
  20
7310855.0341187250
  30
1751.6429601005
  0
VERTEX
  8
Unknown_Line_Type
  10
622012.1373329340
  20
7310855.9565620236
  30
1751.6082036382
  0
VERTEX
  8
Unknown_Line_Type
  10
622012.5649977402
  20
7310855.9336000616
  30
1751.0529759376
  0
VERTEX
  8
Unknown_Line_Type
  10
622013.2428489345
  20
7310855.9369718209
  30
1749.9750036122
  0
VERTEX
  8
Unknown_Line_Type
  10
622013.9374077307
  20
7310856.4731744733
  30
1749.1172822453
  0
VERTEX
  8
Unknown_Line_Type
  10
622014.5797828075
  20
7310856.7034692587
  30
1747.9323028876
  0
VERTEX
  8
Unknown_Line_Type
  10
622015.3364979643
  20
7310858.1041108491
  30
1748.4216781861
  0
VERTEX
  8
Unknown_Line_Type
  10
622015.8396103805
  20
7310858.6370642781
  30
1748.3905825820
  0
VERTEX
  8
Unknown_Line_Type
  10
622016.4619018273
  20
7310859.4741005804
  30
1748.8997043063
  0
VERTEX
  8
Unknown_Line_Type
  10
622017.4064135163
  20
7310859.8446701709
  30
1748.9235151923
  0
VERTEX
  8
Unknown_Line_Type
  10
622018.7808491520
  20
7310859.6294556372
  30
1748.4368285563
  0
VERTEX
  8
Unknown_Line_Type
  10
622019.2133275484
  20
7310859.6787150688
  30
1748.6426760327
  0
VERTEX
  8
Unknown_Line_Type
  10
622020.2546959464
  20
7310859.4660949260
  30
1748.4712748202
  0
VERTEX
  8
Unknown_Line_Type
  10
622020.8584328609
  20
7310859.4802810829
  30
1748.7805099137
  0
VERTEX
  8
Unknown_Line_Type
  10
622021.6641517717
  20
7310859.4787920220
  30
1749.0576543470
  0
VERTEX
  8
Unknown_Line_Type
  10
622022.0865740500
  20
7310859.8926647594
  30
1749.8673032459
  0
SEQEND
  8
Unknown_Line_Type
  0
POLYLINE
  8
Unknown_Line_Type
  66
1
  70
8
  0
VERTEX
  8
Unknown_Line_Type
  10
622100.0992805557
  20
7310851.6961115301
  30
1733.9231232693
  0
VERTEX
  8
Unknown_Line_Type
  10
622101.0683262191
  20
7310852.1743311333
  30
1734.3788701295
  0
VERTEX
  8
Unknown_Line_Type
  10
622102.8720301229
  20
7310853.1286958549
  30
1735.1219140320
  0
VERTEX
  8
Unknown_Line_Type
  10
622103.9839490514
  20
7310853.9474047227
  30
1735.8305464170
  0
VERTEX
  8
Unknown_Line_Type
  10
622105.3232190128
  20
7310854.5716710687
  30
1736.2406270276
  0
VERTEX
  8
Unknown_Line_Type
  10
622105.9471561454
  20
7310855.6540700309
  30
1737.3537973511
  0
VERTEX
  8
Unknown_Line_Type
  10
622107.1456107519
  20
7310856.5328022912
  30
1737.8057641707
  0
VERTEX
  8
Unknown_Line_Type
  10
622108.6150539788
  20
7310857.8708001459
  30
1738.1322694369
  0
VERTEX
  8
Unknown_Line_Type
  10
622110.2075391207
  20
7310859.1644106675
  30
1738.2500064696
  0
VERTEX
  8
Unknown_Line_Type
  10
622111.8046592611
  20
7310860.2397318389
  30
1738.3477433365
  0
VERTEX
  8
Unknown_Line_Type
  10
622113.4323793852
  20
7310861.4777497817
  30
1738.8267886882
  0
VERTEX
  8
Unknown_Line_Type
  10
622115.5512601401
  20
7310862.4574873988
  30
1739.3293010639
  0
VERTEX
  8
Unknown_Line_Type
  10
622118.2143390667
  20
7310863.9921043199
  30
1739.8572631132
  0
VERTEX
  8
Unknown_Line_Type
  10
622120.5820005183
  20
7310866.1889510797
  30
1740.6160407238
  0
VERTEX
  8
Unknown_Line_Type
  10
622121.0874964345
  20
7310867.4818260372
  30
1741.3393423311
  0
VERTEX
  8
Unknown_Line_Type
  10
622121.8975113451
  20
7310868.4261588752
  30
1741.5483210159
  0
VERTEX
  8
Unknown_Line_Type
  10
622123.2878765359
  20
7310871.0445845164
  30
1742.3240178390
  0
SEQEND
  8
Unknown_Line_Type
  0
POLYLINE
  8
Unknown_Line_Type
  66
1
  70
8
  0
VERTEX
  8
Unknown_Line_Type
  10
622058.2548929990
  20
7310840.5754478509
  30
1731.9493599106
  0
VERTEX
  8
Unknown_Line_Type
  10
622059.5973290722
  20
7310840.3386218194
  30
1731.7557060926
  0
VERTEX
  8
Unknown_Line_Type
  10
622060.4029283369
  20
7310840.4270130694
  30
1732.0433275311
  0
VERTEX
  8
Unknown_Line_Type
  10
622061.3117409259
  20
7310840.3323592357
  30
1731.5918685994
  0
VERTEX
  8
Unknown_Line_Type
  10
622061.5411437736
  20
7310840.2398255784
  30
1731.2966053717
  0
VERTEX
  8
Unknown_Line_Type
  10
622061.7411649337
  20
7310840.4660081379
  30
1731.7374735315
  0
VERTEX
  8
Unknown_Line_Type
  10
622062.8073165431
  20
7310840.8662844887
  30
1731.9440620856
  0
VERTEX
  8
Unknown_Line_Type
  10
622063.7120197341
  20
7310841.4858101793
  30
1732.2508308388
  0
VERTEX
  8
Unknown_Line_Type
  10
622064.6749167127
  20
7310841.8963847775
  30
1732.0188621911
  0
VERTEX
  8
Unknown_Line_Type
  10
622064.9780825451
  20
7310842.3426154386
  30
1732.3949025206
  0
VERTEX
  8
Unknown_Line_Type
  10
622066.0271300604
  20
7310841.9488535728
  30
1731.1956104253
  0
VERTEX
  8
Unknown_Line_Type
  10
622067.6682586905
  20
7310843.3766709892
  30
1731.6483690421
  0
SEQEND
  8
Unknown_Line_Type
  0
POLYLINE
  8
Unknown_Line_Type
  66
1
  70
8
  0
VERTEX
  8
Unknown_Line_Type
  10
622094.9463854097
  20
7310856.3576378003
  30
1740.2788546705
  0
VERTEX
  8
Unknown_Line_Type
  10
622096.0553447903
  20
7310856.4147326667
  30
1740.2402962122
  0
VERTEX
  8
Unknown_Line_Type
  10
622096.7482146923
  20
7310856.8626676835
  30
1740.8047559127
  0
VERTEX
  8
Unknown_Line_Type
  10
622097.6019209329
  20
7310857.4052849710
  30
1741.4785703121
  0
VERTEX
  8
Unknown_Line_Type
  10
622098.5751330541
  20
7310857.9372802349
  30
1742.0060591412
  0
VERTEX
  8
Unknown_Line_Type
  10
622100.3505235163
  20
7310857.9614482764
  30
1741.6673489649
  0
VERTEX
  8
Unknown_Line_Type
  10
622101.9992902638
  20
7310858.2012215992
  30
1741.6194006011
  0
VERTEX
  8
Unknown_Line_Type
  10
622103.5001089077
  20
7310858.7256361544
  30
1741.8083081967
  0
VERTEX
  8
Unknown_Line_Type
  10
622104.4828714713
  20
7310858.8855732176
  30
1741.6684356223
  0
VERTEX
  8
Unknown_Line_Type
  10
622105.0081901791
  20
7310859.6334047187
  30
1742.2187491375
  0
VERTEX
  8
Unknown_Line_Type
  10
622105.9162631094
  20
7310860.2652765475
  30
1742.3847373800
  0
VERTEX
  8
Unknown_Line_Type
  10
622106.0646212510
  20
7310861.0973348599
  30
1743.1922143897
  0
VERTEX
  8
Unknown_Line_Type
  10
622105.8163872331
  20
7310862.0841111466
  30
1744.3320910321
  0
VERTEX
  8
Unknown_Line_Type
  10
622105.6900420226
  20
7310863.8980147243
  30
1745.7290497888
  0
VERTEX
  8
Unknown_Line_Type
  10
622105.7334349015
  20
7310865.0634392966
  30
1746.4712230426
  0
VERTEX
  8
Unknown_Line_Type
  10
622106.4525182233
  20
7310865.2915866105
  30
1746.3128959480
  0
VERTEX
  8
Unknown_Line_Type
  10
622106.9440222742
  20
7310866.1487712953
  30
1746.6985344130
  0
VERTEX
  8
Unknown_Line_Type
  10
622106.8765798771
  20
7310867.5330078769
  30
1747.6757444755
  0
VERTEX
  8
Unknown_Line_Type
  10
622108.0559759309
  20
7310868.3177515939
  30
1747.8143169860
  0
VERTEX
  8
Unknown_Line_Type
  10
622108.3772047962
  20
7310869.3909562239
  30
1748.4442999415
  0
VERTEX
  8
Unknown_Line_Type
  10
622109.0287670144
  20
7310869.8967149938
  30
1748.5786719539
  0
VERTEX
  8
Unknown_Line_Type
  10
622109.1115907998
  20
7310871.6596139381
  30
1749.7070947541
  0
VERTEX
  8
Unknown_Line_Type
  10
622109.8453873111
  20
7310871.8438678980
  30
1749.5387879501
  0
VERTEX
  8
Unknown_Line_Type
  10
622109.6048099307
  20
7310873.7027220652
  30
1750.8022228041
  0
VERTEX
  8
Unknown_Line_Type
  10
622110.5436183609
  20
7310874.9597548917
  30
1751.1632394940
  0
VERTEX
  8
Unknown_Line_Type
  10
622111.2312710938
  20
7310875.7864857046
  30
1751.3283879747
  0
VERTEX
  8
Unknown_Line_Type
  10
622111.3396650287
  20
7310877.0162783228
  30
1752.0232808285
  0
VERTEX
  8
Unknown_Line_Type
  10
622111.3721068573
  20
7310878.3314871332
  30
1752.8723001043
  0
VERTEX
  8
Unknown_Line_Type
  10
622112.4005890498
  20
7310879.5113951601
  30
1753.1484868964
  0
SEQEND
  8
Unknown_Line_Type
  0
POLYLINE
  8
Unknown_Line_Type
  66
1
  70
8
  0
VERTEX
  8
Unknown_Line_Type
  10
622139.2156901669
  20
7310890.4800207783
  30
1743.0390321307
  0
VERTEX
  8
Unknown_Line_Type
  10
622139.7497923099
  20
7310891.2402533628
  30
1743.4959469926
  0
VERTEX
  8
Unknown_Line_Type
  10
622140.6455856412
  20
7310891.6702880133
  30
1743.3921942750
  0
VERTEX
  8
Unknown_Line_Type
  10
622142.0372008720
  20
7310891.8245165199
  30
1742.9064381649
  0
VERTEX
  8
Unknown_Line_Type
  10
622142.7992980256
  20
7310891.8257318623
  30
1742.6648165747
  0
VERTEX
  8
Unknown_Line_Type
  10
622143.2542960466
  20
7310891.7862354144
  30
1742.4696737318
  0
VERTEX
  8
Unknown_Line_Type
  10
622143.7769969632
  20
7310891.7238069233
  30
1742.1451661111
  0
VERTEX
  8
Unknown_Line_Type
  10
622144.2242073694
  20
7310891.7952436116
  30
1742.2728500665
  0
VERTEX
  8
Unknown_Line_Type
  10
622144.7676028444
  20
7310892.0040864525
  30
1742.7858075579
  0
VERTEX
  8
Unknown_Line_Type
  10
622145.7200238858
  20
7310892.2089088960
  30
1743.1137127669
  0
VERTEX
  8
Unknown_Line_Type
  10
622146.9688698229
  20
7310892.4749061065
  30
1743.3977054230
  0
VERTEX
  8
Unknown_Line_Type
  10
622148.6155485399
  20
7310892.8752097916
  30
1743.9361811474
  0
VERTEX
  8
Unknown_Line_Type
  10
622149.5449631217
  20
7310893.1775424806
  30
1744.3513371502
  0
VERTEX
  8
Unknown_Line_Type
  10
622150.1280061556
  20
7310893.4567381162
  30
1744.6677450802
  0
VERTEX
  8
Unknown_Line_Type
  10
622150.5125333248
  20
7310893.6040561851
  30
1744.6569434191
  0
VERTEX
  8
Unknown_Line_Type
  10
622151.0273584049
  20
7310894.1516438946
  30
1745.3212817150
  0
VERTEX
  8
Unknown_Line_Type
  10
622151.2009476741
  20
7310894.4814798478
  30
1745.9049351554
  0
VERTEX
  8
Unknown_Line_Type
  10
622151.6120601001
  20
7310894.9460444860
  30
1746.2321787706
  0
VERTEX
  8
Unknown_Line_Type
  10
622152.2394467365
  20
7310895.4051077953
  30
1746.0594582221
  0
VERTEX
  8
Unknown_Line_Type
  10
622152.7192704480
  20
7310895.7907484695
  30
1746.0966208468
  0
VERTEX
  8
Unknown_Line_Type
  10
622153.4816226654
  20
7310896.4951524902
  30
1746.7751029195
  0
VERTEX
  8
Unknown_Line_Type
  10
622153.8967319948
  20
7310896.8637012988
  30
1747.5146747329
  0
VERTEX
  8
Unknown_Line_Type
  10
622154.6385421256
  20
7310897.1368276346
  30
1747.6086946569
  0
VERTEX
  8
Unknown_Line_Type
  10
622154.8569219746
  20
7310897.4232753143
  30
1748.2190189171
  0
VERTEX
  8
Unknown_Line_Type
  10
622155.4198285932
  20
7310897.7704534791
  30
1748.4293313618
  0
VERTEX
  8
Unknown_Line_Type
  10
622155.7847181645
  20
7310898.0355549911
  30
1748.4728244932
  0
VERTEX
  8
Unknown_Line_Type
  10
622156.5965288604
  20
7310899.2200711761
  30
1749.0830492803
  0
VERTEX
  8
Unknown_Line_Type
  10
622157.3239905613
  20
7310899.9599623382
  30
1749.1563395304
  0
VERTEX
  8
Unknown_Line_Type
  10
622158.0546886232
  20
7310900.6803020258
  30
1749.2266424086
  0
SEQEND
  8
Unknown_Line_Type
  0
POLYLINE
  8
Unknown_Line_Type
  66
1
  70
8
  0
VERTEX
  8
Unknown_Line_Type
  10
622097.5123715040
  20
7310891.2211474590
  30
1770.5886564212
  0
VERTEX
  8
Unknown_Line_Type
  10
622098.1737005703
  20
7310891.3293835530
  30
1770.1040870037
  0
VERTEX
  8
Unknown_Line_Type
  10
622098.6868567187
  20
7310891.4464978762
  30
1769.8086192398
  0
VERTEX
  8
Unknown_Line_Type
  10
622099.5428357699
  20
7310891.7436249927
  30
1770.2114330680
  0
VERTEX
  8
Unknown_Line_Type
  10
622100.3286192784
  20
7310891.9094111184
  30
1770.5028814061
  0
VERTEX
  8
Unknown_Line_Type
  10
622101.2153771084
  20
7310891.9943771493
  30
1770.3408485516
  0
VERTEX
  8
Unknown_Line_Type
  10
622101.5475172879
  20
7310892.0189930890
  30
1770.0157291076
  0
VERTEX
  8
Unknown_Line_Type
  10
622102.4626928662
  20
7310892.1343029570
  30
1770.5892742019
  0
VERTEX
  8
Unknown_Line_Type
  10
622102.8926974158
  20
7310892.2531470824
  30
1770.7316939493
  0
VERTEX
  8
Unknown_Line_Type
  10
622103.6330553802
  20
7310892.5339487530
  30
1770.9407850430
  0
VERTEX
  8
Unknown_Line_Type
  10
622104.8427610715
  20
7310893.3292892193
  30
1771.4450617502
  0
VERTEX
  8
Unknown_Line_Type
  10
622106.6840431474
  20
7310894.1928402502
  30
1771.8849560546
  0
VERTEX
  8
Unknown_Line_Type
  10
622107.6387421114
  20
7310894.7267635819
  30
1771.9286566510
  0
SEQEND
  8
Unknown_Line_Type
  0
POLYLINE
  8
Unknown_Line_Type
  66
1
  70
8
  0
VERTEX
  8
Unknown_Line_Type
  10
622120.3227913735
  20
7310878.2607352026
  30
1748.3757596172
  0
VERTEX
  8
Unknown_Line_Type
  10
622120.8473523229
  20
7310879.2374615762
  30
1748.9907206192
  0
VERTEX
  8
Unknown_Line_Type
  10
622121.3615579059
  20
7310880.0794724524
  30
1749.5938652053
  0
VERTEX
  8
Unknown_Line_Type
  10
622122.3233549787
  20
7310880.3268831158
  30
1749.4562075474
  0
VERTEX
  8
Unknown_Line_Type
  10
622123.1761454659
  20
7310880.8858615067
  30
1749.7204991361
  0
VERTEX
  8
Unknown_Line_Type
  10
622124.0529464698
  20
7310881.3030626485
  30
1749.7652196091
  0
VERTEX
  8
Unknown_Line_Type
  10
622125.8377971301
  20
7310882.1010585874
  30
1749.4466941488
  0
VERTEX
  8
Unknown_Line_Type
  10
622126.7099749936
  20
7310882.9987486638
  30
1749.9934333523
  0
VERTEX
  8
Unknown_Line_Type
  10
622127.9946607658
  20
7310884.1408778131
  30
1750.6956858614
  0
VERTEX
  8
Unknown_Line_Type
  10
622129.2763956116
  20
7310886.2393950205
  30
1751.3592438123
  0
VERTEX
  8
Unknown_Line_Type
  10
622129.7717277055
  20
7310887.8195628282
  30
1751.3040265191
  0
VERTEX
  8
Unknown_Line_Type
  10
622130.2262183327
  20
7310892.2687481157
  30
1751.8860701823
  0
VERTEX
  8
Unknown_Line_Type
  10
622130.6670636134
  20
7310893.3955856301
  30
1752.0391910531
  0
SEQEND
  8
Unknown_Line_Type
  0
POLYLINE
  8
Unknown_Line_Type
  66
1
  70
8
  0
VERTEX
  8
Unknown_Line_Type
  10
622124.3800451125
  20
7310879.3503403571
  30
1747.3087789943
  0
VERTEX
  8
Unknown_Line_Type
  10
622124.8380184108
  20
7310880.0224220846
  30
1747.7996605031
  0
VERTEX
  8
Unknown_Line_Type
  10
622125.3320016600
  20
7310880.2603321951
  30
1747.7414820171
  0
VERTEX
  8
Unknown_Line_Type
  10
622126.6243842531
  20
7310881.2417113166
  30
1747.9257031361
  0
VERTEX
  8
Unknown_Line_Type
  10
622127.1725429338
  20
7310881.1775219701
  30
1747.4785475713
  0
VERTEX
  8
Unknown_Line_Type
  10
622128.0310693529
  20
7310881.9038571939
  30
1747.9069045659
  0
VERTEX
  8
Unknown_Line_Type
  10
622129.2910637786
  20
7310883.1551949345
  30
1748.7704748243
  0
VERTEX
  8
Unknown_Line_Type
  10
622129.7336957080
  20
7310883.4414209630
  30
1748.8748126317
  0
VERTEX
  8
Unknown_Line_Type
  10
622130.7151581822
  20
7310884.3902985398
  30
1749.1581757404
  0
VERTEX
  8
Unknown_Line_Type
  10
622131.4654827867
  20
7310885.5350299403
  30
1749.4045643895
  0
VERTEX
  8
Unknown_Line_Type
  10
622132.3631951299
  20
7310887.7183393110
  30
1749.1950508700
  0
SEQEND
  8
Unknown_Line_Type
  0
POLYLINE
  8
Unknown_Line_Type
  66
1
  70
8
  0
VERTEX
  8
Unknown_Line_Type
  10
622174.7952754550
  20
7310640.0444963491
  30
1620.9733471027
  0
VERTEX
  8
Unknown_Line_Type
  10
622176.2760848580
  20
7310640.2360138558
  30
1621.5276682738
  0
VERTEX
  8
Unknown_Line_Type
  10
622177.8460311813
  20
7310640.6479934268
  30
1621.8566684396
  0
VERTEX
  8
Unknown_Line_Type
  10
622178.8458353945
  20
7310640.9117807187
  30
1622.3358128314
  0
VERTEX
  8
Unknown_Line_Type
  10
622179.3963632451
  20
7310641.3002883364
  30
1622.0242653021
  0
VERTEX
  8
Unknown_Line_Type
  10
622179.9927228850
  20
7310642.0439939471
  30
1622.2882354117
  0
VERTEX
  8
Unknown_Line_Type
  10
622181.3043838919
  20
7310642.8662187317
  30
1622.1380680109
  0
VERTEX
  8
Unknown_Line_Type
  10
622182.9511332060
  20
7310643.1992471982
  30
1622.5019218291
  0
VERTEX
  8
Unknown_Line_Type
  10
622184.4799198165
  20
7310643.2925690878
  30
1622.8206740705
  0
VERTEX
  8
Unknown_Line_Type
  10
622185.7474495991
  20
7310643.7086970676
  30
1623.3478464131
  0
VERTEX
  8
Unknown_Line_Type
  10
622187.5266429893
  20
7310643.6187620331
  30
1623.6769862534
  0
VERTEX
  8
Unknown_Line_Type
  10
622189.2052628150
  20
7310643.6236599423
  30
1623.8738402433
  0
VERTEX
  8
Unknown_Line_Type
  10
622189.7210138503
  20
7310643.7535284199
  30
1624.2413288503
  0
VERTEX
  8
Unknown_Line_Type
  10
622190.9335746118
  20
7310643.8477777410
  30
1624.3221039650
  0
VERTEX
  8
Unknown_Line_Type
  10
622191.3199157215
  20
7310644.5040708687
  30
1624.5593811880
  0
VERTEX
  8
Unknown_Line_Type
  10
622192.1134785742
  20
7310644.6205155719
  30
1624.5949993201
  0
VERTEX
  8
Unknown_Line_Type
  10
622194.5029228482
  20
7310645.0293345926
  30
1625.2449031769
  0
VERTEX
  8
Unknown_Line_Type
  10
622196.9400035890
  20
7310644.6193002742
  30
1625.6127604629
  0
VERTEX
  8
Unknown_Line_Type
  10
622197.4384634867
  20
7310645.1402477399
  30
1625.5028203932
  0
VERTEX
  8
Unknown_Line_Type
  10
622197.3249942137
  20
7310646.2999215387
  30
1625.2797656893
  0
VERTEX
  8
Unknown_Line_Type
  10
622200.3733848042
  20
7310645.1519177044
  30
1626.3554266040
  0
VERTEX
  8
Unknown_Line_Type
  10
622201.2377455307
  20
7310646.5493864985
  30
1626.3323543540
  0
VERTEX
  8
Unknown_Line_Type
  10
622203.2151772443
  20
7310646.8414082192
  30
1626.6191741843
  0
VERTEX
  8
Unknown_Line_Type
  10
622204.1101742613
  20
7310648.0704902597
  30
1626.4167781505
  0
VERTEX
  8
Unknown_Line_Type
  10
622206.1950326301
  20
7310648.2808679063
  30
1627.0173103011
  0
VERTEX
  8
Unknown_Line_Type
  10
622207.7874859601
  20
7310648.9697286133
  30
1627.0319229176
  0
VERTEX
  8
Unknown_Line_Type
  10
622208.6019632713
  20
7310649.3840246703
  30
1627.0538404493
  0
SEQEND
  8
Unknown_Line_Type
  0
POLYLINE
  8
Unknown_Line_Type
  66
1
  70
8
  0
VERTEX
  8
Unknown_Line_Type
  10
622185.6458646393
  20
7310637.8291464392
  30
1616.3364027730
  0
VERTEX
  8
Unknown_Line_Type
  10
622187.2955135066
  20
7310637.4179881103
  30
1616.6487885245
  0
VERTEX
  8
Unknown_Line_Type
  10
622188.3752145164
  20
7310637.3429234559
  30
1616.7666437652
  0
VERTEX
  8
Unknown_Line_Type
  10
622188.6886216785
  20
7310637.7943815608
  30
1616.9964048894
  0
VERTEX
  8
Unknown_Line_Type
  10
622189.4677525874
  20
7310638.3403028734
  30
1617.3392790251
  0
VERTEX
  8
Unknown_Line_Type
  10
622190.7067750312
  20
7310638.6644662451
  30
1617.5167138032
  0
VERTEX
  8
Unknown_Line_Type
  10
622192.2485336113
  20
7310638.5410143873
  30
1617.8642087900
  0
VERTEX
  8
Unknown_Line_Type
  10
622193.3112294716
  20
7310638.7167335004
  30
1618.1594347276
  0
VERTEX
  8
Unknown_Line_Type
  10
622193.1678668127
  20
7310640.1901717186
  30
1617.5359426308
  0
VERTEX
  8
Unknown_Line_Type
  10
622194.5740656959
  20
7310640.4439222850
  30
1617.7323484019
  0
VERTEX
  8
Unknown_Line_Type
  10
622195.8608427411
  20
7310640.6282617468
  30
1617.9285536732
  0
VERTEX
  8
Unknown_Line_Type
  10
622197.5793158817
  20
7310640.6821194235
  30
1618.3916351425
  0
VERTEX
  8
Unknown_Line_Type
  10
622199.3269202941
  20
7310641.5590413222
  30
1618.8449832570
  0
VERTEX
  8
Unknown_Line_Type
  10
622201.9526742316
  20
7310642.9123901818
  30
1618.9059179633
  0
VERTEX
  8
Unknown_Line_Type
  10
622203.6307331179
  20
7310643.5187126379
  30
1618.8997831771
  0
VERTEX
  8
Unknown_Line_Type
  10
622205.6690209539
  20
7310644.3955536960
  30
1619.2061790751
  0
VERTEX
  8
Unknown_Line_Type
  10
622207.3847727452
  20
7310645.0885680132
  30
1619.6419552069
  0
VERTEX
  8
Unknown_Line_Type
  10
622209.5408938197
  20
7310645.4973387178
  30
1619.9292019671
  0
VERTEX
  8
Unknown_Line_Type
  10
622210.3744496184
  20
7310645.8670563102
  30
1619.9682405855
  0
VERTEX
  8
Unknown_Line_Type
  10
622212.2287684138
  20
7310647.0150514040
  30
1620.3373393814
  0
VERTEX
  8
Unknown_Line_Type
  10
622214.2025632554
  20
7310647.7901363894
  30
1620.6577225247
  0
VERTEX
  8
Unknown_Line_Type
  10
622217.5615989500
  20
7310648.9003282376
  30
1621.5207804932
  0
VERTEX
  8
Unknown_Line_Type
  10
622220.5137410316
  20
7310648.2577724066
  30
1621.9856349086
  0
VERTEX
  8
Unknown_Line_Type
  10
622222.0569105028
  20
7310648.6023958093
  30
1622.0476827212
  0
VERTEX
  8
Unknown_Line_Type
  10
622222.6511406448
  20
7310648.8171722321
  30
1622.1823987139
  0
VERTEX
  8
Unknown_Line_Type
  10
622224.2025689883
  20
7310649.3867892511
  30
1622.6606635891
  0
SEQEND
  8
Unknown_Line_Type
  0
POLYLINE
  8
Unknown_Line_Type
  66
1
  70
8
  0
VERTEX
  8
Unknown_Line_Type
  10
622097.3984551831
  20
7310770.6524820793
  30
1673.6702553659
  0
VERTEX
  8
Unknown_Line_Type
  10
622098.9864237764
  20
7310770.7289573317
  30
1674.2836284078
  0
VERTEX
  8
Unknown_Line_Type
  10
622101.4478387213
  20
7310770.7190956706
  30
1674.5270145696
  0
VERTEX
  8
Unknown_Line_Type
  10
622102.6487005476
  20
7310770.5305144545
  30
1674.4904786625
  0
VERTEX
  8
Unknown_Line_Type
  10
622104.5880229604
  20
7310770.2050915360
  30
1674.5157849335
  0
VERTEX
  8
Unknown_Line_Type
  10
622105.7538295210
  20
7310770.0372387543
  30
1674.3129897857
  0
VERTEX
  8
Unknown_Line_Type
  10
622106.4201740694
  20
7310770.6196435820
  30
1675.0888644463
  0
VERTEX
  8
Unknown_Line_Type
  10
622107.4225809770
  20
7310770.6423969716
  30
1674.9645365847
  0
VERTEX
  8
Unknown_Line_Type
  10
622107.3485570431
  20
7310770.9054693058
  30
1675.4527633196
  0
VERTEX
  8
Unknown_Line_Type
  10
622108.0544925783
  20
7310771.1629291959
  30
1675.6946120054
  0
VERTEX
  8
Unknown_Line_Type
  10
622108.9661987379
  20
7310771.2163285008
  30
1675.5907756921
  0
VERTEX
  8
Unknown_Line_Type
  10
622109.4064196361
  20
7310771.2384810029
  30
1675.5397469854
  0
VERTEX
  8
Unknown_Line_Type
  10
622110.0529574050
  20
7310771.3839985467
  30
1675.9814196683
  0
VERTEX
  8
Unknown_Line_Type
  10
622110.9960585513
  20
7310771.4299811721
  30
1676.4771697588
  0
VERTEX
  8
Unknown_Line_Type
  10
622111.4184394921
  20
7310771.4405958317
  30
1676.6479709515
  0
VERTEX
  8
Unknown_Line_Type
  10
622111.7234869232
  20
7310771.3830720549
  30
1676.5740273008
  0
VERTEX
  8
Unknown_Line_Type
  10
622112.7128349209
  20
7310771.2420759825
  30
1676.2222506902
  0
VERTEX
  8
Unknown_Line_Type
  10
622113.3193775804
  20
7310771.2895593131
  30
1676.5716554670
  0
VERTEX
  8
Unknown_Line_Type
  10
622114.1417831543
  20
7310771.5016273018
  30
1676.8089361959
  0
VERTEX
  8
Unknown_Line_Type
  10
622114.4662952711
  20
7310772.1025661575
  30
1677.4914617239
  0
VERTEX
  8
Unknown_Line_Type
  10
622114.9424316397
  20
7310772.4806967750
  30
1677.7366638129
  0
VERTEX
  8
Unknown_Line_Type
  10
622115.5864730337
  20
7310772.6131447172
  30
1677.7012548911
  0
VERTEX
  8
Unknown_Line_Type
  10
622115.9152063485
  20
7310772.5476607811
  30
1677.5316206278
  0
VERTEX
  8
Unknown_Line_Type
  10
622116.6015363359
  20
7310772.7548453491
  30
1677.6480910312
  0
VERTEX
  8
Unknown_Line_Type
  10
622117.1309226574
  20
7310772.9709225036
  30
1677.8340313795
  0
VERTEX
  8
Unknown_Line_Type
  10
622117.5768219247
  20
7310772.9465316590
  30
1677.8140917282
  0
VERTEX
  8
Unknown_Line_Type
  10
622118.1435839972
  20
7310772.8494293131
  30
1677.7540561499
  0
VERTEX
  8
Unknown_Line_Type
  10
622119.1120929469
  20
7310772.9503457956
  30
1677.9604672421
  0
VERTEX
  8
Unknown_Line_Type
  10
622120.2175893727
  20
7310772.7003871463
  30
1677.6631247000
  0
VERTEX
  8
Unknown_Line_Type
  10
622121.3313009364
  20
7310773.0025874684
  30
1677.8418297931
  0
VERTEX
  8
Unknown_Line_Type
  10
622121.7477171604
  20
7310773.7741119340
  30
1678.5213813666
  0
VERTEX
  8
Unknown_Line_Type
  10
622123.3064817902
  20
7310774.1637451109
  30
1678.6730136639
  0
VERTEX
  8
Unknown_Line_Type
  10
622124.1297555461
  20
7310774.6356937140
  30
1679.1000292265
  0
VERTEX
  8
Unknown_Line_Type
  10
622125.4916620585
  20
7310774.2850049064
  30
1678.6411553503
  0
VERTEX
  8
Unknown_Line_Type
  10
622127.5128176321
  20
7310774.9514590576
  30
1679.1592861250
  0
VERTEX
  8
Unknown_Line_Type
  10
622129.9605318564
  20
7310775.6939891828
  30
1679.5688565791
  0
SEQEND
  8
Unknown_Line_Type
  0
POLYLINE
  8
Unknown_Line_Type
  66
1
  70
8
  0
VERTEX
  8
Unknown_Line_Type
  10
622152.1347134563
  20
7310696.8085508253
  30
1645.8030032576
  0
VERTEX
  8
Unknown_Line_Type
  10
622153.2126075476
  20
7310696.8154913429
  30
1646.2144788259
  0
VERTEX
  8
Unknown_Line_Type
  10
622154.7268121672
  20
7310696.7236304488
  30
1646.7183222071
  0
VERTEX
  8
Unknown_Line_Type
  10
622155.4939932365
  20
7310695.9155950695
  30
1646.6956091122
  0
VERTEX
  8
Unknown_Line_Type
  10
622156.5994941371
  20
7310695.9361825977
  30
1647.0401988169
  0
VERTEX
  8
Unknown_Line_Type
  10
622157.2314715192
  20
7310696.9861771129
  30
1647.5659801263
  0
VERTEX
  8
Unknown_Line_Type
  10
622157.1945688633
  20
7310699.7999886870
  30
1648.4110345296
  0
VERTEX
  8
Unknown_Line_Type
  10
622158.0521749192
  20
7310700.0863441173
  30
1648.7639602314
  0
VERTEX
  8
Unknown_Line_Type
  10
622159.9058171039
  20
7310699.2688546348
  30
1649.1302415818
  0
VERTEX
  8
Unknown_Line_Type
  10
622160.7644952277
  20
7310700.1446749084
  30
1649.6343463819
  0
VERTEX
  8
Unknown_Line_Type
  10
622161.7613608269
  20
7310699.8561373027
  30
1649.8889319385
  0
VERTEX
  8
Unknown_Line_Type
  10
622164.5283112506
  20
7310698.1333041061
  30
1650.2271821138
  0
VERTEX
  8
Unknown_Line_Type
  10
622165.6150289793
  20
7310698.0304019805
  30
1650.5135120962
  0
VERTEX
  8
Unknown_Line_Type
  10
622166.9367025615
  20
7310699.2117543062
  30
1651.2715480751
  0
VERTEX
  8
Unknown_Line_Type
  10
622168.1966924430
  20
7310699.2535881661
  30
1651.6555390065
  0
VERTEX
  8
Unknown_Line_Type
  10
622169.3549002480
  20
7310698.7718515350
  30
1651.9302158739
  0
VERTEX
  8
Unknown_Line_Type
  10
622169.1668613056
  20
7310702.3508045878
  30
1652.5590759338
  0
VERTEX
  8
Unknown_Line_Type
  10
622169.5703530179
  20
7310704.8832436586
  30
1653.1267958613
  0
VERTEX
  8
Unknown_Line_Type
  10
622169.9107800961
  20
7310705.8086550925
  30
1653.3729197224
  0
VERTEX
  8
Unknown_Line_Type
  10
622170.8230386551
  20
7310706.4079172695
  30
1653.6741590472
  0
SEQEND
  8
Unknown_Line_Type
  0
POLYLINE
  8
Unknown_Line_Type
  66
1
  70
8
  0
VERTEX
  8
Unknown_Line_Type
  10
622095.7217405258
  20
7310891.1709160013
  30
1772.2794770864
  0
VERTEX
  8
Unknown_Line_Type
  10
622096.6270576201
  20
7310891.4867133517
  30
1773.0317597494
  0
VERTEX
  8
Unknown_Line_Type
  10
622097.8243514570
  20
7310891.8115121117
  30
1773.3646039755
  0
VERTEX
  8
Unknown_Line_Type
  10
622098.5727848115
  20
7310892.0805272209
  30
1773.9747407860
  0
VERTEX
  8
Unknown_Line_Type
  10
622099.2391632438
  20
7310892.2330504656
  30
1774.1905740493
  0
VERTEX
  8
Unknown_Line_Type
  10
622099.9951359450
  20
7310892.3717246912
  30
1774.2546491641
  0
VERTEX
  8
Unknown_Line_Type
  10
622101.2772463693
  20
7310893.2067332864
  30
1775.0996708415
  0
VERTEX
  8
Unknown_Line_Type
  10
622101.8574868259
  20
7310893.6319034239
  30
1775.3391727740
  0
VERTEX
  8
Unknown_Line_Type
  10
622102.1230131767
  20
7310894.0860971082
  30
1775.7779928907
  0
VERTEX
  8
Unknown_Line_Type
  10
622102.6312994141
  20
7310894.6816052534
  30
1776.2214573868
  0
VERTEX
  8
Unknown_Line_Type
  10
622102.9979201112
  20
7310895.0896579651
  30
1776.5023660046
  0
VERTEX
  8
Unknown_Line_Type
  10
622103.5995060175
  20
7310895.8109766161
  30
1777.0119074001
  0
VERTEX
  8
Unknown_Line_Type
  10
622104.1108486932
  20
7310896.8417252814
  30
1777.5551759634
  0
SEQEND
  8
Unknown_Line_Type
  0
POLYLINE
  8
Unknown_Line_Type
  66
1
  70
8
  0
VERTEX
  8
Unknown_Line_Type
  10
622084.0123534692
  20
7310893.6926631201
  30
1775.6586499033
  0
VERTEX
  8
Unknown_Line_Type
  10
622084.7843281595
  20
7310893.6665961994
  30
1776.1389694759
  0
VERTEX
  8
Unknown_Line_Type
  10
622085.5337858598
  20
7310893.5978554860
  30
1776.5826623725
  0
VERTEX
  8
Unknown_Line_Type
  10
622086.1164737776
  20
7310893.5549867572
  30
1777.1961649441
  0
VERTEX
  8
Unknown_Line_Type
  10
622086.8073858210
  20
7310893.5590239409
  30
1778.2614839127
  0
VERTEX
  8
Unknown_Line_Type
  10
622087.2775823436
  20
7310893.6911043227
  30
1779.1547803154
  0
VERTEX
  8
Unknown_Line_Type
  10
622088.1421960895
  20
7310893.8416375350
  30
1779.5346363626
  0
VERTEX
  8
Unknown_Line_Type
  10
622089.1208075511
  20
7310893.9773740582
  30
1779.5538603002
  0
VERTEX
  8
Unknown_Line_Type
  10
622089.4031331495
  20
7310894.1991864974
  30
1780.0297863249
  0
VERTEX
  8
Unknown_Line_Type
  10
622089.9440161898
  20
7310894.8048111722
  30
1780.9445357793
  0
VERTEX
  8
Unknown_Line_Type
  10
622090.4434473479
  20
7310895.2634942941
  30
1781.4121391859
  0
VERTEX
  8
Unknown_Line_Type
  10
622091.3739493646
  20
7310895.9024653025
  30
1781.8507371642
  0
VERTEX
  8
Unknown_Line_Type
  10
622092.1506028189
  20
7310896.5137855206
  30
1782.3171047645
  0
VERTEX
  8
Unknown_Line_Type
  10
622092.5289029217
  20
7310897.5330701424
  30
1783.2998346537
  0
VERTEX
  8
Unknown_Line_Type
  10
622093.0664189109
  20
7310898.8906982876
  30
1784.3721888361
  0
VERTEX
  8
Unknown_Line_Type
  10
622093.3367516381
  20
7310899.8048001397
  30
1785.0981252245
  0
SEQEND
  8
Unknown_Line_Type
  0
POLYLINE
  8
Unknown_Line_Type
  66
1
  70
8
  0
VERTEX
  8
Unknown_Line_Type
  10
622086.2177704691
  20
7310892.5795113854
  30
1772.5539675311
  0
VERTEX
  8
Unknown_Line_Type
  10
622087.3378077345
  20
7310892.5058695739
  30
1773.1594130006
  0
VERTEX
  8
Unknown_Line_Type
  10
622087.8589645204
  20
7310892.4969023094
  30
1773.5557780721
  0
VERTEX
  8
Unknown_Line_Type
  10
622089.8412140188
  20
7310892.5493370630
  30
1775.1336986081
  0
VERTEX
  8
Unknown_Line_Type
  10
622091.3810632337
  20
7310892.6022485578
  30
1776.0271118325
  0
VERTEX
  8
Unknown_Line_Type
  10
622093.2556081506
  20
7310893.3698178176
  30
1777.3177889925
  0
VERTEX
  8
Unknown_Line_Type
  10
622094.9914892657
  20
7310894.2116746698
  30
1778.4122439598
  0
VERTEX
  8
Unknown_Line_Type
  10
622095.8746466527
  20
7310895.1761411093
  30
1779.4688597166
  0
VERTEX
  8
Unknown_Line_Type
  10
622096.7927922697
  20
7310896.2823413797
  30
1780.2100744560
  0
VERTEX
  8
Unknown_Line_Type
  10
622096.9370445084
  20
7310897.1902543940
  30
1780.9844397215
  0
SEQEND
  8
Unknown_Line_Type
  0
POLYLINE
  8
Unknown_Line_Type
  66
1
  70
8
  0
VERTEX
  8
Unknown_Line_Type
  10
622218.1562701121
  20
7310693.2597448453
  30
1661.6419522329
  0
VERTEX
  8
Unknown_Line_Type
  10
622220.0005479251
  20
7310693.0688703405
  30
1661.1140756456
  0
VERTEX
  8
Unknown_Line_Type
  10
622220.2399019729
  20
7310694.4936873820
  30
1661.4697656890
  0
VERTEX
  8
Unknown_Line_Type
  10
622221.2380516441
  20
7310695.0013571307
  30
1661.3442942043
  0
VERTEX
  8
Unknown_Line_Type
  10
622222.4001181254
  20
7310694.4587931298
  30
1660.7463536313
  0
VERTEX
  8
Unknown_Line_Type
  10
622223.2454641686
  20
7310695.1658344474
  30
1660.6710815094
  0
VERTEX
  8
Unknown_Line_Type
  10
622223.9376151476
  20
7310696.0764370672
  30
1660.7465956535
  0
VERTEX
  8
Unknown_Line_Type
  10
622224.6797099391
  20
7310697.6079793954
  30
1660.6438941581
  0
VERTEX
  8
Unknown_Line_Type
  10
622226.1286715065
  20
7310698.7906715646
  30
1660.0027830956
  0
VERTEX
  8
Unknown_Line_Type
  10
622227.1342871204
  20
7310698.8622099012
  30
1659.6713830868
  0
VERTEX
  8
Unknown_Line_Type
  10
622227.9217455025
  20
7310700.5579100065
  30
1659.3577448111
  0
VERTEX
  8
Unknown_Line_Type
  10
622230.2903309437
  20
7310703.0346907051
  30
1658.5817517502
  0
VERTEX
  8
Unknown_Line_Type
  10
622228.0564707659
  20
7310704.1387615819
  30
1659.0186589541
  0
VERTEX
  8
Unknown_Line_Type
  10
622228.9419139233
  20
7310706.3370905267
  30
1658.6332986708
  0
VERTEX
  8
Unknown_Line_Type
  10
622228.2936570115
  20
7310709.0990294917
  30
1658.2905083318
  0
VERTEX
  8
Unknown_Line_Type
  10
622229.8395923210
  20
7310709.0175580159
  30
1657.9391676269
  0
VERTEX
  8
Unknown_Line_Type
  10
622233.0865084501
  20
7310707.5004275031
  30
1657.6087311353
  0
VERTEX
  8
Unknown_Line_Type
  10
622232.9525822875
  20
7310708.1217605919
  30
1657.5301771137
  0
VERTEX
  8
Unknown_Line_Type
  10
622231.5841313847
  20
7310710.4895576313
  30
1657.3295941161
  0
VERTEX
  8
Unknown_Line_Type
  10
622232.2711811303
  20
7310711.0086415047
  30
1657.0285412764
  0
VERTEX
  8
Unknown_Line_Type
  10
622232.4431785311
  20
7310712.0179866180
  30
1656.7493444731
  0
SEQEND
  8
Unknown_Line_Type
  0
POLYLINE
  8
Unknown_Line_Type
  66
1
  70
8
  0
VERTEX
  8
Unknown_Line_Type
  10
622158.7669061259
  20
7310897.3269997556
  30
1741.2034774599
  0
VERTEX
  8
Unknown_Line_Type
  10
622157.8263900755
  20
7310897.1119017396
  30
1740.5328361162
  0
VERTEX
  8
Unknown_Line_Type
  10
622156.7195792990
  20
7310896.8266638285
  30
1739.7269161375
  0
VERTEX
  8
Unknown_Line_Type
  10
622156.0623095937
  20
7310896.3998687509
  30
1739.3312889736
  0
VERTEX
  8
Unknown_Line_Type
  10
622155.2182945401
  20
7310895.7802012525
  30
1739.2919881850
  0
VERTEX
  8
Unknown_Line_Type
  10
622154.7506764036
  20
7310895.2789846603
  30
1739.0498957634
  0
VERTEX
  8
Unknown_Line_Type
  10
622154.0128882955
  20
7310894.5652824100
  30
1738.7543696347
  0
VERTEX
  8
Unknown_Line_Type
  10
622152.3061698794
  20
7310893.1525398977
  30
1738.3551599348
  0
VERTEX
  8
Unknown_Line_Type
  10
622151.1278172814
  20
7310892.5199367143
  30
1737.7535945863
  0
VERTEX
  8
Unknown_Line_Type
  10
622149.6979294319
  20
7310892.1360531794
  30
1737.2136372896
  0
VERTEX
  8
Unknown_Line_Type
  10
622149.1803306764
  20
7310891.9785560798
  30
1736.5880972526
  0
VERTEX
  8
Unknown_Line_Type
  10
622147.9200314289
  20
7310891.6608439684
  30
1736.3705006688
  0
VERTEX
  8
Unknown_Line_Type
  10
622147.0523003816
  20
7310890.9247725708
  30
1735.5145297838
  0
VERTEX
  8
Unknown_Line_Type
  10
622146.0496061143
  20
7310889.4938834868
  30
1734.7345581167
  0
VERTEX
  8
Unknown_Line_Type
  10
622145.6868198364
  20
7310888.4118645657
  30
1734.2352395075
  0
VERTEX
  8
Unknown_Line_Type
  10
622144.7894111918
  20
7310886.4242588691
  30
1733.8563978467
  0
VERTEX
  8
Unknown_Line_Type
  10
622144.2807702292
  20
7310885.5826612823
  30
1733.4023010931
  0
VERTEX
  8
Unknown_Line_Type
  10
622143.6790379528
  20
7310884.8140280573
  30
1733.4281262424
  0
VERTEX
  8
Unknown_Line_Type
  10
622143.2760914248
  20
7310883.9902221151
  30
1733.0372323450
  0
VERTEX
  8
Unknown_Line_Type
  10
622142.4915776065
  20
7310882.8198402422
  30
1733.8970879029
  0
VERTEX
  8
Unknown_Line_Type
  10
622142.1224419680
  20
7310882.4091588482
  30
1735.8261068813
  0
VERTEX
  8
Unknown_Line_Type
  10
622141.7841948392
  20
7310880.4834868219
  30
1736.0874779096
  0
VERTEX
  8
Unknown_Line_Type
  10
622141.1684712814
  20
7310879.3330423199
  30
1736.1177556183
  0
VERTEX
  8
Unknown_Line_Type
  10
622140.3651003991
  20
7310878.4888661113
  30
1735.7866630596
  0
VERTEX
  8
Unknown_Line_Type
  10
622139.6617930824
  20
7310877.6801080741
  30
1734.8364806465
  0
VERTEX
  8
Unknown_Line_Type
  10
622139.1387578734
  20
7310877.1644865787
  30
1733.9227242767
  0
SEQEND
  8
Unknown_Line_Type
  0
POLYLINE
  8
Unknown_Line_Type
  66
1
  70
8
  0
VERTEX
  8
Unknown_Line_Type
  10
622146.4153518740
  20
7310798.4481723476
  30
1695.4725846332
  0
VERTEX
  8
Unknown_Line_Type
  10
622147.2347051190
  20
7310799.6879859529
  30
1696.4791444922
  0
VERTEX
  8
Unknown_Line_Type
  10
622149.7864185507
  20
7310800.5758167766
  30
1697.4803785087
  0
VERTEX
  8
Unknown_Line_Type
  10
622152.1576078998
  20
7310803.6915780529
  30
1698.7738303445
  0
VERTEX
  8
Unknown_Line_Type
  10
622153.3575801158
  20
7310802.3415173544
  30
1697.9315292963
  0
VERTEX
  8
Unknown_Line_Type
  10
622154.4132155611
  20
7310802.6030005794
  30
1697.7139674751
  0
VERTEX
  8
Unknown_Line_Type
  10
622156.3447175573
  20
7310803.2306824606
  30
1697.5598794770
  0
VERTEX
  8
Unknown_Line_Type
  10
622157.0384278554
  20
7310805.2006954188
  30
1698.3119268094
  0
VERTEX
  8
Unknown_Line_Type
  10
622157.3670119040
  20
7310807.0652651303
  30
1698.9659735096
  0
VERTEX
  8
Unknown_Line_Type
  10
622158.8637395098
  20
7310807.3959914958
  30
1698.6429013605
  0
VERTEX
  8
Unknown_Line_Type
  10
622161.8028687500
  20
7310807.2619805150
  30
1697.5351517182
  0
VERTEX
  8
Unknown_Line_Type
  10
622163.1338732274
  20
7310811.7942415662
  30
1697.7918335696
  0
VERTEX
  8
Unknown_Line_Type
  10
622164.5966025206
  20
7310812.2593758944
  30
1696.9431693421
  0
VERTEX
  8
Unknown_Line_Type
  10
622165.7827886592
  20
7310811.8702374566
  30
1695.9831168650
  0
VERTEX
  8
Unknown_Line_Type
  10
622166.5692290345
  20
7310814.1159831025
  30
1695.9302142578
  0
VERTEX
  8
Unknown_Line_Type
  10
622168.5326896365
  20
7310814.2042257534
  30
1694.3834603369
  0
VERTEX
  8
Unknown_Line_Type
  10
622168.9057814288
  20
7310816.0262861103
  30
1694.5561211464
  0
VERTEX
  8
Unknown_Line_Type
  10
622170.1523511845
  20
7310817.0456766244
  30
1693.9297499474
  0
SEQEND
  8
Unknown_Line_Type
  0
POLYLINE
  8
Unknown_Line_Type
  66
1
  70
8
  0
VERTEX
  8
Unknown_Line_Type
  10
622220.0293673953
  20
7310672.2288973518
  30
1642.0085516486
  0
VERTEX
  8
Unknown_Line_Type
  10
622221.1646158805
  20
7310672.1470109802
  30
1642.3618329402
  0
VERTEX
  8
Unknown_Line_Type
  10
622222.7841650017
  20
7310672.1418381119
  30
1642.8560251023
  0
VERTEX
  8
Unknown_Line_Type
  10
622224.0854227740
  20
7310671.7928097975
  30
1642.8352914884
  0
VERTEX
  8
Unknown_Line_Type
  10
622224.8402472963
  20
7310671.8325373009
  30
1642.9753565148
  0
VERTEX
  8
Unknown_Line_Type
  10
622225.6573963215
  20
7310672.2168203043
  30
1643.3431110107
  0
VERTEX
  8
Unknown_Line_Type
  10
622226.8099232939
  20
7310672.5263735168
  30
1643.5028690459
  0
VERTEX
  8
Unknown_Line_Type
  10
622227.7720146631
  20
7310672.9622980841
  30
1643.7269938866
  0
VERTEX
  8
Unknown_Line_Type
  10
622228.6466473504
  20
7310673.4231598489
  30
1643.8646698269
  0
VERTEX
  8
Unknown_Line_Type
  10
622229.3026937284
  20
7310673.6724749580
  30
1643.8782977673
  0
VERTEX
  8
Unknown_Line_Type
  10
622230.1659262761
  20
7310674.4994574282
  30
1644.2311489591
  0
VERTEX
  8
Unknown_Line_Type
  10
622231.4494284770
  20
7310675.2801137231
  30
1644.3073785912
  0
VERTEX
  8
Unknown_Line_Type
  10
622232.2569731742
  20
7310675.8035248928
  30
1644.3889515522
  0
VERTEX
  8
Unknown_Line_Type
  10
622233.0517462069
  20
7310675.9932476301
  30
1644.2103043062
  0
VERTEX
  8
Unknown_Line_Type
  10
622233.6195417316
  20
7310676.3796034120
  30
1644.2239983801
  0
VERTEX
  8
Unknown_Line_Type
  10
622234.1625520903
  20
7310676.4682839708
  30
1643.9704650645
  0
VERTEX
  8
Unknown_Line_Type
  10
622234.8064015692
  20
7310677.1454951279
  30
1643.8981412261
  0
VERTEX
  8
Unknown_Line_Type
  10
622235.2336264651
  20
7310678.0178466924
  30
1644.0547563647
  0
VERTEX
  8
Unknown_Line_Type
  10
622236.0679617105
  20
7310678.7410150105
  30
1643.9194530645
  0
VERTEX
  8
Unknown_Line_Type
  10
622237.3858122282
  20
7310679.6179136652
  30
1643.5119359769
  0
VERTEX
  8
Unknown_Line_Type
  10
622238.1251257841
  20
7310680.3096663877
  30
1643.3378291245
  0
VERTEX
  8
Unknown_Line_Type
  10
622239.3830171960
  20
7310680.8783697011
  30
1642.8074440804
  0
SEQEND
  8
Unknown_Line_Type
  0
POLYLINE
  8
Unknown_Line_Type
  66
1
  70
8
  0
VERTEX
  8
Unknown_Line_Type
  10
622210.2151621963
  20
7310666.9703138284
  30
1637.1126376942
  0
VERTEX
  8
Unknown_Line_Type
  10
622211.1632195029
  20
7310667.2292582523
  30
1637.2268304259
  0
VERTEX
  8
Unknown_Line_Type
  10
622211.9412847903
  20
7310667.2166062687
  30
1637.1744960070
  0
VERTEX
  8
Unknown_Line_Type
  10
622212.5735950549
  20
7310667.5661867531
  30
1637.4962624946
  0
VERTEX
  8
Unknown_Line_Type
  10
622213.2459789830
  20
7310668.0668156017
  30
1638.1131233796
  0
VERTEX
  8
Unknown_Line_Type
  10
622214.2774144828
  20
7310668.0324540362
  30
1638.2402187888
  0
VERTEX
  8
Unknown_Line_Type
  10
622215.4996227659
  20
7310668.1771569140
  30
1638.4377278577
  0
VERTEX
  8
Unknown_Line_Type
  10
622217.2825240059
  20
7310668.8643451799
  30
1639.0173457188
  0
VERTEX
  8
Unknown_Line_Type
  10
622218.9527709696
  20
7310668.8400934190
  30
1638.9804500723
  0
VERTEX
  8
Unknown_Line_Type
  10
622219.4805124227
  20
7310668.9309809282
  30
1639.0787667112
  0
VERTEX
  8
Unknown_Line_Type
  10
622219.9951311061
  20
7310669.3105843263
  30
1639.4883605949
  0
VERTEX
  8
Unknown_Line_Type
  10
622221.1679661847
  20
7310669.5779246185
  30
1639.9371011455
  0
VERTEX
  8
Unknown_Line_Type
  10
622222.1006817959
  20
7310669.5172085604
  30
1640.1399197601
  0
VERTEX
  8
Unknown_Line_Type
  10
622223.3387370360
  20
7310669.6478917887
  30
1640.5921284213
  0
VERTEX
  8
Unknown_Line_Type
  10
622224.2564627040
  20
7310669.6555633983
  30
1640.7479019344
  0
VERTEX
  8
Unknown_Line_Type
  10
622225.0306819346
  20
7310669.9073083121
  30
1641.0916987936
  0
VERTEX
  8
Unknown_Line_Type
  10
622225.8453196327
  20
7310670.1968317712
  30
1641.4590630889
  0
VERTEX
  8
Unknown_Line_Type
  10
622226.6520859054
  20
7310670.3878476284
  30
1641.5899510690
  0
VERTEX
  8
Unknown_Line_Type
  10
622227.2834836457
  20
7310670.6799180917
  30
1641.7938782573
  0
VERTEX
  8
Unknown_Line_Type
  10
622229.0310973791
  20
7310670.4406443443
  30
1642.2060349550
  0
VERTEX
  8
Unknown_Line_Type
  10
622230.1905893069
  20
7310671.1205053655
  30
1642.2674790361
  0
VERTEX
  8
Unknown_Line_Type
  10
622230.8568798124
  20
7310672.3303539688
  30
1641.9947593938
  0
VERTEX
  8
Unknown_Line_Type
  10
622231.2965419533
  20
7310672.8524416490
  30
1642.2696698859
  0
VERTEX
  8
Unknown_Line_Type
  10
622231.8752753229
  20
7310673.1570261316
  30
1642.2666118931
  0
VERTEX
  8
Unknown_Line_Type
  10
622232.8877534400
  20
7310673.6944737947
  30
1642.2041818838
  0
VERTEX
  8
Unknown_Line_Type
  10
622233.1094851487
  20
7310673.7477637660
  30
1642.1320090824
  0
VERTEX
  8
Unknown_Line_Type
  10
622234.4286022318
  20
7310674.4774316475
  30
1642.0059317693
  0
VERTEX
  8
Unknown_Line_Type
  10
622235.9941485454
  20
7310675.1847263742
  30
1642.0672492623
  0
VERTEX
  8
Unknown_Line_Type
  10
622235.9721429963
  20
7310675.8544860426
  30
1641.8808613738
  0
VERTEX
  8
Unknown_Line_Type
  10
622237.1552049974
  20
7310676.8075082777
  30
1641.5543160662
  0
VERTEX
  8
Unknown_Line_Type
  10
622238.0771457368
  20
7310677.5323058870
  30
1641.5559198920
  0
VERTEX
  8
Unknown_Line_Type
  10
622239.1138008990
  20
7310677.7557131657
  30
1641.0603168479
  0
VERTEX
  8
Unknown_Line_Type
  10
622239.7391687844
  20
7310678.5322865117
  30
1641.2146591824
  0
VERTEX
  8
Unknown_Line_Type
  10
622240.3776103966
  20
7310678.9278562730
  30
1641.0877311924
  0
VERTEX
  8
Unknown_Line_Type
  10
622241.6260395168
  20
7310679.7317117527
  30
1640.9122323803
  0
VERTEX
  8
Unknown_Line_Type
  10
622242.4445109757
  20
7310680.5309083993
  30
1640.8868625571
  0
VERTEX
  8
Unknown_Line_Type
  10
622243.1459441666
  20
7310681.0545579344
  30
1640.6841436850
  0
VERTEX
  8
Unknown_Line_Type
  10
622243.5471895596
  20
7310681.7087818868
  30
1640.7561943032
  0
VERTEX
  8
Unknown_Line_Type
  10
622244.2117249121
  20
7310682.6259598844
  30
1640.7175308234
  0
VERTEX
  8
Unknown_Line_Type
  10
622244.5154659557
  20
7310683.1587253418
  30
1640.7215802896
  0
VERTEX
  8
Unknown_Line_Type
  10
622245.7006118768
  20
7310684.6574043967
  30
1640.5323092638
  0
VERTEX
  8
Unknown_Line_Type
  10
622246.2851746606
  20
7310685.2750993585
  30
1640.3803408067
  0
VERTEX
  8
Unknown_Line_Type
  10
622247.1909590499
  20
7310686.8472790634
  30
1640.3144833192
  0
VERTEX
  8
Unknown_Line_Type
  10
622248.2805677849
  20
7310687.7611334939
  30
1639.8720516842
  0
VERTEX
  8
Unknown_Line_Type
  10
622248.8123010453
  20
7310688.0299687646
  30
1639.5909339178
  0
SEQEND
  8
Unknown_Line_Type
  0
POLYLINE
  8
Unknown_Line_Type
  66
1
  70
8
  0
VERTEX
  8
Unknown_Line_Type
  10
622107.4554569133
  20
7310830.7088074172
  30
1715.3057553864
  0
VERTEX
  8
Unknown_Line_Type
  10
622108.1115132863
  20
7310831.5089301690
  30
1715.8360561747
  0
VERTEX
  8
Unknown_Line_Type
  10
622109.2197474776
  20
7310832.9764275160
  30
1716.6766925909
  0
VERTEX
  8
Unknown_Line_Type
  10
622111.0197901257
  20
7310832.8563534208
  30
1716.3817472087
  0
VERTEX
  8
Unknown_Line_Type
  10
622111.4448396217
  20
7310834.6394869797
  30
1717.4991870050
  0
VERTEX
  8
Unknown_Line_Type
  10
622112.4905100658
  20
7310835.9220401300
  30
1718.1982519779
  0
VERTEX
  8
Unknown_Line_Type
  10
622113.6383189882
  20
7310837.0032818336
  30
1718.7827747611
  0
VERTEX
  8
Unknown_Line_Type
  10
622114.2904921714
  20
7310837.1664892780
  30
1718.8114566370
  0
VERTEX
  8
Unknown_Line_Type
  10
622115.3125082373
  20
7310838.5227478240
  30
1719.7086214599
  0
VERTEX
  8
Unknown_Line_Type
  10
622116.0263120600
  20
7310840.3175407331
  30
1720.9509002109
  0
VERTEX
  8
Unknown_Line_Type
  10
622116.7842915310
  20
7310841.1311807875
  30
1721.3791534283
  0
VERTEX
  8
Unknown_Line_Type
  10
622118.5058124964
  20
7310840.9728725273
  30
1720.8825400235
  0
VERTEX
  8
Unknown_Line_Type
  10
622118.8701151063
  20
7310840.9615165982
  30
1720.7915982957
  0
VERTEX
  8
Unknown_Line_Type
  10
622119.3540094646
  20
7310841.2472105967
  30
1720.8914448463
  0
VERTEX
  8
Unknown_Line_Type
  10
622119.6236566071
  20
7310842.3389022406
  30
1721.6278368627
  0
VERTEX
  8
Unknown_Line_Type
  10
622120.3541424982
  20
7310843.4360154383
  30
1722.2639192554
  0
VERTEX
  8
Unknown_Line_Type
  10
622122.0263550024
  20
7310844.8331843950
  30
1722.9460630026
  0
VERTEX
  8
Unknown_Line_Type
  10
622122.9197254786
  20
7310846.0369572872
  30
1723.6653406667
  0
VERTEX
  8
Unknown_Line_Type
  10
622123.5182198506
  20
7310846.5260849399
  30
1723.9049873787
  0
VERTEX
  8
Unknown_Line_Type
  10
622124.6340609338
  20
7310846.5265366146
  30
1723.6721740101
  0
VERTEX
  8
Unknown_Line_Type
  10
622126.5118973262
  20
7310845.8073730888
  30
1722.7850064818
  0
VERTEX
  8
Unknown_Line_Type
  10
622127.8779232809
  20
7310846.0089502297
  30
1722.6290568398
  0
VERTEX
  8
Unknown_Line_Type
  10
622129.2758541907
  20
7310845.6474918183
  30
1722.0143843367
  0
VERTEX
  8
Unknown_Line_Type
  10
622130.3956317044
  20
7310846.0309321694
  30
1721.8985451718
  0
VERTEX
  8
Unknown_Line_Type
  10
622131.0350626824
  20
7310846.2635395750
  30
1721.8331022517
  0
VERTEX
  8
Unknown_Line_Type
  10
622133.0818869050
  20
7310847.2210495099
  30
1721.7287964188
  0
VERTEX
  8
Unknown_Line_Type
  10
622133.4074300181
  20
7310847.9573932197
  30
1722.0101809280
  0
VERTEX
  8
Unknown_Line_Type
  10
622134.0027817482
  20
7310848.2799298754
  30
1721.9545593049
  0
VERTEX
  8
Unknown_Line_Type
  10
622135.0251158770
  20
7310848.2699947543
  30
1721.5473635249
  0
VERTEX
  8
Unknown_Line_Type
  10
622135.6543732670
  20
7310847.9175279643
  30
1721.1242060513
  0
VERTEX
  8
Unknown_Line_Type
  10
622136.1480665559
  20
7310848.2399070999
  30
1721.0810671439
  0
VERTEX
  8
Unknown_Line_Type
  10
622137.1508132061
  20
7310848.2564967312
  30
1720.6797573935
  0
VERTEX
  8
Unknown_Line_Type
  10
622137.5242549124
  20
7310850.1550679347
  30
1721.3418366229
  0
SEQEND
  8
Unknown_Line_Type
  0
POLYLINE
  8
Unknown_Line_Type
  66
1
  70
8
  0
VERTEX
  8
Unknown_Line_Type
  10
622095.8605369472
  20
7310765.3149005082
  30
1669.1340527109
  0
VERTEX
  8
Unknown_Line_Type
  10
622097.1180728340
  20
7310766.2979718149
  30
1670.0439231143
  0
VERTEX
  8
Unknown_Line_Type
  10
622102.1494337674
  20
7310765.5325261839
  30
1670.7730368219
  0
VERTEX
  8
Unknown_Line_Type
  10
622104.3260275247
  20
7310767.2668760382
  30
1671.8225718793
  0
VERTEX
  8
Unknown_Line_Type
  10
622108.5656683836
  20
7310766.4132845756
  30
1671.6757858706
  0
VERTEX
  8
Unknown_Line_Type
  10
622111.9262783148
  20
7310767.4456072962
  30
1672.5097241730
  0
VERTEX
  8
Unknown_Line_Type
  10
622114.3913804120
  20
7310768.8684397778
  30
1673.7651477304
  0
VERTEX
  8
Unknown_Line_Type
  10
622118.7977902745
  20
7310769.8123396421
  30
1675.3052709776
  0
VERTEX
  8
Unknown_Line_Type
  10
622121.0000059817
  20
7310771.8084323760
  30
1676.7367772112
  0
VERTEX
  8
Unknown_Line_Type
  10
622123.4921852537
  20
7310772.1929340418
  30
1676.9544808275
  0
VERTEX
  8
Unknown_Line_Type
  10
622125.2879753765
  20
7310772.9213654520
  30
1677.4955981358
  0
VERTEX
  8
Unknown_Line_Type
  10
622128.9306033517
  20
7310773.3740079394
  30
1678.0846730741
  0
VERTEX
  8
Unknown_Line_Type
  10
622131.4026538036
  20
7310774.3525824249
  30
1678.8963054087
  0
SEQEND
  8
Unknown_Line_Type
  0
POLYLINE
  8
Unknown_Line_Type
  66
1
  70
8
  0
VERTEX
  8
Unknown_Line_Type
  10
622199.5788419535
  20
7310793.8472494278
  30
1667.6132832385
  0
VERTEX
  8
Unknown_Line_Type
  10
622200.4721004713
  20
7310795.3976938240
  30
1667.6863801204
  0
VERTEX
  8
Unknown_Line_Type
  10
622202.1494803201
  20
7310798.2664258890
  30
1667.5647875674
  0
VERTEX
  8
Unknown_Line_Type
  10
622204.4246150926
  20
7310801.3001333009
  30
1667.3245073343
  0
VERTEX
  8
Unknown_Line_Type
  10
622206.9418165362
  20
7310803.7935877386
  30
1666.8248172785
  0
VERTEX
  8
Unknown_Line_Type
  10
622209.1959596184
  20
7310806.2420292413
  30
1666.0444402676
  0
VERTEX
  8
Unknown_Line_Type
  10
622211.8086566267
  20
7310808.6756747020
  30
1664.4804896759
  0
VERTEX
  8
Unknown_Line_Type
  10
622213.9324615665
  20
7310811.1498486139
  30
1662.9928975105
  0
VERTEX
  8
Unknown_Line_Type
  10
622214.1241290440
  20
7310813.6405847352
  30
1663.5536981173
  0
VERTEX
  8
Unknown_Line_Type
  10
622216.0958470391
  20
7310815.1500047985
  30
1662.7441179035
  0
VERTEX
  8
Unknown_Line_Type
  10
622218.2700086609
  20
7310816.0757526420
  30
1662.5448151709
  0
VERTEX
  8
Unknown_Line_Type
  10
622220.5423222078
  20
7310816.6887192782
  30
1662.5807457536
  0
SEQEND
  8
Unknown_Line_Type
  0
POLYLINE
  8
Unknown_Line_Type
  66
1
  70
8
  0
VERTEX
  8
Unknown_Line_Type
  10
622156.6121745647
  20
7310795.9709827444
  30
1692.6939433698
  0
VERTEX
  8
Unknown_Line_Type
  10
622157.1909586903
  20
7310796.3611609582
  30
1692.8316125413
  0
VERTEX
  8
Unknown_Line_Type
  10
622157.7573251129
  20
7310797.5452915058
  30
1693.5247337382
  0
VERTEX
  8
Unknown_Line_Type
  10
622158.6586458343
  20
7310798.1987939160
  30
1693.7274064733
  0
VERTEX
  8
Unknown_Line_Type
  10
622159.4634263114
  20
7310798.2268621977
  30
1693.5373845878
  0
VERTEX
  8
Unknown_Line_Type
  10
622161.5092001216
  20
7310799.3387442306
  30
1693.6925007157
  0
VERTEX
  8
Unknown_Line_Type
  10
622163.2555517494
  20
7310800.2465580422
  30
1693.6195074021
  0
VERTEX
  8
Unknown_Line_Type
  10
622163.4278299835
  20
7310801.3934418093
  30
1694.0796891005
  0
VERTEX
  8
Unknown_Line_Type
  10
622165.3937303646
  20
7310801.7238478456
  30
1693.3671465862
  0
VERTEX
  8
Unknown_Line_Type
  10
622166.3492730525
  20
7310803.2618299546
  30
1693.3157318363
  0
VERTEX
  8
Unknown_Line_Type
  10
622167.2948575211
  20
7310804.6028432772
  30
1692.9495328504
  0
VERTEX
  8
Unknown_Line_Type
  10
622167.2618632686
  20
7310806.4790024776
  30
1693.0877067894
  0
VERTEX
  8
Unknown_Line_Type
  10
622167.7399839582
  20
7310808.2754443521
  30
1693.0501674027
  0
VERTEX
  8
Unknown_Line_Type
  10
622168.6903904192
  20
7310808.1377584748
  30
1692.3828956051
  0
VERTEX
  8
Unknown_Line_Type
  10
622168.9419710711
  20
7310809.6199427713
  30
1692.5946474399
  0
VERTEX
  8
Unknown_Line_Type
  10
622169.9093083043
  20
7310811.1426071879
  30
1692.3842591456
  0
VERTEX
  8
Unknown_Line_Type
  10
622171.6086788217
  20
7310810.8952211346
  30
1691.2231307943
  0
VERTEX
  8
Unknown_Line_Type
  10
622172.3672467839
  20
7310812.9571163952
  30
1690.9336706015
  0
VERTEX
  8
Unknown_Line_Type
  10
622172.8631299834
  20
7310814.4446310345
  30
1690.8975774812
  0
VERTEX
  8
Unknown_Line_Type
  10
622173.5097133485
  20
7310815.4131333437
  30
1690.6269272907
  0
VERTEX
  8
Unknown_Line_Type
  10
622174.8335641535
  20
7310816.5216810983
  30
1689.8611178918
  0
VERTEX
  8
Unknown_Line_Type
  10
622175.8761244076
  20
7310817.6575039811
  30
1689.4206413607
  0
VERTEX
  8
Unknown_Line_Type
  10
622177.3234709289
  20
7310817.5510963183
  30
1688.4423567318
  0
VERTEX
  8
Unknown_Line_Type
  10
622178.2838032435
  20
7310818.3405141421
  30
1687.9356376623
  0
VERTEX
  8
Unknown_Line_Type
  10
622179.1168969745
  20
7310819.6309367651
  30
1687.5801406927
  0
VERTEX
  8
Unknown_Line_Type
  10
622180.9908623948
  20
7310820.5274043474
  30
1686.5093351064
  0
SEQEND
  8
Unknown_Line_Type
  0
POLYLINE
  8
Unknown_Line_Type
  66
1
  70
8
  0
VERTEX
  8
Unknown_Line_Type
  10
622345.8023909128
  20
7310574.1155935423
  30
1542.8674066175
  0
VERTEX
  8
Unknown_Line_Type
  10
622347.0183005465
  20
7310575.1851705052
  30
1543.3426924360
  0
VERTEX
  8
Unknown_Line_Type
  10
622347.7920061013
  20
7310575.8959917724
  30
1544.1475019491
  0
VERTEX
  8
Unknown_Line_Type
  10
622349.6422769018
  20
7310577.3131698063
  30
1544.2789428250
  0
VERTEX
  8
Unknown_Line_Type
  10
622351.4322893107
  20
7310578.9398517478
  30
1545.4910791250
  0
VERTEX
  8
Unknown_Line_Type
  10
622352.9050710301
  20
7310580.7914133146
  30
1546.1987729796
  0
VERTEX
  8
Unknown_Line_Type
  10
622353.7169550586
  20
7310582.0923541225
  30
1546.8960775709
  0
VERTEX
  8
Unknown_Line_Type
  10
622354.6948655192
  20
7310583.3826301126
  30
1546.3201943610
  0
VERTEX
  8
Unknown_Line_Type
  10
622356.1695656169
  20
7310584.7974249432
  30
1547.0810689462
  0
VERTEX
  8
Unknown_Line_Type
  10
622358.4886951560
  20
7310585.5929738749
  30
1547.7169272212
  0
VERTEX
  8
Unknown_Line_Type
  10
622359.8777437216
  20
7310586.2346172594
  30
1547.6994159259
  0
VERTEX
  8
Unknown_Line_Type
  10
622361.6487488317
  20
7310587.4004329462
  30
1548.1192263409
  0
VERTEX
  8
Unknown_Line_Type
  10
622362.8818728256
  20
7310588.6704750881
  30
1547.3165780040
  0
VERTEX
  8
Unknown_Line_Type
  10
622364.0062213019
  20
7310590.5269133421
  30
1547.0108240236
  0
VERTEX
  8
Unknown_Line_Type
  10
622364.6918499856
  20
7310592.3082944248
  30
1547.7011355352
  0
VERTEX
  8
Unknown_Line_Type
  10
622365.9101825762
  20
7310593.7192802690
  30
1547.9181677667
  0
VERTEX
  8
Unknown_Line_Type
  10
622367.0919037196
  20
7310594.8492400395
  30
1548.4939272971
  0
VERTEX
  8
Unknown_Line_Type
  10
622368.6009973177
  20
7310596.1189271398
  30
1548.3136201354
  0
VERTEX
  8
Unknown_Line_Type
  10
622369.6196341375
  20
7310596.6843790347
  30
1548.7302428589
  0
VERTEX
  8
Unknown_Line_Type
  10
622371.2014875249
  20
7310597.2046285830
  30
1548.5729867330
  0
VERTEX
  8
Unknown_Line_Type
  10
622372.0893137421
  20
7310597.6393465661
  30
1549.3729284798
  0
SEQEND
  8
Unknown_Line_Type
  0
POLYLINE
  8
Unknown_Line_Type
  66
1
  70
8
  0
VERTEX
  8
Unknown_Line_Type
  10
622245.6576333037
  20
7310650.5563759189
  30
1618.2604086821
  0
VERTEX
  8
Unknown_Line_Type
  10
622246.9136114798
  20
7310651.2427221686
  30
1618.3358981702
  0
VERTEX
  8
Unknown_Line_Type
  10
622249.6640000192
  20
7310652.3131933529
  30
1618.5285568148
  0
VERTEX
  8
Unknown_Line_Type
  10
622250.9387081151
  20
7310652.8525458686
  30
1618.6115003847
  0
VERTEX
  8
Unknown_Line_Type
  10
622252.8966186636
  20
7310653.7875303412
  30
1618.6719986095
  0
VERTEX
  8
Unknown_Line_Type
  10
622254.9714382340
  20
7310654.7869276181
  30
1618.6134304623
  0
VERTEX
  8
Unknown_Line_Type
  10
622256.5851754756
  20
7310655.5997038614
  30
1618.7416831960
  0
VERTEX
  8
Unknown_Line_Type
  10
622258.1082119955
  20
7310656.3748914273
  30
1618.7695590846
  0
VERTEX
  8
Unknown_Line_Type
  10
622259.3411040728
  20
7310657.2694265489
  30
1618.5846267834
  0
VERTEX
  8
Unknown_Line_Type
  10
622260.9264630231
  20
7310658.2669577543
  30
1618.5965560025
  0
VERTEX
  8
Unknown_Line_Type
  10
622262.0385222776
  20
7310659.0193744954
  30
1618.5197107062
  0
VERTEX
  8
Unknown_Line_Type
  10
622263.3546244673
  20
7310660.0831025317
  30
1618.2651441720
  0
VERTEX
  8
Unknown_Line_Type
  10
622264.1677191722
  20
7310660.9275765661
  30
1618.0919517651
  0
VERTEX
  8
Unknown_Line_Type
  10
622265.5583635733
  20
7310661.8814209625
  30
1618.0138867501
  0
SEQEND
  8
Unknown_Line_Type
  0
POLYLINE
  8
Unknown_Line_Type
  66
1
  70
8
  0
VERTEX
  8
Unknown_Line_Type
  10
622256.2359856282
  20
7310655.5633035619
  30
1618.8500222739
  0
VERTEX
  8
Unknown_Line_Type
  10
622256.2359856282
  20
7310655.5633035619
  30
1618.8500222739
  0
SEQEND
  8
Unknown_Line_Type
  0
POLYLINE
  8
Unknown_Line_Type
  66
1
  70
8
  0
VERTEX
  8
Unknown_Line_Type
  10
622245.9392011147
  20
7310650.5009188941
  30
1618.0818949200
  0
VERTEX
  8
Unknown_Line_Type
  10
622247.8465018569
  20
7310651.4217951484
  30
1618.4124832033
  0
VERTEX
  8
Unknown_Line_Type
  10
622250.0794964546
  20
7310652.5642627347
  30
1618.5922814284
  0
VERTEX
  8
Unknown_Line_Type
  10
622252.4538054727
  20
7310653.4703731118
  30
1618.6140289678
  0
VERTEX
  8
Unknown_Line_Type
  10
622254.6572848201
  20
7310654.5551226670
  30
1618.6344237807
  0
VERTEX
  8
Unknown_Line_Type
  10
622256.8435244437
  20
7310655.6168883946
  30
1618.7084237043
  0
VERTEX
  8
Unknown_Line_Type
  10
622258.4877261743
  20
7310656.6817493066
  30
1618.7121175086
  0
VERTEX
  8
Unknown_Line_Type
  10
622260.0180390495
  20
7310657.5827830695
  30
1618.7130088957
  0
VERTEX
  8
Unknown_Line_Type
  10
622262.1138978121
  20
7310658.9224761641
  30
1618.4517083813
  0
VERTEX
  8
Unknown_Line_Type
  10
622263.9134842961
  20
7310660.6058813743
  30
1618.1780758279
  0
VERTEX
  8
Unknown_Line_Type
  10
622265.8022616077
  20
7310662.4952849187
  30
1617.8134236439
  0
VERTEX
  8
Unknown_Line_Type
  10
622267.7032792310
  20
7310664.8658985235
  30
1617.3058832855
  0
VERTEX
  8
Unknown_Line_Type
  10
622269.3549279221
  20
7310666.7693679659
  30
1616.7685712317
  0
SEQEND
  8
Unknown_Line_Type
  0
POLYLINE
  8
New_shapes
  66
1
  70
8
  0
VERTEX
  8
New_shapes
  10
622290.8448196544
  20
7310716.0352018401
  30
1598.7375772956
  0
VERTEX
  8
New_shapes
  10
622290.6914927946
  20
7310715.3817693852
  30
1598.8819888147
  0
VERTEX
  8
New_shapes
  10
622290.3372193406
  20
7310714.8181373309
  30
1599.1536007428
  0
VERTEX
  8
New_shapes
  10
622290.1633376129
  20
7310713.5031005554
  30
1599.8633083961
  0
VERTEX
  8
New_shapes
  10
622289.8407174771
  20
7310712.4805450067
  30
1600.1075884902
  0
VERTEX
  8
New_shapes
  10
622289.4195789855
  20
7310711.6895015370
  30
1600.3783686187
  0
VERTEX
  8
New_shapes
  10
622288.9219947374
  20
7310711.0385703994
  30
1600.6501862533
  0
VERTEX
  8
New_shapes
  10
622288.6622886512
  20
7310710.3988243211
  30
1600.8631583063
  0
VERTEX
  8
New_shapes
  10
622288.3521135945
  20
7310709.9563832842
  30
1601.0580114365
  0
VERTEX
  8
New_shapes
  10
622287.9172910425
  20
7310709.2034692951
  30
1601.3975341404
  0
VERTEX
  8
New_shapes
  10
622287.5713853537
  20
7310708.5094325002
  30
1601.5890573709
  0
VERTEX
  8
New_shapes
  10
622286.5293922463
  20
7310707.3011392560
  30
1601.6957056442
  0
VERTEX
  8
New_shapes
  10
622286.5837426080
  20
7310705.6588869914
  30
1602.5169839278
  0
VERTEX
  8
New_shapes
  10
622285.9965336964
  20
7310704.6525329016
  30
1602.7816845401
  0
VERTEX
  8
New_shapes
  10
622285.4995619671
  20
7310703.4792600796
  30
1603.4273660702
  0
VERTEX
  8
New_shapes
  10
622285.1553363722
  20
7310701.3035743069
  30
1604.4143928605
  0
VERTEX
  8
New_shapes
  10
622284.3697837752
  20
7310700.1435490502
  30
1604.9009136366
  0
VERTEX
  8
New_shapes
  10
622283.1615754588
  20
7310698.6526500750
  30
1605.4822707938
  0
VERTEX
  8
New_shapes
  10
622282.7897658366
  20
7310697.2354362644
  30
1605.8729203953
  0
VERTEX
  8
New_shapes
  10
622282.1984963631
  20
7310695.7828126252
  30
1606.4330627463
  0
VERTEX
  8
New_shapes
  10
622281.6111617400
  20
7310694.7846805993
  30
1606.6045215318
  0
VERTEX
  8
New_shapes
  10
622281.5220292377
  20
7310694.0681645731
  30
1606.8379511720
  0
VERTEX
  8
New_shapes
  10
622280.9447279398
  20
7310692.5720969904
  30
1607.4813597176
  0
VERTEX
  8
New_shapes
  10
622280.5695671756
  20
7310691.7323286030
  30
1607.9594146157
  0
VERTEX
  8
New_shapes
  10
622279.6118291065
  20
7310689.7777298931
  30
1608.8047938310
  0
VERTEX
  8
New_shapes
  10
622279.0584981545
  20
7310687.4387612808
  30
1609.5421408886
  0
VERTEX
  8
New_shapes
  10
622278.3674752475
  20
7310685.2819593186
  30
1610.4681771547
  0
VERTEX
  8
New_shapes
  10
622277.6589535315
  20
7310683.5039754193
  30
1611.1162449245
  0
VERTEX
  8
New_shapes
  10
622277.0500452255
  20
7310681.7348860754
  30
1611.8046015130
  0
VERTEX
  8
New_shapes
  10
622276.2805136051
  20
7310679.8105079401
  30
1612.3739335340
  0
VERTEX
  8
New_shapes
  10
622275.5716069825
  20
7310678.0897567645
  30
1612.8753677263
  0
VERTEX
  8
New_shapes
  10
622274.5701496169
  20
7310675.2013204582
  30
1613.5370635023
  0
VERTEX
  8
New_shapes
  10
622273.9147845699
  20
7310673.8229928426
  30
1613.9324840301
  0
VERTEX
  8
New_shapes
  10
622273.1153491616
  20
7310672.7238233648
  30
1614.5375530737
  0
VERTEX
  8
New_shapes
  10
622272.8246535171
  20
7310671.6075995043
  30
1614.8123439275
  0
VERTEX
  8
New_shapes
  10
622272.3172613313
  20
7310670.4429968381
  30
1615.2181218756
  0
VERTEX
  8
New_shapes
  10
622272.0045372880
  20
7310669.9432759620
  30
1615.3334579045
  0
VERTEX
  8
New_shapes
  10
622271.0253290837
  20
7310668.5445137173
  30
1615.7659105938
  0
VERTEX
  8
New_shapes
  10
622270.0057790051
  20
7310667.2482415531
  30
1616.4564883891
  0
VERTEX
  8
New_shapes
  10
622269.0222927296
  20
7310666.1401904123
  30
1616.8649003192
  0
VERTEX
  8
New_shapes
  10
622267.1991410203
  20
7310664.1121739987
  30
1617.4473000849
  0
VERTEX
  8
New_shapes
  10
622266.3573194317
  20
7310662.8160597216
  30
1617.8350527439
  0
VERTEX
  8
New_shapes
  10
622264.7583684399
  20
7310661.3642897140
  30
1617.9546088899
  0
VERTEX
  8
New_shapes
  10
622263.8216060040
  20
7310660.4154750081
  30
1618.1849477143
  0
VERTEX
  8
New_shapes
  10
622262.9439439265
  20
7310659.6998849027
  30
1618.3442862004
  0
VERTEX
  8
New_shapes
  10
622261.2569148522
  20
7310658.4024509704
  30
1618.5350300527
  0
VERTEX
  8
New_shapes
  10
622259.2411715975
  20
7310657.1160919871
  30
1618.7329649731
  0
VERTEX
  8
New_shapes
  10
622256.8386841689
  20
7310655.6622518562
  30
1618.7407791696
  0
VERTEX
  8
New_shapes
  10
622253.1149072531
  20
7310653.8201236930
  30
1618.6091773345
  0
VERTEX
  8
New_shapes
  10
622246.8130251274
  20
7310651.1166505180
  30
1618.4147302953
  0
VERTEX
  8
New_shapes
  10
622243.8671168396
  20
7310649.8198979981
  30
1618.0159411631
  0
VERTEX
  8
New_shapes
  10
622241.4158801241
  20
7310648.4702483024
  30
1618.1994839495
  0
VERTEX
  8
New_shapes
  10
622238.2351790567
  20
7310647.0455421191
  30
1618.1016922783
  0
VERTEX
  8
New_shapes
  10
622232.3085720398
  20
7310645.3874542285
  30
1617.0388458900
  0
VERTEX
  8
New_shapes
  10
622229.2197696936
  20
7310644.2270973977
  30
1616.6204311616
  0
SEQEND
  8
New_shapes
  0
POLYLINE
  8
New_shapes
  66
1
  70
8
  0
VERTEX
  8
New_shapes
  10
622204.0792345241
  20
7310660.7397151366
  30
1635.7602196542
  0
VERTEX
  8
New_shapes
  10
622204.5432462706
  20
7310660.9621623689
  30
1635.7672596736
  0
VERTEX
  8
New_shapes
  10
622205.0668073177
  20
7310661.3551789876
  30
1635.8307677478
  0
VERTEX
  8
New_shapes
  10
622205.8326416685
  20
7310661.6272041248
  30
1635.7317870852
  0
VERTEX
  8
New_shapes
  10
622206.7185275945
  20
7310661.5382266371
  30
1635.4684943754
  0
VERTEX
  8
New_shapes
  10
622207.0417437069
  20
7310661.7448915411
  30
1635.4615212200
  0
VERTEX
  8
New_shapes
  10
622207.4189540001
  20
7310661.9384337729
  30
1635.4645469564
  0
VERTEX
  8
New_shapes
  10
622208.3260847131
  20
7310662.3951673750
  30
1635.4738214863
  0
VERTEX
  8
New_shapes
  10
622209.2739083762
  20
7310663.1885222364
  30
1635.8047737520
  0
VERTEX
  8
New_shapes
  10
622210.9150104681
  20
7310663.7625060137
  30
1635.9229902599
  0
VERTEX
  8
New_shapes
  10
622211.3992307514
  20
7310664.0223267749
  30
1636.0113158761
  0
VERTEX
  8
New_shapes
  10
622212.1821271097
  20
7310664.1438198220
  30
1636.2128348348
  0
VERTEX
  8
New_shapes
  10
622213.2265189318
  20
7310664.3421531897
  30
1636.0807008680
  0
VERTEX
  8
New_shapes
  10
622213.8399479796
  20
7310664.4984206585
  30
1636.1219769737
  0
VERTEX
  8
New_shapes
  10
622214.9968151143
  20
7310665.0912846969
  30
1636.4772645789
  0
VERTEX
  8
New_shapes
  10
622216.5405942393
  20
7310665.3146121111
  30
1637.0072047293
  0
VERTEX
  8
New_shapes
  10
622217.9721972126
  20
7310664.8990816660
  30
1637.2796822500
  0
VERTEX
  8
New_shapes
  10
622219.2733415093
  20
7310665.4056098564
  30
1637.7087894893
  0
VERTEX
  8
New_shapes
  10
622220.9077396069
  20
7310665.0392844537
  30
1637.9072115995
  0
VERTEX
  8
New_shapes
  10
622221.9344344477
  20
7310665.4067036100
  30
1638.2028352489
  0
VERTEX
  8
New_shapes
  10
622223.2269960367
  20
7310665.6424147766
  30
1638.6432391293
  0
VERTEX
  8
New_shapes
  10
622224.2324839174
  20
7310666.1588721126
  30
1639.0680304953
  0
VERTEX
  8
New_shapes
  10
622225.7164335189
  20
7310666.2768494952
  30
1639.4684792333
  0
VERTEX
  8
New_shapes
  10
622227.4257866483
  20
7310666.2589054955
  30
1639.5903193033
  0
VERTEX
  8
New_shapes
  10
622228.7176295334
  20
7310666.6571778236
  30
1639.6536915187
  0
VERTEX
  8
New_shapes
  10
622229.9511916238
  20
7310667.3037942024
  30
1639.6548078829
  0
VERTEX
  8
New_shapes
  10
622231.5445172358
  20
7310668.0520337056
  30
1639.6343811805
  0
VERTEX
  8
New_shapes
  10
622233.3520970795
  20
7310668.9839511802
  30
1639.7626826458
  0
VERTEX
  8
New_shapes
  10
622234.5525406223
  20
7310669.3960223235
  30
1639.6070160783
  0
VERTEX
  8
New_shapes
  10
622235.9649517490
  20
7310670.2530713985
  30
1639.5822195536
  0
VERTEX
  8
New_shapes
  10
622236.3289036503
  20
7310670.3191472944
  30
1639.4878644630
  0
VERTEX
  8
New_shapes
  10
622237.3927248876
  20
7310670.5465626772
  30
1638.9113990030
  0
VERTEX
  8
New_shapes
  10
622237.5222755179
  20
7310670.7662131991
  30
1638.9587180617
  0
VERTEX
  8
New_shapes
  10
622237.9679152875
  20
7310671.3301975029
  30
1638.8846572913
  0
VERTEX
  8
New_shapes
  10
622239.6089241025
  20
7310672.0905137062
  30
1638.5851887074
  0
VERTEX
  8
New_shapes
  10
622241.1700516073
  20
7310673.4129423480
  30
1638.4738354409
  0
VERTEX
  8
New_shapes
  10
622242.4989199316
  20
7310673.9128602576
  30
1638.4003036273
  0
VERTEX
  8
New_shapes
  10
622243.5345231496
  20
7310673.7639951352
  30
1638.1982131671
  0
VERTEX
  8
New_shapes
  10
622244.3102634887
  20
7310675.6056515146
  30
1637.8291398338
  0
VERTEX
  8
New_shapes
  10
622244.6310769761
  20
7310675.6403496098
  30
1637.7394153732
  0
SEQEND
  8
New_shapes
  0
POLYLINE
  8
New_shapes
  66
1
  70
8
  0
VERTEX
  8
New_shapes
  10
622160.0546996868
  20
7310669.3270976599
  30
1631.9010323602
  0
VERTEX
  8
New_shapes
  10
622160.2333516448
  20
7310669.5213244092
  30
1632.0878391693
  0
VERTEX
  8
New_shapes
  10
622160.6366225804
  20
7310669.9059966262
  30
1632.3423504612
  0
VERTEX
  8
New_shapes
  10
622161.8874499952
  20
7310668.9989560172
  30
1632.5995438385
  0
VERTEX
  8
New_shapes
  10
622162.5439632095
  20
7310668.7420328259
  30
1632.7306445514
  0
VERTEX
  8
New_shapes
  10
622162.7839971590
  20
7310669.2030679062
  30
1632.9886357321
  0
VERTEX
  8
New_shapes
  10
622163.8644140641
  20
7310668.7256496083
  30
1633.3380498727
  0
VERTEX
  8
New_shapes
  10
622165.4835033199
  20
7310667.3885672726
  30
1634.0545480599
  0
VERTEX
  8
New_shapes
  10
622165.8830702591
  20
7310668.0364112407
  30
1634.3270601501
  0
VERTEX
  8
New_shapes
  10
622166.7450854969
  20
7310667.8959504338
  30
1634.5748615157
  0
VERTEX
  8
New_shapes
  10
622167.2498399727
  20
7310668.1827052142
  30
1634.8133429306
  0
VERTEX
  8
New_shapes
  10
622168.2347088958
  20
7310668.1507321410
  30
1635.2119197961
  0
VERTEX
  8
New_shapes
  10
622168.8198921434
  20
7310668.1720009912
  30
1635.3925295881
  0
VERTEX
  8
New_shapes
  10
622169.9559317643
  20
7310667.8422936089
  30
1635.8270179046
  0
VERTEX
  8
New_shapes
  10
622171.4572473320
  20
7310667.2464778461
  30
1636.2341062722
  0
VERTEX
  8
New_shapes
  10
622172.3585721282
  20
7310667.4396468606
  30
1636.6492904279
  0
VERTEX
  8
New_shapes
  10
622173.3450208362
  20
7310667.1374471392
  30
1636.9362841928
  0
VERTEX
  8
New_shapes
  10
622174.2657406194
  20
7310666.8520255070
  30
1637.2118345610
  0
VERTEX
  8
New_shapes
  10
622173.8286714657
  20
7310668.1767651122
  30
1637.6463696959
  0
VERTEX
  8
New_shapes
  10
622174.6739674659
  20
7310667.8584441952
  30
1637.9176433796
  0
VERTEX
  8
New_shapes
  10
622176.2508798335
  20
7310667.2985860938
  30
1638.4301330269
  0
VERTEX
  8
New_shapes
  10
622176.6371165388
  20
7310667.5584694911
  30
1638.4166303242
  0
VERTEX
  8
New_shapes
  10
622177.7102653555
  20
7310667.9398229867
  30
1638.8015519571
  0
VERTEX
  8
New_shapes
  10
622178.1406694055
  20
7310667.9330001175
  30
1638.9639315883
  0
VERTEX
  8
New_shapes
  10
622179.4287557134
  20
7310668.4107231973
  30
1639.5049415401
  0
VERTEX
  8
New_shapes
  10
622180.5832668014
  20
7310668.2688578926
  30
1639.7640767005
  0
VERTEX
  8
New_shapes
  10
622181.3560356983
  20
7310668.7407893455
  30
1640.2125079110
  0
VERTEX
  8
New_shapes
  10
622181.8900750349
  20
7310668.5570809934
  30
1640.4169529164
  0
VERTEX
  8
New_shapes
  10
622182.4519491748
  20
7310668.5974011114
  30
1640.4631424610
  0
VERTEX
  8
New_shapes
  10
622183.2627757498
  20
7310668.6311040092
  30
1640.8822570253
  0
VERTEX
  8
New_shapes
  10
622184.1025385433
  20
7310668.4348452240
  30
1641.0007054115
  0
VERTEX
  8
New_shapes
  10
622185.0789526760
  20
7310668.8381031323
  30
1641.4372991724
  0
VERTEX
  8
New_shapes
  10
622185.8581345024
  20
7310668.9451425020
  30
1641.5662287388
  0
VERTEX
  8
New_shapes
  10
622186.2292541787
  20
7310669.2260591313
  30
1641.7763903719
  0
VERTEX
  8
New_shapes
  10
622187.0570132791
  20
7310668.9931260636
  30
1641.8470798925
  0
VERTEX
  8
New_shapes
  10
622188.0954003646
  20
7310669.0741162663
  30
1642.2444892732
  0
VERTEX
  8
New_shapes
  10
622188.9022293940
  20
7310668.8712240960
  30
1642.2882132270
  0
VERTEX
  8
New_shapes
  10
622189.1973890711
  20
7310668.9717052262
  30
1642.3903988436
  0
VERTEX
  8
New_shapes
  10
622189.3976096447
  20
7310669.4453444425
  30
1642.5213009524
  0
VERTEX
  8
New_shapes
  10
622190.2617916290
  20
7310669.6776030362
  30
1642.7449371213
  0
VERTEX
  8
New_shapes
  10
622190.5969625150
  20
7310670.2885874752
  30
1642.7724694211
  0
SEQEND
  8
New_shapes
  0
POLYLINE
  8
New_shapes
  66
1
  70
8
  0
VERTEX
  8
New_shapes
  10
622196.9217697955
  20
7310668.1319564171
  30
1641.5804185602
  0
VERTEX
  8
New_shapes
  10
622197.6056105631
  20
7310668.3053114228
  30
1641.6861143946
  0
VERTEX
  8
New_shapes
  10
622198.1776464908
  20
7310668.6207692903
  30
1641.8993846411
  0
VERTEX
  8
New_shapes
  10
622198.8533994075
  20
7310669.0456555914
  30
1642.1374412299
  0
VERTEX
  8
New_shapes
  10
622199.5430544374
  20
7310669.1128590526
  30
1642.1901045734
  0
VERTEX
  8
New_shapes
  10
622200.2655710644
  20
7310669.4140226031
  30
1642.1998741873
  0
VERTEX
  8
New_shapes
  10
622200.8286711128
  20
7310669.7228144193
  30
1642.3025461022
  0
VERTEX
  8
New_shapes
  10
622201.3357463464
  20
7310669.6801761743
  30
1642.4685728950
  0
VERTEX
  8
New_shapes
  10
622202.2047498883
  20
7310670.1576237418
  30
1642.5666655248
  0
VERTEX
  8
New_shapes
  10
622202.5751583475
  20
7310670.3718817206
  30
1642.6690007561
  0
VERTEX
  8
New_shapes
  10
622203.1267716568
  20
7310670.7828812925
  30
1642.8590700414
  0
VERTEX
  8
New_shapes
  10
622203.5961231772
  20
7310671.0199090410
  30
1642.8567721701
  0
VERTEX
  8
New_shapes
  10
622204.2537540341
  20
7310671.3523660041
  30
1642.8898555897
  0
VERTEX
  8
New_shapes
  10
622204.9797159798
  20
7310671.5399311883
  30
1642.9209961600
  0
VERTEX
  8
New_shapes
  10
622205.7734912393
  20
7310671.8409812255
  30
1643.1175207379
  0
VERTEX
  8
New_shapes
  10
622206.4531246647
  20
7310672.1907587331
  30
1643.1126670751
  0
VERTEX
  8
New_shapes
  10
622207.0759108319
  20
7310672.3277178425
  30
1643.0715008422
  0
VERTEX
  8
New_shapes
  10
622207.6397542110
  20
7310672.7060770895
  30
1643.3393257345
  0
VERTEX
  8
New_shapes
  10
622208.3934856355
  20
7310672.8086067541
  30
1643.3886299442
  0
VERTEX
  8
New_shapes
  10
622209.2529070034
  20
7310673.2750396449
  30
1643.6294171867
  0
VERTEX
  8
New_shapes
  10
622209.8374178911
  20
7310673.5095481230
  30
1643.8531825381
  0
VERTEX
  8
New_shapes
  10
622210.4646654486
  20
7310673.7035124302
  30
1643.8726077870
  0
VERTEX
  8
New_shapes
  10
622211.0449678991
  20
7310673.9398470186
  30
1644.0948266476
  0
VERTEX
  8
New_shapes
  10
622211.9822627647
  20
7310674.1957081780
  30
1644.2370954799
  0
VERTEX
  8
New_shapes
  10
622212.6549798178
  20
7310674.5888639148
  30
1644.7584378590
  0
VERTEX
  8
New_shapes
  10
622213.6423137313
  20
7310674.8682267321
  30
1644.7918475137
  0
VERTEX
  8
New_shapes
  10
622214.5791187533
  20
7310675.1097733341
  30
1645.0413458063
  0
VERTEX
  8
New_shapes
  10
622215.5510889201
  20
7310675.1446309928
  30
1645.1184297722
  0
VERTEX
  8
New_shapes
  10
622216.6020192924
  20
7310675.1214432986
  30
1645.6721166230
  0
SEQEND
  8
New_shapes
  0
POLYLINE
  8
Unknown_Line_Type
  66
1
  70
8
  0
VERTEX
  8
Unknown_Line_Type
  10
622236.3692013462
  20
7310653.2420113720
  30
1626.6559696946
  0
VERTEX
  8
Unknown_Line_Type
  10
622235.4820600234
  20
7310653.1223117318
  30
1626.6946803574
  0
VERTEX
  8
Unknown_Line_Type
  10
622234.5297714494
  20
7310653.0464672223
  30
1626.5175074741
  0
VERTEX
  8
Unknown_Line_Type
  10
622233.8656456093
  20
7310653.1060694382
  30
1626.3606208126
  0
VERTEX
  8
Unknown_Line_Type
  10
622232.6014785684
  20
7310652.8893068675
  30
1626.0446564224
  0
VERTEX
  8
Unknown_Line_Type
  10
622231.3878038679
  20
7310652.8581671771
  30
1625.8341648482
  0
VERTEX
  8
Unknown_Line_Type
  10
622230.3496977398
  20
7310652.6527621038
  30
1625.4673051293
  0
VERTEX
  8
Unknown_Line_Type
  10
622229.0587662432
  20
7310652.4148136042
  30
1625.0655749281
  0
VERTEX
  8
Unknown_Line_Type
  10
622227.7086228991
  20
7310652.3565425118
  30
1624.7628087102
  0
VERTEX
  8
Unknown_Line_Type
  10
622226.4840611382
  20
7310652.0340633634
  30
1624.4960449834
  0
VERTEX
  8
Unknown_Line_Type
  10
622224.2540211190
  20
7310650.8583591748
  30
1624.1002546178
  0
VERTEX
  8
Unknown_Line_Type
  10
622223.9501051048
  20
7310650.7952069733
  30
1624.0543702711
  0
VERTEX
  8
Unknown_Line_Type
  10
622222.7858954982
  20
7310650.3776211198
  30
1624.0255633846
  0
VERTEX
  8
Unknown_Line_Type
  10
622221.0888984724
  20
7310649.5362935765
  30
1623.7581998344
  0
VERTEX
  8
Unknown_Line_Type
  10
622218.1264973083
  20
7310648.8348054523
  30
1623.2404230025
  0
VERTEX
  8
Unknown_Line_Type
  10
622214.2138844966
  20
7310647.9041150026
  30
1622.4574895838
  0
VERTEX
  8
Unknown_Line_Type
  10
622211.5904481052
  20
7310647.3367397282
  30
1621.8702394195
  0
VERTEX
  8
Unknown_Line_Type
  10
622209.7022986503
  20
7310646.0959889060
  30
1621.5128896889
  0
VERTEX
  8
Unknown_Line_Type
  10
622207.9089114589
  20
7310645.1076240344
  30
1621.4236059419
  0
VERTEX
  8
Unknown_Line_Type
  10
622204.9500694301
  20
7310644.5741003165
  30
1621.1277777652
  0
VERTEX
  8
Unknown_Line_Type
  10
622203.1223538416
  20
7310643.9227765836
  30
1620.8201262771
  0
VERTEX
  8
Unknown_Line_Type
  10
622201.0173968191
  20
7310643.1196681801
  30
1620.7537272099
  0
SEQEND
  8
Unknown_Line_Type
  0
POLYLINE
  8
Unknown_Line_Type
  66
1
  70
8
  0
VERTEX
  8
Unknown_Line_Type
  10
622250.0645534607
  20
7310657.2458207430
  30
1622.5809598233
  0
VERTEX
  8
Unknown_Line_Type
  10
622250.3105928892
  20
7310657.4573618500
  30
1622.5701712781
  0
VERTEX
  8
Unknown_Line_Type
  10
622250.7483317643
  20
7310657.6146826204
  30
1622.6217278345
  0
VERTEX
  8
Unknown_Line_Type
  10
622251.0145725170
  20
7310657.7951088557
  30
1622.5162690496
  0
VERTEX
  8
Unknown_Line_Type
  10
622251.7707451484
  20
7310657.8509309944
  30
1622.5662906131
  0
VERTEX
  8
Unknown_Line_Type
  10
622252.0723281128
  20
7310658.1056674123
  30
1622.5545356635
  0
VERTEX
  8
Unknown_Line_Type
  10
622252.6614601929
  20
7310658.5209421515
  30
1622.5582457238
  0
VERTEX
  8
Unknown_Line_Type
  10
622253.1211697875
  20
7310658.8658717591
  30
1622.5543650083
  0
VERTEX
  8
Unknown_Line_Type
  10
622253.7866901873
  20
7310659.2441827506
  30
1622.5879772819
  0
VERTEX
  8
Unknown_Line_Type
  10
622254.5568140192
  20
7310659.7711170483
  30
1622.5616668953
  0
VERTEX
  8
Unknown_Line_Type
  10
622255.3597912050
  20
7310660.1413770989
  30
1622.5577522836
  0
VERTEX
  8
Unknown_Line_Type
  10
622256.3600178084
  20
7310660.5520773483
  30
1622.6596105560
  0
VERTEX
  8
Unknown_Line_Type
  10
622257.0142578104
  20
7310660.8748869170
  30
1622.7086270165
  0
VERTEX
  8
Unknown_Line_Type
  10
622257.9594319728
  20
7310661.4486546610
  30
1622.6364168512
  0
VERTEX
  8
Unknown_Line_Type
  10
622258.6121285283
  20
7310662.0126629137
  30
1622.6592401454
  0
VERTEX
  8
Unknown_Line_Type
  10
622259.3973256644
  20
7310662.6800772436
  30
1622.5704069751
  0
SEQEND
  8
Unknown_Line_Type
  0
POLYLINE
  8
Unknown_Line_Type
  66
1
  70
8
  0
VERTEX
  8
Unknown_Line_Type
  10
622227.6049611744
  20
7310646.3128980407
  30
1618.0710391831
  0
VERTEX
  8
Unknown_Line_Type
  10
622228.2179173714
  20
7310646.5236720610
  30
1618.1508713567
  0
VERTEX
  8
Unknown_Line_Type
  10
622228.8568640131
  20
7310646.4857084919
  30
1618.4398877913
  0
VERTEX
  8
Unknown_Line_Type
  10
622229.2656002117
  20
7310646.9027474299
  30
1618.3408002362
  0
VERTEX
  8
Unknown_Line_Type
  10
622229.8178904578
  20
7310647.1214390025
  30
1618.4030185816
  0
VERTEX
  8
Unknown_Line_Type
  10
622230.7293722580
  20
7310647.0183675401
  30
1618.5716497742
  0
VERTEX
  8
Unknown_Line_Type
  10
622231.3302963969
  20
7310647.3846746432
  30
1618.6261668818
  0
VERTEX
  8
Unknown_Line_Type
  10
622231.8345698239
  20
7310647.8764855964
  30
1618.6446509650
  0
VERTEX
  8
Unknown_Line_Type
  10
622232.7595630951
  20
7310648.2983429506
  30
1618.7005248814
  0
VERTEX
  8
Unknown_Line_Type
  10
622233.5987221903
  20
7310648.3522925917
  30
1618.7107527427
  0
VERTEX
  8
Unknown_Line_Type
  10
622234.0742097577
  20
7310648.8832024410
  30
1618.9749509827
  0
VERTEX
  8
Unknown_Line_Type
  10
622235.0595887486
  20
7310649.4902086649
  30
1619.2199110119
  0
VERTEX
  8
Unknown_Line_Type
  10
622236.2379899162
  20
7310649.3365141274
  30
1619.4407368897
  0
VERTEX
  8
Unknown_Line_Type
  10
622237.7680264599
  20
7310649.1608425062
  30
1619.8145354409
  0
VERTEX
  8
Unknown_Line_Type
  10
622237.5892242771
  20
7310650.2593751159
  30
1619.6680356617
  0
VERTEX
  8
Unknown_Line_Type
  10
622238.8745084560
  20
7310650.8994729929
  30
1619.6798465331
  0
VERTEX
  8
Unknown_Line_Type
  10
622239.8817632839
  20
7310651.4273583051
  30
1619.4571044290
  0
VERTEX
  8
Unknown_Line_Type
  10
622240.7889814456
  20
7310651.2744359383
  30
1619.3229738809
  0
VERTEX
  8
Unknown_Line_Type
  10
622241.6503341313
  20
7310651.6246943641
  30
1619.3302648627
  0
VERTEX
  8
Unknown_Line_Type
  10
622242.7622983473
  20
7310652.0826790221
  30
1619.3635044706
  0
VERTEX
  8
Unknown_Line_Type
  10
622243.8440978767
  20
7310652.4915834405
  30
1619.5507189649
  0
VERTEX
  8
Unknown_Line_Type
  10
622245.4056826560
  20
7310652.8408093089
  30
1619.8185055268
  0
VERTEX
  8
Unknown_Line_Type
  10
622246.0881646948
  20
7310653.0236306731
  30
1619.8392441575
  0
VERTEX
  8
Unknown_Line_Type
  10
622246.6324057860
  20
7310653.4423427628
  30
1619.9185604955
  0
VERTEX
  8
Unknown_Line_Type
  10
622247.6867909457
  20
7310653.8473476339
  30
1620.0422821181
  0
VERTEX
  8
Unknown_Line_Type
  10
622248.3234733481
  20
7310654.3227322306
  30
1620.0391802677
  0
VERTEX
  8
Unknown_Line_Type
  10
622249.1660554397
  20
7310654.6519454308
  30
1620.0790417279
  0
VERTEX
  8
Unknown_Line_Type
  10
622249.9196565598
  20
7310654.9526219526
  30
1620.1637403073
  0
VERTEX
  8
Unknown_Line_Type
  10
622251.0231503429
  20
7310655.4871598892
  30
1620.2274922409
  0
VERTEX
  8
Unknown_Line_Type
  10
622251.4014975525
  20
7310655.6948055569
  30
1620.2509057619
  0
VERTEX
  8
Unknown_Line_Type
  10
622252.4208233432
  20
7310655.8511569267
  30
1620.4499531117
  0
VERTEX
  8
Unknown_Line_Type
  10
622253.2500350068
  20
7310656.5065740440
  30
1620.3203745836
  0
VERTEX
  8
Unknown_Line_Type
  10
622253.4500884495
  20
7310656.9440399436
  30
1620.6470287341
  0
VERTEX
  8
Unknown_Line_Type
  10
622254.1759492358
  20
7310657.2420573458
  30
1620.5271982604
  0
VERTEX
  8
Unknown_Line_Type
  10
622254.5422621130
  20
7310657.5037614275
  30
1620.5858588709
  0
VERTEX
  8
Unknown_Line_Type
  10
622255.0864341921
  20
7310658.0765328109
  30
1620.6401210513
  0
VERTEX
  8
Unknown_Line_Type
  10
622255.8194263295
  20
7310658.4024565499
  30
1620.5129705033
  0
VERTEX
  8
Unknown_Line_Type
  10
622256.7662628661
  20
7310659.0505163539
  30
1620.5843588616
  0
VERTEX
  8
Unknown_Line_Type
  10
622257.5336820765
  20
7310659.3282615487
  30
1620.5108377775
  0
VERTEX
  8
Unknown_Line_Type
  10
622258.1306689171
  20
7310659.5882878760
  30
1620.3454720413
  0
VERTEX
  8
Unknown_Line_Type
  10
622259.0968389378
  20
7310660.0112876212
  30
1620.3294624083
  0
VERTEX
  8
Unknown_Line_Type
  10
622259.8425142609
  20
7310660.5349063687
  30
1620.3089637522
  0
VERTEX
  8
Unknown_Line_Type
  10
622260.4010037613
  20
7310661.0742733330
  30
1620.2646533321
  0
VERTEX
  8
Unknown_Line_Type
  10
622260.9550642708
  20
7310661.3827876253
  30
1620.1294278040
  0
VERTEX
  8
Unknown_Line_Type
  10
622261.3357319969
  20
7310661.5987890251
  30
1619.9827002201
  0
VERTEX
  8
Unknown_Line_Type
  10
622261.7522218095
  20
7310662.1534379553
  30
1620.0658356708
  0
SEQEND
  8
Unknown_Line_Type
  0
POLYLINE
  8
Unknown_Line_Type
  66
1
  70
8
  0
VERTEX
  8
Unknown_Line_Type
  10
622175.7747116480
  20
7310671.9072057866
  30
1644.5808901636
  0
VERTEX
  8
Unknown_Line_Type
  10
622177.1683504535
  20
7310672.2260126937
  30
1645.2591063623
  0
VERTEX
  8
Unknown_Line_Type
  10
622179.4897970143
  20
7310671.9935364686
  30
1645.8750954652
  0
VERTEX
  8
Unknown_Line_Type
  10
622180.2080578727
  20
7310672.4242871478
  30
1646.1159642491
  0
VERTEX
  8
Unknown_Line_Type
  10
622181.8024442897
  20
7310673.3066808898
  30
1647.0480714440
  0
VERTEX
  8
Unknown_Line_Type
  10
622184.4284862478
  20
7310673.4893770479
  30
1647.3157140139
  0
VERTEX
  8
Unknown_Line_Type
  10
622186.8089215048
  20
7310673.6660502758
  30
1647.7530567795
  0
VERTEX
  8
Unknown_Line_Type
  10
622188.5898951093
  20
7310673.1986932894
  30
1648.0482043277
  0
VERTEX
  8
Unknown_Line_Type
  10
622188.9515747262
  20
7310673.7107728049
  30
1648.2828137504
  0
VERTEX
  8
Unknown_Line_Type
  10
622189.9054858396
  20
7310674.7484791484
  30
1649.0591019835
  0
VERTEX
  8
Unknown_Line_Type
  10
622191.6936488062
  20
7310676.0043786373
  30
1649.7784665295
  0
VERTEX
  8
Unknown_Line_Type
  10
622192.4999120687
  20
7310676.4505797494
  30
1650.0635148939
  0
VERTEX
  8
Unknown_Line_Type
  10
622193.7600286190
  20
7310677.0008898759
  30
1650.3704525598
  0
VERTEX
  8
Unknown_Line_Type
  10
622195.1036199513
  20
7310677.5869498001
  30
1650.5349170938
  0
VERTEX
  8
Unknown_Line_Type
  10
622196.0473548221
  20
7310678.0115780439
  30
1650.5450623560
  0
VERTEX
  8
Unknown_Line_Type
  10
622196.8996450963
  20
7310678.2252615336
  30
1650.5547077076
  0
VERTEX
  8
Unknown_Line_Type
  10
622198.0344542529
  20
7310678.4714788925
  30
1650.8468822844
  0
VERTEX
  8
Unknown_Line_Type
  10
622199.5817958951
  20
7310678.3537735911
  30
1650.8522103411
  0
VERTEX
  8
Unknown_Line_Type
  10
622200.8682791640
  20
7310678.0248546470
  30
1651.3337478590
  0
VERTEX
  8
Unknown_Line_Type
  10
622201.4850946746
  20
7310678.4670363292
  30
1651.8654082850
  0
VERTEX
  8
Unknown_Line_Type
  10
622202.1779184917
  20
7310678.4907638319
  30
1651.8902945396
  0
VERTEX
  8
Unknown_Line_Type
  10
622202.7218734233
  20
7310678.7060607793
  30
1652.1611953509
  0
VERTEX
  8
Unknown_Line_Type
  10
622204.0972144686
  20
7310678.3568493035
  30
1652.1855693233
  0
VERTEX
  8
Unknown_Line_Type
  10
622205.3158306459
  20
7310678.2521075690
  30
1652.6454832942
  0
VERTEX
  8
Unknown_Line_Type
  10
622206.2867516509
  20
7310678.4765612576
  30
1652.8606773569
  0
VERTEX
  8
Unknown_Line_Type
  10
622207.3014000091
  20
7310678.5505444519
  30
1653.3006161793
  0
VERTEX
  8
Unknown_Line_Type
  10
622208.8959418491
  20
7310679.3179407902
  30
1654.6458002512
  0
VERTEX
  8
Unknown_Line_Type
  10
622209.8168160825
  20
7310679.8758524209
  30
1654.5863786240
  0
VERTEX
  8
Unknown_Line_Type
  10
622210.6142813389
  20
7310680.5578970416
  30
1654.5904835090
  0
VERTEX
  8
Unknown_Line_Type
  10
622211.0219715610
  20
7310680.9973416524
  30
1654.7146244135
  0
VERTEX
  8
Unknown_Line_Type
  10
622212.5796057977
  20
7310681.4134959402
  30
1654.4944035205
  0
VERTEX
  8
Unknown_Line_Type
  10
622213.0928084025
  20
7310681.8614986110
  30
1654.6354221869
  0
VERTEX
  8
Unknown_Line_Type
  10
622213.9964010977
  20
7310682.0159244798
  30
1654.5960623874
  0
VERTEX
  8
Unknown_Line_Type
  10
622214.1614916651
  20
7310682.3865655540
  30
1654.8627311567
  0
VERTEX
  8
Unknown_Line_Type
  10
622215.2035223703
  20
7310682.8063026499
  30
1654.8941819337
  0
VERTEX
  8
Unknown_Line_Type
  10
622216.4419626748
  20
7310683.4871673640
  30
1654.8854817885
  0
VERTEX
  8
Unknown_Line_Type
  10
622217.2325294602
  20
7310683.6351290606
  30
1654.9570586468
  0
VERTEX
  8
Unknown_Line_Type
  10
622217.7449855442
  20
7310683.9553636303
  30
1655.0731447878
  0
VERTEX
  8
Unknown_Line_Type
  10
622217.8498332872
  20
7310684.3262593318
  30
1655.4071965104
  0
VERTEX
  8
Unknown_Line_Type
  10
622218.6955755345
  20
7310684.6225320175
  30
1655.5673554678
  0
VERTEX
  8
Unknown_Line_Type
  10
622219.7693075243
  20
7310685.1943745827
  30
1655.8097414318
  0
VERTEX
  8
Unknown_Line_Type
  10
622221.2914051502
  20
7310685.4670400200
  30
1655.9494587651
  0
VERTEX
  8
Unknown_Line_Type
  10
622221.7771759433
  20
7310686.2026377972
  30
1656.1250802301
  0
VERTEX
  8
Unknown_Line_Type
  10
622222.5785547678
  20
7310686.4464190332
  30
1655.8287094277
  0
VERTEX
  8
Unknown_Line_Type
  10
622223.5996453371
  20
7310686.7054027803
  30
1655.5823487610
  0
SEQEND
  8
Unknown_Line_Type
  0
POLYLINE
  8
Unknown_Line_Type
  66
1
  70
8
  0
VERTEX
  8
Unknown_Line_Type
  10
622165.9581118404
  20
7310671.6530865934
  30
1642.9461344553
  0
VERTEX
  8
Unknown_Line_Type
  10
622166.6740371321
  20
7310671.6282715267
  30
1643.1984257763
  0
VERTEX
  8
Unknown_Line_Type
  10
622166.9269462280
  20
7310671.8495475184
  30
1643.0834561205
  0
VERTEX
  8
Unknown_Line_Type
  10
622168.3855017386
  20
7310672.1865147827
  30
1643.8924999094
  0
VERTEX
  8
Unknown_Line_Type
  10
622168.0714015795
  20
7310672.8432211597
  30
1644.5048537201
  0
VERTEX
  8
Unknown_Line_Type
  10
622168.9439311635
  20
7310673.1556418557
  30
1645.0563140755
  0
VERTEX
  8
Unknown_Line_Type
  10
622170.8382434675
  20
7310672.8714885963
  30
1645.2111132890
  0
VERTEX
  8
Unknown_Line_Type
  10
622171.9143424560
  20
7310672.8184713349
  30
1645.6421509487
  0
VERTEX
  8
Unknown_Line_Type
  10
622172.8380740017
  20
7310673.0846219026
  30
1646.3176054265
  0
VERTEX
  8
Unknown_Line_Type
  10
622174.0012938380
  20
7310673.0958407316
  30
1646.6623824877
  0
VERTEX
  8
Unknown_Line_Type
  10
622174.7829468510
  20
7310673.3088717535
  30
1647.2106269756
  0
VERTEX
  8
Unknown_Line_Type
  10
622175.5216068542
  20
7310673.4721640497
  30
1647.2518597379
  0
VERTEX
  8
Unknown_Line_Type
  10
622176.6271477395
  20
7310673.9310877062
  30
1648.0601519884
  0
VERTEX
  8
Unknown_Line_Type
  10
622180.0255181415
  20
7310673.7335529160
  30
1648.6325367919
  0
VERTEX
  8
Unknown_Line_Type
  10
622180.4108510984
  20
7310674.4140423806
  30
1649.3012604481
  0
VERTEX
  8
Unknown_Line_Type
  10
622181.0651717720
  20
7310674.8252160605
  30
1649.7472584704
  0
VERTEX
  8
Unknown_Line_Type
  10
622182.1319637676
  20
7310675.2497303300
  30
1650.4168149116
  0
VERTEX
  8
Unknown_Line_Type
  10
622183.1065809493
  20
7310675.5058782315
  30
1651.1503233097
  0
VERTEX
  8
Unknown_Line_Type
  10
622184.3909132822
  20
7310675.4090867657
  30
1651.8172600053
  0
VERTEX
  8
Unknown_Line_Type
  10
622184.6782320475
  20
7310676.1529355887
  30
1652.4394635617
  0
VERTEX
  8
Unknown_Line_Type
  10
622185.6018224841
  20
7310676.3444910357
  30
1652.6250540340
  0
VERTEX
  8
Unknown_Line_Type
  10
622186.7178141106
  20
7310676.6180216819
  30
1652.8598623381
  0
VERTEX
  8
Unknown_Line_Type
  10
622187.7294384353
  20
7310676.5691282786
  30
1652.9688981077
  0
VERTEX
  8
Unknown_Line_Type
  10
622188.8735570730
  20
7310676.8795412416
  30
1653.3870078024
  0
VERTEX
  8
Unknown_Line_Type
  10
622189.4890181202
  20
7310677.3513943199
  30
1653.6691472613
  0
VERTEX
  8
Unknown_Line_Type
  10
622190.7240417646
  20
7310677.7878520675
  30
1654.0725919784
  0
VERTEX
  8
Unknown_Line_Type
  10
622191.5427245485
  20
7310677.7993142661
  30
1654.4095832001
  0
VERTEX
  8
Unknown_Line_Type
  10
622191.9798559927
  20
7310678.0900760889
  30
1654.8148138562
  0
VERTEX
  8
Unknown_Line_Type
  10
622192.5143319180
  20
7310678.7733241851
  30
1655.3477730239
  0
VERTEX
  8
Unknown_Line_Type
  10
622193.2904836064
  20
7310679.1757534444
  30
1655.5072162680
  0
VERTEX
  8
Unknown_Line_Type
  10
622194.4985559136
  20
7310679.4514540043
  30
1655.4763875037
  0
VERTEX
  8
Unknown_Line_Type
  10
622194.6228427688
  20
7310679.7327675615
  30
1656.1234256440
  0
VERTEX
  8
Unknown_Line_Type
  10
622194.9480521046
  20
7310679.9001447819
  30
1656.2348966835
  0
VERTEX
  8
Unknown_Line_Type
  10
622195.5346094570
  20
7310679.8497068202
  30
1656.6196724324
  0
VERTEX
  8
Unknown_Line_Type
  10
622195.8923694806
  20
7310680.2927232403
  30
1656.8075041709
  0
VERTEX
  8
Unknown_Line_Type
  10
622196.9959402811
  20
7310680.7015200537
  30
1656.8231699169
  0
VERTEX
  8
Unknown_Line_Type
  10
622197.6514674592
  20
7310680.8905704711
  30
1657.0747809745
  0
VERTEX
  8
Unknown_Line_Type
  10
622197.9406083993
  20
7310681.2149935067
  30
1657.4898536898
  0
VERTEX
  8
Unknown_Line_Type
  10
622198.3507147963
  20
7310681.3445065878
  30
1657.5909124382
  0
VERTEX
  8
Unknown_Line_Type
  10
622198.8066227958
  20
7310681.2684537880
  30
1657.6067292291
  0
VERTEX
  8
Unknown_Line_Type
  10
622199.1272452882
  20
7310681.3789373692
  30
1657.6119628226
  0
VERTEX
  8
Unknown_Line_Type
  10
622199.5669038220
  20
7310681.3573117927
  30
1657.7811445987
  0
VERTEX
  8
Unknown_Line_Type
  10
622200.3326300435
  20
7310681.4940488571
  30
1657.8566898129
  0
VERTEX
  8
Unknown_Line_Type
  10
622200.8843689474
  20
7310681.7508124551
  30
1658.1789191128
  0
VERTEX
  8
Unknown_Line_Type
  10
622200.9375801341
  20
7310682.1307419222
  30
1658.5002328591
  0
VERTEX
  8
Unknown_Line_Type
  10
622201.0962116295
  20
7310682.4056405667
  30
1658.7270701731
  0
VERTEX
  8
Unknown_Line_Type
  10
622201.5153048849
  20
7310682.6069520582
  30
1658.7024460582
  0
VERTEX
  8
Unknown_Line_Type
  10
622202.4949641430
  20
7310682.6892468808
  30
1658.7728404754
  0
VERTEX
  8
Unknown_Line_Type
  10
622203.5486807380
  20
7310683.3934897091
  30
1659.1054670861
  0
VERTEX
  8
Unknown_Line_Type
  10
622204.8319158318
  20
7310683.3209551331
  30
1659.0049881294
  0
VERTEX
  8
Unknown_Line_Type
  10
622205.4132407273
  20
7310683.5381124709
  30
1659.2321026262
  0
VERTEX
  8
Unknown_Line_Type
  10
622206.1983717340
  20
7310683.7591647860
  30
1659.4698796806
  0
VERTEX
  8
Unknown_Line_Type
  10
622207.1824576259
  20
7310683.9717648961
  30
1659.4988825191
  0
VERTEX
  8
Unknown_Line_Type
  10
622207.7936111874
  20
7310683.9863264384
  30
1659.5687359990
  0
VERTEX
  8
Unknown_Line_Type
  10
622208.6540122819
  20
7310684.4222486094
  30
1659.6714880319
  0
VERTEX
  8
Unknown_Line_Type
  10
622209.2007284851
  20
7310684.5076796375
  30
1659.9109965011
  0
VERTEX
  8
Unknown_Line_Type
  10
622209.7699568025
  20
7310685.0691790245
  30
1659.8710267954
  0
VERTEX
  8
Unknown_Line_Type
  10
622209.8068757349
  20
7310686.0395538080
  30
1660.1155713467
  0
SEQEND
  8
Unknown_Line_Type
  0
ENDSEC
  0
EOF
